<?xml version="1.0" encoding="UTF-8"?>
<svg version="1.1" xmlns="http://www.w3.org/2000/svg" width="1024" height="1536">
<path d="M0 0 C337.92 0 675.84 0 1024 0 C1024 506.88 1024 1013.76 1024 1536 C686.08 1536 348.16 1536 0 1536 C0 1029.12 0 522.24 0 0 Z " fill="#020101" transform="translate(0,0)"/>
<path d="M0 0 C0.99 0 1.98 0 3 0 C5.09495103 22.69528013 6.87514147 45.39742211 8.40722656 68.13726807 C8.82147123 74.27391855 9.24218762 80.41013143 9.66187668 86.54641151 C9.81577262 88.79931795 9.96901777 91.05226805 10.1222229 93.30522156 C10.72101124 102.08663143 11.35940931 110.86416141 12.02734375 119.640625 C12.77457112 129.52234283 13.41339058 139.40848265 14 149.30078125 C14.04128965 149.99649168 14.08257931 150.69220211 14.12512016 151.40899467 C14.50446054 157.8141559 14.87881622 164.21960537 15.25 170.62524414 C16.22628624 187.44479938 17.31940314 204.23314104 19 221 C19.44333176 220.61339706 19.88666351 220.22679413 20.34342957 219.82847595 C33.52879427 208.33297286 33.52879427 208.33297286 39.5 203.5 C45.81539783 198.38041714 51.929057 193.03569324 58.05615234 187.69384766 C61.22042696 184.93653325 64.39111895 182.18663502 67.5625 179.4375 C68.18278076 178.89971924 68.80306152 178.36193848 69.44213867 177.80786133 C73.63860275 174.17231348 77.84612567 170.54993273 82.0625 166.9375 C82.63403809 166.44773682 83.20557617 165.95797363 83.79443359 165.45336914 C86.72644221 162.94240723 89.66196444 160.43566655 92.6015625 157.93359375 C98.03651402 153.30097971 103.42842003 148.64577378 108.6875 143.8125 C112.39634488 140.42234105 116.15243236 137.10736023 120 133.875 C120.886875 133.12992188 121.77375 132.38484375 122.6875 131.6171875 C125 130 125 130 128 130 C127.23816406 130.81082031 126.47632813 131.62164063 125.69140625 132.45703125 C119.94868485 138.60334068 114.41486253 144.8249189 109.14453125 151.38671875 C107.00125044 153.99847623 104.7761967 156.50365302 102.5 159 C99.38541332 162.41739372 96.4081338 165.9052235 93.5 169.5 C90.5918662 173.0947765 87.61458668 176.58260628 84.5 180 C80.63785433 184.2430147 76.99245691 188.62342866 73.3828125 193.08203125 C70.79243959 196.25417643 68.15309272 199.38036377 65.5 202.5 C61.34338977 207.39330674 57.24379731 212.32828488 53.19140625 217.30859375 C51.68419643 219.15969458 50.17081573 221.00578258 48.65234375 222.84765625 C44.29497566 228.13614807 40.05657482 233.47751443 36 239 C36.61061279 238.99057373 37.22122559 238.98114746 37.8503418 238.97143555 C46.19299261 238.90179228 54.4863314 239.33651369 62.8125 239.8125 C63.55056255 239.85455441 64.28862511 239.89660881 65.04905319 239.93993759 C74.4660934 240.47883634 83.88045854 241.04659454 93.29150391 241.68212891 C121.7026091 243.59885889 150.12223995 245.15108372 178.5625 246.5625 C186.8973146 246.97694007 195.23198528 247.39412011 203.56640625 247.81640625 C204.55485157 247.866404 205.54329689 247.91640175 206.5616951 247.96791458 C222.72273299 248.78948085 238.86407117 249.77532054 255 251 C255 251.99 255 252.98 255 254 C234.86353287 255.68838637 214.70937543 256.87399664 194.53543091 258.00228882 C184.95938187 258.53808845 175.38401255 259.08588644 165.80859375 259.6328125 C164.33874433 259.71667363 164.33874433 259.71667363 162.83920097 259.80222893 C141.78991061 261.00378351 120.74354883 262.25169059 99.69866943 263.52804184 C97.09579634 263.68548595 94.4928572 263.84178818 91.88989258 263.99771118 C73.23892071 265.11589685 54.61085279 266.32045313 36 268 C36.751604 268.88453857 37.50320801 269.76907715 38.27758789 270.68041992 C42.72776668 275.91955942 47.16060817 281.16829715 51.5 286.5 C55.24917489 291.10612915 59.07185188 295.643896 62.91845703 300.16845703 C65.77846938 303.5385099 68.59255733 306.94026308 71.375 310.375 C76.55499978 316.73688922 81.95450407 322.90312542 87.34033203 329.09033203 C94.25831377 337.05038692 101.10454888 345.05945376 107.75390625 353.24609375 C111.7936052 358.19911594 115.9007201 363.09626851 120 368 C119.67 368.66 119.34 369.32 119 370 C114.68951114 369.52789884 112.22884403 366.7437789 109.25 363.875 C108.16984902 362.86006139 107.08912047 361.84573711 106.0078125 360.83203125 C105.48735352 360.34041504 104.96689453 359.84879883 104.43066406 359.34228516 C100.34214251 355.50633097 96.05051554 351.894139 91.78515625 348.2578125 C90.58578591 347.23455265 89.38657183 346.21110963 88.1875 345.1875 C87.58139893 344.67026367 86.97529785 344.15302734 86.35083008 343.62011719 C82.60948459 340.4151062 78.9389307 337.14798497 75.3125 333.8125 C71.85984304 330.64169258 68.34469034 327.61964969 64.6875 324.6875 C60.27630335 321.13211325 56.12214299 317.38028826 52 313.5 C47.08762282 308.88053227 42.07500033 304.48735167 36.80859375 300.26953125 C32.9199636 297.12725849 29.12261101 293.88081954 25.32592773 290.62841797 C22.94642612 288.60022 20.60576553 286.73717702 18 285 C17.95464111 286.05582275 17.90928223 287.11164551 17.86254883 288.19946289 C17.37169563 299.01685049 16.70291596 309.81915735 15.94921875 320.62109375 C15.87568743 321.67528094 15.87568743 321.67528094 15.80067062 322.75076485 C15.21468015 331.12595381 14.61147866 339.49985696 14.00097656 347.87329102 C13.82764667 350.25617561 13.65451589 352.63907447 13.48160934 355.02198982 C13.36625458 356.61164865 13.25069719 358.20129279 13.13493729 359.79092216 C12.44482599 369.29507676 11.81914337 378.79841904 11.30622864 388.31382751 C11.04003091 393.21785215 10.74444618 398.11988166 10.44546509 403.02200317 C10.31622162 405.28036385 10.20184991 407.53962981 10.1031189 409.79953003 C9.2533074 429.08838822 9.2533074 429.08838822 3.546875 434.41015625 C0.66796093 436.39869985 -0.47092399 437 -4 437 C-5.52718994 422.99772781 -6.59842143 408.99880123 -7.44670105 394.93995667 C-7.66218092 391.37050351 -7.88259139 387.80138202 -8.10412598 384.2322998 C-8.65286107 375.37615983 -9.19348038 366.5195282 -9.73431396 357.66290283 C-10.19369502 350.14537691 -10.65625975 342.62805928 -11.12284851 335.11097717 C-11.3374684 331.63304387 -11.54757801 328.15485847 -11.75744629 324.67663574 C-12.55105143 311.74802319 -13.5955482 298.87692897 -15 286 C-17.62043126 288.14375299 -20.24040623 290.28805395 -22.859375 292.43359375 C-24.84366695 294.05760581 -26.83363599 295.67358709 -28.828125 297.28515625 C-34.19051056 301.62868855 -39.37315323 306.10554409 -44.47265625 310.75390625 C-47.06962393 313.06187598 -49.73404013 315.25555863 -52.4375 317.4375 C-57.27305917 321.35102458 -61.87987048 325.46503599 -66.4609375 329.671875 C-70.97256119 333.80868687 -75.59985491 337.80610823 -80.25390625 341.78125 C-86.49485293 347.11246754 -92.69346944 352.4727402 -98.7734375 357.98828125 C-101.46167353 360.41712609 -104.19004278 362.79683227 -106.92578125 365.171875 C-110.19953714 368.05721917 -113.40060111 371.02284949 -116.60546875 373.984375 C-118.95584405 375.96283121 -121.32524074 377.49871416 -124 379 C-124 374.87255657 -122.38249504 373.95305417 -119.5625 371 C-116.0388425 367.2507482 -112.66698884 363.4486849 -109.4375 359.4375 C-106.55151207 355.86171531 -103.59555196 352.39598682 -100.5 349 C-97.47717579 345.68010514 -94.57487839 342.30235888 -91.75 338.8125 C-88.14529915 334.36147808 -84.44629733 330.00801395 -80.6875 325.6875 C-80.13642578 325.05400635 -79.58535156 324.4205127 -79.01757812 323.76782227 C-77.89837515 322.48168345 -76.77907163 321.19563212 -75.65966797 319.90966797 C-68.76956831 311.9816951 -61.96399175 303.99912027 -55.34375 295.84375 C-52.15405035 291.97358109 -48.88484179 288.17400859 -45.59960938 284.38476562 C-42.43962996 280.7265322 -39.35878514 277.0096661 -36.30078125 273.265625 C-35.49423096 272.27852539 -34.68768066 271.29142578 -33.85668945 270.27441406 C-33.24398193 269.52385742 -32.63127441 268.77330078 -32 268 C-54.99894686 266.36081041 -78.00080245 264.83807917 -101.0234375 263.5703125 C-102.08298519 263.5119006 -103.14253288 263.45348869 -104.23418808 263.39330673 C-109.70189341 263.09233183 -115.16968653 262.79298135 -120.63751221 262.49420166 C-164.45987986 260.09655462 -208.2410289 257.36364421 -252 254 C-252 253.34 -252 252.68 -252 252 C-239.88341974 250.63441368 -227.80358627 249.57639232 -215.62890625 248.921875 C-213.97831725 248.82942761 -212.32775446 248.73651115 -210.67721558 248.64317322 C-207.14797258 248.44435701 -203.6185968 248.24819996 -200.08908081 248.05429077 C-191.4958427 247.58204437 -182.90332407 247.09697763 -174.31080055 246.61192894 C-172.28723918 246.49773535 -170.26366807 246.3837143 -168.24008751 246.26986122 C-151.66515991 245.33669314 -135.09379211 244.35077322 -118.5234375 243.33984375 C-116.23382207 243.20048641 -113.94420518 243.06115322 -111.65458679 242.92184448 C-101.63049766 242.31142951 -91.60657921 241.69848939 -81.58312988 241.07765102 C-77.42894953 240.8212309 -73.27456356 240.56826609 -69.120121 240.3161335 C-67.19704886 240.19863842 -65.27406783 240.0796401 -63.35119247 239.95896721 C-52.88196838 239.30241025 -42.49464893 238.82175547 -32 239 C-36.79908759 233.09682785 -41.63235701 227.23140542 -46.5625 221.4375 C-49.74915022 217.69146185 -52.88790973 213.92193997 -55.9375 210.0625 C-59.6702283 205.35069542 -63.57393917 200.80067267 -67.50097656 196.2512207 C-70.62172605 192.62923903 -73.68000378 188.96730739 -76.6875 185.25 C-80.24095569 180.87060596 -83.962648 176.68604235 -87.76171875 172.51953125 C-90.02847158 169.96795083 -92.17540087 167.34828468 -94.3125 164.6875 C-97.72421273 160.46602648 -101.29305022 156.45913912 -105 152.5 C-110.27365153 146.86575691 -115.17523004 141.02603922 -120 135 C-121.65760945 132.99219137 -123.32788293 130.99575263 -125 129 C-115.21029057 133.4740301 -106.98096716 142.37039486 -98.875 149.37939453 C-96.97098864 151.02507518 -95.06379175 152.66700734 -93.15625 154.30859375 C-87.45668965 159.22210749 -81.79119438 164.15809165 -76.25 169.25 C-71.8843075 173.2540375 -67.35916631 176.99999082 -62.75 180.71875 C-59.91900422 183.06718968 -57.20616402 185.50909902 -54.5 188 C-50.13497886 192.01359995 -45.63776563 195.78984664 -41.0234375 199.51171875 C-36.79359052 202.99287189 -32.67487766 206.59786822 -28.56542969 210.2199707 C-25.2105818 213.15751939 -21.79147659 215.97148662 -18.26416016 218.70068359 C-17.46289703 219.3213974 -16.66163391 219.94211121 -15.83609009 220.58163452 C-15.23018036 221.04969513 -14.62427063 221.51775574 -14 222 C-13.97864644 221.27077363 -13.95729288 220.54154726 -13.93529224 219.79022312 C-13.38108926 201.33112183 -12.48172284 182.92594693 -11.29296875 164.49609375 C-11.12428389 161.83392863 -10.95591251 159.17174535 -10.78791809 156.50953674 C-10.43680017 150.95548036 -10.082681 145.40162263 -9.72631836 139.84790039 C-9.23869572 132.2484467 -8.75681172 124.64863753 -8.27602553 117.04874873 C-7.24308998 100.72800572 -6.1937452 84.40834411 -5.13542843 68.08922863 C-4.99767222 65.96408971 -4.86011663 63.83893788 -4.72260284 61.71378326 C-4.17395204 53.23791223 -3.62137873 44.76230987 -3.06359291 36.28703499 C-2.88952822 33.64096976 -2.7170216 30.99481693 -2.54524803 28.34860039 C-2.30823131 24.7023346 -2.067364 21.05634339 -1.82543945 17.41040039 C-1.75640978 16.33686625 -1.6873801 15.2633321 -1.61625862 14.15726662 C-1.2954093 9.38142121 -0.92285834 4.70649274 0 0 Z " fill="#E0970D" transform="translate(510,403)"/>
<path d="M0 0 C11.22 0 22.44 0 34 0 C39.77443748 11.32242643 45.19948576 22.7839542 50.51831055 34.32519531 C51.05496338 35.48889648 51.59161621 36.65259766 52.14453125 37.8515625 C52.62253174 38.89135254 53.10053223 39.93114258 53.59301758 41.00244141 C54.58108292 43.10750236 55.61380584 45.19189934 56.6784668 47.25927734 C58 50 58 50 58 52 C58.66 52 59.32 52 60 52 C60.2357373 51.22962402 60.47147461 50.45924805 60.71435547 49.66552734 C62.42643802 44.78417385 64.49565545 40.08817844 66.5703125 35.3515625 C67.0114035 34.33903412 67.45249451 33.32650574 67.9069519 32.28329468 C69.31055993 29.06280664 70.71772795 25.8438884 72.125 22.625 C73.07966268 20.43630066 74.0340924 18.2474997 74.98828125 16.05859375 C77.32238945 10.7043525 79.66130858 5.35225024 82 0 C92.56 0 103.12 0 114 0 C114 33.99 114 67.98 114 103 C107.4 103 100.8 103 94 103 C94 77.92 94 52.84 94 27 C93.34 27 92.68 27 92 27 C91.73606445 27.84699463 91.47212891 28.69398926 91.20019531 29.56665039 C89.94968585 33.14393163 88.43536403 36.52396839 86.796875 39.93359375 C86.48212219 40.59654953 86.16736938 41.25950531 85.84307861 41.94255066 C85.16624574 43.36811413 84.48804253 44.79302765 83.80859375 46.21734619 C77.7337637 58.95788718 71.78938511 71.75227747 66 84.625 C65.69332397 85.30674286 65.38664795 85.98848572 65.07067871 86.69088745 C63.37663741 90.45888794 61.68646857 94.22860272 60 98 C59.34 98 58.68 98 58 98 C49.39715513 79.69328773 40.83142217 61.37113748 32.37841797 42.99462891 C29.92338376 37.66103882 27.4614125 32.33064884 25 27 C24.67 27 24.34 27 24 27 C23.67 52.08 23.34 77.16 23 103 C16.4 103 9.8 103 3 103 C2.98018066 100.30618164 2.96036133 97.61236328 2.93994141 94.83691406 C2.87279912 85.90018346 2.79516407 76.96356567 2.71247292 68.02696609 C2.66269401 62.61289238 2.6163634 57.19883646 2.578125 51.78466797 C2.54103839 46.552045 2.49461737 41.31957791 2.44193649 36.08708954 C2.42351599 34.09861762 2.40836337 32.11011244 2.39665604 30.12158966 C2.37958023 27.31950685 2.35049781 24.51777155 2.31884766 21.71582031 C2.31668747 20.90804642 2.31452728 20.10027252 2.31230164 19.26802063 C2.21615169 12.53114929 1.14412905 6.86477429 0 0 Z " fill="#E0960D" transform="translate(733,964)"/>
<path d="M0 0 C24.09 0 48.18 0 73 0 C83 19 83 19 82 26 C80.71240234 28.79150391 80.71240234 28.79150391 79.0859375 31.4765625 C78.49248535 32.47171875 77.8990332 33.466875 77.28759766 34.4921875 C76.65644043 35.52601563 76.0252832 36.55984375 75.375 37.625 C74.09736284 39.76206778 72.82130732 41.90008197 71.546875 44.0390625 C70.62745117 45.57481934 70.62745117 45.57481934 69.68945312 47.14160156 C66.61927309 52.33606223 63.78143211 57.64626602 61 63 C61.72703125 63.969375 62.4540625 64.93875 63.203125 65.9375 C63.92338867 66.89789185 63.92338867 66.89789185 64.65820312 67.87768555 C65.7297138 69.30631166 66.80133037 70.73485836 67.87304688 72.16333008 C70.69386434 75.92346 73.51298033 79.68483935 76.328125 83.44921875 C76.86018555 84.16013672 77.39224609 84.87105469 77.94042969 85.60351562 C78.95736332 86.96239876 79.97366975 88.32175156 80.98925781 89.68164062 C81.45686523 90.30619141 81.92447266 90.93074219 82.40625 91.57421875 C83.06560547 92.4566626 83.06560547 92.4566626 83.73828125 93.35693359 C84.89512735 94.86343015 86.11673788 96.31961193 87.34375 97.76953125 C89 100 89 100 89 103 C69.84209237 105.04064439 69.84209237 105.04064439 63.9921875 101.93359375 C60.65700873 99.10594218 58.38673448 95.56877343 56.14746094 91.84765625 C54.26884079 88.8226781 52.02266483 86.09870287 49.8125 83.3125 C48.9962438 82.24405791 48.18239397 81.17377266 47.37109375 80.1015625 C43.9872846 75.67529485 40.501767 71.33319213 37 67 C44.18139219 51.40232014 52.04388893 36.21702798 60 21 C48.12 21 36.24 21 24 21 C24 48.06 24 75.12 24 103 C17.4 103 10.8 103 4 103 C3.98541748 100.35629395 3.97083496 97.71258789 3.95581055 94.98876953 C3.90534267 86.22761189 3.83872627 77.4666297 3.76428509 68.70564461 C3.71966821 63.39687765 3.68039306 58.0881859 3.65356445 52.77929688 C3.62744475 47.65036439 3.58698139 42.52172268 3.53681374 37.39297104 C3.52020349 35.44193022 3.508653 33.49083917 3.50238609 31.5397377 C3.68275997 18.46221378 3.68275997 18.46221378 0.63825989 5.85934448 C0 4 0 4 0 0 Z " fill="#E0970D" transform="translate(512,964)"/>
<path d="M0 0 C6.93 0 13.86 0 21 0 C20.98839844 2.16949219 20.97679687 4.33898437 20.96484375 6.57421875 C20.93225093 13.7628535 20.94375945 20.95093859 20.97665405 28.13955688 C20.99524631 32.49590174 20.99923797 36.8512168 20.96923828 41.20751953 C20.94080291 45.41617887 20.9515357 49.62312327 20.98880005 53.83169556 C20.99621503 55.43274591 20.98979805 57.03392521 20.96896362 58.63485718 C20.67653433 69.11326124 20.67653433 69.11326124 25.68286133 77.98706055 C29.06337309 80.69398146 31.65441052 82.0027471 36.07421875 81.95703125 C37.15380859 81.95380859 38.23339844 81.95058594 39.34570312 81.94726562 C40.44849609 81.90279297 41.55128906 81.85832031 42.6875 81.8125 C43.80189453 81.81830078 44.91628906 81.82410156 46.06445312 81.83007812 C52.30348764 81.85540596 52.30348764 81.85540596 57.62976074 78.92810059 C60.50373485 75.37770573 60.71395571 72.83497844 60.65942383 68.45581055 C60.67514938 67.3428083 60.67514938 67.3428083 60.69119263 66.20732117 C60.71988198 63.76669178 60.71365892 61.32748613 60.70703125 58.88671875 C60.72015011 57.18990812 60.73545492 55.49311309 60.75285339 53.79634094 C60.79269475 49.3394649 60.80289324 44.88299747 60.80688477 40.42596436 C60.81621788 35.87434501 60.85363251 31.32296558 60.88867188 26.77148438 C60.95323921 17.84761094 60.98388982 8.92409262 61 0 C67.6 0 74.2 0 81 0 C81.22653333 11.54448694 81.40972727 23.08748211 81.51812172 34.63369465 C81.57016407 39.99598004 81.64066964 45.35665753 81.75439453 50.71801758 C81.86359336 55.89882727 81.92295347 61.07809746 81.94877243 66.25996971 C81.96715446 68.23000499 82.00305271 70.19996229 82.05730057 72.16933632 C82.50787299 89.21502366 82.50787299 89.21502366 77.40273094 95.24170971 C75.38482543 97.30228649 73.21612287 99.15719716 71 101 C70.67 101.66 70.34 102.32 70 103 C63.04482752 103.25468783 56.09086624 103.42913012 49.13208008 103.54931641 C46.76801629 103.59944019 44.40425998 103.66756169 42.04125977 103.75439453 C22.53047974 104.45311638 22.53047974 104.45311638 16.78076172 101.15136719 C14.58984375 98.7109375 14.58984375 98.7109375 13.01156616 96.02645874 C10.80232287 92.70258912 8.29666605 90.49563522 5.34277344 87.82373047 C-0.15003863 82.24301314 -1.19011147 77.46623915 -1.27574539 69.78256035 C-1.24545666 67.22268072 -1.16091428 64.66791246 -1.07421875 62.109375 C-1.05365942 60.31053463 -1.03802165 58.51163194 -1.02705383 56.71270752 C-0.9853853 52.01585792 -0.87764581 47.3228508 -0.75531006 42.62750244 C-0.64204685 37.82120739 -0.59238921 33.01428093 -0.53710938 28.20703125 C-0.41972421 18.80274178 -0.22653458 9.40229396 0 0 Z " fill="#DE950D" transform="translate(642,964)"/>
<path d="M0 0 C22.11 0 44.22 0 67 0 C67 7.26 67 14.52 67 22 C52.81 22 38.62 22 24 22 C24 28.27 24 34.54 24 41 C36.21 41 48.42 41 61 41 C59.02 43.31 57.04 45.62 55 48 C54.40461426 48.71663818 53.80922852 49.43327637 53.19580078 50.17163086 C42.38479117 63.09171963 42.38479117 63.09171963 35.46484375 63.96875 C31.48714422 64.17027283 28.06528065 63.53963902 24 63 C24 68.94 24 74.88 24 81 C38.52 81 53.04 81 68 81 C66 94 66 94 64 102 C44.2 102 24.4 102 4 102 C3.96261719 96.18246094 3.92523438 90.36492187 3.88671875 84.37109375 C3.8563964 80.656873 3.82522073 76.94269772 3.79101562 73.22851562 C3.73695873 67.35004138 3.6858403 61.47165704 3.65356445 55.59301758 C3.6273055 50.84660043 3.58674875 46.10049018 3.53681374 41.35426521 C3.52029617 39.55528685 3.50868887 37.7562556 3.50238609 35.95721245 C3.4639922 25.99352678 2.91575138 16.70296702 0.63825989 6.98207092 C0 4 0 4 0 0 Z " fill="#E0960C" transform="translate(436,964)"/>
<path d="M0 0 C3.07275391 -0.34057617 3.07275391 -0.34057617 6.9765625 -0.29296875 C7.66181 -0.28872391 8.3470575 -0.28447906 9.05307007 -0.28010559 C11.24411129 -0.26329753 13.43423632 -0.22564405 15.625 -0.1875 C17.10936173 -0.17245579 18.59373785 -0.15876693 20.078125 -0.14648438 C23.71904833 -0.1133879 27.35943478 -0.06159207 31 0 C33.56646772 8.2958207 36.13186348 16.59197194 38.69605827 24.88849545 C39.88803648 28.74506731 41.0803221 32.60154345 42.2734375 36.45776367 C47.21705915 52.43684527 52.14958951 68.41942399 57.02222061 84.42032051 C57.46823436 85.8838051 57.91517084 87.34700881 58.36306381 88.80991936 C58.97929513 90.82371814 59.59195871 92.83856695 60.20361328 94.85375977 C60.55175079 95.99627701 60.89988831 97.13879425 61.25857544 98.31593323 C62 101 62 101 62 103 C55.07 103 48.14 103 41 103 C38.33065246 94.48892029 35.66160605 85.97774631 32.9930687 77.46641254 C31.7535371 73.51295143 30.51388099 69.55952945 29.27392578 65.60620117 C28.07408835 61.78076285 26.87459697 57.95521617 25.67533112 54.12959862 C25.2210206 52.68056679 24.76659186 51.23157202 24.31203461 49.78261757 C21.51404677 40.86337549 18.73849262 31.93772095 16 23 C14.12038438 26.60916163 12.94339141 30.268792 11.8359375 34.171875 C11.63900299 34.8542926 11.44206848 35.53671021 11.23916626 36.23980713 C10.6141228 38.40883993 9.99449127 40.57937569 9.375 42.75 C8.95087764 44.22536304 8.52640236 45.70062466 8.1015625 47.17578125 C7.06295149 50.78252027 6.03167982 54.39124344 5 58 C10.61 58 16.22 58 22 58 C20.86002718 62.55989128 20.40418125 62.79547262 16.6328125 65.1640625 C15.74722656 65.72867187 14.86164063 66.29328125 13.94921875 66.875 C13.01722656 67.4525 12.08523437 68.03 11.125 68.625 C10.20074219 69.21023438 9.27648437 69.79546875 8.32421875 70.3984375 C6.60646592 71.48543348 4.88557529 72.56749729 3.16064453 73.64306641 C-1.34639258 76.47358757 -2.52706961 77.76354655 -4.04296875 82.8828125 C-4.39423828 84.04941406 -4.74550781 85.21601562 -5.10742188 86.41796875 C-5.46384766 87.64128906 -5.82027344 88.86460938 -6.1875 90.125 C-6.55552734 91.35605469 -6.92355469 92.58710937 -7.30273438 93.85546875 C-8.21159621 96.90074606 -9.10706288 99.95001524 -10 103 C-16.6 103 -23.2 103 -30 103 C-28.29349453 93.25704434 -25.49627851 83.86363956 -22.75 74.375 C-22.22457907 72.55075547 -21.69935539 70.72645411 -21.17431641 68.90209961 C-20.05233448 65.007633 -18.92712147 61.11411698 -17.79980469 57.22119141 C-16.56199834 52.94599086 -15.32863427 48.66954242 -14.09863281 44.39208984 C-12.50673493 38.85613329 -10.90931137 33.32180057 -9.30773926 27.78863525 C-8.68689549 25.64127633 -8.06766799 23.49344943 -7.45007324 21.34515381 C-6.58372038 18.33408929 -5.71070386 15.32503556 -4.8359375 12.31640625 C-4.44917343 10.96460518 -4.44917343 10.96460518 -4.05459595 9.585495 C-3.81276581 8.75878799 -3.57093567 7.93208099 -3.32177734 7.08032227 C-3.11370453 6.36094986 -2.90563171 5.64157745 -2.69125366 4.90040588 C-2 3 -2 3 0 0 Z " fill="#DF960D" transform="translate(200,964)"/>
<path d="M0 0 C27.39 0 54.78 0 83 0 C86 15 86 15 86 21 C74.78 21 63.56 21 52 21 C52 48.06 52 75.12 52 103 C45.4 103 38.8 103 32 103 C32 75.94 32 48.88 32 21 C20.12 21 8.24 21 -4 21 C-2.68 14.07 -1.36 7.14 0 0 Z " fill="#DF940D" transform="translate(344,964)"/>
<path d="M0 0 C0.99 0.33 1.98 0.66 3 1 C2.38701165 4.17047776 1.34122336 6.23451089 -0.5546875 8.8359375 C-1.0815918 9.56353271 -1.60849609 10.29112793 -2.15136719 11.04077148 C-2.72016602 11.81106689 -3.28896484 12.5813623 -3.875 13.375 C-4.45926758 14.17429932 -5.04353516 14.97359863 -5.64550781 15.79711914 C-10.93557349 22.99525381 -16.40313775 30.03895731 -22 37 C-22.75796875 37.95261719 -23.5159375 38.90523437 -24.296875 39.88671875 C-33.84703236 51.75668384 -44.4297581 62.59490127 -55.20776367 73.33813477 C-57.19892777 75.32389676 -59.18463221 77.3150074 -61.16992188 79.30664062 C-67.27389644 85.41418828 -73.36095453 91.46762505 -80 97 C-81.09166219 97.93559576 -82.18282271 98.87177726 -83.2734375 99.80859375 C-89.76084929 105.32006869 -96.30417083 110.74220125 -103 116 C-103.64598145 116.50934082 -104.29196289 117.01868164 -104.95751953 117.54345703 C-114.16871768 124.79932101 -123.43948496 131.91770125 -133.05224609 138.63378906 C-135.2571513 140.18037336 -137.45075894 141.74235443 -139.64453125 143.3046875 C-158.39237127 156.61215824 -177.60192976 168.38182645 -198 179 C-199.09489746 179.57008789 -200.18979492 180.14017578 -201.31787109 180.72753906 C-260.83801175 211.51470785 -333.24759821 242.9558423 -400.80859375 221.81640625 C-414.92176411 217.07895402 -425.74068535 209.66910182 -436 199 C-436.70769531 198.27683594 -437.41539062 197.55367187 -438.14453125 196.80859375 C-446.39030057 187.91609742 -450.90022293 177.61251335 -454 166 C-454.18908936 165.29689697 -454.37817871 164.59379395 -454.57299805 163.86938477 C-456.42800445 155.96928845 -456.35480415 148.0050368 -456.3125 139.9375 C-456.31034485 139.2018985 -456.3081897 138.466297 -456.30596924 137.70840454 C-456.25489632 126.86249394 -455.84224645 116.52455027 -453 106 C-452.80664062 105.24074219 -452.61328125 104.48148438 -452.4140625 103.69921875 C-444.20012362 71.9082331 -425.81705771 30.26763284 -401 8 C-400.01 8 -399.02 8 -398 8 C-398.53561321 12.29540792 -401.23922952 15.14514313 -403.8125 18.4375 C-410.20902382 26.90203333 -415.35909445 35.93976107 -420.46630859 45.22216797 C-422.00775223 48.01404089 -423.57398554 50.79081834 -425.14453125 53.56640625 C-443.94294908 87.03281911 -458.71876671 127.3963214 -448 166 C-441.84274698 185.48337724 -430.08763048 201.2220484 -412.0390625 211.03125 C-382.40714768 226.02886456 -344.66331407 225.21889906 -313 218 C-312.09942871 217.80164551 -311.19885742 217.60329102 -310.27099609 217.39892578 C-286.46256962 212.04234943 -262.6860108 203.83931367 -240.68994141 193.27783203 C-237.55119814 191.78680079 -234.39235765 190.3436319 -231.23046875 188.90234375 C-217.59851065 182.67371912 -204.12109511 176.25373749 -191 169 C-190.15920898 168.53770996 -189.31841797 168.07541992 -188.45214844 167.59912109 C-175.87433824 160.65140041 -163.8250965 153.15532003 -152 145 C-151.07864258 144.37013184 -150.15728516 143.74026367 -149.20800781 143.09130859 C-138.07568899 135.47998634 -127.08594063 127.79043561 -116.609375 119.29443359 C-114.91943275 117.9351991 -113.21277771 116.59985777 -111.5 115.26953125 C-105.11439132 110.30926603 -98.84218731 105.24839933 -92.6965332 99.99316406 C-89.2183509 97.01933688 -85.6902668 94.11972362 -82.125 91.25 C-78.45456214 88.26478137 -75.04967687 85.1835828 -71.77416992 81.7734375 C-70.04160894 80.04159176 -68.24738997 78.45506381 -66.3828125 76.8671875 C-61.57884557 72.68968122 -57.0606377 68.2526462 -52.5625 63.75 C-51.72066162 62.90735596 -50.87882324 62.06471191 -50.01147461 61.1965332 C-45.07254601 56.20863302 -40.40850137 51.19913272 -36.09375 45.66015625 C-33.5189477 42.38881229 -30.79360962 39.26584008 -28.0625 36.125 C-22.43928788 29.61042165 -17.16504147 22.88486269 -12 16 C-11.47245117 15.29891113 -10.94490234 14.59782227 -10.40136719 13.87548828 C-6.9258756 9.25655795 -3.4597008 4.63076791 0 0 Z " fill="#EBAC0F" transform="translate(723,678)"/>
<path d="M0 0 C8.91 0 17.82 0 27 0 C27 1.65 27 3.3 27 5 C27.67675781 5.23074219 28.35351562 5.46148438 29.05078125 5.69921875 C32.73593209 7.32458991 35.9061509 9.50820235 39.1875 11.8125 C39.87368408 12.28880859 40.55986816 12.76511719 41.2668457 13.25585938 C47.56081076 17.64485762 53.77905011 22.14020957 59.97143555 26.67114258 C60.685979 27.19216553 61.40052246 27.71318848 62.13671875 28.25 C62.80461426 28.74653076 63.47250977 29.24306152 64.16064453 29.75463867 C66.09691493 31.16253905 66.09691493 31.16253905 68.97265625 32.17578125 C71.56690192 34.5101025 71.43805933 35.61721206 71.734375 39.04296875 C71.7663116 41.09090345 71.77039161 43.13941781 71.75 45.1875 C71.78609375 46.20392578 71.8221875 47.22035156 71.859375 48.26757812 C71.859375 53.52604554 71.50419433 57.10746413 68.015625 61.17578125 C67.36489014 61.79050293 66.71415527 62.40522461 66.04370117 63.03857422 C63.90685355 64.9557465 63.90685355 64.9557465 62.30981445 67.46923828 C59.64881067 71.02350206 57.26958317 73.53516814 52.77655029 74.4553833 C46.16884989 75.12591967 39.56102665 74.81859323 32.9375 74.5625 C30.90698975 74.51730556 28.87638292 74.47624969 26.84570312 74.43945312 C21.89473317 74.34077478 16.94843635 74.1857688 12 74 C10.99534271 70.87647773 9.99707073 67.75095147 9 64.625 C8.57074219 63.29082031 8.57074219 63.29082031 8.1328125 61.9296875 C7.86210937 61.07890625 7.59140625 60.228125 7.3125 59.3515625 C7.06113281 58.56604004 6.80976563 57.78051758 6.55078125 56.97119141 C6 55 6 55 6 53 C7.12494873 53.00112793 8.24989746 53.00225586 9.40893555 53.00341797 C13.59336453 52.99973955 17.77664364 52.95688373 21.96069336 52.90234375 C23.76953718 52.88420511 25.57851937 52.87661139 27.38745117 52.87988281 C29.99245794 52.88274624 32.59460833 52.84737138 35.19921875 52.8046875 C36.40731453 52.8183284 36.40731453 52.8183284 37.63981628 52.83224487 C41.99607799 52.74709483 41.99607799 52.74709483 45.65664673 50.61090088 C47.22950045 48.79964138 47.22950045 48.79964138 49 46 C38.47288419 38.59493493 27.73499783 31.56183417 16.87133789 24.66015625 C14.85369845 23.37816273 12.83853042 22.09226913 10.82617188 20.80200195 C8.98397134 19.62739223 7.13143641 18.46878862 5.26757812 17.32885742 C4.44837891 16.81556885 3.62917969 16.30228027 2.78515625 15.7734375 C2.06593994 15.33306152 1.34672363 14.89268555 0.60571289 14.43896484 C-1 13 -1 13 -1.58813477 11.04150391 C-1.65414286 7.27423394 -0.73671719 3.68358593 0 0 Z " fill="#DE960D" transform="translate(262,993)"/>
<path d="M0 0 C7.59 0 15.18 0 23 0 C23 33.99 23 67.98 23 103 C16.4 103 9.8 103 3 103 C2.98018066 100.27065186 2.96036133 97.54130371 2.93994141 94.72924805 C2.87283814 85.68075217 2.79520212 76.63236831 2.71247292 67.58400249 C2.6626665 62.10151861 2.61633576 56.61905255 2.578125 51.13647461 C2.54107362 45.83901829 2.49466131 40.54171699 2.44193649 35.2443943 C2.42349753 33.22997589 2.40835146 31.21552438 2.39665604 29.20105553 C2.37961252 26.36524171 2.3505365 23.52977486 2.31884766 20.6940918 C2.31668747 19.87337189 2.31452728 19.05265198 2.31230164 18.20706177 C2.22141035 11.78133076 1.18978003 6.54379015 0 0 Z " fill="#DF920D" transform="translate(608,964)"/>
<path d="M0 0 C0.66 0 1.32 0 2 0 C2.30292969 1.19496094 2.60585938 2.38992188 2.91796875 3.62109375 C6.11683953 15.90904508 8.92880749 26.54786163 20 34 C26.8856437 37.61118919 34.46251969 39.29046838 42 41 C42 41.66 42 42.32 42 43 C40.44152344 43.34611328 40.44152344 43.34611328 38.8515625 43.69921875 C22.95926893 47.33432289 22.95926893 47.33432289 10.53125 57.42578125 C7.30179149 62.85489645 5.71060869 68.95841199 4 75 C3.62132842 76.32168184 3.24243193 77.64329927 2.86328125 78.96484375 C2.43595703 80.46724609 2.43595703 80.46724609 2 82 C1.01 81.505 1.01 81.505 0 81 C-0.51106184 79.2068524 -0.93342363 77.38811321 -1.3125 75.5625 C-3.88738955 64.84436371 -8.59699676 56.31571368 -17 49 C-23.62355533 45.08015824 -31.56460759 43.68637766 -39 42 C-39 41.34 -39 40.68 -39 40 C-37.80503906 39.70867187 -36.61007812 39.41734375 -35.37890625 39.1171875 C-22.47182657 35.840921 -13.16996446 32.56275363 -6 20.6875 C-2.85514582 14.23555709 -1.58768732 6.95879976 0 0 Z " fill="#E0980D" transform="translate(724,427)"/>
<path d="M0 0 C24.42 0 48.84 0 74 0 C69.36876356 23.15618221 69.36876356 23.15618221 67 28 C63.75 29.6875 63.75 29.6875 60 30 C58.5985988 30.3536246 57.20251103 30.72896334 55.8125 31.125 C52 32 52 32 48 32 C48 28.37 48 24.74 48 21 C32.16 21 16.32 21 0 21 C0 14.07 0 7.14 0 0 Z " fill="#DC920D" transform="translate(261,964)"/>
<path d="M0 0 C3.13756937 1.03897582 4.01078051 2.01742376 5.78125 4.87890625 C21.47187655 37.14501953 16.22318048 74.0690449 5 107 C-5.30316681 136.21854205 -5.30316681 136.21854205 -12.203125 140.3046875 C-12.79609375 140.53414062 -13.3890625 140.76359375 -14 141 C-15 138 -15 138 -13.59375 134.83984375 C-12.90211771 133.5357102 -12.20368565 132.23516947 -11.5 130.9375 C5.99362597 97.17046588 17.16896818 55.4759175 6 18 C3.98343145 12.19408006 1.57245139 6.57846201 -1 1 C-0.67 0.67 -0.34 0.34 0 0 Z " fill="#E19D0F" transform="translate(762,497)"/>
<path d="M0 0 C-9.25438064 4.63591454 -18.94102117 7.84111074 -28.72238159 11.15911865 C-46.15142176 17.08647181 -63.20563144 23.43539773 -80 31 C-81.87478637 31.83381383 -83.74978406 32.6671527 -85.625 33.5 C-91.63744423 36.18177456 -97.63046633 38.90380187 -103.60546875 41.66796875 C-104.60191406 42.12816406 -105.59835937 42.58835937 -106.625 43.0625 C-107.44226563 43.44535156 -108.25953125 43.82820312 -109.1015625 44.22265625 C-111 45 -111 45 -113 45 C-113.33 43.68 -113.66 42.36 -114 41 C-81.93918932 24.94416111 -49.31406322 11.47829943 -14.6875 1.9375 C-13.5648877 1.62570801 -12.44227539 1.31391602 -11.28564453 0.99267578 C-10.24649902 0.71536621 -9.20735352 0.43805664 -8.13671875 0.15234375 C-6.75552856 -0.2190271 -6.75552856 -0.2190271 -5.34643555 -0.59790039 C-3 -1 -3 -1 0 0 Z " fill="#E7A60E" transform="translate(659,487)"/>
<path d="M0 0 C0.66 0 1.32 0 2 0 C2.02578125 0.79664063 2.0515625 1.59328125 2.078125 2.4140625 C2.50398669 10.9303122 2.50398669 10.9303122 7 18 C11.51151693 21.69124112 17.44779148 22.62896427 23 24 C20.60646656 26.39353344 19.46988997 26.42078194 16.1875 26.9375 C10.92256934 27.93131256 7.47371036 28.87130726 4.3125 33.4375 C2.44485541 38.50682103 1.73406071 43.66294684 1 49 C0.34 49 -0.32 49 -1 49 C-1.09796875 48.13117187 -1.1959375 47.26234375 -1.296875 46.3671875 C-2.27745744 37.40964594 -2.27745744 37.40964594 -7 30 C-11.78885059 27.42138814 -16.73428226 26.20095317 -22 25 C-19.45858511 22.45858511 -17.54384162 22.24348333 -14.0625 21.4375 C-10.98287908 20.71530457 -8.0016953 20.0005651 -5 19 C-4.03664202 16.97912892 -4.03664202 16.97912892 -3.4375 14.5 C-3.19257812 13.60539063 -2.94765625 12.71078125 -2.6953125 11.7890625 C-1.71895513 7.8726627 -0.82833827 3.95053636 0 0 Z " fill="#DF970D" transform="translate(687,788)"/>
<path d="M0 0 C22.11 0 44.22 0 67 0 C67 7.26 67 14.52 67 22 C52.81 22 38.62 22 24 22 C24 28.27 24 34.54 24 41 C36.21 41 48.42 41 61 41 C59.68 42.32 58.36 43.64 57 45 C57 44.34 57 43.68 57 43 C56.00556885 43.00523682 55.0111377 43.01047363 53.98657227 43.01586914 C50.30966079 43.03392041 46.63275325 43.04543246 42.95581055 43.05493164 C41.36205386 43.05997157 39.76830181 43.0668035 38.17456055 43.07543945 C35.88849747 43.08751999 33.60249533 43.09323155 31.31640625 43.09765625 C30.59973282 43.10281754 29.88305939 43.10797882 29.14466858 43.11329651 C27.42936328 43.11349263 25.71418734 43.06192007 24 43 C22.37799485 41.37799485 22.8700925 39.57976969 22.8671875 37.34375 C22.86525391 35.93416016 22.86525391 35.93416016 22.86328125 34.49609375 C22.86714844 33.50738281 22.87101562 32.51867187 22.875 31.5 C22.86919922 30.01693359 22.86919922 30.01693359 22.86328125 28.50390625 C22.86457031 27.56417969 22.86585938 26.62445312 22.8671875 25.65625 C22.86831543 24.78806641 22.86944336 23.91988281 22.87060547 23.02539062 C23 21 23 21 24 20 C27.02977804 19.91128727 30.03667022 19.8848065 33.06640625 19.90234375 C33.97502914 19.9037587 34.88365204 19.90517365 35.81980896 19.90663147 C38.73407221 19.91224807 41.64825981 19.92480335 44.5625 19.9375 C46.53320202 19.94251286 48.50390524 19.94707614 50.47460938 19.95117188 C55.31645914 19.96137383 60.15814447 19.98094591 65 20 C65 14.06 65 8.12 65 2 C43.55 2 22.1 2 0 2 C0 1.34 0 0.68 0 0 Z " fill="#EDA70C" transform="translate(436,964)"/>
<path d="M0 0 C9.77732842 4.46837181 17.9938905 13.34846942 26.08984375 20.34863281 C28.09968052 22.08617575 30.11229119 23.82047264 32.125 25.5546875 C33.47934244 26.72375474 34.83351341 27.89302065 36.1875 29.0625 C36.82324951 29.61059326 37.45899902 30.15868652 38.11401367 30.72338867 C38.70931885 31.23877197 39.30462402 31.75415527 39.91796875 32.28515625 C40.44156982 32.73769775 40.9651709 33.19023926 41.50463867 33.65649414 C41.99810791 34.09985107 42.49157715 34.54320801 43 35 C43.84751831 35.7588147 43.84751831 35.7588147 44.7121582 36.53295898 C45.34963989 37.25914429 45.34963989 37.25914429 46 38 C45.6875 40.1875 45.6875 40.1875 45 42 C44.34 42 43.68 42 43 42 C42.66501699 44.33165034 42.66501699 44.33165034 43 47 C44.89584109 49.31377147 44.89584109 49.31377147 47 51 C46.505 51.99 46.505 51.99 46 53 C40.69127755 47.31420941 35.43335818 41.63316516 30.5625 35.5625 C27.19652545 31.37761215 23.66813105 27.41697412 20 23.5 C14.7262951 17.86581401 9.82476408 12.02603187 5 6 C3.34239055 3.99219137 1.67211707 1.99575263 0 0 Z " fill="#E6A20F" transform="translate(385,532)"/>
<path d="M0 0 C1.92968443 2.89452664 2.50984755 4.69090522 3.3125 8 C4.46112109 11.92087161 4.46112109 11.92087161 7.0625 15 C11.2978025 16.44180511 15.59115365 17.27232633 20 18 C20 18.66 20 19.32 20 20 C19.26394531 20.08636719 18.52789062 20.17273438 17.76953125 20.26171875 C13.37327401 20.89473333 9.82972653 21.49870689 6 23.8125 C2.873447 28.79544384 2.03335787 34.26192337 1 40 C-0.56105653 37.16697148 -1.31033579 34.74655222 -1.8125 31.5625 C-2.8071749 27.01541474 -4.04682458 24.7178081 -8 22 C-11.30346298 21.03880863 -14.59098581 20.44350282 -18 20 C-18 19.34 -18 18.68 -18 18 C-17.25234375 17.82984375 -16.5046875 17.6596875 -15.734375 17.484375 C-14.74953125 17.24203125 -13.7646875 16.9996875 -12.75 16.75 C-11.77546875 16.51796875 -10.8009375 16.2859375 -9.796875 16.046875 C-6.56447186 14.83698109 -5.11348379 13.71733631 -3 11 C-1.89105003 8.21347882 -1.89105003 8.21347882 -1.25 5.25 C-1.00765625 4.26515625 -0.7653125 3.2803125 -0.515625 2.265625 C-0.34546875 1.51796875 -0.1753125 0.7703125 0 0 Z " fill="#E3A10F" transform="translate(330,452)"/>
<path d="M0 0 C0.66 0 1.32 0 2 0 C2.17015625 0.83144531 2.3403125 1.66289063 2.515625 2.51953125 C2.75796875 3.60621094 3.0003125 4.69289063 3.25 5.8125 C3.48203125 6.89144531 3.7140625 7.97039063 3.953125 9.08203125 C5.14519288 12.40469807 5.92257074 13.35292518 9 15 C11.57258666 15.77832644 11.57258666 15.77832644 14.25 16.1875 C15.14203125 16.34605469 16.0340625 16.50460937 16.953125 16.66796875 C17.62859375 16.77753906 18.3040625 16.88710938 19 17 C19 17.66 19 18.32 19 19 C18.24074219 19.23074219 17.48148437 19.46148438 16.69921875 19.69921875 C15.70535156 20.02535156 14.71148437 20.35148438 13.6875 20.6875 C12.70136719 21.00074219 11.71523438 21.31398438 10.69921875 21.63671875 C7.41802695 23.29393429 6.49469289 24.67901016 5 28 C4.51357429 30.16437685 4.51357429 30.16437685 4.4375 32.25 C4.2209375 34.10625 4.2209375 34.10625 4 36 C3.01 36.495 3.01 36.495 2 37 C1.69707031 36.09636719 1.39414062 35.19273437 1.08203125 34.26171875 C0.66308594 33.08222656 0.24414062 31.90273438 -0.1875 30.6875 C-0.59355469 29.51574219 -0.99960937 28.34398437 -1.41796875 27.13671875 C-3.20798265 23.58762946 -4.42830162 22.61162 -8 21 C-10.31691454 20.27833809 -12.64848923 19.59940471 -15 19 C-12.33846181 16.33846181 -9.64481431 15.84195752 -6.09375 14.78125 C-3.82170857 14.09857013 -3.82170857 14.09857013 -2 12 C-1.3162387 9.11282395 -1.3162387 9.11282395 -0.875 5.875 C-0.62363281 4.23144531 -0.62363281 4.23144531 -0.3671875 2.5546875 C-0.24601562 1.71164062 -0.12484375 0.86859375 0 0 Z " fill="#DE940D" transform="translate(333,812)"/>
<path d="M0 0 C2.58303084 2.58303084 2.23582174 4.31426711 2.24884033 7.83343506 C2.24164978 8.6491095 2.23445923 9.46478394 2.22705078 10.30517578 C2.22734283 11.16378204 2.22763489 12.02238831 2.22793579 12.90701294 C2.22653922 15.75321457 2.21096273 18.59915644 2.1953125 21.4453125 C2.19158353 23.41543434 2.18873601 25.38555802 2.18673706 27.35568237 C2.17909146 32.54743548 2.15943504 37.73907714 2.1373291 42.93078613 C2.1168906 48.2259775 2.10773962 53.52118683 2.09765625 58.81640625 C2.07618999 69.21099441 2.04100033 79.60547051 2 90 C7.61 90 13.22 90 19 90 C19 65.25 19 40.5 19 15 C19.99 15 20.98 15 22 15 C21.67 15.33 21.34 15.66 21 16 C20.87513046 18.37201547 20.81399948 20.71640343 20.79467773 23.09008789 C20.77982834 24.20221397 20.77982834 24.20221397 20.76467896 25.33680725 C20.73297534 27.79872393 20.70827174 30.26065993 20.68359375 32.72265625 C20.66303186 34.42517105 20.6420356 36.12768065 20.62062073 37.83018494 C20.56532101 42.31987309 20.51594672 46.80960792 20.46777344 51.29937744 C20.41761594 55.87736178 20.36189992 60.45527803 20.30664062 65.03320312 C20.19896247 74.02207951 20.0980525 83.01101346 20 92 C13.4 92 6.8 92 0 92 C0 61.64 0 31.28 0 0 Z " fill="#F7B50D" transform="translate(736,975)"/>
<path d="M0 0 C0.33 0 0.66 0 1 0 C1 26.73 1 53.46 1 81 C6.61 81 12.22 81 18 81 C18 54.27 18 27.54 18 0 C18.66 0 19.32 0 20 0 C20 27.39 20 54.78 20 83 C13.4 83 6.8 83 0 83 C0 55.61 0 28.22 0 0 Z " fill="#F9BC0A" transform="translate(376,984)"/>
<path d="M0 0 C6.6 0 13.2 0 20 0 C20 23.76 20 47.52 20 72 C19.67 72 19.34 72 19 72 C19 48.9 19 25.8 19 2 C13.39 2 7.78 2 2 2 C2.04030882 12.23148952 2.09734926 22.46250925 2.18390274 32.69371414 C2.22342246 37.44442381 2.2555888 42.19494687 2.27099609 46.94580078 C2.2861332 51.53015166 2.32052591 56.11398969 2.36830902 60.69811249 C2.38315333 62.44756362 2.39104276 64.19708796 2.39188385 65.94660187 C2.39424617 68.39627342 2.42126426 70.84451914 2.45410156 73.29394531 C2.44655602 74.38043617 2.44655602 74.38043617 2.43885803 75.48887634 C2.5121715 79.0205797 2.76082762 80.70820927 5.03411865 83.48162842 C5.6828595 83.98269104 6.33160034 84.48375366 7 85 C6.505 85.99 6.505 85.99 6 87 C0.21335498 82.12265164 0.21335498 82.12265164 -0.7215271 77.20339966 C-0.73874533 75.76340675 -0.72335172 74.32277821 -0.68115234 72.88330078 C-0.68246658 71.69692772 -0.68246658 71.69692772 -0.68380737 70.48658752 C-0.67964774 67.88846915 -0.63307785 65.29297618 -0.5859375 62.6953125 C-0.57473946 60.88786225 -0.56620214 59.08039371 -0.56021118 57.2729187 C-0.5373605 52.5279261 -0.47847037 47.78404485 -0.4119873 43.03948975 C-0.35048316 38.19314608 -0.32317885 33.34662189 -0.29296875 28.5 C-0.22872241 18.99943448 -0.12322869 9.49998375 0 0 Z " fill="#FABA0A" transform="translate(642,964)"/>
<path d="M0 0 C7.59 0 15.18 0 23 0 C23 33.99 23 67.98 23 103 C16.4 103 9.8 103 3 103 C3 72.31 3 41.62 3 10 C3.33 10 3.66 10 4 10 C4 40.03 4 70.06 4 101 C9.94 101 15.88 101 22 101 C22 68.33 22 35.66 22 2 C15.4 2 8.8 2 2 2 C1.67 2.99 1.34 3.98 1 5 C0.67 3.35 0.34 1.7 0 0 Z " fill="#FCC50F" transform="translate(608,964)"/>
<path d="M0 0 C24.42 0 48.84 0 74 0 C73.67 1.65 73.34 3.3 73 5 C72.505 3.515 72.505 3.515 72 2 C48.9 2 25.8 2 2 2 C2 7.61 2 13.22 2 19 C17.51 19 33.02 19 49 19 C49 19.33 49 19.66 49 20 C32.83 20 16.66 20 0 20 C0 13.4 0 6.8 0 0 Z " fill="#F4AB0E" transform="translate(261,964)"/>
<path d="M0 0 C0.22320204 9.28148498 -0.64070362 18.39573399 -1.5 27.625 C-1.64494147 29.21741063 -1.78947595 30.80985836 -1.93359375 32.40234375 C-2.28437299 36.26867276 -2.64065181 40.13445839 -3 44 C-3.66 44 -4.32 44 -5 44 C-7.92838764 33.18136224 -8.14273649 21.0419518 -8.4375 9.875 C-8.47746094 8.61429688 -8.51742188 7.35359375 -8.55859375 6.0546875 C-8 3 -8 3 -5.66015625 1.0703125 C-3 0 -3 0 0 0 Z " fill="#E4A20E" transform="translate(516,875)"/>
<path d="M0 0 C13.04119828 -0.10531468 26.00156173 -0.16652651 39 1 C39 1.99 39 2.98 39 4 C11.08221953 6.33524199 -16.96769744 8.55570644 -45 8 C-45 7.67 -45 7.34 -45 7 C-28.83 6.01 -12.66 5.02 4 4 C2.68 2.68 1.36 1.36 0 0 Z " fill="#F7BD0E" transform="translate(726,653)"/>
<path d="M0 0 C2.5 1.5 2.5 1.5 4 4 C4.791013 8.02098277 4.62153384 10.96411027 2.5 14.5 C-1.02309336 16.61385602 -3.99667231 16.9352036 -8 16 C-11.2883921 13.28707652 -11.90851499 11.65183071 -12.5 7.4375 C-12 4 -12 4 -10.5 1.5625 C-6.97441116 -0.64099302 -4.04985528 -0.79669284 0 0 Z " fill="#E39E0E" transform="translate(437,427)"/>
<path d="M0 0 C-1.07974508 3.23923523 -1.49327662 3.62925165 -4.140625 5.49609375 C-4.79305176 5.96644043 -5.44547852 6.43678711 -6.11767578 6.92138672 C-6.82134277 7.4217041 -7.52500977 7.92202148 -8.25 8.4375 C-16.57590587 14.50952428 -24.61990708 21.05997264 -31.55761719 28.71972656 C-33.1171875 30.4140625 -33.1171875 30.4140625 -36 33 C-38.18017578 32.66162109 -38.18017578 32.66162109 -40 32 C-38.36899565 27.92737236 -35.49079706 25.10754986 -32.4375 22.0625 C-31.87611328 21.50127441 -31.31472656 20.94004883 -30.73632812 20.36181641 C-7.32916097 -2.44305366 -7.32916097 -2.44305366 0 0 Z " fill="#ECAF0E" transform="translate(411,599)"/>
<path d="M0 0 C3.27229722 1.04281999 4.03969909 2.06753114 5.81640625 5.08984375 C6.41455979 6.36495652 6.99581945 7.64809185 7.5625 8.9375 C7.86551025 9.61192139 8.16852051 10.28634277 8.48071289 10.98120117 C12.42587297 19.98086405 14.57882585 28.11708456 14 38 C13.67 38 13.34 38 13 38 C12.97494385 38.7206665 12.9498877 39.44133301 12.92407227 40.18383789 C12.80739924 43.47687464 12.68499821 46.76967501 12.5625 50.0625 C12.52318359 51.19623047 12.48386719 52.32996094 12.44335938 53.49804688 C12.23227663 59.06738395 11.94904568 64.50510526 11 70 C10.67 70 10.34 70 10 70 C10.02094727 69.13536133 10.04189453 68.27072266 10.06347656 67.37988281 C10.56677358 43.39363889 9.19550406 23.1093515 -1 1 C-0.67 0.67 -0.34 0.34 0 0 Z " fill="#F1B60F" transform="translate(762,497)"/>
<path d="M0 0 C0.71929687 0.08314453 1.43859375 0.16628906 2.1796875 0.25195312 C7.49647556 0.93397556 7.49647556 0.93397556 9.75 3.1875 C12.85756015 3.56072427 12.85756015 3.56072427 16.5078125 3.6015625 C17.17086395 3.62092865 17.83391541 3.6402948 18.51705933 3.6602478 C20.63624177 3.72005954 22.7554785 3.76643388 24.875 3.8125 C26.31122169 3.85067845 27.74742045 3.88973011 29.18359375 3.9296875 C32.70551936 4.02576125 36.22761608 4.10978642 39.75 4.1875 C39.75 5.1775 39.75 6.1675 39.75 7.1875 C7.23571149 7.60027905 7.23571149 7.60027905 -6.25 5.1875 C-6.25 4.5275 -6.25 3.8675 -6.25 3.1875 C-8.89 2.5275 -11.53 1.8675 -14.25 1.1875 C-14.25 0.8575 -14.25 0.5275 -14.25 0.1875 C-9.24135454 -0.92290725 -5.0117014 -0.67465211 0 0 Z " fill="#DF990C" transform="translate(344.25,898.8125)"/>
<path d="M0 0 C1.53781275 4.89055169 -0.41003081 8.58457595 -2.17382812 13.16015625 C-3.68769084 17.32433884 -4.01020875 20.48703814 -3.85766602 24.97802734 C-4.12526845 28.7795425 -5.96705612 31.88399582 -7.75 35.1875 C-8.09804688 35.87263672 -8.44609375 36.55777344 -8.8046875 37.26367188 C-10.84988276 41.19877905 -13.0890863 44.62360235 -16 48 C-16.99 47.67 -17.98 47.34 -19 47 C-17.82613554 43.11268 -16.35574034 39.62659037 -14.43554688 36.05078125 C-8.28447986 24.56718452 -4.21200817 12.29482832 0 0 Z " fill="#E9A810" transform="translate(766,590)"/>
<path d="M0 0 C0 3.10551666 -0.5393715 4.35261084 -2 7 C-1.01 6.67 -0.02 6.34 1 6 C1 5.01 1 4.02 1 3 C1.99 2.67 2.98 2.34 4 2 C4.66 2.66 5.32 3.32 6 4 C-2.74384042 12.3380708 -11.47328111 20.55220494 -21 28 C-21.66 27.34 -22.32 26.68 -23 26 C-22.31035156 25.26136719 -21.62070312 24.52273438 -20.91015625 23.76171875 C-15.3406173 17.76091901 -9.98680286 11.67649402 -4.875 5.27734375 C-3.32787414 3.39823047 -1.75953659 1.67705831 0 0 Z " fill="#EEB10E" transform="translate(408,754)"/>
<path d="M0 0 C8.12449174 3.71300301 14.80057491 10.62969775 21.5625 16.375 C22.49231689 17.16076416 22.49231689 17.16076416 23.44091797 17.96240234 C27.88223242 21.76446484 27.88223242 21.76446484 29 24 C27.35 24.33 25.7 24.66 24 25 C25.32 26.32 26.64 27.64 28 29 C27.67 29.66 27.34 30.32 27 31 C19.34357718 22.89389547 11.95588485 14.72016334 5 6 C3.34278737 3.99184823 1.67212492 1.995762 0 0 Z " fill="#E8A60D" transform="translate(385,532)"/>
<path d="M0 0 C0.66 0.33 1.32 0.66 2 1 C1.23816406 1.81082031 0.47632813 2.62164063 -0.30859375 3.45703125 C-6.03852623 9.58965298 -11.56265778 15.7957551 -16.8203125 22.34375 C-20.39417917 26.6989997 -24.19181502 30.84970857 -28 35 C-28 32.16032769 -27.59732819 29.76264289 -27 27 C-26.401875 26.938125 -25.80375 26.87625 -25.1875 26.8125 C-22.12856542 25.6763243 -21.44958901 23.82669858 -20 21 C-21.65 22.32 -23.3 23.64 -25 25 C-25.66 24.67 -26.32 24.34 -27 24 C-22.27023911 18.97967359 -17.17019323 14.61132774 -11.80078125 10.2890625 C-7.75559233 6.98295273 -3.87065768 3.50748486 0 0 Z " fill="#E9A90D" transform="translate(636,532)"/>
<path d="M0 0 C0.495 0.99 0.495 0.99 1 2 C-0.24716797 2.61488281 -0.24716797 2.61488281 -1.51953125 3.2421875 C-2.60621094 3.78101563 -3.69289063 4.31984375 -4.8125 4.875 C-5.89144531 5.40867187 -6.97039063 5.94234375 -8.08203125 6.4921875 C-11.07838265 7.97221139 -11.07838265 7.97221139 -14 10 C-17.15110661 11.61658627 -20.36117545 13.11070014 -23.5625 14.625 C-24.87637695 15.25535156 -24.87637695 15.25535156 -26.21679688 15.8984375 C-27.05404297 16.29546875 -27.89128906 16.6925 -28.75390625 17.1015625 C-29.52033447 17.46588379 -30.2867627 17.83020508 -31.07641602 18.20556641 C-33 19 -33 19 -35 19 C-35.33 17.68 -35.66 16.36 -36 15 C-33.13177314 13.50742475 -30.25437567 12.03343687 -27.375 10.5625 C-26.16263672 9.93118164 -26.16263672 9.93118164 -24.92578125 9.28710938 C-20.54515144 7.06117959 -16.90924554 5.65456607 -12 5 C-9.85279789 4.20328876 -7.72642789 3.34811875 -5.625 2.4375 C-4.56539062 1.98246094 -3.50578125 1.52742187 -2.4140625 1.05859375 C-1.61742187 0.70925781 -0.82078125 0.35992188 0 0 Z " fill="#E7A50F" transform="translate(581,513)"/>
<path d="M0 0 C2 2 2 2 2.3125 5.4375 C2 9 2 9 0.875 10.9375 C-1.88980433 12.50422245 -3.88188517 12.38976435 -7 12 C-8.875 10.875 -8.875 10.875 -10 9 C-10.38976435 5.88188517 -10.50422245 3.88980433 -8.9375 1.125 C-5.93267901 -0.61973477 -3.39189869 -0.30835443 0 0 Z " fill="#E5A20D" transform="translate(742,741)"/>
<path d="M0 0 C3.0625 0.3125 3.0625 0.3125 4.9375 1.4375 C6.60913625 4.22356042 6.52626624 6.13238862 6.0625 9.3125 C4.375 11.25 4.375 11.25 2.0625 12.3125 C-0.77117793 12.17427181 -2.42346785 11.63805369 -4.8125 10.125 C-5.9375 8.3125 -5.9375 8.3125 -5.75 5.25 C-4.6778982 1.37393966 -4.050591 0.43091394 0 0 Z " fill="#E09E0C" transform="translate(570.9375,878.6875)"/>
<path d="M0 0 C2.54624888 1.24064677 5.04354036 2.55720282 7.53125 3.91015625 C8.49998047 4.43512695 8.49998047 4.43512695 9.48828125 4.97070312 C10.83106811 5.69945832 12.17221668 6.43124022 13.51171875 7.16601562 C16.65392411 8.86255564 19.51469616 10.23818757 23 11 C22.67 10.67 22.34 10.34 22 10 C21.67 9.34 21.34 8.68 21 8 C27.01077136 9.63040815 33.01663928 11.27147357 39 13 C37.02 13.99 37.02 13.99 35 15 C37.64 15.66 40.28 16.32 43 17 C43 17.33 43 17.66 43 18 C31.07960433 17.69147211 20.18203837 13.40262918 9.75 7.9375 C9.11811768 7.60935303 8.48623535 7.28120605 7.83520508 6.94311523 C4.41319505 5.07117063 2.05415004 3.3417151 0 0 Z " fill="#ECAE0E" transform="translate(297,885)"/>
<path d="M0 0 C0.87914062 0.00451172 1.75828125 0.00902344 2.6640625 0.01367188 C4.81773803 0.02537663 6.97137817 0.04330931 9.125 0.0625 C8.795 1.0525 8.465 2.0425 8.125 3.0625 C8.9603125 3.04509766 8.9603125 3.04509766 9.8125 3.02734375 C15.02278343 2.96573567 19.9687951 3.31250656 25.125 4.0625 C25.125 4.3925 25.125 4.7225 25.125 5.0625 C11.39417062 5.47034642 -2.20393074 4.23062227 -15.875 3.0625 C-15.875 2.4025 -15.875 1.7425 -15.875 1.0625 C-10.54632017 -0.04691367 -5.41218145 -0.05298069 0 0 Z " fill="#EEB10F" transform="translate(273.875,653.9375)"/>
<path d="M0 0 C1.7325 0.1546875 1.7325 0.1546875 3.5 0.3125 C5.64762184 3.53393276 6.061068 4.5720467 5.5 8.3125 C3.8125 10.1875 3.8125 10.1875 1.5 11.3125 C-1.125 11.1875 -1.125 11.1875 -3.5 10.3125 C-5.64915785 7.08876323 -5.88286803 6.04546326 -5.5 2.3125 C-3.5 0.3125 -3.5 0.3125 0 0 Z " fill="#E5A10E" transform="translate(341.5,752.6875)"/>
<path d="M0 0 C0 3 0 3 -1.46875 4.80932617 C-2.1390625 5.46392822 -2.809375 6.11853027 -3.5 6.79296875 C-4.5828125 7.8612793 -4.5828125 7.8612793 -5.6875 8.95117188 C-6.450625 9.68916016 -7.21375 10.42714844 -8 11.1875 C-8.763125 11.93708984 -9.52625 12.68667969 -10.3125 13.45898438 C-12.20180839 15.31286823 -14.09775206 17.15941069 -16 19 C-16.33 18.34 -16.66 17.68 -17 17 C-17.53109375 17.48210938 -18.0621875 17.96421875 -18.609375 18.4609375 C-19.31578125 19.09257813 -20.0221875 19.72421875 -20.75 20.375 C-21.44609375 21.00148438 -22.1421875 21.62796875 -22.859375 22.2734375 C-24.85477274 23.88286414 -26.70179679 24.90140836 -29 26 C-24.18132753 20.19108254 -18.98743592 14.86934448 -13.625 9.5625 C-12.79355469 8.73556641 -11.96210937 7.90863281 -11.10546875 7.05664062 C-9.0725896 5.03544469 -7.03740037 3.01663665 -5 1 C-5 4.90838866 -6.50567876 6.11594107 -9 9 C-6.03 6.03 -3.06 3.06 0 0 Z " fill="#F4B70F" transform="translate(686,730)"/>
<path d="M0 0 C0.33 0 0.66 0 1 0 C1 6.6 1 13.2 1 20 C13.21 20 25.42 20 38 20 C36.68 21.32 35.36 22.64 34 24 C34 23.34 34 22.68 34 22 C32.50835327 22.00785522 32.50835327 22.00785522 30.98657227 22.01586914 C27.30966079 22.03392041 23.63275325 22.04543246 19.95581055 22.05493164 C18.36205386 22.05997157 16.76830181 22.0668035 15.17456055 22.07543945 C12.88849747 22.08751999 10.60249533 22.09323155 8.31640625 22.09765625 C7.59973282 22.10281754 6.88305939 22.10797882 6.14466858 22.11329651 C4.42936328 22.11349263 2.71418734 22.06192007 1 22 C0 21 0 21 -0.11352539 18.95874023 C-0.10828857 18.08419189 -0.10305176 17.20964355 -0.09765625 16.30859375 C-0.09443359 15.36435547 -0.09121094 14.42011719 -0.08789062 13.44726562 C-0.07951172 12.45404297 -0.07113281 11.46082031 -0.0625 10.4375 C-0.05798828 9.44041016 -0.05347656 8.44332031 -0.04882812 7.41601562 C-0.03700007 4.94395151 -0.02051849 2.47200482 0 0 Z " fill="#FAB60D" transform="translate(459,985)"/>
<path d="M0 0 C1.12212891 0.06574219 2.24425781 0.13148438 3.40039062 0.19921875 C6.16451194 0.36388981 8.9258902 0.54809359 11.6875 0.75 C11.6875 1.74 11.6875 2.73 11.6875 3.75 C1.81874027 4.6484165 -7.43318829 4.73945341 -17.3125 3.75 C-12.50935207 -1.84463732 -6.70520351 -0.49377887 0 0 Z " fill="#DFA00C" transform="translate(753.3125,653.25)"/>
<path d="M0 0 C0.99 0 1.98 0 3 0 C3.82536345 5.71905383 4.12753701 11.2267149 4.0625 17 C4.05798828 17.77472656 4.05347656 18.54945313 4.04882812 19.34765625 C4.03719758 21.23180524 4.01926906 23.11591365 4 25 C3.01 23.68 2.02 22.36 1 21 C0.67 22.98 0.34 24.96 0 27 C-0.33 27 -0.66 27 -1 27 C-1.02922646 23.62501842 -1.04687468 20.25006979 -1.0625 16.875 C-1.07087891 15.92367188 -1.07925781 14.97234375 -1.08789062 13.9921875 C-1.10449608 9.20981513 -1.00537055 4.70228431 0 0 Z " fill="#F2B80E" transform="translate(510,403)"/>
<path d="M0 0 C-0.59804565 3.6728802 -0.90332229 3.92907122 -4.16796875 6.32421875 C-5.5000386 7.12505436 -6.84030261 7.91238264 -8.1875 8.6875 C-8.84814453 9.09033203 -9.50878906 9.49316406 -10.18945312 9.90820312 C-14.11888717 12.22397028 -17.37448818 13.57557512 -22 14 C-20.5137969 9.69580141 -17.37489027 8.04729326 -13.625 5.875 C-13.0475 5.52824219 -12.47 5.18148437 -11.875 4.82421875 C-3.77918463 0 -3.77918463 0 0 0 Z " fill="#EFB80E" transform="translate(477,545)"/>
<path d="M0 0 C0.66 0 1.32 0 2 0 C1.43379699 3.77468671 -0.12268981 5.47551893 -2.81640625 8.109375 C-3.58017578 8.86347656 -4.34394531 9.61757813 -5.13085938 10.39453125 C-5.93330078 11.17183594 -6.73574219 11.94914063 -7.5625 12.75 C-8.77196289 13.93916016 -8.77196289 13.93916016 -10.00585938 15.15234375 C-11.99733778 17.10847046 -13.99547721 19.05725719 -16 21 C-17.32 20.34 -18.64 19.68 -20 19 C-19.06409496 17.8944811 -18.12620142 16.79064547 -17.1875 15.6875 C-16.66542969 15.07261719 -16.14335938 14.45773437 -15.60546875 13.82421875 C-13.42395237 11.34546413 -11.57292853 9.32517565 -8.6875 7.6875 C-6.30060488 6.1887519 -4.7431257 4.8184672 -2.8125 2.8125 C-1.884375 1.884375 -0.95625 0.95625 0 0 Z " fill="#E7A10E" transform="translate(667,747)"/>
<path d="M0 0 C2.4375 0.8125 2.4375 0.8125 4.4375 2.8125 C4.8008156 5.64636167 4.7943671 7.21772151 3.3125 9.6875 C1.4375 10.8125 1.4375 10.8125 -1.6875 10.5625 C-4.5625 9.8125 -4.5625 9.8125 -5.5625 8.8125 C-6.01941383 3.55799098 -6.01941383 3.55799098 -4.375 0.875 C-2.5625 -0.1875 -2.5625 -0.1875 0 0 Z " fill="#E8A60E" transform="translate(641.5625,703.1875)"/>
<path d="M0 0 C3 0.25 3 0.25 5 2.25 C5.25 5.25 5.25 5.25 5 8.25 C3 10.25 3 10.25 0 10.5 C-3 10.25 -3 10.25 -5 8.25 C-5.25 5.25 -5.25 5.25 -5 2.25 C-3 0.25 -3 0.25 0 0 Z " fill="#E6A40E" transform="translate(309,548.75)"/>
<path d="M0 0 C0.99 0.33 1.98 0.66 3 1 C2.44151174 5.18358477 -0.04446302 8.02629569 -2.5625 11.25 C-2.98724609 11.80429687 -3.41199219 12.35859375 -3.84960938 12.9296875 C-4.89398341 14.29089411 -5.94622464 15.64605833 -7 17 C-7.33 16.01 -7.66 15.02 -8 14 C-8.99 15.32 -9.98 16.64 -11 18 C-11.66 17.67 -12.32 17.34 -13 17 C-6.565 8.585 -6.565 8.585 0 0 Z " fill="#F3B910" transform="translate(723,678)"/>
<path d="M0 0 C4.71712235 2.00286169 7.97271538 5.53826633 11.66015625 9.00390625 C13.91467193 11.17996121 13.91467193 11.17996121 17 12 C14.69 9.36 12.38 6.72 10 4 C10.33 3.34 10.66 2.68 11 2 C20.59453303 12.37357631 20.59453303 12.37357631 24 18 C22.18676758 18.64477539 22.18676758 18.64477539 20 19 C17.69806235 17.21562219 15.73621571 15.47971278 13.6875 13.4375 C12.53214353 12.32459247 11.37590099 11.21260404 10.21875 10.1015625 C9.66574219 9.5643457 9.11273437 9.02712891 8.54296875 8.47363281 C6.65642006 6.67185941 4.69259546 4.98067368 2.6875 3.3125 C1.800625 2.549375 0.91375 1.78625 0 1 C0 0.67 0 0.34 0 0 Z " fill="#EDB60F" transform="translate(606,754)"/>
<path d="M0 0 C0.625 2.875 0.625 2.875 1 6 C-1 8 -1 8 -4 8.25 C-7 8 -7 8 -9 6 C-8.75 2.9375 -8.75 2.9375 -8 0 C-5.13822943 -1.43088528 -3.06624227 -0.59991697 0 0 Z " fill="#F0BA0F" transform="translate(647,455)"/>
<path d="M0 0 C11.22 0 22.44 0 34 0 C34.495 1.98 34.495 1.98 35 4 C34.34 3.67 33.68 3.34 33 3 C30.52167341 2.84373424 28.06688669 2.74186802 25.5859375 2.68359375 C24.85629791 2.66281265 24.12665833 2.64203156 23.37490845 2.62062073 C21.04170237 2.55518083 18.70838279 2.49626632 16.375 2.4375 C14.79425905 2.39430947 13.21352961 2.35069501 11.6328125 2.30664062 C7.75532496 2.19950519 3.87772315 2.09822218 0 2 C0 1.34 0 0.68 0 0 Z " fill="#E4A30D" transform="translate(733,964)"/>
<path d="M0 0 C2.4314398 0.57210348 3.75143749 0.13295 6.125 -0.5 C6.785 -0.17 7.445 0.16 8.125 0.5 C6.42897484 1.54115423 4.71751063 2.55718378 3 3.5625 C1.57300781 4.41521484 1.57300781 4.41521484 0.1171875 5.28515625 C-3.43381451 6.72688161 -5.18386773 6.21232377 -8.875 5.5 C-11.12570479 6.23784316 -11.12570479 6.23784316 -13.0625 7.5 C-15.04296875 8.6875 -15.04296875 8.6875 -16.875 9.5 C-17.865 9.17 -18.855 8.84 -19.875 8.5 C-1.875 -0.5 -1.875 -0.5 0 0 Z " fill="#EAAF0F" transform="translate(503.875,862.5)"/>
<path d="M0 0 C-0.6853655 4.99450259 -2.02015651 9.5967594 -3.5625 14.375 C-3.91344727 15.47908203 -3.91344727 15.47908203 -4.27148438 16.60546875 C-4.8440028 18.40481238 -5.42149314 20.20257277 -6 22 C-8.82159337 17.06493515 -7.74979667 12.77250397 -6.328125 7.515625 C-4.92766315 3.0284309 -4.92766315 3.0284309 -4 1 C-2 0 -2 0 0 0 Z " fill="#E8AE0F" transform="translate(280,763)"/>
<path d="M0 0 C0.66 0.33 1.32 0.66 2 1 C1.20335937 1.85722656 0.40671875 2.71445312 -0.4140625 3.59765625 C-5.71461277 9.31319919 -10.99467984 15.02142315 -16 21 C-16 18 -16 18 -15 16 C-15.99 16 -16.98 16 -18 16 C-16.1265988 14.26907429 -14.25133718 12.54023837 -12.375 10.8125 C-11.85292969 10.32974609 -11.33085938 9.84699219 -10.79296875 9.34960938 C-7.28138707 6.11982129 -3.68700349 3.02821458 0 0 Z " fill="#ECB30F" transform="translate(636,532)"/>
<path d="M0 0 C-5.57638571 2.63179519 -11.18237799 5.15671847 -16.9375 7.375 C-17.81277344 7.71273438 -18.68804688 8.05046875 -19.58984375 8.3984375 C-22.1769164 9.04415742 -23.51891689 8.88651229 -26 8 C-25.01 7.67 -24.02 7.34 -23 7 C-23.33 6.34 -23.66 5.68 -24 5 C-3.91836735 -1.30612245 -3.91836735 -1.30612245 0 0 Z " fill="#E9B00F" transform="translate(659,487)"/>
<path d="M0 0 C0.33 0.66 0.66 1.32 1 2 C-2.43071182 3.53649202 -5.87051918 5.05144123 -9.3125 6.5625 C-10.28896484 7.00013672 -11.26542969 7.43777344 -12.27148438 7.88867188 C-13.20927734 8.29794922 -14.14707031 8.70722656 -15.11328125 9.12890625 C-15.97735596 9.51119385 -16.84143066 9.89348145 -17.73168945 10.28735352 C-20 11 -20 11 -23 10 C-20.03 9.01 -17.06 8.02 -14 7 C-17.27275026 7 -19.846632 7.29925156 -23 8 C-21.6045933 5.20918661 -19.98580959 4.96096994 -17.125 3.8125 C-16.24070312 3.44769531 -15.35640625 3.08289063 -14.4453125 2.70703125 C-12 2 -12 2 -9 3 C-5.82838524 2.47139754 -2.95843971 1.23268321 0 0 Z " fill="#F0B40E" transform="translate(484,874)"/>
<path d="M0 0 C6.6 0 13.2 0 20 0 C19.67 0.66 19.34 1.32 19 2 C13.39 2 7.78 2 2 2 C2.04125 3.77375 2.0825 5.5475 2.125 7.375 C2.1953125 10.3984375 2.1953125 10.3984375 2 13 C1.34 13.66 0.68 14.32 0 15 C0 10.05 0 5.1 0 0 Z " fill="#EFAA0C" transform="translate(642,964)"/>
<path d="M0 0 C2.70186056 3.35862051 4.67165172 6.94651268 6.6875 10.75 C7.00783203 11.35199219 7.32816406 11.95398438 7.65820312 12.57421875 C8.4418167 14.04788011 9.22132733 15.52372194 10 17 C8.33333333 17 6.66666667 17 5 17 C3.98696238 15.27843904 2.99005152 13.54738194 2 11.8125 C1.443125 10.84957031 0.88625 9.88664063 0.3125 8.89453125 C-1.02759124 5.93915145 -1.36323384 4.19532272 -1 1 C-0.67 0.67 -0.34 0.34 0 0 Z " fill="#E39D0E" transform="translate(275,852)"/>
<path d="M0 0 C1.72516021 4.09079905 0.04047557 7.35492358 -1.4375 11.25 C-3.41814678 16.73869097 -4.34252403 21.17709156 -4 27 C-4.66 27.66 -5.32 28.32 -6 29 C-6.33 28.01 -6.66 27.02 -7 26 C-7.99 27.98 -8.98 29.96 -10 32 C-11.11327914 28.66016257 -10.967873 28.2426894 -9.70703125 25.15625 C-9.40804932 24.40907715 -9.10906738 23.6619043 -8.80102539 22.89208984 C-8.47481201 22.1027002 -8.14859863 21.31331055 -7.8125 20.5 C-7.16053506 18.87797497 -6.50949164 17.25557922 -5.859375 15.6328125 C-5.54033203 14.84293945 -5.22128906 14.05306641 -4.89257812 13.23925781 C-3.14996335 8.86746823 -1.57280036 4.43510165 0 0 Z " fill="#F1B50F" transform="translate(766,590)"/>
<path d="M0 0 C0.061875 0.8353125 0.061875 0.8353125 0.125 1.6875 C1.43719309 5.15543888 4.16839957 6.68848944 7 9 C8.4375 11.0625 8.4375 11.0625 9 13 C8.70578562 14.34250765 8.37647911 15.67820109 8 17 C7.75765625 16.45730469 7.5153125 15.91460938 7.265625 15.35546875 C6.93046875 14.64003906 6.5953125 13.92460938 6.25 13.1875 C5.76273438 12.12595703 5.76273438 12.12595703 5.265625 11.04296875 C3.11030938 7.5638636 0.8633985 6.27176922 -3.015625 5.05078125 C-4.61664062 4.68533203 -4.61664062 4.68533203 -6.25 4.3125 C-7.32765625 4.06113281 -8.4053125 3.80976562 -9.515625 3.55078125 C-10.33546875 3.36902344 -11.1553125 3.18726563 -12 3 C-8.62446616 -0.37553384 -4.59080647 -0.1311659 0 0 Z " fill="#EFB10E" transform="translate(677,810)"/>
<path d="M0 0 C4.95 0 9.9 0 15 0 C14.01 1.485 14.01 1.485 13 3 C18.445 3.495 18.445 3.495 24 4 C24 4.33 24 4.66 24 5 C21.60458732 5.19585135 19.20907226 5.38192107 16.8125 5.5625 C15.80219727 5.64661133 15.80219727 5.64661133 14.77148438 5.73242188 C7.42087104 6.27027163 7.42087104 6.27027163 4 5 C2.68 3.35 1.36 1.7 0 0 Z " fill="#EFAC0D" transform="translate(726,653)"/>
<path d="M0 0 C8.31870894 3.75868271 15.25116029 10.96751758 22 17 C18.09161134 17 16.88405893 15.49432124 14 13 C13.67 13.66 13.34 14.32 13 15 C10.82933435 12.6912253 8.66415316 10.37737901 6.5 8.0625 C5.87996094 7.40314453 5.25992187 6.74378906 4.62109375 6.06445312 C4.03457031 5.43603516 3.44804687 4.80761719 2.84375 4.16015625 C2.02680664 3.28822632 2.02680664 3.28822632 1.19335938 2.39868164 C0 1 0 1 0 0 Z " fill="#EAB20F" transform="translate(385,532)"/>
<path d="M0 0 C0.8723412 2.99480917 1.10829766 5.63575911 1.0625 8.75 C1.05347656 9.54921875 1.04445313 10.3484375 1.03515625 11.171875 C1.01775391 12.07679688 1.01775391 12.07679688 1 13 C0.01 13.495 0.01 13.495 -1 14 C-1.46907051 16.12998171 -1.46907051 16.12998171 -1.6328125 18.69140625 C-1.71660156 19.63564453 -1.80039062 20.57988281 -1.88671875 21.55273438 C-1.96535156 22.54595703 -2.04398437 23.53917969 -2.125 24.5625 C-2.21136719 25.55958984 -2.29773438 26.55667969 -2.38671875 27.58398438 C-2.59956793 30.05539988 -2.80359321 32.52723225 -3 35 C-3.33 35 -3.66 35 -4 35 C-4.04939662 31.04903022 -4.08571755 27.0981797 -4.10986328 23.14697266 C-4.12488107 21.1408864 -4.15028981 19.13488676 -4.17578125 17.12890625 C-4.18544922 15.24365234 -4.18544922 15.24365234 -4.1953125 13.3203125 C-4.20578613 12.15773926 -4.21625977 10.99516602 -4.22705078 9.79736328 C-4 7 -4 7 -2 5 C-1.29289322 3.35008418 -0.62056011 1.68437744 0 0 Z " fill="#D0860D" transform="translate(272,786)"/>
<path d="M0 0 C0.33 0.66 0.66 1.32 1 2 C0.45730469 2.26554688 -0.08539063 2.53109375 -0.64453125 2.8046875 C-1.35996094 3.15789063 -2.07539063 3.51109375 -2.8125 3.875 C-3.52019531 4.22304688 -4.22789062 4.57109375 -4.95703125 4.9296875 C-7.21246418 6.0656486 -7.21246418 6.0656486 -10 8 C-14.11313943 9.37104648 -17.65739818 10.26318799 -22 10 C-22 9.34 -22 8.68 -22 8 C-18.04 6.68 -14.08 5.36 -10 4 C-10 3.34 -10 2.68 -10 2 C-8.906875 1.855625 -7.81375 1.71125 -6.6875 1.5625 C-3.06877013 1.11711896 -3.06877013 1.11711896 0 0 Z " fill="#DE940D" transform="translate(469,879)"/>
<path d="M0 0 C1.77226453 0.28284018 3.542788 0.57660498 5.3125 0.875 C6.29863281 1.03742187 7.28476562 1.19984375 8.30078125 1.3671875 C11 2 11 2 14 4 C12.08333333 4.47916667 10.16666667 4.95833333 8.25 5.4375 C7.18265625 5.70433594 6.1153125 5.97117187 5.015625 6.24609375 C3.21354167 6.69661458 1.41145833 7.14713542 -0.390625 7.59765625 C-0.92171875 7.73042969 -1.4528125 7.86320313 -2 8 C-1.67 7.34 -1.34 6.68 -1 6 C-0.34 6 0.32 6 1 6 C0.67 4.02 0.34 2.04 0 0 Z " fill="#EAAA0F" transform="translate(696,809)"/>
<path d="M0 0 C4.70588235 0.70588235 4.70588235 0.70588235 6 2 C6.125 4.5 6.125 4.5 6 7 C5 8 5 8 2.5625 8.1875 C0 8 0 8 -2 6 C-1.44444444 1.44444444 -1.44444444 1.44444444 0 0 Z " fill="#E6A70E" transform="translate(456,769)"/>
<path d="M0 0 C2.625 0.375 2.625 0.375 5 1 C5.625 3.375 5.625 3.375 6 6 C4 8 4 8 1.4375 8.1875 C-1 8 -1 8 -2 7 C-2.1875 4.5625 -2.1875 4.5625 -2 2 C-1.34 1.34 -0.68 0.68 0 0 Z " fill="#E4A60F" transform="translate(696,561)"/>
<path d="M0 0 C2.625 0.375 2.625 0.375 5 1 C5.625 3.375 5.625 3.375 6 6 C4 8 4 8 1.4375 8.1875 C-1 8 -1 8 -2 7 C-2.1875 4.5625 -2.1875 4.5625 -2 2 C-1.34 1.34 -0.68 0.68 0 0 Z " fill="#F1BE10" transform="translate(445,502)"/>
<path d="M0 0 C1.46373047 0.01353516 1.46373047 0.01353516 2.95703125 0.02734375 C4.06111328 0.04474609 4.06111328 0.04474609 5.1875 0.0625 C3.8675 1.0525 2.5475 2.0425 1.1875 3.0625 C1.5175 3.7225 1.8475 4.3825 2.1875 5.0625 C-0.51966242 5.96488747 -2.05026768 6.18101302 -4.82421875 6.16015625 C-5.96020508 6.15532227 -5.96020508 6.15532227 -7.11914062 6.15039062 C-7.90482422 6.14201172 -8.69050781 6.13363281 -9.5 6.125 C-10.29728516 6.12048828 -11.09457031 6.11597656 -11.91601562 6.11132812 C-13.88154257 6.0995585 -15.84703085 6.08162348 -17.8125 6.0625 C-17.8125 5.7325 -17.8125 5.4025 -17.8125 5.0625 C-11.8725 4.5675 -11.8725 4.5675 -5.8125 4.0625 C-8.2875 3.0725 -8.2875 3.0725 -10.8125 2.0625 C-10.8125 1.7325 -10.8125 1.4025 -10.8125 1.0625 C-7.13862505 0.20951624 -3.7677607 -0.04539471 0 0 Z " fill="#CC860D" transform="translate(730.8125,651.9375)"/>
<path d="M0 0 C2.625 0.375 2.625 0.375 5 1 C5.625 3.375 5.625 3.375 6 6 C5.34 6.66 4.68 7.32 4 8 C1.375 7.625 1.375 7.625 -1 7 C-1.625 4.625 -1.625 4.625 -2 2 C-1.34 1.34 -0.68 0.68 0 0 Z " fill="#F5BE0F" transform="translate(555,775)"/>
<path d="M0 0 C2 2 2 2 3 7 C-3.93 7 -10.86 7 -18 7 C-17.67 5.68 -17.34 4.36 -17 3 C-17 3.66 -17 4.32 -17 5 C-8.585 4.505 -8.585 4.505 0 4 C0 2.68 0 1.36 0 0 Z " fill="#F3AB0D" transform="translate(259,1060)"/>
<path d="M0 0 C1 4 1 4 0 7 C5.94 6.67 11.88 6.34 18 6 C18 6.99 18 7.98 18 9 C11.4 9 4.8 9 -2 9 C-1.34 6.03 -0.68 3.06 0 0 Z " fill="#F4AD0D" transform="translate(172,1058)"/>
<path d="M0 0 C2.625 0.375 2.625 0.375 5 1 C5.625 2.8125 5.625 2.8125 6 5 C5.01 6.485 5.01 6.485 4 8 C2.35 7.67 0.7 7.34 -1 7 C-1.625 4.625 -1.625 4.625 -2 2 C-1.34 1.34 -0.68 0.68 0 0 Z " fill="#E9B40C" transform="translate(568,446)"/>
<path d="M0 0 C0.33 0.66 0.66 1.32 1 2 C-0.32 2.99 -1.64 3.98 -3 5 C-2.01 5.33 -1.02 5.66 0 6 C-2.76203532 7.53723734 -5.53585152 9.05184161 -8.3125 10.5625 C-9.09818359 11.00013672 -9.88386719 11.43777344 -10.69335938 11.88867188 C-11.45068359 12.29794922 -12.20800781 12.70722656 -12.98828125 13.12890625 C-14.03302612 13.70233765 -14.03302612 13.70233765 -15.09887695 14.28735352 C-17 15 -17 15 -20 14 C-15.38 11.69 -10.76 9.38 -6 7 C-6.99 6.34 -7.98 5.68 -9 5 C-6.03 3.35 -3.06 1.7 0 0 Z " fill="#F1B70E" transform="translate(536,845)"/>
<path d="M0 0 C0.66 0 1.32 0 2 0 C2.15855469 0.80824219 2.31710937 1.61648438 2.48046875 2.44921875 C4.30420245 10.89701567 4.30420245 10.89701567 10 17 C6.40195281 15.66358247 3.2707369 13.99878366 0 12 C-0.33 12 -0.66 12 -1 12 C-0.67 8.04 -0.34 4.08 0 0 Z " fill="#EAAE10" transform="translate(333,812)"/>
<path d="M0 0 C0.66 0.66 1.32 1.32 2 2 C0.71128306 4.77223992 -0.58083384 7.5428053 -1.875 10.3125 C-2.23980469 11.09818359 -2.60460937 11.88386719 -2.98046875 12.69335938 C-3.33496094 13.45068359 -3.68945312 14.20800781 -4.0546875 14.98828125 C-4.37937012 15.68477783 -4.70405273 16.38127441 -5.03857422 17.09887695 C-6 19 -6 19 -8 22 C-9.03743192 18.88770423 -9.01105951 18.04423804 -8.25 15 C-8.09015625 14.319375 -7.9303125 13.63875 -7.765625 12.9375 C-6.87652781 10.68753977 -5.72389182 9.67204545 -4 8 C-2.80400932 5.96767758 -2.80400932 5.96767758 -1.8125 3.8125 C-1.46832031 3.09707031 -1.12414062 2.38164063 -0.76953125 1.64453125 C-0.51558594 1.10183594 -0.26164062 0.55914063 0 0 Z " fill="#DE900D" transform="translate(289,739)"/>
<path d="M0 0 C7.59 0 15.18 0 23 0 C22.67 0.66 22.34 1.32 22 2 C15.4 2 8.8 2 2 2 C1.67 2.99 1.34 3.98 1 5 C0.67 3.35 0.34 1.7 0 0 Z " fill="#F7B20D" transform="translate(608,964)"/>
<path d="M0 0 C-1.22053859 3.66161578 -2.36782304 4.16270474 -5.5625 6.1875 C-6.38878906 6.71730469 -7.21507812 7.24710938 -8.06640625 7.79296875 C-8.70449219 8.19128906 -9.34257812 8.58960938 -10 9 C-10.66 8.34 -11.32 7.68 -12 7 C-10.84625061 3.53875184 -10.12298029 3.11687417 -7.125 1.25 C-6.42632812 0.80140625 -5.72765625 0.3528125 -5.0078125 -0.109375 C-3 -1 -3 -1 0 0 Z " fill="#E3A70E" transform="translate(411,599)"/>
<path d="M0 0 C0.474375 0.495 0.94875 0.99 1.4375 1.5 C2.75923698 3.11542197 2.75923698 3.11542197 4 3 C3.88485851 5.04224637 3.75742674 7.08380159 3.625 9.125 C3.52058594 10.83042969 3.52058594 10.83042969 3.4140625 12.5703125 C3.00556124 15.95393616 2.19032431 18.81612441 1 22 C0.67 22 0.34 22 0 22 C0.08378906 21.22914063 0.16757812 20.45828125 0.25390625 19.6640625 C0.40666016 18.15972656 0.40666016 18.15972656 0.5625 16.625 C0.66691406 15.62726562 0.77132812 14.62953125 0.87890625 13.6015625 C1.21144708 11.015963 1.21144708 11.015963 0 9 C-0.06950541 7.45976004 -0.08452357 5.91665012 -0.0625 4.375 C-0.05347656 3.55773437 -0.04445313 2.74046875 -0.03515625 1.8984375 C-0.02355469 1.27195312 -0.01195312 0.64546875 0 0 Z " fill="#EAAD0D" transform="translate(771,564)"/>
<path d="M0 0 C2.87648998 2.59811998 4.34542646 4.18165434 5 8 C5.06624507 9.74886981 5.08552595 11.50002748 5.0625 13.25 C5.05347656 14.14203125 5.04445313 15.0340625 5.03515625 15.953125 C5.02355469 16.62859375 5.01195312 17.3040625 5 18 C4.67 18 4.34 18 4 18 C4 16.35 4 14.7 4 13 C2.68 12.67 1.36 12.34 0 12 C-1.28571429 3.42857143 -1.28571429 3.42857143 0 0 Z " fill="#DD9E0D" transform="translate(771,517)"/>
<path d="M0 0 C0.66 0 1.32 0 2 0 C2.02578125 0.79664063 2.0515625 1.59328125 2.078125 2.4140625 C2.42423851 8.88009207 2.78500569 13.01864309 7 18 C7.66 18.99 8.32 19.98 9 21 C5.52289751 19.59136573 4.15256208 18.11397363 2.3125 14.875 C1.56296645 13.57085804 0.79775205 12.27521703 0 11 C-0.33 11 -0.66 11 -1 11 C-1.14285714 3.57142857 -1.14285714 3.57142857 0 0 Z " fill="#EAAF0E" transform="translate(687,788)"/>
<path d="M0 0 C0.6640625 1.77734375 0.6640625 1.77734375 1 4 C-1.53833664 8.43731781 -5.46199554 11.73099777 -10 14 C-10 9.84439769 -7.7179548 8.15900671 -5 5.3125 C-4.52304687 4.80138672 -4.04609375 4.29027344 -3.5546875 3.76367188 C-2.37640085 2.50290516 -1.18904747 1.25062314 0 0 Z " fill="#EDB612" transform="translate(396,768)"/>
<path d="M0 0 C2.125 0.375 2.125 0.375 4 1 C4.38218767 2.65614657 4.71395102 4.32457024 5 6 C4 7 4 7 1.4375 7.0625 C0.2309375 7.0315625 0.2309375 7.0315625 -1 7 C-1.625 4.625 -1.625 4.625 -2 2 C-1.34 1.34 -0.68 0.68 0 0 Z " fill="#E3A80E" transform="translate(620,852)"/>
<path d="M0 0 C0.99 0.33 1.98 0.66 3 1 C1.50902342 4.7952131 -0.75700849 6.61042731 -4 9 C-5.32 8.34 -6.64 7.68 -8 7 C-5.9708888 3.95633321 -4.35137781 2.45226372 -1 1 C-0.67 0.67 -0.34 0.34 0 0 Z " fill="#E4A00D" transform="translate(634,777)"/>
<path d="M0 0 C1.21236328 0.01353516 1.21236328 0.01353516 2.44921875 0.02734375 C3.37154297 0.04474609 3.37154297 0.04474609 4.3125 0.0625 C2.8058187 2.52076948 1.83666219 3.85283512 -0.875 4.9375 C-4.78751419 5.11138952 -7.92657278 4.14615699 -11.6875 3.0625 C-7.67753141 0.98837831 -4.53355023 -0.06570363 0 0 Z " fill="#DC960E" transform="translate(437.6875,889.9375)"/>
<path d="M0 0 C0.66 0.33 1.32 0.66 2 1 C-0.64 5.62 -3.28 10.24 -6 15 C-6.66 15 -7.32 15 -8 15 C-7.74563586 10.67580959 -7.48340805 8.54538344 -4.5625 5.25 C-3.2940625 4.13625 -3.2940625 4.13625 -2 3 C-1.34 2.01 -0.68 1.02 0 0 Z " fill="#DE900E" transform="translate(303,715)"/>
<path d="M0 0 C0.99 0.33 1.98 0.66 3 1 C2.38242733 5.01422236 0.46625981 7.82909453 -2 11 C-4.25 11.875 -4.25 11.875 -6 12 C-4 8 -2 4 0 0 Z " fill="#E0A30E" transform="translate(723,678)"/>
<path d="M0 0 C1.49536133 1.1809082 1.49536133 1.1809082 3 3 C3.2487793 5.36010742 3.2487793 5.36010742 3.07421875 8.10546875 C3.01943359 9.08837891 2.96464844 10.07128906 2.90820312 11.08398438 C2.83537109 12.10814453 2.76253906 13.13230469 2.6875 14.1875 C2.62626953 15.22326172 2.56503906 16.25902344 2.50195312 17.32617188 C2.34864013 19.88531957 2.1807893 22.44267045 2 25 C1.67 25 1.34 25 1 25 C0.15672251 16.64251778 -0.12190678 8.39802254 0 0 Z " fill="#D3890C" transform="translate(522,570)"/>
<path d="M0 0 C1.32 0.33 2.64 0.66 4 1 C3.979375 2.051875 3.95875 3.10375 3.9375 4.1875 C3.98896802 7.32704904 4.26517187 9.96883396 5 13 C4.01 13.495 4.01 13.495 3 14 C2.87625 13.360625 2.7525 12.72125 2.625 12.0625 C2.41875 11.381875 2.2125 10.70125 2 10 C1.34 9.67 0.68 9.34 0 9 C0 6.03 0 3.06 0 0 Z " fill="#DA8D0C" transform="translate(270,838)"/>
<path d="M0 0 C0.66 0.33 1.32 0.66 2 1 C1.01 2.485 1.01 2.485 0 4 C1.65 3.34 3.3 2.68 5 2 C2.6875 4.5 2.6875 4.5 0 7 C-0.99 7 -1.98 7 -3 7 C-4.67099977 7.31088368 -6.33871537 7.64080332 -8 8 C-5.58443874 4.80800833 -3.31996462 2.25283313 0 0 Z " fill="#EEB20E" transform="translate(613,792)"/>
<path d="M0 0 C1.98 0 3.96 0 6 0 C6.625 1.875 6.625 1.875 7 4 C6.34 4.66 5.68 5.32 5 6 C2.375 5.625 2.375 5.625 0 5 C0 3.35 0 1.7 0 0 Z " fill="#DF900B" transform="translate(640,456)"/>
<path d="M0 0 C0.99 0.33 1.98 0.66 3 1 C2.67 6.94 2.34 12.88 2 19 C1.67 19 1.34 19 1 19 C-0.15316726 12.65758005 -0.09507063 6.43311296 0 0 Z " fill="#EFAE0D" transform="translate(509,890)"/>
<path d="M0 0 C0.94875 0.04125 1.8975 0.0825 2.875 0.125 C2.875 0.785 2.875 1.445 2.875 2.125 C3.82375 2.74375 4.7725 3.3625 5.75 4 C9.92001608 6.83561093 9.92001608 6.83561093 10.875 10.125 C10.545 11.115 10.215 12.105 9.875 13.125 C9.441875 12.0525 9.00875 10.98 8.5625 9.875 C5.97763564 5.20709476 2.01954654 4.28016574 -2.859375 2.75390625 C-3.60703125 2.54636719 -4.3546875 2.33882812 -5.125 2.125 C-3.125 0.125 -3.125 0.125 0 0 Z " fill="#EDB811" transform="translate(323.125,828.875)"/>
<path d="M0 0 C-2.30279665 2.30279665 -4.75930075 4.36476586 -7.24609375 6.46484375 C-8.903735 7.91574132 -10.46172518 9.42409154 -12 11 C-12.66 10.67 -13.32 10.34 -14 10 C-13.57847656 9.61328125 -13.15695312 9.2265625 -12.72265625 8.828125 C-12.17480469 8.30734375 -11.62695312 7.7865625 -11.0625 7.25 C-10.51722656 6.73953125 -9.97195313 6.2290625 -9.41015625 5.703125 C-7.85069391 4.07640758 -7.85069391 4.07640758 -7.49609375 1.859375 C-7.25052734 0.93898438 -7.25052734 0.93898438 -7 0 C-3.86650268 -1.04449911 -3.01031744 -0.93423645 0 0 Z " fill="#D88E0D" transform="translate(689,729)"/>
<path d="M0 0 C0.99 0.33 1.98 0.66 3 1 C3.08078641 3.12438339 3.13909141 5.2496323 3.1875 7.375 C3.22230469 8.55835938 3.25710938 9.74171875 3.29296875 10.9609375 C3.19628906 11.96382812 3.09960938 12.96671875 3 14 C2.01 14.66 1.02 15.32 0 16 C0 10.72 0 5.44 0 0 Z " fill="#CD890D" transform="translate(519,517)"/>
<path d="M0 0 C3.3 0.33 6.6 0.66 10 1 C5.2844942 4.14367053 2.99407723 5.30881872 -2.75 4.625 C-4.22726562 4.45871094 -4.22726562 4.45871094 -5.734375 4.2890625 C-6.85585938 4.14597656 -6.85585938 4.14597656 -8 4 C-8 3.67 -8 3.34 -8 3 C-5.36 2.34 -2.72 1.68 0 1 C0 0.67 0 0.34 0 0 Z " fill="#D68A0D" transform="translate(394,899)"/>
<path d="M0 0 C0.66 0.33 1.32 0.66 2 1 C0.35 2.65 -1.3 4.3 -3 6 C-1.68 5.67 -0.36 5.34 1 5 C-1.74395564 7.94721162 -4.38337216 10.19168608 -8 12 C-8.66 11.67 -9.32 11.34 -10 11 C-8.35 9.68 -6.7 8.36 -5 7 C-5.33 6.01 -5.66 5.02 -6 4 C-4.02 2.68 -2.04 1.36 0 0 Z " fill="#F0B60E" transform="translate(565,827)"/>
<path d="M0 0 C-1 3 -1 3 -3 5 C-3.33 5.66 -3.66 6.32 -4 7 C-6.3140622 7.73075648 -8.64828869 8.40138258 -11 9 C-11.33 8.34 -11.66 7.68 -12 7 C-11.21625 6.566875 -10.4325 6.13375 -9.625 5.6875 C-6.78301625 4.10779753 -6.78301625 4.10779753 -5 1 C-2 0 -2 0 0 0 Z " fill="#DC930D" transform="translate(591,812)"/>
<path d="M0 0 C2.75 -0.3984375 2.75 -0.3984375 6 -0.375 C7.60875 -0.38660156 7.60875 -0.38660156 9.25 -0.3984375 C10.1575 -0.26695312 11.065 -0.13546875 12 0 C12.66 0.99 13.32 1.98 14 3 C8.72 3 3.44 3 -2 3 C-1.34 2.01 -0.68 1.02 0 0 Z " fill="#CE8C0D" transform="translate(397,646)"/>
<path d="M0 0 C-1.25535985 3.76607955 -2.52883585 4.26441793 -6 6 C-6.99 6 -7.98 6 -9 6 C-8.25 3.0625 -8.25 3.0625 -7 0 C-4.09299153 -1.406617 -3.12277995 -1.04092665 0 0 Z " fill="#DF990E" transform="translate(611,799)"/>
<path d="M0 0 C4.95 0 9.9 0 15 0 C12 3 12 3 9.30078125 3.29296875 C8.31464844 3.25816406 7.32851563 3.22335937 6.3125 3.1875 C5.31863281 3.16042969 4.32476562 3.13335938 3.30078125 3.10546875 C2.54152344 3.07066406 1.78226562 3.03585937 1 3 C0.67 2.01 0.34 1.02 0 0 Z " fill="#D28D0B" transform="translate(399,663)"/>
<path d="M0 0 C4.29 0.33 8.58 0.66 13 1 C8.5 3.25 8.5 3.25 4.890625 3.1953125 C4.13652344 3.18886719 3.38242187 3.18242188 2.60546875 3.17578125 C1.43951172 3.15064453 1.43951172 3.15064453 0.25 3.125 C-0.54277344 3.11597656 -1.33554687 3.10695313 -2.15234375 3.09765625 C-4.10169281 3.07417012 -6.05088575 3.03830137 -8 3 C-8 2.67 -8 2.34 -8 2 C-5.36 2 -2.72 2 0 2 C0 1.34 0 0.68 0 0 Z " fill="#F0B40B" transform="translate(384,902)"/>
<path d="M0 0 C4.13621084 3.3810038 7.81316569 6.66590534 11 11 C8 11 8 11 5.73828125 9.03125 C4.93777344 8.1959375 4.13726562 7.360625 3.3125 6.5 C2.50425781 5.6646875 1.69601562 4.829375 0.86328125 3.96875 C0.24839844 3.3190625 -0.36648438 2.669375 -1 2 C-0.67 1.34 -0.34 0.68 0 0 Z " fill="#DC8E0D" transform="translate(286,871)"/>
<path d="M0 0 C0.66 0.33 1.32 0.66 2 1 C1.21625 1.61875 0.4325 2.2375 -0.375 2.875 C-3.62419012 6.04181629 -3.9556603 9.5277622 -4.54296875 13.890625 C-4.76919922 14.93476562 -4.76919922 14.93476562 -5 16 C-5.66 16.33 -6.32 16.66 -7 17 C-8.21890547 11.63681592 -8.21890547 11.63681592 -7.3125 9 C-6.879375 8.34 -6.44625 7.68 -6 7 C-5.34 5.948125 -4.68 4.89625 -4 3.8125 C-2 1 -2 1 0 0 Z " fill="#E9B211" transform="translate(342,832)"/>
<path d="M0 0 C0 0.66 0 1.32 0 2 C1.32 2.66 2.64 3.32 4 4 C2.625 5.5 2.625 5.5 1 7 C0.34 7 -0.32 7 -1 7 C-2.2890625 5.46875 -2.2890625 5.46875 -3.625 3.5 C-4.29402344 2.52546875 -4.29402344 2.52546875 -4.9765625 1.53125 C-5.31429688 1.0259375 -5.65203125 0.520625 -6 0 C-3 -1 -3 -1 0 0 Z " fill="#E0910D" transform="translate(414,556)"/>
<path d="M0 0 C0.66 0.33 1.32 0.66 2 1 C-1.63 4.96 -5.26 8.92 -9 13 C-9.33 11.68 -9.66 10.36 -10 9 C-6.7 6.03 -3.4 3.06 0 0 Z " fill="#F3C611" transform="translate(636,532)"/>
<path d="M0 0 C1.67542976 0.28604898 3.34385343 0.61781233 5 1 C4.67 2.32 4.34 3.64 4 5 C2.68 5.33 1.36 5.66 0 6 C-0.38218767 4.34385343 -0.71395102 2.67542976 -1 1 C-0.67 0.67 -0.34 0.34 0 0 Z " fill="#ECB00F" transform="translate(426,825)"/>
<path d="M0 0 C1.60379341 -0.05416188 3.20811406 -0.09286638 4.8125 -0.125 C5.70582031 -0.14820313 6.59914063 -0.17140625 7.51953125 -0.1953125 C10 0 10 0 13 2 C12.67 2.66 12.34 3.32 12 4 C9.69 4 7.38 4 5 4 C5 3.34 5 2.68 5 2 C3.35 1.67 1.7 1.34 0 1 C0 0.67 0 0.34 0 0 Z " fill="#D18A0D" transform="translate(277,653)"/>
<path d="M0 0 C1.67542976 0.28604898 3.34385343 0.61781233 5 1 C4.67 2.32 4.34 3.64 4 5 C2.68 5.33 1.36 5.66 0 6 C-0.38218767 4.34385343 -0.71395102 2.67542976 -1 1 C-0.67 0.67 -0.34 0.34 0 0 Z " fill="#E9B00F" transform="translate(298,598)"/>
<path d="M0 0 C0 1.32 0 2.64 0 4 C-2.97 3.67 -5.94 3.34 -9 3 C-9 2.01 -9 1.02 -9 0 C-5.62182575 -0.84454356 -3.32534757 -1.10844919 0 0 Z " fill="#D7910C" transform="translate(414,897)"/>
<path d="M0 0 C0 0.66 0 1.32 0 2 C-3 3 -3 3 -6 3 C-6.639375 3.350625 -7.27875 3.70125 -7.9375 4.0625 C-10.46051057 5.20932299 -11.41722159 4.77105911 -14 4 C-12.42466914 3.13116294 -10.83935491 2.28040932 -9.25 1.4375 C-8.36828125 0.96183594 -7.4865625 0.48617187 -6.578125 -0.00390625 C-3.79298812 -1.07998186 -2.73019786 -1.06528748 0 0 Z " fill="#D88C0E" transform="translate(499,868)"/>
<path d="M0 0 C0.99 0.33 1.98 0.66 3 1 C-2.28571429 7.42857143 -2.28571429 7.42857143 -5 10 C-5.66 9.34 -6.32 8.68 -7 8 C-4.69 5.36 -2.38 2.72 0 0 Z " fill="#DA900D" transform="translate(402,763)"/>
<path d="M0 0 C0 4.16207365 -0.19112905 6.11759533 -3.0625 9.25 C-3.701875 9.8275 -4.34125 10.405 -5 11 C-5.68359375 9.234375 -5.68359375 9.234375 -6 7 C-4.78515625 5.078125 -4.78515625 5.078125 -3.0625 3.25 C-2.49660156 2.63640625 -1.93070313 2.0228125 -1.34765625 1.390625 C-0.90292969 0.93171875 -0.45820312 0.4728125 0 0 Z " fill="#DB960D" transform="translate(710,698)"/>
<path d="M0 0 C5.28 0 10.56 0 16 0 C11 4 11 4 8 5 C8 4.01 8 3.02 8 2 C5.36 1.67 2.72 1.34 0 1 C0 0.67 0 0.34 0 0 Z " fill="#D68A0B" transform="translate(204,1024)"/>
<path d="M0 0 C0 2.66666667 0 5.33333333 0 8 C-4.75 9.125 -4.75 9.125 -7 8 C-4.69 5.36 -2.38 2.72 0 0 Z " fill="#EFB20D" transform="translate(705,702)"/>
<path d="M0 0 C3.63 0 7.26 0 11 0 C11 0.99 11 1.98 11 3 C7.37 3 3.74 3 0 3 C0 2.01 0 1.02 0 0 Z " fill="#CD8A0C" transform="translate(363,661)"/>
<path d="M0 0 C0.99 0.66 1.98 1.32 3 2 C3 2.66 3 3.32 3 4 C-0.08809695 5.76462683 -1.23312136 6 -5 6 C-3.63016497 2.83884224 -3.0109362 2.0072908 0 0 Z " fill="#E1A40F" transform="translate(460,553)"/>
<path d="M0 0 C0.99 0 1.98 0 3 0 C3 3.96 3 7.92 3 12 C2.01 12 1.02 12 0 12 C0 8.04 0 4.08 0 0 Z " fill="#CA880D" transform="translate(520,536)"/>
<path d="M0 0 C2.125 0.9375 2.125 0.9375 4 2 C3.34 3.32 2.68 4.64 2 6 C0.68 5.67 -0.64 5.34 -2 5 C-2 3.68 -2 2.36 -2 1 C-1.34 0.67 -0.68 0.34 0 0 Z " fill="#E8B010" transform="translate(637,606)"/>
<path d="M0 0 C1.98 0.495 1.98 0.495 4 1 C4 2.65 4 4.3 4 6 C2.68 6.33 1.36 6.66 0 7 C-0.93423645 3.98968256 -1.04449911 3.13349732 0 0 Z " fill="#D88C0D" transform="translate(445,502)"/>
<path d="M0 0 C0.99 0 1.98 0 3 0 C3 4.29 3 8.58 3 13 C2.67 12.01 2.34 11.02 2 10 C1.34 10 0.68 10 0 10 C0 6.7 0 3.4 0 0 Z " fill="#D2920C" transform="translate(515,464)"/>
<path d="M0 0 C0.33 0.99 0.66 1.98 1 3 C-0.21484375 5.26171875 -0.21484375 5.26171875 -1.9375 7.6875 C-2.50339844 8.49574219 -3.06929688 9.30398438 -3.65234375 10.13671875 C-4.09707031 10.75160156 -4.54179687 11.36648438 -5 12 C-6 9 -6 9 -6 6 C-5.01 6 -4.02 6 -3 6 C-2.690625 5.195625 -2.38125 4.39125 -2.0625 3.5625 C-1 1 -1 1 0 0 Z " fill="#DD8F0C" transform="translate(312,700)"/>
<path d="M0 0 C0 3.96130371 -1.34877125 4.82914401 -4 7.6875 C-4.7425 8.49574219 -5.485 9.30398438 -6.25 10.13671875 C-6.8275 10.75160156 -7.405 11.36648438 -8 12 C-8 8.8525787 -7.399734 7.71198463 -6 5 C-6 4.34 -6 3.68 -6 3 C-5.38125 2.87625 -4.7625 2.7525 -4.125 2.625 C-1.80879168 2.12802644 -1.80879168 2.12802644 0 0 Z " fill="#EDB30F" transform="translate(598,576)"/>
<path d="M0 0 C0.33 0 0.66 0 1 0 C1.02725341 1.7290774 1.04650987 3.45828176 1.0625 5.1875 C1.07410156 6.15042969 1.08570313 7.11335938 1.09765625 8.10546875 C1.00486622 10.85576513 0.62111685 13.32479591 0 16 C-2.67927341 11.98108988 -2.15601248 9.75838077 -2 5 C-1.67 5 -1.34 5 -1 5 C-0.67 3.35 -0.34 1.7 0 0 Z " fill="#D18C0D" transform="translate(511,404)"/>
<path d="M0 0 C0.33 0 0.66 0 1 0 C1 3.96 1 7.92 1 12 C0.01 12 -0.98 12 -2 12 C-2 9.03 -2 6.06 -2 3 C-1.34 3 -0.68 3 0 3 C0 2.01 0 1.02 0 0 Z " fill="#CE8A0C" transform="translate(505,795)"/>
<path d="M0 0 C0.93065133 2.60582371 1.14917407 3.64198224 0.0625 6.25 C-0.4634375 7.11625 -0.4634375 7.11625 -1 8 C-1.99 8 -2.98 8 -4 8 C-4 5.69 -4 3.38 -4 1 C-2.68 0.67 -1.36 0.34 0 0 Z " fill="#E39E0F" transform="translate(770,587)"/>
<path d="M0 0 C1.98 0 3.96 0 6 0 C6 1.32 6 2.64 6 4 C4.02 4 2.04 4 0 4 C0 2.68 0 1.36 0 0 Z " fill="#DD920F" transform="translate(553,777)"/>
<path d="M0 0 C-0.33 1.32 -0.66 2.64 -1 4 C-1.5775 4.103125 -2.155 4.20625 -2.75 4.3125 C-5.32049158 5.09792798 -6.93657284 6.30504197 -9 8 C-7.13554727 3.64961029 -5.02378599 0 0 0 Z " fill="#F3BD11" transform="translate(325,686)"/>
<path d="M0 0 C0.33 0 0.66 0 1 0 C1 4.29 1 8.58 1 13 C0.34 13 -0.32 13 -1 13 C-2.5121867 9.97562661 -2.17263369 7.33758466 -2 4 C-1 1.5625 -1 1.5625 0 0 Z " fill="#CC880D" transform="translate(507,465)"/>
<path d="M0 0 C0.66 0 1.32 0 2 0 C3.4783226 2.95664519 3.06032783 5.74229737 3 9 C2.34 8.34 1.68 7.68 1 7 C0.34 7.99 -0.32 8.98 -1 10 C-0.67 6.7 -0.34 3.4 0 0 Z " fill="#EEB911" transform="translate(724,427)"/>
<path d="M0 0 C1.62463842 -0.05395478 3.24978541 -0.09277195 4.875 -0.125 C5.77992188 -0.14820313 6.68484375 -0.17140625 7.6171875 -0.1953125 C10 0 10 0 12 2 C10.41132134 3.58867866 8.75310484 3.20794039 6.5625 3.25 C5.75941406 3.27578125 4.95632813 3.3015625 4.12890625 3.328125 C3.42636719 3.21984375 2.72382813 3.1115625 2 3 C1.34 2.01 0.68 1.02 0 0 Z " fill="#D18D0D" transform="translate(326,659)"/>
<path d="M0 0 C2.15377564 2.62198774 3.40072174 4.64404172 4 8 C3.01 8.495 3.01 8.495 2 9 C2 8.34 2 7.68 2 7 C1.01 6.67 0.02 6.34 -1 6 C-1.042721 4.33388095 -1.04063832 2.66617115 -1 1 C-0.67 0.67 -0.34 0.34 0 0 Z " fill="#DA8C0E" transform="translate(275,852)"/>
<path d="M0 0 C1.98 0.495 1.98 0.495 4 1 C3.67 2.32 3.34 3.64 3 5 C1.68 5 0.36 5 -1 5 C-0.67 3.35 -0.34 1.7 0 0 Z " fill="#EFBA11" transform="translate(369,701)"/>
<path d="M0 0 C1.27875 -0.061875 2.5575 -0.12375 3.875 -0.1875 C4.95394531 -0.23970703 4.95394531 -0.23970703 6.0546875 -0.29296875 C6.69664062 -0.19628906 7.33859375 -0.09960938 8 0 C8.66 0.99 9.32 1.98 10 3 C6.7 3 3.4 3 0 3 C0 2.01 0 1.02 0 0 Z " fill="#D18A0D" transform="translate(567,643)"/>
<path d="M0 0 C0.33 0.99 0.66 1.98 1 3 C-1.90600261 4.25664978 -3.79604584 5 -7 5 C-7.66 4.67 -8.32 4.34 -9 4 C-2.25 0 -2.25 0 0 0 Z " fill="#D6920D" transform="translate(556,525)"/>
<path d="M0 0 C0.99 0 1.98 0 3 0 C3 2.97 3 5.94 3 9 C2.01 9 1.02 9 0 9 C0 6.03 0 3.06 0 0 Z " fill="#D58D0C" transform="translate(503,499)"/>
<path d="M0 0 C3 3 3 3 3.1875 6.6875 C3.125625 7.780625 3.06375 8.87375 3 10 C2.01 10.33 1.02 10.66 0 11 C0 7.37 0 3.74 0 0 Z " fill="#CC880D" transform="translate(519,769)"/>
<path d="M0 0 C-0.4794463 4.21912747 -1.16625119 6.79663178 -4 10 C-4 7.03 -4 4.06 -4 1 C-2 0 -2 0 0 0 Z " fill="#D98C0D" transform="translate(280,763)"/>
<path d="M0 0 C-0.33 1.65 -0.66 3.3 -1 5 C-2.98 5.33 -4.96 5.66 -7 6 C-5.81636731 2.44910192 -3.99368042 0 0 0 Z " fill="#DF940D" transform="translate(569,827)"/>
<path d="M0 0 C0.33 0.99 0.66 1.98 1 3 C-1.90600261 4.25664978 -3.79604584 5 -7 5 C-2.25 0 -2.25 0 0 0 Z " fill="#DA900D" transform="translate(619,791)"/>
<path d="M0 0 C2 2 2 2 2.125 5.625 C2.08375 6.73875 2.0425 7.8525 2 9 C1.01 9.33 0.02 9.66 -1 10 C-1.02689216 8.52093108 -1.04634621 7.04172517 -1.0625 5.5625 C-1.07410156 4.73878906 -1.08570313 3.91507813 -1.09765625 3.06640625 C-1 1 -1 1 0 0 Z " fill="#CF890D" transform="translate(523,729)"/>
<path d="M0 0 C2.0625 0.4375 2.0625 0.4375 4 1 C4 1.66 4 2.32 4 3 C2 4.33333333 0 5.66666667 -2 7 C-1.125 1.125 -1.125 1.125 0 0 Z " fill="#D6900E" transform="translate(639,703)"/>
<path d="M0 0 C0.33 0 0.66 0 1 0 C0.25 7.625 0.25 7.625 -2 11 C-2.28571429 3.57142857 -2.28571429 3.57142857 0 0 Z " fill="#DB8D0D" transform="translate(275,774)"/>
<path d="M0 0 C0.33 0 0.66 0 1 0 C1.625 2.875 1.625 2.875 2 6 C1.34 6.66 0.68 7.32 0 8 C-0.99 7.67 -1.98 7.34 -3 7 C-2.01 4.69 -1.02 2.38 0 0 Z " fill="#DB920D" transform="translate(759,614)"/>
<path d="M0 0 C3.76488042 1.72154788 6.15063897 3.99234114 9 7 C6 7 6 7 4.39453125 5.46875 C3.87246094 4.8190625 3.35039062 4.169375 2.8125 3.5 C2.28269531 2.8503125 1.75289063 2.200625 1.20703125 1.53125 C0.80871094 1.0259375 0.41039062 0.520625 0 0 Z " fill="#F1CD13" transform="translate(385,532)"/>
<path d="M0 0 C2.0625 0.4375 2.0625 0.4375 4 1 C0.55930376 3.29379749 -0.72290301 4 -5 4 C-4.67 3.01 -4.34 2.02 -4 1 C-3.01 1 -2.02 1 -1 1 C-0.67 0.67 -0.34 0.34 0 0 Z " fill="#DA8D10" transform="translate(521,854)"/>
<path d="M0 0 C0.99 0.33 1.98 0.66 3 1 C2.34 2.98 1.68 4.96 1 7 C-0.32 6.34 -1.64 5.68 -3 5 C-2.505 4.360625 -2.01 3.72125 -1.5 3.0625 C0.09802862 1.29025661 0.09802862 1.29025661 0 0 Z " fill="#DA940D" transform="translate(629,779)"/>
<path d="M0 0 C0.33 0 0.66 0 1 0 C1 1.98 1 3.96 1 6 C-0.32 6.33 -1.64 6.66 -3 7 C-3 3.4833494 -2.23600438 2.59376508 0 0 Z " fill="#DC930E" transform="translate(694,717)"/>
<path d="M0 0 C0.66 0.33 1.32 0.66 2 1 C0.02 3.97 0.02 3.97 -2 7 C-2.99 6.67 -3.98 6.34 -5 6 C-3.35 4.02 -1.7 2.04 0 0 Z " fill="#D89510" transform="translate(377,625)"/>
<path d="M0 0 C3.3 0 6.6 0 10 0 C9.67 0.66 9.34 1.32 9 2 C6.35139573 2.59355614 3.70802678 2.74209269 1 3 C0.67 2.01 0.34 1.02 0 0 Z " fill="#CF880C" transform="translate(414,895)"/>
<path d="M0 0 C2.64 0 5.28 0 8 0 C8 0.66 8 1.32 8 2 C5.69 2.33 3.38 2.66 1 3 C0.67 2.01 0.34 1.02 0 0 Z " fill="#EEBB12" transform="translate(344,829)"/>
<path d="M0 0 C0.66 0.33 1.32 0.66 2 1 C0.35 2.98 -1.3 4.96 -3 7 C-3.99 6.67 -4.98 6.34 -6 6 C-4 4 -2 2 0 0 Z " fill="#150D03" transform="translate(628,786)"/>
<path d="M0 0 C-2.6855594 2.6855594 -5.37621328 3.06049974 -9 4 C-8.67 2.68 -8.34 1.36 -8 0 C-4.71303767 -0.79953138 -3.28976808 -1.09658936 0 0 Z " fill="#D8930C" transform="translate(474,549)"/>
<path d="M0 0 C2.97 0.33 5.94 0.66 9 1 C9 1.66 9 2.32 9 3 C6.1875 3.1875 6.1875 3.1875 3 3 C2.01 2.01 1.02 1.02 0 0 Z " fill="#F6BD11" transform="translate(757,467)"/>
<path d="M0 0 C0.99 0.33 1.98 0.66 3 1 C3 2.32 3 3.64 3 5 C1.68 5 0.36 5 -1 5 C-0.67 3.35 -0.34 1.7 0 0 Z " fill="#D98C0C" transform="translate(569,447)"/>
</svg>
