<?xml version="1.0" encoding="UTF-8"?>
<svg version="1.1" xmlns="http://www.w3.org/2000/svg" width="1024" height="1024">
<path d="M0 0 C337.92 0 675.84 0 1024 0 C1024 337.92 1024 675.84 1024 1024 C686.08 1024 348.16 1024 0 1024 C0 686.08 0 348.16 0 0 Z " fill="#000000" transform="translate(0,0)"/>
<path d="M0 0 C60.39 0 120.78 0 183 0 C183 7.26 183 14.52 183 22 C171.12 22 159.24 22 147 22 C147 48.4 147 74.8 147 102 C139.41 102 131.82 102 124 102 C124 75.6 124 49.2 124 22 C113.77 22 103.54 22 93 22 C93 19.03 93 16.06 93 13 C92.49855469 13.47308594 91.99710937 13.94617188 91.48046875 14.43359375 C83.30375111 21.57951564 73.86100095 25.65107688 64 30 C63.87625 29.030625 63.7525 28.06125 63.625 27.0625 C63.41875 26.051875 63.2125 25.04125 63 24 C59.78096915 22.39048457 56.25161168 22.75765252 52.7109375 22.68359375 C51.89251373 22.66281265 51.07408997 22.64203156 50.23086548 22.62062073 C47.61233034 22.55515188 44.99369361 22.49625274 42.375 22.4375 C40.60155193 22.39431224 38.82811419 22.35069786 37.0546875 22.30664062 C32.70322954 22.19947324 28.35166923 22.09819831 24 22 C24 23.98 24 25.96 24 28 C24.53625 28.12375 25.0725 28.2475 25.625 28.375 C31.96855798 30.04435736 37.61285232 32.6801342 43.41235352 35.67822266 C48.83337586 38.46539033 54.35010297 40.94182201 59.9375 43.375 C68.7952934 47.26857306 77.16380912 51.79297168 85.32006836 57.00048828 C87.14390445 58.14703212 87.14390445 58.14703212 89.90625 59.140625 C92.45542182 61.40444177 92.47887345 62.33257636 92.91015625 65.6484375 C93.00614861 67.55555271 93.05443297 69.46548753 93.0625 71.375 C93.06725342 72.36564453 93.07200684 73.35628906 93.0769043 74.37695312 C92.7878508 81.35984698 91.30478675 85.58629069 86.3125 90.5 C84.80097266 91.88240189 83.28187695 93.21172375 81.66918945 94.47460938 C79.75196353 96.08813972 79.75196353 96.08813972 78.08447266 99.08544922 C75.53497594 102.16755855 73.33926674 102.56461969 69.42211914 102.99853516 C67.12834554 103.13273561 64.83201565 103.2270625 62.53515625 103.2890625 C60.69781166 103.34747818 60.69781166 103.34747818 58.823349 103.40707397 C56.22888469 103.47248211 53.63391987 103.52010197 51.03881836 103.55126953 C47.09914188 103.62432057 43.18216777 103.83577496 39.24804688 104.05078125 C21.34420585 104.56410088 21.34420585 104.56410088 15.37225342 99.98522949 C10.83473087 95.10976935 4 87.02849228 4 80 C4.73249466 79.99191315 5.46498932 79.98382629 6.21968079 79.97549438 C13.12076323 79.89757273 20.0216705 79.81028939 26.92249775 79.71247292 C30.47034604 79.6625143 34.01816463 79.61618445 37.56616211 79.578125 C41.64456014 79.53421731 45.72259545 79.4745677 49.80078125 79.4140625 C51.71338493 79.39673569 51.71338493 79.39673569 53.66462708 79.37905884 C55.43612373 79.3492543 55.43612373 79.3492543 57.2434082 79.31884766 C58.28487503 79.30552399 59.32634186 79.29220032 60.39936829 79.2784729 C63.2348051 79.17782224 63.2348051 79.17782224 66 77 C66.2502157 73.91634129 66.2502157 73.91634129 66 71 C64.37486979 70.1874349 62.74972382 69.37490131 61.12451172 68.5625 C59.68837967 67.84426894 58.25251416 67.12550474 56.81689453 66.40625 C53.17290131 64.58148139 49.52592239 62.76380031 45.8671875 60.96875 C39.5204376 57.84449371 33.29370376 54.64395516 27.1875 51.0625 C18.73688946 46.13705724 9.88198953 42.08052904 1 38 C0.82816735 34.29188791 0.66354468 30.58348613 0.5 26.875 C0.45230469 25.84761719 0.40460938 24.82023437 0.35546875 23.76171875 C0.01003597 15.81676491 0 7.97211747 0 0 Z " fill="#DC9200" transform="translate(225,458)"/>
<path d="M0 0 C9.9 0 19.8 0 30 0 C31.629375 4.063125 33.25875 8.12625 34.9375 12.3125 C38.66069113 21.52287854 42.56695441 30.58219253 46.91552734 39.51611328 C50.31745239 46.53909149 53.22096729 53.70912594 56 61 C59.05419883 57.39134661 60.80821928 53.28910366 62.6875 49 C63.05617188 48.17072998 63.42484375 47.34145996 63.8046875 46.48706055 C65.20830603 43.32698168 66.6039099 40.16341227 68 37 C70.46332252 31.42983276 72.93117793 25.86167996 75.40054321 20.29418945 C76.49544917 17.82277212 77.58710799 15.34993854 78.6784668 12.87695312 C79.35846193 11.34110188 80.03855212 9.80529271 80.71875 8.26953125 C81.0350386 7.5506221 81.35132721 6.83171295 81.67720032 6.09101868 C83.88645568 1.11354432 83.88645568 1.11354432 85 0 C94.57 0 104.14 0 114 0 C114 33.66 114 67.32 114 102 C106.41 102 98.82 102 91 102 C90.67 81.87 90.34 61.74 90 41 C84.62983613 52.06779652 84.62983613 52.06779652 79.26098633 63.13623047 C78.57638133 64.54657214 77.8917324 65.9568925 77.20703125 67.3671875 C76.86555054 68.07174072 76.52406982 68.77629395 76.17224121 69.50219727 C73.49034799 75.02401881 70.74584003 80.50831994 68 86 C60.08 86 52.16 86 44 86 C38.83301489 74.39865607 33.69764348 62.78411295 28.59448242 51.15454102 C28.14177979 50.12385498 27.68907715 49.09316895 27.22265625 48.03125 C26.81797119 47.10892578 26.41328613 46.18660156 25.99633789 45.23632812 C25.36105098 43.81039623 24.69812194 42.39624388 24 41 C23.67 61.13 23.34 81.26 23 102 C15.74 102 8.48 102 1 102 C0.31192196 98.5596098 -0.12462914 96.08906423 -0.12025452 92.7162323 C-0.12162918 91.89318604 -0.12300385 91.07013977 -0.12442017 90.22215271 C-0.12082489 89.33310745 -0.11722961 88.44406219 -0.11352539 87.52807617 C-0.11367142 86.58124969 -0.11381744 85.63442322 -0.1139679 84.65890503 C-0.11327258 81.53690277 -0.10549801 78.41496056 -0.09765625 75.29296875 C-0.09579072 73.12535128 -0.09436745 70.9577334 -0.09336853 68.79011536 C-0.08955402 63.09045239 -0.07973281 57.39081499 -0.06866455 51.69116211 C-0.05842753 45.87288763 -0.053866 40.05460902 -0.04882812 34.23632812 C-0.0381096 22.82420572 -0.0205214 11.41210899 0 0 Z " fill="#DC9100" transform="translate(763,458)"/>
<path d="M0 0 C29.37 0 58.74 0 89 0 C85.92919279 7.67701803 82.60352667 15.67386576 76 21 C70.41907317 23.24446033 64.23507225 22.51351229 58.35205078 22.15966797 C54.48049575 21.9752545 50.62049667 21.97362073 46.74609375 22.00390625 C46.0390329 22.00905243 45.33197205 22.01419861 44.60348511 22.01950073 C43.17571902 22.02992861 41.74795411 22.04051793 40.32019043 22.05126953 C34.88010245 22.07991632 29.43998924 22.03164829 24 22 C24 27.28 24 32.56 24 38 C42.81 38 61.62 38 81 38 C69.96707985 58.68672528 69.96707985 58.68672528 66.77264404 59.7215271 C65.56019012 59.7015416 65.56019012 59.7015416 64.32324219 59.68115234 C62.94226349 59.68047256 62.94226349 59.68047256 61.53338623 59.67977905 C60.54783752 59.64881134 59.56228882 59.61784363 58.546875 59.5859375 C57.53151672 59.57744781 56.51615845 59.56895813 55.47003174 59.56021118 C52.22893899 59.52664007 48.99033986 59.45135063 45.75 59.375 C43.55211928 59.34490534 41.35419954 59.31752867 39.15625 59.29296875 C33.76910145 59.2319361 28.38733889 59.11453398 23 59 C23 65.93 23 72.86 23 80 C43.79 80 64.58 80 86 80 C85.34 81.65 84.68 83.3 84 85 C83.63101593 86.04509987 83.63101593 86.04509987 83.25457764 87.11131287 C80.89374321 93.31832701 77.79031312 98.51698717 72 102 C60.19943239 104.96655493 47.22750378 103.57042019 35.25 103.0625 C23.6175 102.711875 11.985 102.36125 0 102 C0 68.34 0 34.68 0 0 Z " fill="#DB9000" transform="translate(420,458)"/>
<path d="M0 0 C11.42625 -0.37125 22.8525 -0.7425 34.625 -1.125 C38.20424316 -1.28887207 41.78348633 -1.45274414 45.47119141 -1.62158203 C69.48960024 -2.25894274 69.48960024 -2.25894274 76.25683594 3.91113281 C79.43703831 7.6028246 81.82109339 11.54299181 83.94354248 15.91802979 C85.29349717 18.57839748 87.03642606 20.76507933 89 23 C87.3731545 26.6538776 85.13308374 29.59595747 82.6875 32.75 C82.25961182 33.30349121 81.83172363 33.85698242 81.39086914 34.42724609 C78.80055975 37.7574468 76.15923988 41.04205242 73.484375 44.3046875 C72.89567627 45.02301758 72.30697754 45.74134766 71.70043945 46.48144531 C70.5393019 47.89327023 69.37387114 49.30157687 68.20385742 50.70605469 C67.67123291 51.35219727 67.1386084 51.99833984 66.58984375 52.6640625 C66.11409912 53.23592285 65.63835449 53.8077832 65.14819336 54.39697266 C63.79702275 56.11670265 63.79702275 56.11670265 63 59 C63.88043848 61.05493388 63.88043848 61.05493388 65.31640625 63.16796875 C65.83396484 63.97943359 66.35152344 64.79089844 66.88476562 65.62695312 C67.43841797 66.47193359 67.99207031 67.31691406 68.5625 68.1875 C69.08908203 69.01314453 69.61566406 69.83878906 70.15820312 70.68945312 C73.14261413 75.32497034 76.2800513 79.78827758 79.62280273 84.17114258 C81.60054349 86.79749536 83.429941 89.51274591 85.25 92.25 C86.24773437 93.74273438 86.24773437 93.74273438 87.265625 95.265625 C88.670009 97.47974392 89.85453962 99.65011249 91 102 C68.09377935 104.19371299 68.09377935 104.19371299 61.91699219 100.88378906 C58.66656627 97.8668531 56.86074265 94.05974836 55.02783203 90.07470703 C53.22494645 86.43553324 50.79444926 83.23314939 48.4375 79.9375 C47.52028984 78.60502581 46.60619339 77.27040262 45.6953125 75.93359375 C43.08051283 72.11349055 40.44940616 68.30486781 37.8125 64.5 C37.07644531 63.4378125 36.34039063 62.375625 35.58203125 61.28125 C35.05996094 60.5284375 34.53789063 59.775625 34 59 C36.84686491 54.61715216 39.88022099 50.47019478 43.125 46.375 C43.59784424 45.7754248 44.07068848 45.17584961 44.55786133 44.55810547 C49.26523138 38.61582309 54.10953516 32.79217745 59 27 C58.34 25.68 57.68 24.36 57 23 C45.78 22.67 34.56 22.34 23 22 C23 48.4 23 74.8 23 102 C15.41 102 7.82 102 0 102 C0 68.34 0 34.68 0 0 Z " fill="#DC9100" transform="translate(519,458)"/>
<path d="M0 0 C7.92 0 15.84 0 24 0 C24.02505615 2.28655518 24.0501123 4.57311035 24.07592773 6.92895508 C24.15933738 14.4767142 24.24803158 22.02440452 24.33933926 29.57207203 C24.3945458 34.14901633 24.44796222 38.72596705 24.49731445 43.30297852 C24.5449914 47.71855456 24.5973355 52.13405268 24.65294075 56.54953575 C24.67334919 58.23564404 24.69206478 59.92177369 24.70907402 61.60791969 C24.73315145 63.96631221 24.76320145 66.3245576 24.79467773 68.68286133 C24.80331093 69.73266678 24.80331093 69.73266678 24.81211853 70.80368042 C24.85779654 73.80693883 25.04208292 76.12624875 26 79 C37.88 79.33 49.76 79.66 62 80 C62 53.6 62 27.2 62 0 C69.92 0 77.84 0 86 0 C86.27234983 10.71033179 86.49195103 21.41832299 86.62174606 32.13134956 C86.68407861 37.10727852 86.7684459 42.08069362 86.90527344 47.05517578 C87.0367678 51.86650695 87.10763264 56.67543925 87.13852692 61.48843002 C87.16050721 63.31377782 87.20343117 65.13901092 87.26876068 66.96332169 C87.61862449 77.14895622 87.15760911 84.1852727 80.11425781 91.98388672 C78.1198765 94.0406149 76.06855142 96.0160857 74 98 C73.22967438 99.15618332 73.22967438 99.15618332 72.44378662 100.33572388 C71 102 71 102 68.62524414 102.56176758 C67.68801514 102.58907959 66.75078613 102.6163916 65.78515625 102.64453125 C64.71974609 102.68296143 63.65433594 102.7213916 62.55664062 102.76098633 C61.40357422 102.77798584 60.25050781 102.79498535 59.0625 102.8125 C57.87205078 102.83530029 56.68160156 102.85810059 55.45507812 102.8815918 C52.92999502 102.91941519 50.40471394 102.94553725 47.87939453 102.9609375 C44.03970743 102.99960018 40.20875105 103.12351097 36.37109375 103.25 C17.35354731 103.58033887 17.35354731 103.58033887 11.97265625 99.50390625 C9.06961053 96.68515704 7.0379643 93.49246234 5 90 C4.14025428 88.93916087 3.27888071 87.87963946 2.41609192 86.8212738 C-0.4959278 82.75534817 -0.68475521 79.47909161 -0.56762695 74.58618164 C-0.56835709 73.7756131 -0.56908722 72.96504456 -0.56983948 72.12991333 C-0.56637883 69.47262718 -0.52759248 66.81713299 -0.48828125 64.16015625 C-0.47894764 62.30929013 -0.47183412 60.45841161 -0.46684265 58.60752869 C-0.44781589 53.75256831 -0.39875268 48.89836419 -0.34332275 44.04370117 C-0.29203671 39.08327462 -0.26930868 34.12272503 -0.24414062 29.16210938 C-0.19062919 19.44102171 -0.102729 9.72069227 0 0 Z " fill="#DC9200" transform="translate(661,458)"/>
<path d="M0 0 C1.25159912 0.00523682 2.50319824 0.01047363 3.79272461 0.01586914 C4.78942421 0.01799156 4.78942421 0.01799156 5.80625916 0.02015686 C7.93590735 0.02577021 10.06545175 0.03832485 12.19506836 0.05102539 C13.63582205 0.05603868 15.07657739 0.06060188 16.51733398 0.06469727 C20.05577938 0.07574394 23.59416375 0.09301747 27.13256836 0.11352539 C33.27057213 16.22871935 39.09720311 32.42850474 44.69506836 48.73852539 C46.11067317 52.85653049 47.5286255 56.97371674 48.94897461 61.09008789 C49.29304352 62.08808411 49.63711243 63.08608032 49.99160767 64.11431885 C52.74977053 72.08227294 55.61200101 80.00993163 58.54164124 87.91641235 C58.85258224 88.7605368 59.16352325 89.60466125 59.48388672 90.47436523 C59.75486679 91.20424652 60.02584686 91.93412781 60.30503845 92.68612671 C61.36366453 95.79140123 62.2312729 98.95899127 63.13256836 102.11352539 C54.88256836 102.11352539 46.63256836 102.11352539 38.13256836 102.11352539 C35.84933172 96.4054338 33.62846624 90.85230967 31.65893555 85.05908203 C31.44377289 84.42845856 31.22861023 83.79783508 31.00692749 83.14810181 C30.31162022 81.10757214 29.62029565 79.06572351 28.92944336 77.02368164 C28.44202209 75.58780845 27.95449164 74.15197232 27.46685791 72.71617126 C26.45314326 69.7290621 25.44157217 66.7412374 24.43139648 63.75292969 C23.13619892 59.9224387 21.83428668 56.09426681 20.53065109 52.26664066 C19.52552784 49.31236793 18.52457177 46.35669613 17.52481842 43.40060234 C17.04621119 41.98750564 16.56615379 40.57489923 16.08461761 39.16279793 C15.41494279 37.19737203 14.7510559 35.23008354 14.08862305 33.26220703 C13.70986023 32.1443129 13.33109741 31.02641876 12.94085693 29.87464905 C12.13256836 27.11352539 12.13256836 27.11352539 12.13256836 24.11352539 C11.47256836 24.11352539 10.81256836 24.11352539 10.13256836 24.11352539 C10.01921143 24.95608887 9.90585449 25.79865234 9.7890625 26.66674805 C9.07900703 30.39473731 7.95094338 33.70548224 6.62866211 37.26196289 C6.38592056 37.91935455 6.14317902 38.57674622 5.89308167 39.25405884 C5.1237314 41.33410414 4.34703482 43.41131459 3.57006836 45.48852539 C3.04418816 46.90631265 2.51879261 48.32427976 1.99389648 49.74243164 C0.7132723 53.20193773 -0.57726931 56.6575057 -1.86743164 60.11352539 C3.08256836 60.11352539 8.03256836 60.11352539 13.13256836 60.11352539 C14.30758059 63.02707613 15.47278566 65.94391797 16.63256836 68.86352539 C16.96643555 69.68852539 17.30030273 70.51352539 17.64428711 71.36352539 C17.96010742 72.16274414 18.27592773 72.96196289 18.60131836 73.78540039 C18.89458008 74.51855469 19.1878418 75.25170898 19.48999023 76.00708008 C20.13256836 78.11352539 20.13256836 78.11352539 20.13256836 82.11352539 C10.23256836 82.11352539 0.33256836 82.11352539 -9.86743164 82.11352539 C-10.52743164 85.08352539 -11.18743164 88.05352539 -11.86743164 91.11352539 C-13.18743164 94.74352539 -14.50743164 98.37352539 -15.86743164 102.11352539 C-23.78743164 102.11352539 -31.70743164 102.11352539 -39.86743164 102.11352539 C-39.18940013 98.72336782 -38.55690534 95.98120978 -37.39868164 92.80883789 C-37.08350586 91.93928467 -36.76833008 91.06973145 -36.44360352 90.17382812 C-36.0884668 89.20517822 -35.73333008 88.23652832 -35.36743164 87.23852539 C-34.55478945 85.00289999 -33.74230378 82.76721769 -32.92993164 80.53149414 C-32.58690002 79.5899926 -32.58690002 79.5899926 -32.23693848 78.62947083 C-30.07992233 72.70826493 -27.94167337 66.7803544 -25.80493164 60.85180664 C-12.79680322 24.77311846 -12.79680322 24.77311846 -7.36743164 10.23852539 C-7.01229492 9.28389404 -6.6571582 8.3292627 -6.29125977 7.34570312 C-3.5790997 0.14170127 -3.5790997 0.14170127 0 0 Z " fill="#DC9100" transform="translate(158.867431640625,457.886474609375)"/>
<path d="M0 0 C7.92 0 15.84 0 24 0 C24 33.66 24 67.32 24 102 C16.41 102 8.82 102 1 102 C-0.125 93 -0.125 93 -0.12025452 89.46936035 C-0.12162918 88.66743256 -0.12300385 87.86550476 -0.12442017 87.03927612 C-0.12082489 86.18906891 -0.11722961 85.33886169 -0.11352539 84.46289062 C-0.11367142 83.54488678 -0.11381744 82.62688293 -0.1139679 81.68106079 C-0.11327602 78.67276576 -0.10551783 75.6645341 -0.09765625 72.65625 C-0.09578949 70.56018101 -0.09436681 68.46411158 -0.09336853 66.36804199 C-0.08956367 60.87063375 -0.07975083 55.37325223 -0.06866455 49.87585449 C-0.05840665 44.25838584 -0.05386155 38.64091284 -0.04882812 33.0234375 C-0.03812664 22.01561141 -0.0205464 11.00781212 0 0 Z " fill="#DD9300" transform="translate(621,458)"/>
<path d="M0 0 C-0.33 0.99 -0.66 1.98 -1 3 C-21.46 2.67 -41.92 2.34 -63 2 C-63 1.67 -63 1.34 -63 1 C-55.79584669 0.85606157 -48.59166101 0.71383415 -41.38745117 0.57275391 C-38.94050343 0.5246384 -36.49356313 0.47614208 -34.04663086 0.42724609 C-30.51417945 0.35672659 -26.98170283 0.28761098 -23.44921875 0.21875 C-21.82822517 0.18593933 -21.82822517 0.18593933 -20.17448425 0.15246582 C-13.44868881 0.0230203 -6.72699868 -0.02627958 0 0 Z " fill="#FECC00" transform="translate(506,538)"/>
<path d="M0 0 C2.96404505 2.80804268 5.44499019 5.18315774 7 9 C5.35 10.98 3.7 12.96 2 15 C1.67 13.68 1.34 12.36 1 11 C1.99 10.34 2.98 9.68 4 9 C2.80100302 5.9168649 1.52299523 2.93720508 0 0 Z " fill="#EFC600" transform="translate(601,474)"/>
<path d="M0 0 C0.99773437 0.02320313 1.99546875 0.04640625 3.0234375 0.0703125 C4.52777344 0.09738281 4.52777344 0.09738281 6.0625 0.125 C6.83335937 0.14820313 7.60421875 0.17140625 8.3984375 0.1953125 C8.0684375 1.1853125 7.7384375 2.1753125 7.3984375 3.1953125 C3.4384375 2.8653125 -0.5215625 2.5353125 -4.6015625 2.1953125 C-2.6015625 0.1953125 -2.6015625 0.1953125 0 0 Z " fill="#E6AC01" transform="translate(497.6015625,537.8046875)"/>
<path d="M0 0 C1.2065625 0.0309375 1.2065625 0.0309375 2.4375 0.0625 C0.6875 4.9375 0.6875 4.9375 -1.5625 6.0625 C-1.2325 4.7425 -0.9025 3.4225 -0.5625 2.0625 C-1.5525 1.7325 -2.5425 1.4025 -3.5625 1.0625 C-2.5625 0.0625 -2.5625 0.0625 0 0 Z " fill="#E7A900" transform="translate(501.5625,540.9375)"/>
</svg>
