<?xml version="1.0" encoding="UTF-8"?>
<svg version="1.1" xmlns="http://www.w3.org/2000/svg" width="1024" height="1024">
<path d="M0 0 C337.92 0 675.84 0 1024 0 C1024 337.92 1024 675.84 1024 1024 C686.08 1024 348.16 1024 0 1024 C0 686.08 0 348.16 0 0 Z " fill="#000000" transform="translate(0,0)"/>
<path d="M0 0 C0.66 0.33 1.32 0.66 2 1 C2.48596578 4.09551403 2.83588285 7.12138263 3.11328125 10.23828125 C3.2078511 11.22733459 3.30242096 12.21638794 3.39985657 13.2354126 C3.71582997 16.59346812 4.01526063 19.95273683 4.3125 23.3125 C4.41882751 24.48634247 4.52515503 25.66018494 4.63470459 26.86959839 C9.32668005 78.89961879 12.20682307 131.08942495 14.57188416 183.27064514 C14.82806897 188.79858718 15.14250683 194.31117323 15.57421875 199.828125 C16.07699111 206.35000306 16.11345869 212.83660858 16.0625 219.375 C16.05798828 220.50421875 16.05347656 221.6334375 16.04882812 222.796875 C16.03724154 225.53131014 16.02093457 228.26562328 16 231 C16.66 231 17.32 231 18 231 C18.33 230.01 18.66 229.02 19 228 C20.4519043 226.65649414 20.4519043 226.65649414 22.32421875 225.28515625 C23.36243774 224.5120813 23.36243774 224.5120813 24.42163086 223.72338867 C25.16936768 223.17529541 25.91710449 222.62720215 26.6875 222.0625 C32.42885345 217.77084283 38.03078445 213.39491471 43.4375 208.6875 C48.07753876 204.65030092 52.77230475 200.72273547 57.59765625 196.90625 C60.12721017 194.89905925 62.62825938 192.86034669 65.125 190.8125 C69.63638931 187.11328766 74.15873338 183.42791736 78.6875 179.75 C79.36635254 179.19868408 80.04520508 178.64736816 80.74462891 178.0793457 C82.13619181 176.9493339 83.52779366 175.81937005 84.91943359 174.68945312 C86.95307726 173.03810201 88.98638447 171.38633782 91.01953125 169.734375 C92.00566406 168.93314209 92.00566406 168.93314209 93.01171875 168.11572266 C94.33866109 167.03741907 95.66548376 165.95896823 96.9921875 164.88037109 C100.36002839 162.14276461 103.73034239 159.40830853 107.10546875 156.6796875 C115.49508104 149.89109289 123.79502967 143.01075376 132 136 C132.66 136.33 133.32 136.66 134 137 C133.23816406 137.88300781 132.47632813 138.76601563 131.69140625 139.67578125 C126.90280707 145.23753968 122.12556687 150.80109717 117.5 156.5 C112.61914444 162.50856226 107.56569916 168.36289653 102.51855469 174.23144531 C96.32091543 181.44940332 90.19064559 188.70930442 84.2734375 196.16015625 C76.29354444 206.128167 68.12193361 215.92065134 59.70458984 225.52148438 C55.49171795 230.35766952 51.49820933 235.34103877 47.60083008 240.43432617 C45.23969559 243.50494386 42.81044748 246.33234661 40 249 C45.80126295 249.79408035 51.54229742 250.25638 57.38964844 250.52490234 C58.29549683 250.56899734 59.20134521 250.61309235 60.13464355 250.65852356 C62.09655238 250.75367686 64.05852804 250.84746006 66.02056122 250.94001389 C69.17550511 251.08906166 72.33022732 251.24221219 75.48492432 251.39639282 C84.45485037 251.83399407 93.42513581 252.26403165 102.39550781 252.69238281 C143.74989573 254.67089903 185.01585566 257.21208736 226.25201416 260.92907715 C229.2579465 261.19855079 232.26436189 261.46242376 235.27078152 261.72639656 C238.21089153 261.98505857 241.1507499 262.24648929 244.0905323 262.50884628 C245.46792309 262.63155498 246.84537717 262.75355557 248.22289848 262.87479019 C250.11165257 263.04154906 252.00005 263.21233282 253.88842773 263.38330078 C254.95262436 263.47862091 256.01682098 263.57394104 257.11326599 263.67214966 C259.78820695 263.97594637 262.370957 264.42720815 265 265 C264.67 265.66 264.34 266.32 264 267 C261.20751953 267.53076172 261.20751953 267.53076172 257.3828125 267.9296875 C256.68067627 268.00475021 255.97854004 268.07981293 255.25512695 268.15715027 C252.87938868 268.40710549 250.50243215 268.64173776 248.125 268.875 C247.29401794 268.95926239 246.46303589 269.04352478 245.60687256 269.13034058 C206.85952398 273.05907552 167.98781697 275.55522682 129.11683655 277.87366486 C116.68233001 278.61576994 104.248078 279.36207416 91.81410694 280.11309719 C86.17563296 280.45339906 80.53695871 280.79010411 74.89810562 281.12406254 C71.35262069 281.33471349 67.80731279 281.5482377 64.262043 281.76247597 C62.59264986 281.86274594 60.92318344 281.96180394 59.25364304 282.05959129 C56.94664046 282.19488751 54.63993565 282.33448394 52.33325195 282.47509766 C50.3819915 282.59143051 50.3819915 282.59143051 48.39131165 282.71011353 C45.5127827 282.95616777 42.8119587 283.35654244 40 284 C40.41507813 284.51304687 40.83015625 285.02609375 41.2578125 285.5546875 C50.42780879 296.95003853 59.49629743 308.43618625 68.03125 320.31640625 C74.67266022 329.3692809 81.82943617 338.03707461 88.92993164 346.73022461 C96.47575681 355.99920927 103.8446357 365.42595832 111 375 C110.34 376.32 109.68 377.64 109 379 C103.88926805 379 102.29815173 376.88237595 98.875 373.5 C97.70813286 372.38419961 96.53884509 371.27092531 95.3671875 370.16015625 C94.79323242 369.61504395 94.21927734 369.06993164 93.62792969 368.50830078 C90.7489856 365.84091678 87.66251619 363.45599093 84.57421875 361.0390625 C76.01785357 354.26148644 67.8345674 347.00284577 59.59594727 339.84594727 C51.54145082 332.85527184 43.42707419 325.94595084 35.125 319.25 C31.43413663 316.2501691 27.99135717 313.16508697 24.73046875 309.703125 C23.17225901 308.16953709 21.57471204 306.78644802 19.8918457 305.39355469 C18.46038208 304.20874512 18.46038208 304.20874512 17 303 C16.96321136 303.66395279 16.92642273 304.32790558 16.88851929 305.01197815 C15.96636923 321.58709498 14.98763178 338.15804805 13.94920349 354.72627258 C13.84517357 356.38717457 13.74117509 358.04807852 13.63720703 359.70898438 C13.58496633 360.54326053 13.53272562 361.37753668 13.47890186 362.23709393 C13.09280611 368.43389177 12.72704173 374.63173571 12.36669922 380.83007812 C11.89036506 389.00641627 11.379683 397.17992825 10.83305359 405.35187435 C10.53862995 409.76723202 10.25919971 414.18238483 10.01556396 418.6008606 C9.78420989 422.7856246 9.51221903 426.96580832 9.20959663 431.14600372 C9.1050356 432.68811478 9.0150907 434.23129765 8.94093132 435.77516937 C8.36700634 447.45650454 8.36700634 447.45650454 5.00546265 451.25204468 C1.50027671 453.68566431 -1.83740372 455.10189835 -6 456 C-10.39753309 405.03160563 -14.60150791 354.1089814 -17 303 C-18.09538086 304.00450195 -18.09538086 304.00450195 -19.21289062 305.02929688 C-20.18419922 305.91681641 -21.15550781 306.80433594 -22.15625 307.71875 C-23.59194336 309.03262695 -23.59194336 309.03262695 -25.05664062 310.37304688 C-27.81212569 312.83232187 -30.62377655 315.18396565 -33.5 317.5 C-38.3176675 321.38987134 -42.90107152 325.48450512 -47.4609375 329.671875 C-51.94826092 333.7864054 -56.54697525 337.76608895 -61.18359375 341.7109375 C-67.45815024 347.05505642 -73.63963254 352.4615527 -79.67749023 358.07202148 C-82.79526159 360.94968564 -85.99907813 363.66371732 -89.3125 366.3125 C-93.91340308 370.01048415 -98.21490265 373.94725636 -102.5 378 C-107.66948674 382.88833122 -112.92079393 387.5142926 -118.48046875 391.95703125 C-122.44115078 395.16856102 -126.22226649 398.5767205 -130 402 C-130.66 401.67 -131.32 401.34 -132 401 C-131.46427368 400.34366577 -131.46427368 400.34366577 -130.91772461 399.67407227 C-122.31384287 389.1369905 -122.31384287 389.1369905 -113.9140625 378.4375 C-111.82518251 375.77737527 -109.68865464 373.16010071 -107.54663086 370.54272461 C-101.82842317 363.55510321 -96.25860074 356.47785797 -90.80395508 349.28271484 C-87.29762363 344.66698498 -83.7124098 340.12772642 -80.0625 335.625 C-75.55700835 330.05763809 -71.27917167 324.35113572 -67.0625 318.5625 C-61.09754754 310.37718636 -54.82287601 302.50352563 -48.38183594 294.69042969 C-45.51541467 291.18387477 -42.74912334 287.59885237 -40 284 C-46.81600282 281.95602334 -53.22322793 281.64778905 -60.3125 281.5 C-70.63894819 281.20215538 -80.90210727 280.63170068 -91.19937134 279.81314087 C-99.26710763 279.18110553 -107.33689421 278.66056202 -115.41619301 278.20120621 C-119.1315918 277.98951259 -122.8466761 277.77243026 -126.56176758 277.55541992 C-127.33604819 277.51021965 -128.11032881 277.46501938 -128.90807247 277.4184494 C-143.87952568 276.54124244 -158.84637942 275.58837611 -173.8125 274.625 C-174.642159 274.57167007 -175.47181801 274.51834015 -176.32661819 274.46339417 C-197.54847503 273.09727995 -218.75679869 271.66586062 -239.9375 269.75 C-240.85479889 269.66727844 -241.77209778 269.58455688 -242.7171936 269.49932861 C-245.2376912 269.26968116 -247.75764831 269.0351503 -250.27734375 268.796875 C-250.9860965 268.73041779 -251.69484924 268.66396057 -252.42507935 268.5954895 C-256.31611033 268.21493556 -260.15157332 267.68824545 -264 267 C-264 266.34 -264 265.68 -264 265 C-223.78270636 259.99948276 -183.44180906 257.07489985 -142.99607849 254.70851135 C-135.33048653 254.25978631 -127.66626063 253.79378668 -120.00306702 253.30548096 C-92.96654469 251.58665557 -66.09302117 250.52909001 -39 251 C-42.98414653 245.82552107 -47.01057129 240.71767413 -51.25 235.75 C-52.20053872 234.63282771 -53.15105901 233.51563975 -54.1015625 232.3984375 C-54.58012695 231.83737305 -55.05869141 231.27630859 -55.55175781 230.69824219 C-57.91428975 227.92788275 -60.2709028 225.1525287 -62.625 222.375 C-63.08430908 221.83319092 -63.54361816 221.29138184 -64.0168457 220.7331543 C-66.85972396 217.37145455 -69.66094545 213.97941308 -72.4375 210.5625 C-77.83500443 203.93567072 -83.42018674 197.47314171 -89 191 C-96.11012165 182.75154743 -103.12946983 174.45021113 -110 166 C-120.75076176 152.78692475 -120.75076176 152.78692475 -132 140 C-131.67 139.34 -131.34 138.68 -131 138 C-124.06092029 143.37856703 -117.16852942 148.78750995 -110.5 154.5 C-106.08425621 158.2819436 -101.59065154 161.93244774 -97 165.5 C-91.93418804 169.44054019 -86.9902277 173.49225063 -82.10986328 177.65966797 C-74.82433308 183.87463546 -67.40561032 189.92912178 -60 196 C-59.45537109 196.44649902 -58.91074219 196.89299805 -58.34960938 197.35302734 C-54.36547842 200.61787384 -50.38011679 203.88109757 -46.37890625 207.125 C-40.48940889 211.91181934 -34.69401848 216.79618223 -28.94604492 221.7512207 C-25.32688838 224.87096617 -21.67849054 227.95035882 -18 231 C-16.70578041 214.69329793 -15.73399346 198.37927045 -14.8666687 182.0451355 C-12.42975085 136.37710411 -9.17175048 90.75684831 -5.3125 45.1875 C-5.21003967 43.97413971 -5.10757935 42.76077942 -5.00201416 41.51065063 C-4.06482001 30.4735008 -3.09803522 19.43999005 -1.91796875 8.42578125 C-1.83984451 7.67572311 -1.76172028 6.92566498 -1.68122864 6.15287781 C-1.11981411 1.11981411 -1.11981411 1.11981411 0 0 Z " fill="#D48A00" transform="translate(512,202)"/>
<path d="M0 0 C1.19625 0.165 2.3925 0.33 3.625 0.5 C1.97712814 4.20548484 -0.34591237 7.31071791 -2.8125 10.5 C-3.24989502 11.0674292 -3.68729004 11.6348584 -4.13793945 12.21948242 C-8.12525847 17.31615655 -12.42746841 22.0719222 -16.84765625 26.79296875 C-18.94305166 29.03734127 -20.98800271 31.30632414 -23 33.625 C-27.06486778 38.30488324 -31.21091408 42.90832232 -35.375 47.5 C-36.20128906 48.42039062 -37.02757812 49.34078125 -37.87890625 50.2890625 C-44.42220146 57.52137659 -51.23893887 64.46916511 -58.125 71.375 C-59.01219727 72.26678955 -59.89939453 73.1585791 -60.81347656 74.07739258 C-65.83990532 79.09205976 -70.9633371 83.90470202 -76.375 88.5 C-77.49236505 89.46203341 -78.60955928 90.42426526 -79.7265625 91.38671875 C-80.81729963 92.32078996 -81.90845454 93.25437352 -83 94.1875 C-84.21620844 95.22779139 -85.43235236 96.26815823 -86.6484375 97.30859375 C-87.26299805 97.83437012 -87.87755859 98.36014648 -88.51074219 98.90185547 C-90.3566928 100.48430606 -92.1984841 102.07146204 -94.0390625 103.66015625 C-99.85522111 108.67571641 -105.68815462 113.64516718 -111.72265625 118.3984375 C-113.70563309 119.9696327 -115.66778545 121.55678823 -117.62109375 123.1640625 C-127.07412151 130.90249405 -136.92918476 137.94574971 -146.99707031 144.85986328 C-149.14143248 146.33890076 -151.27256234 147.83441632 -153.3984375 149.33984375 C-163.76896679 156.64777414 -174.54839605 163.23200213 -185.43457031 169.74023438 C-188.27152329 171.43807206 -191.10096891 173.1478645 -193.9296875 174.859375 C-206.8112899 182.61186027 -219.94025361 189.75385387 -233.375 196.5 C-234.36338867 196.99886719 -235.35177734 197.49773437 -236.37011719 198.01171875 C-260.52770202 210.13335757 -285.47615127 219.79663546 -311.375 227.5 C-312.17566895 227.74443848 -312.97633789 227.98887695 -313.80126953 228.24072266 C-352.44893497 239.92916297 -394.39203204 243.53663716 -431.1875 224.625 C-449.64206155 214.04438471 -461.84273045 196.28966408 -467.875 176.0625 C-468.40682512 173.88251874 -468.9094566 171.69509125 -469.375 169.5 C-469.59671875 168.56800781 -469.8184375 167.63601563 -470.046875 166.67578125 C-480.50313594 116.01943602 -449.47725019 61.52355188 -423.375 20.5 C-422.99037598 19.88850098 -422.60575195 19.27700195 -422.20947266 18.64697266 C-421.18591673 17.03983029 -420.12549578 15.45633276 -419.0625 13.875 C-418.20205078 12.58722656 -418.20205078 12.58722656 -417.32421875 11.2734375 C-414.66472442 8.85377733 -412.86253223 9.36569347 -409.375 9.5 C-409.79040039 10.1381665 -410.20580078 10.77633301 -410.63378906 11.43383789 C-415.37957704 18.7985147 -419.80516434 26.31691688 -424.125 33.9375 C-424.47227142 34.54971405 -424.81954285 35.1619281 -425.17733765 35.79269409 C-426.59325233 38.28998371 -428.0084907 40.78764462 -429.42021179 43.28730774 C-431.41264451 46.8133579 -433.43054275 50.32284508 -435.47265625 53.8203125 C-455.79168255 89.03305293 -472.07451006 133.60593448 -461.375 174.5 C-455.23177548 194.3674495 -443.93467535 210.75024634 -425.390625 220.6953125 C-397.15730201 235.05866024 -363.67013103 234.26980773 -333.375 227.5 C-332.28155273 227.25862305 -331.18810547 227.01724609 -330.06152344 226.76855469 C-283.5318166 216.28057143 -239.29056157 196.8560936 -198.375 172.5 C-197.49440918 171.97583496 -196.61381836 171.45166992 -195.70654297 170.91162109 C-172.72833173 157.13655845 -150.66172321 141.75944598 -129.375 125.5 C-128.70452637 124.98953125 -128.03405273 124.4790625 -127.34326172 123.953125 C-116.69127256 115.82466258 -106.37642802 107.41675331 -96.375 98.5 C-95.45074219 97.67628906 -94.52648437 96.85257813 -93.57421875 96.00390625 C-91.98882597 94.5812443 -90.40730844 93.15424096 -88.83129883 91.72119141 C-87.32397819 90.35814567 -85.80897121 89.00347078 -84.28125 87.66333008 C-76.81182973 81.07745149 -69.78882867 74.06587927 -62.76049805 67.01586914 C-60.68455574 64.93454811 -58.60329578 62.85865187 -56.52148438 60.78320312 C-55.17676248 59.43782062 -53.83235071 58.09212806 -52.48828125 56.74609375 C-51.87769363 56.13753036 -51.26710602 55.52896698 -50.63801575 54.90196228 C-46.89637824 51.140261 -43.34399257 47.25732042 -39.87742615 43.24053955 C-37.9977119 41.06291704 -36.06341855 38.937892 -34.125 36.8125 C-27.20448965 29.1374536 -20.54222933 21.23769808 -14.0625 13.1875 C-13.10923828 12.00607422 -13.10923828 12.00607422 -12.13671875 10.80078125 C-10.34796819 8.52902812 -10.34796819 8.52902812 -8.83203125 6.10546875 C-4.85482286 0.01703447 -4.85482286 0.01703447 0 0 Z " fill="#E5A300" transform="translate(726.375,495.5)"/>
<path d="M0 0 C2.21784411 2.21784411 2.45689651 3.16256824 3.1484375 6.140625 C3.45007813 7.37619141 3.45007813 7.37619141 3.7578125 8.63671875 C4.16536388 10.36236353 4.56908743 12.08891736 4.96875 13.81640625 C7.03636422 22.23081096 11.18714956 28.6028068 18 34 C24.88659722 37.97344878 32.30473546 40.16921172 40 42 C37.3382623 44.6617377 34.48582881 44.98350762 30.9375 45.8125 C21.63557103 48.16373172 13.14744159 51.37882482 8 60 C4.7307063 67.67283215 2.89580199 75.89975514 1 84 C-1.76642764 79.85035854 -2.70335237 75.28193482 -3.96875 70.51171875 C-6.41194091 61.74406531 -10.3171461 55.16050991 -18 50 C-21.57827383 48.32585993 -25.21790879 47.12680235 -29 46 C-29.96550781 45.7009375 -30.93101562 45.401875 -31.92578125 45.09375 C-34.27845632 44.3749695 -36.63507243 43.67715931 -39 43 C-36.24881857 41.16587905 -33.94110558 40.29224011 -30.80834961 39.35205078 C-23.91760946 37.27344953 -18.27727893 35.07575992 -13 30 C-12.44957031 29.51144531 -11.89914062 29.02289063 -11.33203125 28.51953125 C-6.16767419 23.35517419 -4.82724307 16.88667611 -3 10 C-2.42357289 8.06043412 -1.84099827 6.12267572 -1.25 4.1875 C-0.83284683 2.79181199 -0.41597563 1.39603943 0 0 Z " fill="#DA9300" transform="translate(741,230)"/>
<path d="M0 0 C8.91823521 7.13458817 12.17507814 21.07849124 13.55859375 32.015625 C17.42499647 69.89147067 8.18878946 106.83840994 -10 140 C-11 141 -11 141 -14.5625 141.0625 C-15.696875 141.041875 -16.83125 141.02125 -18 141 C-17.64603149 140.23260498 -17.64603149 140.23260498 -17.28491211 139.44970703 C-8.0334424 119.32378141 -0.40210057 99.5273892 5 78 C5.1964209 77.22301758 5.3928418 76.44603516 5.59521484 75.64550781 C11.14949761 52.71615294 9.66728828 26.53057834 0.98828125 4.58984375 C0 2 0 2 0 0 Z " fill="#E29900" transform="translate(772,300)"/>
<path d="M0 0 C2 1 2 1 2.89453125 3.546875 C3.19746094 4.60390625 3.50039063 5.6609375 3.8125 6.75 C5.95633855 13.38688905 5.95633855 13.38688905 11 18 C15.27746801 19.56632345 19.59492388 20.84552178 24 22 C21.11120887 23.92586075 18.90295404 24.72620065 15.625 25.75 C10.53828936 27.58873181 7.83547609 29.21513409 5 34 C4.09602586 36.62431258 3.33282239 39.22909091 2.67578125 41.92578125 C2.34126953 42.95251953 2.34126953 42.95251953 2 44 C1.01 44.495 1.01 44.495 0 45 C-0.21914063 44.11957031 -0.43828125 43.23914063 -0.6640625 42.33203125 C-2.39672498 34.98767521 -2.39672498 34.98767521 -6.5 28.875 C-11.44163579 26.22769511 -16.52699073 25.08928825 -22 24 C-22 23.34 -22 22.68 -22 22 C-21.19175781 21.75765625 -20.38351562 21.5153125 -19.55078125 21.265625 C-9.95628638 18.37798195 -9.95628638 18.37798195 -3.3125 11.25 C-1.80652366 7.52091573 -0.87914891 3.92235668 0 0 Z " fill="#DA9200" transform="translate(692,606)"/>
<path d="M0 0 C-6.85356349 2.36035589 -13.75758835 4.34663705 -20.75 6.25 C-51.42165118 14.76665552 -80.20072554 26.7296112 -108.65283203 40.8894043 C-111 42 -111 42 -112 42 C-112 39.69 -112 37.38 -112 35 C-24.42224448 -7.46883883 -24.42224448 -7.46883883 0 0 Z " fill="#EBAF00" transform="translate(661,289)"/>
<path d="M0 0 C1.67533052 3.08843539 2.63634466 6.1367239 3.625 9.5 C5.04034917 13.45140234 6.01856035 15.63250749 9.8125 17.5625 C11.88083205 18.38726606 11.88083205 18.38726606 14 19 C14.68449219 19.22042969 15.36898437 19.44085938 16.07421875 19.66796875 C17.70238474 20.16005137 19.34988206 20.58747051 21 21 C18.27518579 22.81654281 16.11262903 23.73463485 13.0625 24.8125 C8.73483124 26.54859968 6.26074503 27.74979934 4 32 C2.8257078 35.6305628 1.85924351 39.28312089 1 43 C0.34 43 -0.32 43 -1 43 C-1.24234375 42.10796875 -1.4846875 41.2159375 -1.734375 40.296875 C-2.06953125 39.12640625 -2.4046875 37.9559375 -2.75 36.75 C-3.07484375 35.58984375 -3.3996875 34.4296875 -3.734375 33.234375 C-5.08858475 29.77361675 -6.04998738 28.22261225 -9 26 C-12.24358622 24.66872681 -12.24358622 24.66872681 -15.75 23.75 C-17.50570313 23.24726563 -17.50570313 23.24726563 -19.296875 22.734375 C-20.18890625 22.49203125 -21.0809375 22.2496875 -22 22 C-19.06739966 20.45902714 -16.11601139 19.30375408 -13 18.1875 C-8.7163806 16.45769775 -6.27389241 15.18396203 -4 11 C-3.10497579 8.38815663 -2.32000524 5.77834381 -1.61328125 3.109375 C-1 1 -1 1 0 0 Z " fill="#DA9200" transform="translate(314,252)"/>
<path d="M0 0 C0.66 0 1.32 0 2 0 C2.18175781 0.74765625 2.36351562 1.4953125 2.55078125 2.265625 C2.80214844 3.25046875 3.05351562 4.2353125 3.3125 5.25 C3.67794922 6.71179688 3.67794922 6.71179688 4.05078125 8.203125 C5.01582675 11.04663356 5.97659699 12.79893233 8 15 C12.20906998 17.06482678 16.53502837 18.58427729 21 20 C18.87691836 21.13034439 16.85512539 22.04689851 14.5625 22.7890625 C9.46450133 24.39577251 9.46450133 24.39577251 5.53125 27.828125 C4.50805083 29.85902032 3.71132015 31.84122607 3 34 C2.5875 35.155 2.175 36.31 1.75 37.5 C1.5025 38.325 1.255 39.15 1 40 C-0.81016151 37.28475773 -1.47190558 35.62061343 -2.3125 32.5625 C-3.73698409 28.27515033 -4.89486316 26.22361579 -9 24 C-12.62964273 22.82254185 -16.28307701 21.85925365 -20 21 C-19 19 -19 19 -16.890625 18.2890625 C-16.01921875 18.06992187 -15.1478125 17.85078125 -14.25 17.625 C-8.44657468 15.95142241 -8.44657468 15.95142241 -4 12 C-2.40923249 8.06770671 -1.14868177 4.08134974 0 0 Z " fill="#DE9900" transform="translate(318,628)"/>
<path d="M0 0 C3.19877975 2.66564979 4.63661405 4.17020705 5.44140625 8.22265625 C5.64804714 12.21549153 5.32202936 14.45945072 3.25 17.9375 C0.14683856 20.78206465 -1.68973926 21.82909642 -5.875 22.375 C-9.87153796 21.89541545 -11.90459308 20.53260567 -15 18 C-17.35242347 14.79214982 -17.4684209 11.90350748 -17 8 C-13.13009069 0.69017131 -8.09848534 -2.88998368 0 0 Z " fill="#DA9300" transform="translate(429,229)"/>
<path d="M0 0 C-0.61439941 0.93875977 -0.61439941 0.93875977 -1.24121094 1.89648438 C-6.61732948 10.21516191 -11.48586473 18.7773504 -16.32226562 27.41503906 C-17.36167471 29.26868361 -18.40704226 31.11886578 -19.453125 32.96875 C-20.36819824 34.59973633 -20.36819824 34.59973633 -21.30175781 36.26367188 C-22.72375961 38.55490192 -23.99041068 40.234509 -26 42 C-26.66 41.01 -27.32 40.02 -28 39 C-29.32 41.31 -30.64 43.62 -32 46 C-32.33 45.34 -32.66 44.68 -33 44 C-31.99819323 41.74902677 -30.93865505 39.65126716 -29.75 37.5 C-29.39228516 36.84290039 -29.03457031 36.18580078 -28.66601562 35.50878906 C-24.06624918 27.16439102 -19.11816254 19.03488238 -14 11 C-13.61247559 10.38415039 -13.22495117 9.76830078 -12.82568359 9.13378906 C-11.80499375 7.53108303 -10.74757255 5.95193392 -9.6875 4.375 C-9.11386719 3.51648438 -8.54023438 2.65796875 -7.94921875 1.7734375 C-5.28972442 -0.64622267 -3.48753223 -0.13430653 0 0 Z " fill="#DD9600" transform="translate(317,505)"/>
<path d="M0 0 C-6.79331815 3.22559661 -13.70723806 5.68096184 -20.875 7.9375 C-21.97199219 8.28449951 -23.06898438 8.63149902 -24.19921875 8.98901367 C-36.72514471 12.90883378 -49.26827042 16.44919159 -62.1875 18.8125 C-63.19393555 18.99872925 -63.19393555 18.99872925 -64.22070312 19.1887207 C-68.88211126 19.98062241 -73.2923556 20.09949415 -78 20 C-74.17482487 17.60926555 -70.40334476 17.44033448 -66 17 C-66.99 16.34 -67.98 15.68 -69 15 C-67.9483667 14.75878418 -66.8967334 14.51756836 -65.81323242 14.26904297 C-60.93575977 13.14722356 -56.06107948 12.01360558 -51.1875 10.875 C-50.31741302 10.67191223 -49.44732605 10.46882446 -48.5508728 10.25958252 C-37.92951655 7.7699653 -27.39041102 5.23376143 -17.0925293 1.58935547 C-12.27600526 -0.09200175 -12.27600526 -0.09200175 -9 1 C-12.465 2.485 -12.465 2.485 -16 4 C-15.01257813 3.62746094 -14.02515625 3.25492188 -13.0078125 2.87109375 C-11.71368887 2.39283067 -10.41940989 1.9149878 -9.125 1.4375 C-8.47402344 1.19064453 -7.82304687 0.94378906 -7.15234375 0.68945312 C-2.2265625 -1.11328125 -2.2265625 -1.11328125 0 0 Z " fill="#EAAF00" transform="translate(449,711)"/>
<path d="M0 0 C1.99137119 3.33991379 2.29587669 5.99863865 2.4140625 9.859375 C2.45273437 10.97441406 2.49140625 12.08945312 2.53125 13.23828125 C2.5621875 14.39714844 2.593125 15.55601562 2.625 16.75 C2.66367187 17.92433594 2.70234375 19.09867188 2.7421875 20.30859375 C2.8363982 23.20557268 2.92201602 26.10254626 3 29 C3.33 29 3.66 29 4 29 C4.93213141 35.26039609 5.20927172 40.02197063 3 46 C2.01 45.67 1.02 45.34 0 45 C-3.37961878 30.59638661 -4.57622598 15.66467098 -2 1 C-1.34 0.67 -0.68 0.34 0 0 Z " fill="#D38800" transform="translate(258,624)"/>
<path d="M0 0 C1.4056451 4.21693529 -0.33189578 7.01308005 -1.9375 10.9375 C-2.51527381 12.36079646 -3.08710467 13.78652299 -3.65234375 15.21484375 C-3.91007568 15.84511475 -4.16780762 16.47538574 -4.43334961 17.12475586 C-5.19283781 19.31166974 -5.19283781 19.31166974 -5 23 C-3.02 18.545 -3.02 18.545 -1 14 C0.4169609 18.2508827 -1.10189667 21.53370921 -2.3125 25.6875 C-6.61443735 41.30488986 -7.42146186 56.87618907 -8 73 C-8.33 73 -8.66 73 -9 73 C-9.33 64.09 -9.66 55.18 -10 46 C-10.66 45.67 -11.32 45.34 -12 45 C-12.34683659 38.18425762 -11.09969574 32.37221633 -9.3125 25.8125 C-9.04284424 24.80106934 -8.77318848 23.78963867 -8.49536133 22.74755859 C-3.1513759 3.1513759 -3.1513759 3.1513759 0 0 Z " fill="#E5A200" transform="translate(269,582)"/>
<path d="M0 0 C0.99 0.66 1.98 1.32 3 2 C2.31292969 2.40992188 1.62585938 2.81984375 0.91796875 3.2421875 C-0.43361328 4.05042969 -0.43361328 4.05042969 -1.8125 4.875 C-2.70582031 5.40867187 -3.59914063 5.94234375 -4.51953125 6.4921875 C-6.37294724 7.61883092 -8.19529917 8.79686611 -10 10 C-13.70499304 11.78719157 -17.48240691 13.41213549 -21.25 15.0625 C-22.78720703 15.75182617 -22.78720703 15.75182617 -24.35546875 16.45507812 C-29.65445905 18.77722252 -34.21252241 20.36084896 -40 21 C-43.67855353 22.239341 -47.27269239 23.633814 -50.890625 25.0390625 C-54 26 -54 26 -57 25 C-56.16855469 24.66226563 -55.33710938 24.32453125 -54.48046875 23.9765625 C-53.39378906 23.53054688 -52.30710937 23.08453125 -51.1875 22.625 C-50.10855469 22.18414063 -49.02960938 21.74328125 -47.91796875 21.2890625 C-44.89269888 20.0520881 -44.89269888 20.0520881 -42 18 C-40.29292186 17.26537504 -38.56900111 16.56946666 -36.8359375 15.8984375 C-35.80355957 15.49399414 -34.77118164 15.08955078 -33.70751953 14.67285156 C-32.60778809 14.24456055 -31.50805664 13.81626953 -30.375 13.375 C-21.73879054 9.99015304 -13.26772844 6.45734169 -5.04052734 2.16162109 C-3.1328125 1.203125 -3.1328125 1.203125 0 0 Z " fill="#E9A700" transform="translate(484,691)"/>
<path d="M0 0 C-0.60530343 13.04588183 -1.68025915 26.00759981 -3 39 C-3.66 39 -4.32 39 -5 39 C-5.43035641 34.67697834 -5.85750445 30.35365506 -6.28173828 26.0300293 C-6.42637348 24.56054211 -6.57187076 23.09113949 -6.71826172 21.62182617 C-6.92905092 19.50461355 -7.13669392 17.38711182 -7.34375 15.26953125 C-7.46943359 13.99698486 -7.59511719 12.72443848 -7.72460938 11.41333008 C-7.95281311 8.58485804 -8.05683249 5.8345204 -8 3 C-1.125 0 -1.125 0 0 0 Z " fill="#E19E00" transform="translate(516,700)"/>
<path d="M0 0 C1.56465302 4.69395907 -1.05544038 8.63981365 -2.90625 13.01953125 C-4.53171731 17.06062358 -5.48983756 19.68285707 -4 24 C-2.02 19.545 -2.02 19.545 0 15 C1.38740289 19.16220868 -0.35502947 21.52676962 -2.1875 25.25 C-2.64479492 26.21486328 -2.64479492 26.21486328 -3.11132812 27.19921875 C-5.21626172 31.58560029 -7.5461497 35.79961767 -10 40 C-12.31 40 -14.62 40 -17 40 C-16.76925781 39.49887695 -16.53851562 38.99775391 -16.30078125 38.48144531 C-10.47920691 25.7970862 -5.07565548 13.00031649 0 0 Z " fill="#E4A100" transform="translate(771,401)"/>
<path d="M0 0 C0.66 0.33 1.32 0.66 2 1 C-6.68023662 6.5886455 -15.52109377 11.40603561 -24.79980469 15.91308594 C-27.18712062 17.09243908 -29.55105005 18.3117758 -31.9140625 19.5390625 C-32.73044189 19.95937744 -33.54682129 20.37969238 -34.38793945 20.81274414 C-35.97879681 21.63276215 -37.56603189 22.45985403 -39.14916992 23.29467773 C-41.06249197 24.27241718 -43.02855387 25.14549673 -45 26 C-45.99 25.67 -46.98 25.34 -48 25 C-44.7 23.35 -41.4 21.7 -38 20 C-38.33 19.34 -38.66 18.68 -39 18 C-38.16190796 17.58488159 -38.16190796 17.58488159 -37.30688477 17.16137695 C-34.72432238 15.88062432 -32.14340954 14.5965799 -29.5625 13.3125 C-28.68400391 12.87744141 -27.80550781 12.44238281 -26.90039062 11.99414062 C-21.77608138 9.44144045 -16.78682746 6.77919193 -11.89038086 3.80932617 C-10 3 -10 3 -7 4 C-5.18819694 3.2127445 -5.18819694 3.2127445 -3.4375 2 C-2.303125 1.34 -1.16875 0.68 0 0 Z " fill="#EEB000" transform="translate(524,673)"/>
<path d="M0 0 C0.80824219 0.11085938 1.61648438 0.22171875 2.44921875 0.3359375 C3.37154297 0.47902344 3.37154297 0.47902344 4.3125 0.625 C1.16676323 2.72215785 -0.70206251 3.14504559 -4.375 3.75 C-5.36886719 3.91757812 -6.36273438 4.08515625 -7.38671875 4.2578125 C-8.14597656 4.37898437 -8.90523438 4.50015625 -9.6875 4.625 C-9.6875 4.955 -9.6875 5.285 -9.6875 5.625 C-14.41367412 6.38762664 -18.92954713 6.74392423 -23.71484375 6.72265625 C-25.00068359 6.71943359 -26.28652344 6.71621094 -27.61132812 6.71289062 C-28.94921945 6.70453802 -30.28711007 6.69607311 -31.625 6.6875 C-32.99023274 6.68247659 -34.35546726 6.67791517 -35.72070312 6.67382812 C-39.04301457 6.66208851 -42.36523408 6.64566679 -45.6875 6.625 C-46.0175 5.635 -46.3475 4.645 -46.6875 3.625 C-45.52178467 3.5748877 -44.35606934 3.52477539 -43.1550293 3.47314453 C-38.83279961 3.2848914 -34.51120497 3.08447707 -30.18969727 2.88037109 C-28.31875456 2.79371281 -26.44765574 2.71035953 -24.57641602 2.63037109 C-21.88770485 2.5148656 -19.19977803 2.38751011 -16.51171875 2.2578125 C-15.25532845 2.20767502 -15.25532845 2.20767502 -13.97355652 2.15652466 C-8.64946215 1.88444526 -5.17055943 -0.74935644 0 0 Z " fill="#DB9300" transform="translate(381.6875,726.375)"/>
<path d="M0 0 C0.99 0.33 1.98 0.66 3 1 C-1.82276769 6.56825758 -6.73308814 12.04356571 -11.75 17.4375 C-12.40871094 18.15615234 -13.06742187 18.87480469 -13.74609375 19.61523438 C-14.38160156 20.29779297 -15.01710938 20.98035156 -15.671875 21.68359375 C-16.52410645 22.60483032 -16.52410645 22.60483032 -17.39355469 23.54467773 C-19 25 -19 25 -22 26 C-22.66 25.67 -23.32 25.34 -24 25 C-22.49651042 21.47936604 -20.45724049 19.21227894 -17.75390625 16.5234375 C-16.91666016 15.688125 -16.07941406 14.8528125 -15.21679688 13.9921875 C-13.90291992 12.69667969 -13.90291992 12.69667969 -12.5625 11.375 C-11.69044922 10.50359375 -10.81839844 9.6321875 -9.91992188 8.734375 C-3.42178302 2.28118868 -3.42178302 2.28118868 0 0 Z " fill="#EBB101" transform="translate(382,407)"/>
<path d="M0 0 C5.32778172 -0.68745571 9.33325683 1.7807995 14 4 C14.98742187 4.43183594 15.97484375 4.86367188 16.9921875 5.30859375 C17.98476563 5.74300781 18.97734375 6.17742188 20 6.625 C20.928125 7.02976562 21.85625 7.43453125 22.8125 7.8515625 C25 9 25 9 26 11 C27.97888961 11.72693904 29.97954558 12.39816251 32 13 C31.67 13.66 31.34 14.32 31 15 C23.69330804 15.68931056 18.33419918 13.63269905 12 10 C10.98068804 9.01969233 9.98025585 8.0193618 9 7 C7.45745249 5.92900846 5.89354647 4.88829549 4.3125 3.875 C2.85810017 2.94251399 1.41521481 1.99094706 0 1 C0 0.67 0 0.34 0 0 Z " fill="#DE9700" transform="translate(287,712)"/>
<path d="M0 0 C1.9375 1.0625 1.9375 1.0625 3 3 C2.875 6.5625 2.875 6.5625 2 10 C-1 12 -1 12 -4.5625 11.8125 C-8 11 -8 11 -10 8 C-9.8125 4.9375 -9.8125 4.9375 -9 2 C-5.53076119 -0.31282587 -4.07794425 -0.42478586 0 0 Z " fill="#E09E00" transform="translate(342,554)"/>
<path d="M0 0 C4.96794824 2.69548083 9.12095085 6.26724997 13.4375 9.875 C14.17548828 10.48730469 14.91347656 11.09960938 15.67382812 11.73046875 C17.78542517 13.48356354 19.89326954 15.2410619 22 17 C23.17830389 17.98186868 24.35667911 18.96365177 25.53515625 19.9453125 C26.34855469 20.62335938 27.16195313 21.30140625 28 22 C25.16032769 22 22.76264289 21.59732819 20 21 C20.33 22.32 20.66 23.64 21 25 C17.53008852 22.38108581 14.82567749 19.76156994 12.1875 16.3125 C8.79895411 11.95579814 5.22356255 7.85614428 1.46875 3.8125 C0 2 0 2 0 0 Z " fill="#D78C00" transform="translate(380,340)"/>
<path d="M0 0 C2.3125 0.875 2.3125 0.875 4.3125 2.875 C4.64265665 5.97847254 4.81781294 8.03281176 3.1875 10.75 C0.43159116 12.40354531 -1.53825452 12.26865568 -4.6875 11.875 C-6.5625 10.6875 -6.5625 10.6875 -7.6875 8.875 C-8.1875 6.4375 -8.1875 6.4375 -7.6875 3.875 C-5.13550457 1.10426211 -3.83647334 -0.17844062 0 0 Z " fill="#E19F00" transform="translate(669.6875,247.125)"/>
<path d="M0 0 C0 0.99 0 1.98 0 3 C0.33 3.33 0.66 3.66 1 4 C0.00409082 11.80128855 -5.19441296 15.198577 -11 20 C-12.54547737 21.34981597 -14.08757175 22.70352324 -15.625 24.0625 C-16.74934767 25.04241565 -17.87407755 26.02189418 -19 27 C-19.66 26.67 -20.32 26.34 -21 26 C-20.64284912 25.56244385 -20.28569824 25.1248877 -19.91772461 24.67407227 C-10.93287459 13.67812636 -10.93287459 13.67812636 -2.171875 2.50390625 C-1 1 -1 1 0 0 Z " fill="#E49D01" transform="translate(401,577)"/>
<path d="M0 0 C-1.52628915 3.63323178 -3.68803907 5.89312656 -6.5 8.625 C-7.386875 9.49640625 -8.27375 10.3678125 -9.1875 11.265625 C-11.0625 13.08854167 -12.9375 14.91145833 -14.8125 16.734375 C-15.699375 17.60578125 -16.58625 18.4771875 -17.5 19.375 C-18.72203125 20.56222656 -18.72203125 20.56222656 -19.96875 21.7734375 C-21.82038367 23.80311287 -22.94378623 25.48575201 -24 28 C-24.33 27.34 -24.66 26.68 -25 26 C-25.99 25.67 -26.98 25.34 -28 25 C-24.50412202 21.43006485 -20.99857861 17.87002014 -17.48364258 14.31884766 C-16.28886299 13.10896483 -15.09678755 11.89640547 -13.9074707 10.68115234 C-12.1992346 8.93660109 -10.48156148 7.20185048 -8.76171875 5.46875 C-8.23035812 4.92190552 -7.6989975 4.37506104 -7.15153503 3.81164551 C-3.34161512 0 -3.34161512 0 0 0 Z " fill="#CD7900" transform="translate(682,549)"/>
<path d="M0 0 C-2.95447372 2.36357898 -6.05137758 4.19282268 -9.34375 6.02734375 C-11.11248744 7.01712412 -11.11248744 7.01712412 -13 8.5625 C-15.81319627 10.58448482 -18.78965638 11.70351508 -22 13 C-22 10.69 -22 8.38 -22 6 C-5.06208609 -2.02483444 -5.06208609 -2.02483444 0 0 Z " fill="#E0A600" transform="translate(571,318)"/>
<path d="M0 0 C1.8125 1.1875 1.8125 1.1875 3 3 C3.42674516 5.84496772 3.36066991 7.36352369 1.9375 9.875 C-1.20294693 11.69848531 -3.5985313 10.8658284 -7 10 C-9 7 -9 7 -8.8125 4.4375 C-7.3222327 -0.03330191 -4.26655819 -0.53331977 0 0 Z " fill="#E1A000" transform="translate(436,318)"/>
<path d="M0 0 C0 3 0 3 -2.203125 5.54370117 C-3.21108431 6.55118515 -4.22730922 7.55044193 -5.25 8.54296875 C-5.78270508 9.07142899 -6.31541016 9.59988922 -6.86425781 10.1443634 C-8.56927029 11.83256735 -10.28441127 13.51005145 -12 15.1875 C-13.15693178 16.32938778 -14.31319065 17.47195776 -15.46875 18.61523438 C-18.30474911 21.41813541 -21.14987676 24.2114652 -24 27 C-23.34 27.33 -22.68 27.66 -22 28 C-23.55500981 31.81684226 -26.03595495 34.19195732 -29 37 C-29.66 36.67 -30.32 36.34 -31 36 C-29.35 34.02 -27.7 32.04 -26 30 C-28.64 32.31 -31.28 34.62 -34 37 C-34.66 36.67 -35.32 36.34 -36 36 C-24.12 24.12 -12.24 12.24 0 0 Z " fill="#F6BB00" transform="translate(679,547)"/>
<path d="M0 0 C5.33333333 4 10.66666667 8 16 12 C15.01 12.495 15.01 12.495 14 13 C12.31923769 12.36971413 10.65204456 11.70211894 9 11 C8.34 11 7.68 11 7 11 C10.63 13.31 14.26 15.62 18 18 C17.34 18.33 16.68 18.66 16 19 C9.52081418 15.59101661 0.93633413 10.96068345 -2.375 4.1875 C-2.58125 3.465625 -2.7875 2.74375 -3 2 C-2.01 1.34 -1.02 0.68 0 0 Z " fill="#E3A100" transform="translate(281,702)"/>
<path d="M0 0 C7.10059398 5.68047519 10.0924542 15.32933726 12 24 C12.125 27.4375 12.125 27.4375 12 30 C11.34 29.01 10.68 28.02 10 27 C9.67 28.65 9.34 30.3 9 32 C8.67 32 8.34 32 8 32 C7.84144531 31.00742187 7.68289063 30.01484375 7.51953125 28.9921875 C6.08939043 20.51626852 4.08552818 12.71709067 0.98828125 4.6953125 C0 2 0 2 0 0 Z " fill="#E8A900" transform="translate(772,300)"/>
<path d="M0 0 C1.875 1.125 1.875 1.125 3 3 C2.875 6.0625 2.875 6.0625 2 9 C-1 11 -1 11 -3.5625 10.75 C-6 10 -6 10 -8 8 C-8.36487512 5.15397406 -8.40199375 3.6135694 -6.8125 1.1875 C-4.35092224 -0.42525784 -2.88934264 -0.4334014 0 0 Z " fill="#DF9F00" transform="translate(740,545)"/>
<path d="M0 0 C2 2 2 2 2.3125 4.4375 C2 7 2 7 0.875 8.875 C-1 10 -1 10 -4.0625 9.8125 C-7 9 -7 9 -9 7 C-9.375 4.5625 -9.375 4.5625 -9 2 C-6.07557433 -1.24936186 -4.04996841 -1.38551551 0 0 Z " fill="#F0C100" transform="translate(715,366)"/>
<path d="M0 0 C0.99 0 1.98 0 3 0 C4.17266191 3.51798573 3.73410958 4.60797979 2.625 8.0625 C2.34914063 8.94035156 2.07328125 9.81820313 1.7890625 10.72265625 C0.07265927 15.67643388 -2.6572185 20.31443701 -5 25 C-6.41351602 22.75500397 -7.03670055 21.44587268 -6.81640625 18.76953125 C-5.70550384 15.00096756 -4.34914115 11.35252656 -2.9375 7.6875 C-2.51500977 6.57665039 -2.51500977 6.57665039 -2.08398438 5.44335938 C-1.39281425 3.62757345 -0.69688311 1.81360101 0 0 Z " fill="#CE7C00" transform="translate(772,402)"/>
<path d="M0 0 C-0.21337891 1.83666992 -0.21337891 1.83666992 -1 4 C-2.99365234 5.38793945 -2.99365234 5.38793945 -5.5859375 6.61328125 C-6.98199219 7.2774707 -6.98199219 7.2774707 -8.40625 7.95507812 C-9.3859375 8.40302734 -10.365625 8.85097656 -11.375 9.3125 C-12.34695313 9.77978516 -13.31890625 10.24707031 -14.3203125 10.72851562 C-21.60157597 14.13280801 -21.60157597 14.13280801 -25 13 C-21.37 11.02 -17.74 9.04 -14 7 C-16.64 7.33 -19.28 7.66 -22 8 C-19.15479656 5.70018198 -16.4655319 4.20684916 -13.0625 2.875 C-11.81146484 2.37613281 -11.81146484 2.37613281 -10.53515625 1.8671875 C-6.96354658 0.64546586 -3.77676393 0 0 0 Z " fill="#E8AF00" transform="translate(584,311)"/>
<path d="M0 0 C1.4056451 4.21693529 -0.33189578 7.01308005 -1.9375 10.9375 C-2.51527381 12.36079646 -3.08710467 13.78652299 -3.65234375 15.21484375 C-3.91007568 15.84511475 -4.16780762 16.47538574 -4.43334961 17.12475586 C-5.19283781 19.31166974 -5.19283781 19.31166974 -5 23 C-3.02 18.545 -3.02 18.545 -1 14 C0.17632556 17.52897669 -0.25731798 18.78723579 -1.21484375 22.32421875 C-1.48876953 23.35224609 -1.76269531 24.38027344 -2.04492188 25.43945312 C-2.33947266 26.51130859 -2.63402344 27.58316406 -2.9375 28.6875 C-3.22818359 29.77095703 -3.51886719 30.85441406 -3.81835938 31.97070312 C-4.5381418 34.64923773 -5.26562605 37.32543603 -6 40 C-6.33 40 -6.66 40 -7 40 C-7 36.7 -7 33.4 -7 30 C-7.66 29.67 -8.32 29.34 -9 29 C-8.44744739 22.42308911 -6.75047711 16.74905252 -4.5 10.5625 C-4.17902344 9.65306641 -3.85804688 8.74363281 -3.52734375 7.80664062 C-1.15161331 1.15161331 -1.15161331 1.15161331 0 0 Z " fill="#EAA600" transform="translate(269,582)"/>
<path d="M0 0 C3 0.25 3 0.25 5 2.25 C5.25 5.25 5.25 5.25 5 8.25 C3 10.25 3 10.25 0 10.5 C-3 10.25 -3 10.25 -5 8.25 C-5.25 5.25 -5.25 5.25 -5 2.25 C-3 0.25 -3 0.25 0 0 Z " fill="#E1A100" transform="translate(279,363.75)"/>
<path d="M0 0 C2.4375 0.8125 2.4375 0.8125 4.4375 2.8125 C4.375 5.8125 4.375 5.8125 3.4375 8.8125 C1.125 10.375 1.125 10.375 -1.5625 10.8125 C-3.875 9.75 -3.875 9.75 -5.5625 7.8125 C-6.07641252 4.87585703 -5.9749499 3.46373669 -4.375 0.9375 C-2.5625 -0.1875 -2.5625 -0.1875 0 0 Z " fill="#E1A301" transform="translate(581.5625,245.1875)"/>
<path d="M0 0 C2.14503684 3.48846822 2.23354662 6.24405878 2.1953125 10.296875 C2.18564453 12.10478516 2.18564453 12.10478516 2.17578125 13.94921875 C2.15902344 15.20347656 2.14226562 16.45773437 2.125 17.75 C2.11597656 19.01972656 2.10695313 20.28945313 2.09765625 21.59765625 C2.07409005 24.73196093 2.04118832 27.86588541 2 31 C1.01 30.67 0.02 30.34 -1 30 C-1.33 20.43 -1.66 10.86 -2 1 C-1.34 0.67 -0.68 0.34 0 0 Z " fill="#C87500" transform="translate(258,624)"/>
<path d="M0 0 C2.4375 0.8125 2.4375 0.8125 4.4375 3.8125 C3.89695946 8.35304054 3.89695946 8.35304054 2.4375 9.8125 C-0.5 10 -0.5 10 -3.5625 9.8125 C-5.5625 7.8125 -5.5625 7.8125 -5.875 4.8125 C-5.771875 3.8225 -5.66875 2.8325 -5.5625 1.8125 C-2.5625 -0.1875 -2.5625 -0.1875 0 0 Z " fill="#E0A000" transform="translate(448.5625,629.1875)"/>
<path d="M0 0 C0.66 0.33 1.32 0.66 2 1 C1.19175781 1.94101562 0.38351562 2.88203125 -0.44921875 3.8515625 C-1.52866822 5.10935579 -2.60809404 6.36716937 -3.6875 7.625 C-4.21794922 8.24246094 -4.74839844 8.85992187 -5.29492188 9.49609375 C-8.56225428 13.30464073 -11.79689798 17.13726102 -15 21 C-15 18 -15 18 -14 17 C-14.8971875 17.2475 -14.8971875 17.2475 -15.8125 17.5 C-18 18 -18 18 -21 18 C-18.62584775 15.93652253 -16.25052232 13.87439999 -13.875 11.8125 C-13.20984375 11.23435547 -12.5446875 10.65621094 -11.859375 10.06054688 C-7.94220957 6.66182981 -3.99629724 3.30534865 0 0 Z " fill="#E49E00" transform="translate(644,338)"/>
<path d="M0 0 C-6.04356137 2.12643826 -12.15743329 3.97722733 -18.3125 5.75 C-19.10124512 5.98485107 -19.88999023 6.21970215 -20.70263672 6.46166992 C-21.45689941 6.6754126 -22.21116211 6.88915527 -22.98828125 7.109375 C-23.66415283 7.30499023 -24.34002441 7.50060547 -25.03637695 7.70214844 C-27.34004246 8.05157924 -28.82479065 7.81720572 -31 7 C-31.33 6.34 -31.66 5.68 -32 5 C-5.74130501 -1.8645827 -5.74130501 -1.8645827 0 0 Z " fill="#ECC101" transform="translate(661,289)"/>
<path d="M0 0 C1.258125 0.0825 2.51625 0.165 3.8125 0.25 C1.41664999 5.59458849 -2.66005343 8.68583993 -7.1875 12.25 C-7.8475 12.25 -8.5075 12.25 -9.1875 12.25 C-10.1775 12.91 -11.1675 13.57 -12.1875 14.25 C-11.52083333 12.91666667 -10.85416667 11.58333333 -10.1875 10.25 C-9.713125 9.26 -9.23875 8.27 -8.75 7.25 C-8.234375 6.26 -7.71875 5.27 -7.1875 4.25 C-6.795625 3.46625 -6.40375 2.6825 -6 1.875 C-3.78126454 -0.11421111 -2.91293494 0.01025681 0 0 Z " fill="#D48801" transform="translate(726.1875,495.75)"/>
<path d="M0 0 C2.34858511 0.90912972 4.67035636 1.844757 6.94921875 2.91796875 C12.81499631 5.6665647 18.71680712 7.44975428 25 9 C21.93810544 12.06189456 17.86946602 12.43157638 13.76171875 13.41210938 C10.48289262 14.23018627 7.66793845 15.16718913 4.640625 16.69140625 C3.76921875 17.12324219 2.8978125 17.55507813 2 18 C1.34 17.67 0.68 17.34 0 17 C1.578076 16.15675328 3.1627042 15.32576082 4.75 14.5 C5.63171875 14.0359375 6.5134375 13.571875 7.421875 13.09375 C10 12 10 12 14 12 C13.67 10.35 13.34 8.7 13 7 C12.34 6.938125 11.68 6.87625 11 6.8125 C6.84776917 5.68793748 3.45699326 3.53913152 0 1 C0 0.67 0 0.34 0 0 Z " fill="#ECBA00" transform="translate(756,263)"/>
<path d="M0 0 C1.29808594 0.09023438 2.59617187 0.18046875 3.93359375 0.2734375 C6.88530751 0.5593947 9.67559073 0.96863142 12.5625 1.625 C12.2325 2.285 11.9025 2.945 11.5625 3.625 C6.81420285 4.52090512 2.07692405 4.76762039 -2.75 4.9375 C-3.75675781 4.97488281 -4.76351562 5.01226562 -5.80078125 5.05078125 C-8.4375 4.625 -8.4375 4.625 -10.29296875 2.60546875 C-10.67066406 1.95191406 -11.04835938 1.29835938 -11.4375 0.625 C-7.57943689 -0.6904719 -4.02269376 -0.29502412 0 0 Z " fill="#E09501" transform="translate(764.4375,465.375)"/>
<path d="M0 0 C1.10313617 3.3094085 0.89941114 4.19482294 0.00390625 7.44921875 C-0.33930664 8.72055664 -0.33930664 8.72055664 -0.68945312 10.01757812 C-0.93630859 10.89865234 -1.18316406 11.77972656 -1.4375 12.6875 C-1.68048828 13.58017578 -1.92347656 14.47285156 -2.17382812 15.39257812 C-2.77509306 17.59721622 -3.38406657 19.79942345 -4 22 C-6.50623415 18.24064878 -8.13785566 14.41247412 -7.875 9.8125 C-6.69227588 7.36257147 -5.00384197 5.80992178 -3 4 C-2.67 4.33 -2.34 4.66 -2 5 C-1.34 3.35 -0.68 1.7 0 0 Z " fill="#EAB000" transform="translate(746,292)"/>
<path d="M0 0 C3.125 0.375 3.125 0.375 6 1 C6.75 3.25 6.75 3.25 7 6 C5.3125 8.375 5.3125 8.375 3 10 C-0.01811422 9.82246387 -0.83735215 9.16264785 -3 7 C-2.67028521 3.70285207 -2.3773161 2.3773161 0 0 Z " fill="#EAB400" transform="translate(620,678)"/>
<path d="M0 0 C2.33781983 3.50672974 4.01494064 7.10733931 5.75 10.9375 C6.09160156 11.65357422 6.43320312 12.36964844 6.78515625 13.10742188 C9.1818728 18.42852714 9.1818728 18.42852714 8.203125 21.50390625 C7.80609375 21.99761719 7.4090625 22.49132812 7 23 C6.566875 22.071875 6.13375 21.14375 5.6875 20.1875 C4.25273003 17.09956031 4.25273003 17.09956031 2.4375 15.4375 C-0.53530976 12.46469024 -0.97885492 9.41585329 -1.1875 5.3125 C-1 2 -1 2 0 0 Z " fill="#CC7500" transform="translate(262,669)"/>
<path d="M0 0 C2.5625 0.3125 2.5625 0.3125 4.4375 1.5625 C5.5625 3.3125 5.5625 3.3125 5.375 5.375 C4.5625 7.3125 4.5625 7.3125 2.5625 9.3125 C0.0625 9.5625 0.0625 9.5625 -2.4375 9.3125 C-4.4375 7.3125 -4.4375 7.3125 -4.6875 4.8125 C-4.34234788 1.3609788 -3.44095645 0.44114826 0 0 Z " fill="#EEC301" transform="translate(555.4375,587.6875)"/>
<path d="M0 0 C0.92296875 0.07605469 1.8459375 0.15210938 2.796875 0.23046875 C1.69761097 2.00434961 0.59226998 3.77446559 -0.515625 5.54296875 C-1.13050781 6.52910156 -1.74539063 7.51523437 -2.37890625 8.53125 C-3.86637161 10.7321891 -5.2434636 12.46375863 -7.203125 14.23046875 C-7.203125 13.24046875 -7.203125 12.25046875 -7.203125 11.23046875 C-9.183125 12.22046875 -9.183125 12.22046875 -11.203125 13.23046875 C-10.12293412 9.77385793 -8.47363675 6.8958434 -6.453125 3.91796875 C-5.98390625 3.22058594 -5.5146875 2.52320313 -5.03125 1.8046875 C-3.203125 0.23046875 -3.203125 0.23046875 0 0 Z " fill="#E19B00" transform="translate(314.203125,504.76953125)"/>
<path d="M0 0 C2.4375 0.75 2.4375 0.75 4.4375 2.75 C4.0625 5.375 4.0625 5.375 3.4375 7.75 C0.0625 8.375 0.0625 8.375 -3.5625 8.75 C-5.5625 6.75 -5.5625 6.75 -5.875 4.25 C-5.771875 3.425 -5.66875 2.6 -5.5625 1.75 C-2.5625 -0.25 -2.5625 -0.25 0 0 Z " fill="#E7B400" transform="translate(573.5625,705.25)"/>
<path d="M0 0 C0.33 0 0.66 0 1 0 C1.41295216 11.08088291 0.16290879 21.99566626 -1 33 C-1.66 33 -2.32 33 -3 33 C-3.78441153 26.43507888 -4.10914408 20.53162622 -3 14 C-2.67 14 -2.34 14 -2 14 C-1.34 9.38 -0.68 4.76 0 0 Z " fill="#F1BB00" transform="translate(514,706)"/>
<path d="M0 0 C0.99 0 1.98 0 3 0 C2.69106068 1.6256807 2.3777305 3.25052748 2.0625 4.875 C1.88847656 5.77992188 1.71445312 6.68484375 1.53515625 7.6171875 C1 10 1 10 0 12 C-0.28617187 12.60714844 -0.57234375 13.21429687 -0.8671875 13.83984375 C-1.19976562 14.53207031 -1.53234375 15.22429688 -1.875 15.9375 C-2.20242188 16.62714844 -2.52984375 17.31679688 -2.8671875 18.02734375 C-4.02696849 20.04696238 -5.2858349 21.43766095 -7 23 C-6.42389687 17.45044957 -4.97901452 12.73970503 -2.9375 7.5625 C-2.65583984 6.83095703 -2.37417969 6.09941406 -2.08398438 5.34570312 C-1.39586753 3.56126454 -0.69885394 1.78026095 0 0 Z " fill="#CC7800" transform="translate(269,585)"/>
<path d="M0 0 C-0.99 0.495 -0.99 0.495 -2 1 C-2 1.66 -2 2.32 -2 3 C-3.39006515 3.53603819 -4.78742649 4.05317473 -6.1875 4.5625 C-6.96480469 4.85253906 -7.74210938 5.14257812 -8.54296875 5.44140625 C-11.39648008 6.09013776 -13.16094489 5.59585107 -16 5 C-18.68436668 5.29724106 -18.68436668 5.29724106 -21.3125 5.9375 C-22.63701172 6.22947266 -22.63701172 6.22947266 -23.98828125 6.52734375 C-24.65214844 6.68332031 -25.31601562 6.83929688 -26 7 C-25 5 -25 5 -23.12988281 4.20629883 C-20.50654289 3.39633603 -17.88208339 2.59367 -15.25 1.8125 C-13.88875 1.38420898 -13.88875 1.38420898 -12.5 0.94726562 C-11.61828125 0.68236328 -10.7365625 0.41746094 -9.828125 0.14453125 C-9.0227832 -0.09934326 -8.21744141 -0.34321777 -7.38769531 -0.59448242 C-4.65433756 -1.05870606 -2.6654512 -0.69300547 0 0 Z " fill="#EFBD01" transform="translate(632,295)"/>
<path d="M0 0 C1 2 1 2 1 5 C2.65 3.35 4.3 1.7 6 0 C4.53967505 5.31027254 2.01679014 9.46330032 -1 14 C-1.99 13.01 -2.98 12.02 -4 11 C-5.32 13.31 -6.64 15.62 -8 18 C-8.33 17.34 -8.66 16.68 -9 16 C-7.78144276 13.40688664 -6.51297264 10.93724337 -5.125 8.4375 C-4.74730469 7.73947266 -4.36960937 7.04144531 -3.98046875 6.32226562 C-1.17430704 1.17430704 -1.17430704 1.17430704 0 0 Z " fill="#E7A200" transform="translate(293,533)"/>
<path d="M0 0 C2.09350689 3.4019487 2.17942163 6.05272412 2 10 C1.67 9.01 1.34 8.02 1 7 C0.34 7 -0.32 7 -1 7 C-1.0928125 8.051875 -1.0928125 8.051875 -1.1875 9.125 C-2.6772185 14.39631163 -5.69901631 17.26359414 -10.3125 19.875 C-11.6428125 20.431875 -11.6428125 20.431875 -13 21 C-12.34 21.99 -11.68 22.98 -11 24 C-14.63 23.34 -18.26 22.68 -22 22 C-18.96751945 20.48375972 -16.16611491 19.32170275 -13 18.1875 C-8.7163806 16.45769775 -6.27389241 15.18396203 -4 11 C-3.10497579 8.38815663 -2.32000524 5.77834381 -1.61328125 3.109375 C-1 1 -1 1 0 0 Z " fill="#EBC300" transform="translate(314,252)"/>
<path d="M0 0 C0 0.99 0 1.98 0 3 C-1.98 3.99 -1.98 3.99 -4 5 C-4 6.98 -4 8.96 -4 11 C-2.68 11.66 -1.36 12.32 0 13 C0 13.99 0 14.98 0 16 C-0.598125 15.401875 -1.19625 14.80375 -1.8125 14.1875 C-6.22045242 11.16243461 -10.83777849 10.19336819 -16 9 C-15 7 -15 7 -12.890625 6.2890625 C-12.01921875 6.06992187 -11.1478125 5.85078125 -10.25 5.625 C-6.03732985 4.44810791 -3.19905399 3.09241885 0 0 Z " fill="#ECBA00" transform="translate(314,640)"/>
<path d="M0 0 C0.99 1.32 1.98 2.64 3 4 C2.04270084 5.12588014 1.08412105 6.2506715 0.125 7.375 C-0.40867187 8.00148438 -0.94234375 8.62796875 -1.4921875 9.2734375 C-2.61432007 10.55836651 -3.79371975 11.79371975 -5 13 C-7.625 12.625 -7.625 12.625 -10 12 C-3.84965831 3.55353075 -3.84965831 3.55353075 0 0 Z " fill="#D48600" transform="translate(695,531)"/>
<path d="M0 0 C-1.92728389 3.85456779 -7.19912294 4.56189435 -11.12109375 5.890625 C-16.32896766 7.50026045 -21.56942989 7.89059291 -27 8 C-24.46702371 6.31134914 -22.20879805 5.13824363 -19.4375 3.9375 C-16.19210535 2.52580608 -16.19210535 2.52580608 -13 1 C-11.36255091 0.58993556 -9.71497238 0.2195684 -8.0625 -0.125 C-7.18722656 -0.31320312 -6.31195312 -0.50140625 -5.41015625 -0.6953125 C-3 -1 -3 -1 0 0 Z " fill="#DA9200" transform="translate(619,300)"/>
<path d="M0 0 C0.33 0.66 0.66 1.32 1 2 C-1.16798732 7.4770206 -1.16798732 7.4770206 -4.1875 9.375 C-4.785625 9.58125 -5.38375 9.7875 -6 10 C-5.67 10.99 -5.34 11.98 -5 13 C-6.375 14.5 -6.375 14.5 -8 16 C-8.66 16 -9.32 16 -10 16 C-10 16.66 -10 17.32 -10 18 C-12.5 19.625 -12.5 19.625 -15 21 C-13.60917658 18.00708885 -11.97717635 15.49987528 -9.9609375 12.890625 C-9.38085938 12.13652344 -8.80078125 11.38242187 -8.203125 10.60546875 C-7.59984375 9.82816406 -6.9965625 9.05085937 -6.375 8.25 C-5.76398438 7.45722656 -5.15296875 6.66445313 -4.5234375 5.84765625 C-3.01861835 3.89609392 -1.51072716 1.94699011 0 0 Z " fill="#E4A500" transform="translate(444,522)"/>
<path d="M0 0 C0.495 0.391875 0.99 0.78375 1.5 1.1875 C0.4375 2.625 0.4375 2.625 -1.5 4.1875 C-3.06814453 4.40212891 -3.06814453 4.40212891 -4.66796875 4.62109375 C-9.89948909 5.39435619 -14.48037264 7.31936147 -19.390625 9.2265625 C-22.5 10.1875 -22.5 10.1875 -25.5 9.1875 C-24.66855469 8.84976563 -23.83710938 8.51203125 -22.98046875 8.1640625 C-21.89378906 7.71804688 -20.80710937 7.27203125 -19.6875 6.8125 C-18.60855469 6.37164063 -17.52960938 5.93078125 -16.41796875 5.4765625 C-13.39269888 4.2395881 -13.39269888 4.2395881 -10.5 2.1875 C-3.58300044 -1.16447514 -3.58300044 -1.16447514 0 0 Z " fill="#D48600" transform="translate(452.5,706.8125)"/>
<path d="M0 0 C0.66 0.33 1.32 0.66 2 1 C-1.86364295 5.48717034 -5.74790208 9.87675353 -10 14 C-11.32 13.34 -12.64 12.68 -14 12 C-12.41856529 10.56041153 -10.83477221 9.12341355 -9.25 7.6875 C-8.36828125 6.88699219 -7.4865625 6.08648437 -6.578125 5.26171875 C-4.44550672 3.39083089 -2.29812057 1.65915714 0 0 Z " fill="#EFBB01" transform="translate(467,373)"/>
<path d="M0 0 C0.66 0.33 1.32 0.66 2 1 C2.05402274 3.10388569 2.09280256 5.20816714 2.125 7.3125 C2.14820313 8.48425781 2.17140625 9.65601563 2.1953125 10.86328125 C2 14 2 14 0 17 C-0.38499891 18.65549531 -0.72793135 20.3222433 -1 22 C-1.33 22 -1.66 22 -2 22 C-2.10792492 14.91293037 -2.03581937 8.02055353 -1 1 C-0.67 0.67 -0.34 0.34 0 0 Z " fill="#E19B00" transform="translate(512,202)"/>
<path d="M0 0 C1.12642186 3.37926557 0.96344705 3.72928278 -0.43359375 6.79296875 C-0.75263672 7.50517578 -1.07167969 8.21738281 -1.40039062 8.95117188 C-1.74263672 9.68916016 -2.08488281 10.42714844 -2.4375 11.1875 C-2.77587891 11.93708984 -3.11425781 12.68667969 -3.46289062 13.45898438 C-4.2999411 15.30992698 -5.14885404 17.15549666 -6 19 C-7 16 -7 16 -7 12 C-7.66 12 -8.32 12 -9 12 C-8.50168276 8.31245243 -7.89932357 6.39509338 -5 4 C-4.34 4.66 -3.68 5.32 -3 6 C-2.01 4.02 -1.02 2.04 0 0 Z " fill="#E6A000" transform="translate(281,564)"/>
<path d="M0 0 C2 1 2 1 3.0703125 3.6171875 C3.59238281 5.22980469 3.59238281 5.22980469 4.125 6.875 C4.47820313 7.94492187 4.83140625 9.01484375 5.1953125 10.1171875 C6 13 6 13 6 16 C5.4225 15.360625 4.845 14.72125 4.25 14.0625 C1.98696351 11.65903372 1.98696351 11.65903372 -2 11 C-1.34 7.37 -0.68 3.74 0 0 Z " fill="#E7B000" transform="translate(692,606)"/>
<path d="M0 0 C0.99 0 1.98 0 3 0 C2.88570603 1.77155654 2.75816963 3.54226229 2.625 5.3125 C2.55539062 6.29863281 2.48578125 7.28476562 2.4140625 8.30078125 C2 11 2 11 0 14 C-0.99 14.33 -1.98 14.66 -3 15 C-2.85866501 13.22880197 -2.71176792 11.45804713 -2.5625 9.6875 C-2.48128906 8.70136719 -2.40007813 7.71523438 -2.31640625 6.69921875 C-1.73442623 1.73442623 -1.73442623 1.73442623 0 0 Z " fill="#C97800" transform="translate(780,372)"/>
<path d="M0 0 C0 3 0 3 -1 5 C-0.34 5.33 0.32 5.66 1 6 C-4.94 11.445 -4.94 11.445 -11 17 C-11.66 16.67 -12.32 16.34 -13 16 C-8.71 10.72 -4.42 5.44 0 0 Z " fill="#DFB201" transform="translate(393,587)"/>
<path d="M0 0 C0.66 0.33 1.32 0.66 2 1 C-0.57979931 5.20411739 -3.07832134 8.03224317 -7 11 C-7.33 11.66 -7.66 12.32 -8 13 C-9.98 13 -11.96 13 -14 13 C-9.55618306 8.41283413 -4.79771501 4.21237287 0 0 Z " fill="#DF9900" transform="translate(616,361)"/>
<path d="M0 0 C-3.42603293 4.1397898 -7.07756071 5.35268863 -12 7 C-13.66905395 7.66066719 -15.3369416 8.32438252 -17 9 C-15.57247607 5.40049073 -14.02291657 4.10176836 -10.625 2.3125 C-9.85414063 1.89613281 -9.08328125 1.47976563 -8.2890625 1.05078125 C-2.87188612 -1.43594306 -2.87188612 -1.43594306 0 0 Z " fill="#DD9300" transform="translate(532,669)"/>
<path d="M0 0 C0.33 0 0.66 0 1 0 C1.55048791 8.66508753 -0.11918875 16.60352122 -2 25 C-2.33 25 -2.66 25 -3 25 C-2.50130596 19.63108121 -1.97772468 14.30764827 -1 9 C-1.99 9 -2.98 9 -4 9 C-4.33 9.99 -4.66 10.98 -5 12 C-4.67 8.37 -4.34 4.74 -4 1 C-3.67 1 -3.34 1 -3 1 C-2.67 2.98 -2.34 4.96 -2 7 C-1.34 7 -0.68 7 0 7 C0 4.69 0 2.38 0 0 Z " fill="#F1B000" transform="translate(784,363)"/>
<path d="M0 0 C2.375 -0.125 2.375 -0.125 5 0 C5.66 0.66 6.32 1.32 7 2 C6.625 4.625 6.625 4.625 6 7 C4.02 7 2.04 7 0 7 C-0.93423645 3.98968256 -1.04449911 3.13349732 0 0 Z " fill="#D48300" transform="translate(709,367)"/>
<path d="M0 0 C0.33 0 0.66 0 1 0 C1.09908936 9.39146903 1.12998844 18.65741704 0 28 C-0.33 28 -0.66 28 -1 28 C-1.22556502 23.89658886 -1.42750038 19.79235012 -1.625 15.6875 C-1.68945312 14.52025391 -1.75390625 13.35300781 -1.8203125 12.15039062 C-1.871875 11.03212891 -1.9234375 9.91386719 -1.9765625 8.76171875 C-2.02893066 7.73006592 -2.08129883 6.69841309 -2.13525391 5.63549805 C-2 3 -2 3 0 0 Z " fill="#C17700" transform="translate(501,348)"/>
<path d="M0 0 C4.65133934 -0.47618831 6.99723976 0.92584851 10.8125 3.5 C11.78832031 4.1496875 12.76414062 4.799375 13.76953125 5.46875 C14.50558594 5.9740625 15.24164063 6.479375 16 7 C15.67 7.66 15.34 8.32 15 9 C11.1915807 8.34712812 8.47076679 6.57901349 5.25 4.5 C4.26515625 3.8709375 3.2803125 3.241875 2.265625 2.59375 C1.51796875 2.0678125 0.7703125 1.541875 0 1 C0 0.67 0 0.34 0 0 Z " fill="#CD7900" transform="translate(287,712)"/>
<path d="M0 0 C0.66 0 1.32 0 2 0 C2.18175781 0.73605469 2.36351562 1.47210937 2.55078125 2.23046875 C4.38159253 9.49184495 4.38159253 9.49184495 8 16 C6.0625 15.25 6.0625 15.25 4 14 C3.25 11.875 3.25 11.875 3 10 C2.34 10 1.68 10 1 10 C1 9.34 1 8.68 1 8 C0.34 8 -0.32 8 -1 8 C-1.33 9.32 -1.66 10.64 -2 12 C-3.40907283 9.18185434 -2.50872691 7.82722796 -1.5625 4.875 C-1.27503906 3.96492187 -0.98757813 3.05484375 -0.69140625 2.1171875 C-0.46324219 1.41851563 -0.23507812 0.71984375 0 0 Z " fill="#E9B700" transform="translate(318,628)"/>
<path d="M0 0 C0 3 0 3 -1 6 C-5.17442997 10.07503878 -8.32731724 11.75200979 -14 13 C-13.236875 12.2575 -12.47375 11.515 -11.6875 10.75 C-9.55405252 8.56693746 -7.78022331 6.45840362 -6 4 C-4.04783565 2.04783565 -2.46800047 1.15173355 0 0 Z " fill="#D28601" transform="translate(629,597)"/>
<path d="M0 0 C0.99 0 1.98 0 3 0 C3.33 1.65 3.66 3.3 4 5 C1.03 7.475 1.03 7.475 -2 10 C-2.66 9.67 -3.32 9.34 -4 9 C-3.47557578 5.2241456 -2.67345333 2.77627845 0 0 Z " fill="#D48900" transform="translate(709,512)"/>
<path d="M0 0 C0 0.33 0 0.66 0 1 C-2.97 1 -5.94 1 -9 1 C-9 1.66 -9 2.32 -9 3 C-16.92 2.67 -24.84 2.34 -33 2 C-33 1.67 -33 1.34 -33 1 C-21.98080785 0.23629361 -11.04528196 -0.13379211 0 0 Z " fill="#C77900" transform="translate(679,475)"/>
<path d="M0 0 C0.28875 0.639375 0.5775 1.27875 0.875 1.9375 C1.82823451 4.15206079 1.82823451 4.15206079 4 5 C3.88655624 7.1464753 3.75893655 9.29220592 3.625 11.4375 C3.55539062 12.63246094 3.48578125 13.82742188 3.4140625 15.05859375 C3.20910156 16.51458984 3.20910156 16.51458984 3 18 C2.34 18.33 1.68 18.66 1 19 C0.855625 17.906875 0.71125 16.81375 0.5625 15.6875 C0.11711896 12.06877013 0.11711896 12.06877013 -1 9 C-0.87890625 6.73828125 -0.87890625 6.73828125 -0.5625 4.3125 C-0.46066406 3.50425781 -0.35882812 2.69601562 -0.25390625 1.86328125 C-0.17011719 1.24839844 -0.08632813 0.63351562 0 0 Z " fill="#C67700" transform="translate(781,323)"/>
<path d="M0 0 C-0.33 4.95 -0.66 9.9 -1 15 C-1.99 14.01 -2.98 13.02 -4 12 C-4 11.34 -4 10.68 -4 10 C-4.66 10 -5.32 10 -6 10 C-5.855625 9.443125 -5.71125 8.88625 -5.5625 8.3125 C-4.97230872 5.88615805 -4.476571 3.45093655 -4 1 C-1 0 -1 0 0 0 Z " fill="#C87900" transform="translate(515,215)"/>
<path d="M0 0 C0.58265625 0.22558594 1.1653125 0.45117188 1.765625 0.68359375 C1.105625 1.34359375 0.445625 2.00359375 -0.234375 2.68359375 C-0.523125 3.52921875 -0.811875 4.37484375 -1.109375 5.24609375 C-2.234375 7.68359375 -2.234375 7.68359375 -4.359375 8.49609375 C-4.978125 8.55796875 -5.596875 8.61984375 -6.234375 8.68359375 C-6.564375 8.02359375 -6.894375 7.36359375 -7.234375 6.68359375 C-7.894375 6.35359375 -8.554375 6.02359375 -9.234375 5.68359375 C-8.16544282 4.64769037 -7.07859012 3.63025433 -5.984375 2.62109375 C-5.38109375 2.05261719 -4.7778125 1.48414063 -4.15625 0.8984375 C-2.234375 -0.31640625 -2.234375 -0.31640625 0 0 Z " fill="#CD7A00" transform="translate(629.234375,354.31640625)"/>
<path d="M0 0 C4.37497392 2.38634941 8.64266044 5.28467322 12 9 C12 12 12 12 11 14 C9.16056628 12.04709472 7.32840869 10.08818082 5.5 8.125 C4.97535156 7.56941406 4.45070313 7.01382812 3.91015625 6.44140625 C0 2.2265625 0 2.2265625 0 0 Z " fill="#EDBF01" transform="translate(380,340)"/>
<path d="M0 0 C1.60294922 0.01353516 1.60294922 0.01353516 3.23828125 0.02734375 C4.04652344 0.03894531 4.85476563 0.05054688 5.6875 0.0625 C2.49987635 2.18758244 0.42237777 2.5645163 -3.3125 3.0625 C-3.3125 3.7225 -3.3125 4.3825 -3.3125 5.0625 C-6.2825 4.7325 -9.2525 4.4025 -12.3125 4.0625 C-11.9825 3.0725 -11.6525 2.0825 -11.3125 1.0625 C-7.47525828 0.15836327 -3.93747726 -0.04326898 0 0 Z " fill="#D28600" transform="translate(399.3125,722.9375)"/>
<path d="M0 0 C0.66 0.33 1.32 0.66 2 1 C0.07010782 2.19982444 -1.86919228 3.38452818 -3.8125 4.5625 C-5.43091797 5.55443359 -5.43091797 5.55443359 -7.08203125 6.56640625 C-10 8 -10 8 -13 7 C-16.15020361 7.88319294 -16.15020361 7.88319294 -19 9 C-16.44977144 6.02473335 -13.59706474 4.49877698 -10 3 C-9.01 3.33 -8.02 3.66 -7 4 C-5.18819694 3.2127445 -5.18819694 3.2127445 -3.4375 2 C-2.303125 1.34 -1.16875 0.68 0 0 Z " fill="#EBB100" transform="translate(524,673)"/>
<path d="M0 0 C2.2500513 3.37507696 2.19071522 4.08124185 1.75 7.9375 C1.61851562 9.21947266 1.61851562 9.21947266 1.484375 10.52734375 C1.00053362 12.99727598 0.23424529 14.81983722 -1 17 C-1.59198743 11.65097076 -2.14187241 6.39115154 -2 1 C-1.34 0.67 -0.68 0.34 0 0 Z " fill="#C87700" transform="translate(261,609)"/>
<path d="M0 0 C0.66 0.33 1.32 0.66 2 1 C-1.96 4.465 -1.96 4.465 -6 8 C-4.68 7.67 -3.36 7.34 -2 7 C-3.65 8.65 -5.3 10.3 -7 12 C-7.33 11.34 -7.66 10.68 -8 10 C-9.65 10.66 -11.3 11.32 -13 12 C-8.87675353 7.74790208 -4.48717034 3.86364295 0 0 Z " fill="#EDB100" transform="translate(622,601)"/>
<path d="M0 0 C2.06405265 2.27399629 2.95864307 3.55826412 3.2487793 6.65722656 C3.16237183 8.13400879 3.16237183 8.13400879 3.07421875 9.640625 C3.01943359 10.71054687 2.96464844 11.78046875 2.90820312 12.8828125 C2.83537109 13.99398438 2.76253906 15.10515625 2.6875 16.25 C2.62626953 17.37664062 2.56503906 18.50328125 2.50195312 19.6640625 C2.34882994 22.44383733 2.18099971 25.22192387 2 28 C1.67 28 1.34 28 1 28 C0.33566818 18.65190221 -0.1598655 9.37877608 0 0 Z " fill="#C57700" transform="translate(517,268)"/>
<path d="M0 0 C1.86785156 0.01353516 1.86785156 0.01353516 3.7734375 0.02734375 C5.18496094 0.04474609 5.18496094 0.04474609 6.625 0.0625 C2.80884532 2.53295803 -1.22244248 2.50081912 -5.625 2.6875 C-6.37007812 2.72617187 -7.11515625 2.76484375 -7.8828125 2.8046875 C-9.7131524 2.89855108 -11.54404143 2.98159718 -13.375 3.0625 C-13.375 2.4025 -13.375 1.7425 -13.375 1.0625 C-8.85684719 0.17972245 -4.59987306 -0.04339503 0 0 Z " fill="#EAA300" transform="translate(261.375,465.9375)"/>
<path d="M0 0 C3.3 0.99 6.6 1.98 10 3 C8.02 3.99 8.02 3.99 6 5 C5.19471111 7.05000871 5.19471111 7.05000871 5 9 C3.125 8.375 3.125 8.375 1 7 C-0.25 3.875 -0.25 3.875 -1 1 C-0.67 0.67 -0.34 0.34 0 0 Z " fill="#CB7C00" transform="translate(400,360)"/>
<path d="M0 0 C2 1 2 1 3 2 C4.32 1.34 5.64 0.68 7 0 C4.31941902 3.57410797 1.57410797 6.31941902 -2 9 C-2.66 8.67 -3.32 8.34 -4 8 C-3.67 7.34 -3.34 6.68 -3 6 C-3.99 6 -4.98 6 -6 6 C-4.02 4.02 -2.04 2.04 0 0 Z " fill="#EBAF01" transform="translate(631,593)"/>
<path d="M0 0 C0.33 0.66 0.66 1.32 1 2 C-0.43359375 4.6015625 -0.43359375 4.6015625 -2.4375 7.625 C-3.09621094 8.62789062 -3.75492187 9.63078125 -4.43359375 10.6640625 C-4.95050781 11.43492187 -5.46742188 12.20578125 -6 13 C-6.66 12.67 -7.32 12.34 -8 12 C-6.42527704 7.53828494 -4.40622971 2.20311486 0 0 Z " fill="#CE7600" transform="translate(307,515)"/>
<path d="M0 0 C0.66 0.33 1.32 0.66 2 1 C-1.96 5.62 -5.92 10.24 -10 15 C-10 12 -10 12 -8 10 C-8 9.01 -8 8.02 -8 7 C-6.25 5.17578125 -6.25 5.17578125 -4 3.3125 C-3.2575 2.68988281 -2.515 2.06726563 -1.75 1.42578125 C-1.1725 0.95527344 -0.595 0.48476563 0 0 Z " fill="#EFBF01" transform="translate(644,338)"/>
<path d="M0 0 C0 3 0 3 -1.53125 4.60546875 C-2.1809375 5.12753906 -2.830625 5.64960937 -3.5 6.1875 C-4.1496875 6.71730469 -4.799375 7.24710938 -5.46875 7.79296875 C-5.9740625 8.19128906 -6.479375 8.58960938 -7 9 C-7 7.68 -7 6.36 -7 5 C-8.98 6.32 -10.96 7.64 -13 9 C-11.60667426 5.63279613 -10.0210714 4.0140476 -7 2 C-6.01 2.66 -5.02 3.32 -4 4 C-2.68 2.68 -1.36 1.36 0 0 Z " fill="#EBAE01" transform="translate(712,517)"/>
<path d="M0 0 C0.66 0.33 1.32 0.66 2 1 C2 1.66 2 2.32 2 3 C0.59308393 3.72750788 -0.82606022 4.43140353 -2.25 5.125 C-3.03890625 5.51945313 -3.8278125 5.91390625 -4.640625 6.3203125 C-7 7 -7 7 -9.296875 6.1171875 C-9.85890625 5.74851562 -10.4209375 5.37984375 -11 5 C-10.37351562 4.72285156 -9.74703125 4.44570313 -9.1015625 4.16015625 C-8.28429687 3.79792969 -7.46703125 3.43570313 -6.625 3.0625 C-5.81289063 2.70285156 -5.00078125 2.34320312 -4.1640625 1.97265625 C-2.76316215 1.3430097 -1.37374716 0.68687358 0 0 Z " fill="#DC9500" transform="translate(511,679)"/>
<path d="M0 0 C0.33 1.65 0.66 3.3 1 5 C-0.1446875 5.680625 -0.1446875 5.680625 -1.3125 6.375 C-3.23632814 7.53824492 -5.12941224 8.7529415 -7 10 C-6.67506385 6.4257023 -6.36129314 4.44287547 -4.0625 1.625 C-2 0 -2 0 0 0 Z " fill="#CB7A00" transform="translate(705,522)"/>
<path d="M0 0 C1.4370809 -0.05422947 2.87475462 -0.09289723 4.3125 -0.125 C5.11300781 -0.14820313 5.91351562 -0.17140625 6.73828125 -0.1953125 C10.56099631 0.13480106 12.97280921 2.72960691 16 5 C10.72 4.67 5.44 4.34 0 4 C0 3.67 0 3.34 0 3 C3.465 2.505 3.465 2.505 7 2 C4.69 1.67 2.38 1.34 0 1 C0 0.67 0 0.34 0 0 Z " fill="#C47500" transform="translate(744,466)"/>
<path d="M0 0 C0.33 0 0.66 0 1 0 C2.12029814 5.48946087 1.79217969 8.83430559 0 14 C-2.21151604 10.68272593 -3.33198453 8.707349 -2.5625 4.75 C-2.2840625 3.88375 -2.2840625 3.88375 -2 3 C-1.34 3 -0.68 3 0 3 C0 2.01 0 1.02 0 0 Z " fill="#E0A400" transform="translate(742,300)"/>
<path d="M0 0 C2.31 0.66 4.62 1.32 7 2 C7 2.99 7 3.98 7 5 C5.02 5.33 3.04 5.66 1 6 C0.34 4.35 -0.32 2.7 -1 1 C-0.67 0.67 -0.34 0.34 0 0 Z " fill="#D38700" transform="translate(569,706)"/>
<path d="M0 0 C0.66 0.33 1.32 0.66 2 1 C1.01 1.66 0.02 2.32 -1 3 C-0.67 3.66 -0.34 4.32 0 5 C-6.625 8.125 -6.625 8.125 -10 7 C-9.34 6.67 -8.68 6.34 -8 6 C-8.33 5.34 -8.66 4.68 -9 4 C-7.54618103 3.30300448 -6.08677047 2.61766134 -4.625 1.9375 C-3.40683594 1.36322266 -3.40683594 1.36322266 -2.1640625 0.77734375 C-1.09285156 0.39255859 -1.09285156 0.39255859 0 0 Z " fill="#ECAC01" transform="translate(460,702)"/>
<path d="M0 0 C1.32 0.66 2.64 1.32 4 2 C3.67 3.32 3.34 4.64 3 6 C1.35 6 -0.3 6 -2 6 C-2.33 4.68 -2.66 3.36 -3 2 C-2.01 1.34 -1.02 0.68 0 0 Z " fill="#D58200" transform="translate(555,589)"/>
<path d="M0 0 C0.66 0.66 1.32 1.32 2 2 C1.75704021 7.22363541 -0.31257865 10.66544943 -3 15 C-4 13 -4 13 -3.125 10.25 C-2.75375 9.1775 -2.3825 8.105 -2 7 C-1.66055205 5.00102872 -1.32578384 3.00124361 -1 1 C-0.67 0.67 -0.34 0.34 0 0 Z " fill="#DC9300" transform="translate(289,543)"/>
<path d="M0 0 C0.33 0 0.66 0 1 0 C1.95261487 4.76307437 2.08333357 9.1666528 2 14 C1.01 14.33 0.02 14.66 -1 15 C-1.33 11.7 -1.66 8.4 -2 5 C-1.67 5 -1.34 5 -1 5 C-0.67 3.35 -0.34 1.7 0 0 Z " fill="#CA7B00" transform="translate(782,356)"/>
<path d="M0 0 C0.99 0.66 1.98 1.32 3 2 C1.39805929 2.98280415 -0.20663742 3.96111717 -1.8125 4.9375 C-3.15248047 5.75541016 -3.15248047 5.75541016 -4.51953125 6.58984375 C-7 8 -7 8 -10 9 C-10.33 8.34 -10.66 7.68 -11 7 C-10.071875 6.566875 -9.14375 6.13375 -8.1875 5.6875 C-5.48670268 4.25766613 -3.99855536 3.1984109 -2 1 C-1.34 0.67 -0.68 0.34 0 0 Z " fill="#CF8300" transform="translate(484,691)"/>
<path d="M0 0 C0.66 0.66 1.32 1.32 2 2 C0.90312093 5.18094931 0.07994857 5.95577313 -2.9375 7.625 C-3.948125 8.07875 -4.95875 8.5325 -6 9 C-6.99 9.66 -7.98 10.32 -9 11 C-8.46324097 7.14896699 -6.88399077 5.68202413 -3.9375 3.25 C-3.20402344 2.63640625 -2.47054687 2.0228125 -1.71484375 1.390625 C-1.14894531 0.93171875 -0.58304688 0.4728125 0 0 Z " fill="#CF7C00" transform="translate(641,586)"/>
<path d="M0 0 C1.875 0.3125 1.875 0.3125 4 1 C4.66 1.99 5.32 2.98 6 4 C0.06 4.33 -5.88 4.66 -12 5 C-9.57869669 2.57869669 -8.19888623 2.47159496 -4.875 1.875 C-3.50988281 1.62363281 -3.50988281 1.62363281 -2.1171875 1.3671875 C-1.06917969 1.18542969 -1.06917969 1.18542969 0 1 C0 0.67 0 0.34 0 0 Z " fill="#C37400" transform="translate(266,465)"/>
<path d="M0 0 C-0.33 0.99 -0.66 1.98 -1 3 C-3.06640625 3.94921875 -3.06640625 3.94921875 -5.5625 4.6875 C-6.38878906 4.93886719 -7.21507812 5.19023437 -8.06640625 5.44921875 C-9.02353516 5.72185547 -9.02353516 5.72185547 -10 6 C-10.66 5.34 -11.32 4.68 -12 4 C-8.14373724 0.71503543 -5.00700771 0 0 0 Z " fill="#D27E00" transform="translate(584,311)"/>
<path d="M0 0 C1.57156655 3.1431331 0.11705576 5.365464 -0.9375 8.625 C-1.31777344 9.81351562 -1.69804687 11.00203125 -2.08984375 12.2265625 C-2.39019531 13.14179688 -2.69054687 14.05703125 -3 15 C-3.66 15 -4.32 15 -5 15 C-5.33 12.36 -5.66 9.72 -6 7 C-5.01 7.495 -5.01 7.495 -4 8 C-2.68 5.36 -1.36 2.72 0 0 Z " fill="#F4C400" transform="translate(318,280)"/>
<path d="M0 0 C2 3 2 3 3 6 C2.835 6.78375 2.67 7.5675 2.5 8.375 C1.95221266 11.25088353 2.27719833 13.18910462 3 16 C0.14911668 12.77726233 -0.65787224 10.27659694 -1 6 C-0.5625 2.625 -0.5625 2.625 0 0 Z " fill="#D88B00" transform="translate(262,669)"/>
<path d="M0 0 C0.66 0 1.32 0 2 0 C3.20272819 2.40545638 3.10071472 3.94996953 3.0625 6.625 C3.05347656 7.44226563 3.04445313 8.25953125 3.03515625 9.1015625 C3.02355469 9.72804688 3.01195312 10.35453125 3 11 C2.67 11 2.34 11 2 11 C1.67 12.98 1.34 14.96 1 17 C0.67 17 0.34 17 0 17 C0 11.39 0 5.78 0 0 Z " fill="#C27A00" transform="translate(524,529)"/>
<path d="M0 0 C3.75730247 1.6281644 6.616823 4.01401917 9.75 6.625 C11.22726562 7.85089844 11.22726562 7.85089844 12.734375 9.1015625 C13.85585938 10.04128906 13.85585938 10.04128906 15 11 C10.93733774 11 8.99262948 9.89957047 6 7.1875 C3.88382691 4.87293568 1.92504397 2.47505653 0 0 Z " fill="#E7A900" transform="translate(393,351)"/>
<path d="M0 0 C1.485 0.99 1.485 0.99 3 2 C3.3984375 4.2421875 3.3984375 4.2421875 3.375 6.875 C3.38273438 7.73867188 3.39046875 8.60234375 3.3984375 9.4921875 C3 12 3 12 0 16 C0 10.72 0 5.44 0 0 Z " fill="#BF7600" transform="translate(521,331)"/>
<path d="M0 0 C0.86625 0.556875 0.86625 0.556875 1.75 1.125 C1.75 1.785 1.75 2.445 1.75 3.125 C-1.22 3.785 -4.19 4.445 -7.25 5.125 C-6.25 1.125 -6.25 1.125 -4.4375 -0.25 C-2.25 -0.875 -2.25 -0.875 0 0 Z " fill="#CE7D00" transform="translate(558.25,322.875)"/>
<path d="M0 0 C-5.93317878 2.10396411 -11.82777121 3.75971762 -18 5 C-18 4.34 -18 3.68 -18 3 C-6.09771987 -1.71986971 -6.09771987 -1.71986971 0 0 Z " fill="#EBD404" transform="translate(661,289)"/>
<path d="M0 0 C-0.99 0.66 -1.98 1.32 -3 2 C-0.525 2.99 -0.525 2.99 2 4 C-1.29696105 5.09898702 -2.40494903 4.87124444 -5.6875 4.0625 C-6.49574219 3.86785156 -7.30398438 3.67320312 -8.13671875 3.47265625 C-8.75160156 3.31667969 -9.36648438 3.16070313 -10 3 C-10 2.34 -10 1.68 -10 1 C-3.375 -1.125 -3.375 -1.125 0 0 Z " fill="#E5BA00" transform="translate(680,627)"/>
<path d="M0 0 C0.33 1.32 0.66 2.64 1 4 C1.66 4 2.32 4 3 4 C3 6.64 3 9.28 3 12 C2.67 12 2.34 12 2 12 C1.67 13.65 1.34 15.3 1 17 C0.67 17 0.34 17 0 17 C0 11.39 0 5.78 0 0 Z " fill="#C57B00" transform="translate(523,547)"/>
<path d="M0 0 C-0.99 0.495 -0.99 0.495 -2 1 C-2.33 1.66 -2.66 2.32 -3 3 C-5.06640625 3.4140625 -5.06640625 3.4140625 -7.5625 3.625 C-8.38878906 3.69976562 -9.21507812 3.77453125 -10.06640625 3.8515625 C-11.02353516 3.92503906 -11.02353516 3.92503906 -12 4 C-12 3.01 -12 2.02 -12 1 C-7.58774263 -0.47075246 -4.51718381 -1.36884358 0 0 Z " fill="#E4A100" transform="translate(632,295)"/>
<path d="M0 0 C2.97 0.33 5.94 0.66 9 1 C5.27933528 3.48044315 2.13459526 3.44381173 -2.1875 3.625 C-2.93708984 3.66367187 -3.68667969 3.70234375 -4.45898438 3.7421875 C-6.30559199 3.83628216 -8.1527619 3.91922319 -10 4 C-10 3.67 -10 3.34 -10 3 C-6.7 2.34 -3.4 1.68 0 1 C0 0.67 0 0.34 0 0 Z " fill="#CE7A00" transform="translate(377,726)"/>
<path d="M0 0 C1.32 0.33 2.64 0.66 4 1 C2.68 3.64 1.36 6.28 0 9 C-0.99 7.68 -1.98 6.36 -3 5 C-2 3 -2 3 0 0 Z " fill="#CC7900" transform="translate(278,563)"/>
<path d="M0 0 C0.99 0 1.98 0 3 0 C3 2.97 3 5.94 3 9 C2.34 9 1.68 9 1 9 C0.67 9.66 0.34 10.32 0 11 C0 7.37 0 3.74 0 0 Z " fill="#C37C00" transform="translate(522,351)"/>
<path d="M0 0 C-3.1254959 2.64465038 -6.08788267 3.84414715 -10 5 C-9.8125 3.125 -9.8125 3.125 -9 1 C-5.6868424 -0.8804408 -3.58825658 -1.32898392 0 0 Z " fill="#CD7900" transform="translate(571,318)"/>
<path d="M0 0 C1.96026975 1.63269152 2.9065055 2.55021565 3.43359375 5.0859375 C3.44079508 9.30591405 3.37187535 11.43056587 1 15.0625 C0.01 16.0215625 0.01 16.0215625 -1 17 C-1.66 16.67 -2.32 16.34 -3 16 C-2.34 14.68 -1.68 13.36 -1 12 C-0.34 12 0.32 12 1 12 C1.19814261 5.91591528 1.19814261 5.91591528 0 0 Z " fill="#EFC400" transform="translate(431,232)"/>
<path d="M0 0 C0.66 0.66 1.32 1.32 2 2 C0.625 3.5 0.625 3.5 -1 5 C-1.66 5 -2.32 5 -3 5 C-3 5.66 -3 6.32 -3 7 C-5.5 8.625 -5.5 8.625 -8 10 C-6.23915938 6.0381086 -3.9706445 1.98532225 0 0 Z " fill="#DD9B00" transform="translate(437,533)"/>
<path d="M0 0 C1.4540625 0.0309375 1.4540625 0.0309375 2.9375 0.0625 C1.6175 2.3725 0.2975 4.6825 -1.0625 7.0625 C-2.5625 5.75 -2.5625 5.75 -4.0625 4.0625 C-4.0625 0.08290816 -4.0625 0.08290816 0 0 Z " fill="#EAAF01" transform="translate(314.0625,504.9375)"/>
<path d="M0 0 C2 0 2 0 4.5 2.3125 C7 5 7 5 9 8 C7.68 8 6.36 8 5 8 C0 2.77272727 0 2.77272727 0 0 Z " fill="#CE7A00" transform="translate(272,695)"/>
<path d="M0 0 C-2.19412227 3.46440358 -4.02694801 4.9074107 -8 6 C-8.99 5.67 -9.98 5.34 -11 5 C-10.01 4.67 -9.02 4.34 -8 4 C-7.67 3.01 -7.34 2.02 -7 1 C-2.55696203 -1.27848101 -2.55696203 -1.27848101 0 0 Z " fill="#D68400" transform="translate(570,645)"/>
<path d="M0 0 C0.33 0 0.66 0 1 0 C1 4.29 1 8.58 1 13 C0.34 13 -0.32 13 -1 13 C-2.5121867 9.97562661 -2.17263369 7.33758466 -2 4 C-1 1.5625 -1 1.5625 0 0 Z " fill="#C37700" transform="translate(505,287)"/>
<path d="M0 0 C2.31 0.33 4.62 0.66 7 1 C4.30932731 2.79378179 1.91421743 3.97313958 -1.0625 5.1875 C-1.94035156 5.55230469 -2.81820313 5.91710937 -3.72265625 6.29296875 C-6 7 -6 7 -8 6 C-7.4225 5.65066406 -6.845 5.30132812 -6.25 4.94140625 C-5.5075 4.48636719 -4.765 4.03132813 -4 3.5625 C-3.2575 3.11003906 -2.515 2.65757812 -1.75 2.19140625 C-1.1725 1.79824219 -0.595 1.40507812 0 1 C0 0.67 0 0.34 0 0 Z " fill="#EEC401" transform="translate(328,272)"/>
<path d="M0 0 C0.99 0.33 1.98 0.66 3 1 C3.33 3.97 3.66 6.94 4 10 C3.01 10.33 2.02 10.66 1 11 C-0.28317892 7.15046324 -0.06643637 4.05261865 0 0 Z " fill="#E49600" transform="translate(257,657)"/>
<path d="M0 0 C0.66 0.33 1.32 0.66 2 1 C1.54625 1.4125 1.0925 1.825 0.625 2.25 C-1.11586032 3.90608349 -1.11586032 3.90608349 -1.8125 6.125 C-3 8 -3 8 -6.125 8.75 C-7.548125 8.87375 -7.548125 8.87375 -9 9 C-6 6 -3 3 0 0 Z " fill="#E6AD00" transform="translate(556,410)"/>
<path d="M0 0 C0.33 0 0.66 0 1 0 C1 4.62 1 9.24 1 14 C-2 11 -2 11 -2.3125 7.5625 C-2.03296827 4.37583825 -1.69249046 2.64451634 0 0 Z " fill="#C27600" transform="translate(502,332)"/>
<path d="M0 0 C3 3 3 3 3.29296875 5.04296875 C3.1953125 7.02864583 3.09765625 9.01432292 3 11 C2.01 11.33 1.02 11.66 0 12 C0 8.04 0 4.08 0 0 Z " fill="#C87C00" transform="translate(520,314)"/>
<path d="M0 0 C2.64 0.33 5.28 0.66 8 1 C4.98509443 3.00993705 2.7850073 3.72623341 -0.6875 4.625 C-1.68136719 4.88539063 -2.67523437 5.14578125 -3.69921875 5.4140625 C-4.45847656 5.60742188 -5.21773437 5.80078125 -6 6 C-4.06745228 3.9754262 -2.36841312 2.57894208 0 1 C0 0.67 0 0.34 0 0 Z " fill="#F4CC00" transform="translate(708,627)"/>
<path d="M0 0 C-1.33333333 2.66666667 -2.66666667 5.33333333 -4 8 C-5.32 8 -6.64 8 -8 8 C-6.48291727 4.46014029 -4.24676932 0 0 0 Z " fill="#CD7900" transform="translate(653,577)"/>
<path d="M0 0 C1.32 0 2.64 0 4 0 C2.44499019 3.81684226 -0.03595495 6.19195732 -3 9 C-3.66 8.67 -4.32 8.34 -5 8 C-4.0409375 7.13375 -4.0409375 7.13375 -3.0625 6.25 C-1.01776132 4.01937599 -0.41794801 2.92563609 0 0 Z " fill="#E5A300" transform="translate(653,575)"/>
<path d="M0 0 C0.598125 0.165 1.19625 0.33 1.8125 0.5 C4.11344336 1.1114124 4.11344336 1.1114124 7 1 C3.04 4.465 3.04 4.465 -1 8 C-1.66 7.67 -2.32 7.34 -3 7 C-2.505 6.401875 -2.01 5.80375 -1.5 5.1875 C0.28276418 3.02970006 0.28276418 3.02970006 0 0 Z " fill="#EBB400" transform="translate(488,504)"/>
<path d="M0 0 C0.66 0.99 1.32 1.98 2 3 C-0.66666667 5 -3.33333333 7 -6 9 C-6.66 8.67 -7.32 8.34 -8 8 C-5.36 5.36 -2.72 2.72 0 0 Z " fill="#CF8101" transform="translate(369,421)"/>
<path d="M0 0 C0 3.96130371 -1.34877125 4.82914401 -4 7.6875 C-4.7425 8.49574219 -5.485 9.30398438 -6.25 10.13671875 C-6.8275 10.75160156 -7.405 11.36648438 -8 12 C-8 8.71434047 -7.75670469 7.71490725 -6 5 C-4.07641799 3.20943164 -2.07367724 1.62287784 0 0 Z " fill="#E8A900" transform="translate(621,366)"/>
<path d="M0 0 C3.83953399 1.27984466 5.65316744 3.81501296 8 7 C7.67 7.66 7.34 8.32 7 9 C4.95880212 7.38405168 2.95927063 5.7143618 1 4 C1 3.34 1 2.68 1 2 C0.01 1.67 -0.98 1.34 -2 1 C-1.34 0.67 -0.68 0.34 0 0 Z " fill="#DC9500" transform="translate(273,693)"/>
<path d="M0 0 C0.33 0.99 0.66 1.98 1 3 C-3.455 5.97 -3.455 5.97 -8 9 C-8.66 8.67 -9.32 8.34 -10 8 C-6.7 5.36 -3.4 2.72 0 0 Z " fill="#D07701" transform="translate(598,622)"/>
<path d="M0 0 C1.17571451 3.67410785 1.07366746 7.16929183 1 11 C0.34 11 -0.32 11 -1 11 C-1.33 12.32 -1.66 13.64 -2 15 C-2.19392201 9.47322267 -1.7479503 5.24385089 0 0 Z " fill="#E7A200" transform="translate(259,612)"/>
<path d="M0 0 C0.66 0.99 1.32 1.98 2 3 C0.75 5.5 0.75 5.5 -1 8 C-2.32 8 -3.64 8 -5 8 C-3.62845496 5.04590299 -2.01136276 2.55991624 0 0 Z " fill="#C97801" transform="translate(396,585)"/>
<path d="M0 0 C1.13643966 3.40931897 0.86747764 4.00335456 -0.4375 7.1875 C-0.72496094 7.90292969 -1.01242187 8.61835937 -1.30859375 9.35546875 C-1.53675781 9.89816406 -1.76492188 10.44085937 -2 11 C-3.42944945 8.64561267 -4.08661261 7.51967567 -3.625 4.75 C-3.41875 4.1725 -3.2125 3.595 -3 3 C-3 3.66 -3 4.32 -3 5 C-2.34 5 -1.68 5 -1 5 C-0.67 3.35 -0.34 1.7 0 0 Z " fill="#F5C500" transform="translate(695,640)"/>
<path d="M0 0 C0.12375 0.639375 0.2475 1.27875 0.375 1.9375 C0.684375 2.9584375 0.684375 2.9584375 1 4 C1.66 4.33 2.32 4.66 3 5 C2.01 5.99 1.02 6.98 0 8 C-2 7 -2 7 -4 5 C-2.68 3.35 -1.36 1.7 0 0 Z " fill="#CA7700" transform="translate(403,576)"/>
<path d="M0 0 C3.63 0 7.26 0 11 0 C10.01 0.33 9.02 0.66 8 1 C8 1.66 8 2.32 8 3 C5.69 3 3.38 3 1 3 C0.67 2.01 0.34 1.02 0 0 Z " fill="#C67A00" transform="translate(298,471)"/>
<path d="M0 0 C0.99 0 1.98 0 3 0 C3 3.58912412 2.33563446 4.10857029 0 6.6875 C-0.556875 7.31011719 -1.11375 7.93273437 -1.6875 8.57421875 C-2.120625 9.04472656 -2.55375 9.51523437 -3 10 C-3 6.83214131 -2.44444825 5.71896141 -1 3 C-0.67 2.01 -0.34 1.02 0 0 Z " fill="#EAB400" transform="translate(561,434)"/>
<path d="M0 0 C0.33 0 0.66 0 1 0 C1.33 1.98 1.66 3.96 2 6 C2.33 6 2.66 6 3 6 C3.125 8.875 3.125 8.875 3 12 C2.34 12.66 1.68 13.32 1 14 C-0.38226016 11.23547967 -0.09525387 8.9538637 -0.0625 5.875 C-0.05347656 4.77929688 -0.04445313 3.68359375 -0.03515625 2.5546875 C-0.02355469 1.71164062 -0.01195312 0.86859375 0 0 Z " fill="#C47C00" transform="translate(524,388)"/>
<path d="M0 0 C3 3 3 3 3.1875 6.6875 C3.125625 7.780625 3.06375 8.87375 3 10 C2.01 10.33 1.02 10.66 0 11 C0 7.37 0 3.74 0 0 Z " fill="#C07500" transform="translate(516,254)"/>
<path d="M0 0 C0.33 0 0.66 0 1 0 C1 3.96 1 7.92 1 12 C-2 9 -2 9 -2.3125 6 C-2 3 -2 3 0 0 Z " fill="#C57800" transform="translate(510,228)"/>
<path d="M0 0 C0 3 0 3 -1 5 C-0.34 5.33 0.32 5.66 1 6 C0.01 6.99 -0.98 7.98 -2 9 C-2.66 8.67 -3.32 8.34 -4 8 C-4 4.09161134 -2.49432124 2.88405893 0 0 Z " fill="#F0B400" transform="translate(393,587)"/>
<path d="M0 0 C0.33 1.32 0.66 2.64 1 4 C-1.31 5.65 -3.62 7.3 -6 9 C-4.47291037 5.56404834 -2.40072955 2.88087546 0 0 Z " fill="#E3A200" transform="translate(428,543)"/>
<path d="M0 0 C0 4.26861765 -1.65525557 6.48288335 -4 10 C-4.99 9.34 -5.98 8.68 -7 8 C-4.69 5.36 -2.38 2.72 0 0 Z " fill="#E7A900" transform="translate(717,503)"/>
<path d="M0 0 C3.96 0 7.92 0 12 0 C9 3 9 3 6 3.375 C3 3 3 3 0 0 Z " fill="#C48000" transform="translate(421,479)"/>
<path d="M0 0 C1.98 0.495 1.98 0.495 4 1 C3.67 2.32 3.34 3.64 3 5 C1.68 4.67 0.36 4.34 -1 4 C-0.67 2.68 -0.34 1.36 0 0 Z " fill="#E1B600" transform="translate(279,422)"/>
<path d="M0 0 C0.33 0 0.66 0 1 0 C1.33 2.97 1.66 5.94 2 9 C1.01 9.495 1.01 9.495 0 10 C0 9.34 0 8.68 0 8 C-0.66 8 -1.32 8 -2 8 C-2.125 5.125 -2.125 5.125 -2 2 C-1.34 1.34 -0.68 0.68 0 0 Z " fill="#BA7100" transform="translate(509,243)"/>
<path d="M0 0 C0.7425 0.0825 1.485 0.165 2.25 0.25 C0 2.8125 0 2.8125 -2.75 5.25 C-5.0625 5.0625 -5.0625 5.0625 -6.75 4.25 C-3.42692308 0.31153846 -3.42692308 0.31153846 0 0 Z " fill="#D99500" transform="translate(575.75,395.75)"/>
<path d="M0 0 C2.09350689 3.4019487 2.17942163 6.05272412 2 10 C1.67 9.01 1.34 8.02 1 7 C0.01 6.67 -0.98 6.34 -2 6 C-1.34 4.02 -0.68 2.04 0 0 Z " fill="#E4B600" transform="translate(314,252)"/>
<path d="M0 0 C0.33 1.32 0.66 2.64 1 4 C1.66 3.67 2.32 3.34 3 3 C3.33 2.01 3.66 1.02 4 0 C4.66 0 5.32 0 6 0 C5.67 1.65 5.34 3.3 5 5 C3.35 5 1.7 5 0 5 C0 3.35 0 1.7 0 0 Z " fill="#D17B00" transform="translate(619,681)"/>
<path d="M0 0 C0 3 0 3 -1 6 C-2.65 6.33 -4.3 6.66 -6 7 C-4.60667426 3.63279613 -3.0210714 2.0140476 0 0 Z " fill="#D07900" transform="translate(606,616)"/>
<path d="M0 0 C1.32 1.32 2.64 2.64 4 4 C3.67 4.99 3.34 5.98 3 7 C-0.875 5.25 -0.875 5.25 -2 3 C-1.34 2.67 -0.68 2.34 0 2 C0 1.34 0 0.68 0 0 Z " fill="#D17901" transform="translate(617,573)"/>
<path d="M0 0 C2.64 0 5.28 0 8 0 C7.34 1.32 6.68 2.64 6 4 C5.67 3.34 5.34 2.68 5 2 C3.35 2 1.7 2 0 2 C0 1.34 0 0.68 0 0 Z " fill="#D3A301" transform="translate(722,496)"/>
<path d="M0 0 C3.3 0 6.6 0 10 0 C10 0.99 10 1.98 10 3 C5.06071112 3.3367697 4.21507278 3.16130459 0 0 Z " fill="#C07500" transform="translate(325,473)"/>
<path d="M0 0 C1.32 0.66 2.64 1.32 4 2 C2.35 3.32 0.7 4.64 -1 6 C-2.32 5.34 -3.64 4.68 -5 4 C-4.360625 3.71125 -3.72125 3.4225 -3.0625 3.125 C-0.84793921 2.17176549 -0.84793921 2.17176549 0 0 Z " fill="#CF8100" transform="translate(462,701)"/>
<path d="M0 0 C0.99 0.66 1.98 1.32 3 2 C1.25 3.5625 1.25 3.5625 -1 5 C-3.25 4.6875 -3.25 4.6875 -5 4 C-3.36587557 2.29159719 -2.13093906 1.06546953 0 0 Z " fill="#DC9000" transform="translate(493,687)"/>
<path d="M0 0 C1.0625 1.875 1.0625 1.875 2 4 C1.67 4.66 1.34 5.32 1 6 C-1.0625 6.625 -1.0625 6.625 -3 7 C-1.125 2.25 -1.125 2.25 0 0 Z " fill="#CB7600" transform="translate(286,548)"/>
<path d="M0 0 C0 0.99 0 1.98 0 3 C-1.98 3.33 -3.96 3.66 -6 4 C-6.33 3.01 -6.66 2.02 -7 1 C-4.50935112 0.31292445 -2.62113708 0 0 0 Z " fill="#D18100" transform="translate(713,271)"/>
</svg>
