<?xml version="1.0" encoding="UTF-8"?>
<svg version="1.1" xmlns="http://www.w3.org/2000/svg" width="500" height="500">
<path d="M0 0 C1.48250342 -0.0006757 2.96500672 -0.00164792 4.44750977 -0.00289917 C7.53695747 -0.00436365 10.62637603 -0.00226214 13.71582031 0.00244141 C17.645801 0.00813791 21.57571334 0.00485217 25.50569153 -0.00113106 C28.56173198 -0.00477063 31.61775664 -0.00358259 34.67379761 -0.00100327 C36.12165332 -0.00034336 37.56951055 -0.00112906 39.0173645 -0.00348282 C47.2153942 -0.01389044 55.28044868 0.24690324 63.4375 1.1328125 C63.4375 5.0928125 63.4375 9.0528125 63.4375 13.1328125 C57.4975 13.1328125 51.5575 13.1328125 45.4375 13.1328125 C45.54578125 15.21916016 45.54578125 15.21916016 45.65625 17.34765625 C46.23486273 28.95497839 46.57621472 40.51160116 46.4375 52.1328125 C42.1475 52.1328125 37.8575 52.1328125 33.4375 52.1328125 C33.4375 39.2628125 33.4375 26.3928125 33.4375 13.1328125 C28.1575 13.1328125 22.8775 13.1328125 17.4375 13.1328125 C16.1175 13.1328125 14.7975 13.1328125 13.4375 13.1328125 C11.04473389 13.98235132 11.04473389 13.98235132 8.6875 15.1328125 C7.48867187 15.6896875 7.48867187 15.6896875 6.265625 16.2578125 C5.66234375 16.5465625 5.0590625 16.8353125 4.4375 17.1328125 C4.4375 16.1428125 4.4375 15.1528125 4.4375 14.1328125 C-1.5025 14.1328125 -7.4425 14.1328125 -13.5625 14.1328125 C-11.83902344 14.95265625 -10.11554688 15.7725 -8.33984375 16.6171875 C-6.05982917 17.70558952 -3.77988495 18.79413895 -1.5 19.8828125 C-0.36626953 20.42164063 0.76746094 20.96046875 1.93554688 21.515625 C7.56100256 24.20534725 13.08470904 26.93201442 18.4375 30.1328125 C18.46443575 32.25774391 18.48386628 34.38277162 18.5 36.5078125 C18.51160156 37.69117188 18.52320313 38.87453125 18.53515625 40.09375 C18.4375 43.1328125 18.4375 43.1328125 17.4375 45.1328125 C16.7775 45.1328125 16.1175 45.1328125 15.4375 45.1328125 C15.14875 45.7309375 14.86 46.3290625 14.5625 46.9453125 C13.4375 49.1328125 13.4375 49.1328125 11.4375 52.1328125 C8.45654297 52.47338867 8.45654297 52.47338867 4.6796875 52.42578125 C4.01663605 52.42153641 3.35358459 52.41729156 2.67044067 52.41291809 C0.55071559 52.39611221 -1.56806188 52.35845951 -3.6875 52.3203125 C-5.12368419 52.30526799 -6.55988328 52.29157918 -7.99609375 52.27929688 C-11.51853764 52.2462034 -15.04042636 52.1944093 -18.5625 52.1328125 C-19.0575 50.6478125 -19.0575 50.6478125 -19.5625 49.1328125 C-20.2225 49.1328125 -20.8825 49.1328125 -21.5625 49.1328125 C-25.5625 42.3828125 -25.5625 42.3828125 -25.5625 40.1328125 C-5.03058511 38.94132314 -5.03058511 38.94132314 4.4375 39.1328125 C4.4375 38.4728125 4.4375 37.8128125 4.4375 37.1328125 C-5.80302096 31.60057704 -16.13318147 26.30132434 -26.5625 21.1328125 C-26.5625 14.5328125 -26.5625 7.9328125 -26.5625 1.1328125 C-17.6922523 0.16944543 -8.91095691 -0.01448645 0 0 Z " fill="#CE8706" transform="translate(136.5625,221.8671875)"/>
<path d="M0 0 C5.61 0 11.22 0 17 0 C17.721875 1.93875 18.44375 3.8775 19.1875 5.875 C21.45714627 11.78768646 24.05941129 17.39740467 27 23 C27.66940686 24.33195972 28.33696886 25.66485509 29 27 C31.61650094 24.38349906 32.52669181 21.39381974 33.8125 18 C36.21707357 11.80371354 38.91586456 5.89614129 42 0 C47.28 0 52.56 0 58 0 C58 16.83 58 33.66 58 51 C53.71 51 49.42 51 45 51 C44.67 43.08 44.34 35.16 44 27 C41.41023355 31.89042335 41.41023355 31.89042335 38.82446289 36.78295898 C36.11111111 41.88888889 36.11111111 41.88888889 35 43 C30.66469082 43.14393457 26.33842269 43.04212061 22 43 C19.69 37.72 17.38 32.44 15 27 C14.67 34.92 14.34 42.84 14 51 C10.04 51 6.08 51 2 51 C0.37392364 49.37392364 0.83409069 47.54316935 0.79467773 45.29663086 C0.77473251 44.29566879 0.75478729 43.29470673 0.73423767 42.26341248 C0.71752518 41.1748848 0.70081268 40.08635712 0.68359375 38.96484375 C0.66281265 37.85645645 0.64203156 36.74806915 0.62062073 35.60609436 C0.55500377 32.04996192 0.49618404 28.49375297 0.4375 24.9375 C0.39432632 22.53319507 0.35071242 20.12889801 0.30664062 17.72460938 C0.19931003 11.81648553 0.09807721 5.90828441 0 0 Z " fill="#D38905" transform="translate(371,223)"/>
<path d="M0 0 C0.71070648 -0.00095673 1.42141296 -0.00191345 2.15365601 -0.00289917 C3.64443043 -0.00357504 5.13520791 -0.0017625 6.62597656 0.00244141 C8.89915589 0.0078142 11.1721391 0.00246805 13.4453125 -0.00390625 C14.9010421 -0.00324567 16.35677158 -0.00196494 17.8125 0 C19.12428223 0.00112793 20.43606445 0.00225586 21.78759766 0.00341797 C24.76072465 0.11378058 27.39093548 0.43589064 30.2734375 1.1328125 C29.48601891 2.59344393 28.693347 4.05124423 27.8984375 5.5078125 C27.45757812 6.31992188 27.01671875 7.13203125 26.5625 7.96875 C25.2734375 10.1328125 25.2734375 10.1328125 23.2734375 12.1328125 C17.42474262 13.16150994 11.69839077 13.25803595 5.7734375 13.1953125 C4.95101562 13.19080078 4.12859375 13.18628906 3.28125 13.18164062 C1.27861354 13.16999739 -0.72398477 13.15206806 -2.7265625 13.1328125 C-2.7265625 15.4428125 -2.7265625 17.7528125 -2.7265625 20.1328125 C6.5134375 20.1328125 15.7534375 20.1328125 25.2734375 20.1328125 C23.2734375 25.1328125 23.2734375 25.1328125 19.2734375 32.1328125 C12.0134375 32.1328125 4.7534375 32.1328125 -2.7265625 32.1328125 C-2.7265625 34.7728125 -2.7265625 37.4128125 -2.7265625 40.1328125 C7.5034375 40.1328125 17.7334375 40.1328125 28.2734375 40.1328125 C24.72954962 48.99253221 24.72954962 48.99253221 21.2734375 52.1328125 C18.38834327 53.06534023 15.69855521 52.9550687 12.69140625 52.81640625 C11.87722733 52.80650162 11.0630484 52.79659698 10.22419739 52.78639221 C7.63457768 52.7473371 5.0492657 52.65954861 2.4609375 52.5703125 C0.7012333 52.5351864 -1.05853766 52.50324964 -2.81835938 52.47460938 C-7.12274268 52.39760626 -11.4239235 52.27689881 -15.7265625 52.1328125 C-15.83822215 35.10042058 -15.77785696 18.14125503 -14.7265625 1.1328125 C-9.76653779 0.32447055 -5.04130828 0.0043273 0 0 Z " fill="#CB8606" transform="translate(219.7265625,221.8671875)"/>
<path d="M0 0 C0.95841797 -0.01224609 1.91683594 -0.02449219 2.90429688 -0.03710938 C14.53196205 -0.06121649 14.53196205 -0.06121649 18.4921875 3.84375 C19.08386719 4.75640625 19.08386719 4.75640625 19.6875 5.6875 C20.09742188 6.2959375 20.50734375 6.904375 20.9296875 7.53125 C21.8125 9.1875 21.8125 9.1875 21.8125 11.1875 C22.4725 11.1875 23.1325 11.1875 23.8125 11.1875 C23.8125 12.8375 23.8125 14.4875 23.8125 16.1875 C23.1525 16.1875 22.4925 16.1875 21.8125 16.1875 C21.5340625 17.1775 21.5340625 17.1775 21.25 18.1875 C19.18316625 22.50089218 16.04712189 25.70206519 12.8125 29.1875 C13.88014731 32.21250071 15.07144376 34.57199224 16.875 37.25 C18.52238017 39.7476409 19.36705115 41.29208245 19.8125 44.1875 C20.4725 44.1875 21.1325 44.1875 21.8125 44.1875 C22.4725 46.1675 23.1325 48.1475 23.8125 50.1875 C24.4725 50.1875 25.1325 50.1875 25.8125 50.1875 C25.8125 50.8475 25.8125 51.5075 25.8125 52.1875 C20.8625 52.1875 15.9125 52.1875 10.8125 52.1875 C10.4825 51.1975 10.1525 50.2075 9.8125 49.1875 C9.1525 49.1875 8.4925 49.1875 7.8125 49.1875 C6.33984375 47.10546875 6.33984375 47.10546875 4.75 44.375 C4.22277344 43.48167969 3.69554687 42.58835937 3.15234375 41.66796875 C1.8125 39.1875 1.8125 39.1875 0.8125 36.1875 C0.1525 36.1875 -0.5075 36.1875 -1.1875 36.1875 C-2.95212683 33.09940305 -3.1875 31.95437864 -3.1875 28.1875 C-2.5275 28.1875 -1.8675 28.1875 -1.1875 28.1875 C-0.89875 27.424375 -0.61 26.66125 -0.3125 25.875 C0.8125 23.1875 0.8125 23.1875 2.8125 20.1875 C3.4725 20.1875 4.1325 20.1875 4.8125 20.1875 C6.01878008 17.85535852 6.9779738 15.69107861 7.8125 13.1875 C2.8625 13.1875 -2.0875 13.1875 -7.1875 13.1875 C-7.17589844 14.74597656 -7.16429687 16.30445313 -7.15234375 17.91015625 C-7.09361221 29.38483067 -7.16135128 40.75327137 -8.1875 52.1875 C-12.1475 52.1875 -16.1075 52.1875 -20.1875 52.1875 C-20.1875 35.3575 -20.1875 18.5275 -20.1875 1.1875 C-13.30130343 0.42236705 -6.875236 0.00468022 0 0 Z " fill="#D38605" transform="translate(273.1875,221.8125)"/>
<path d="M0 0 C4.29 0 8.58 0 13 0 C13.33 12.87 13.66 25.74 14 39 C20.435 38.505 20.435 38.505 27 38 C28.485 38.495 28.485 38.495 30 39 C30 26.13 30 13.26 30 0 C34.29 0 38.58 0 43 0 C43.34263061 5.81516044 43.6295231 11.62953397 43.86669922 17.44995117 C43.95487988 19.42626394 44.05784144 21.40197792 44.17626953 23.37670898 C45.2684709 41.87411927 45.2684709 41.87411927 40.88671875 47.79296875 C35.28440838 52.592746 28.8427131 52.17322942 21.8125 51.875 C20.55501953 51.87628906 19.29753906 51.87757813 18.00195312 51.87890625 C8.95910293 51.69602796 8.95910293 51.69602796 4.82421875 48.6953125 C4.22222656 47.80585938 3.62023437 46.91640625 3 46 C2.47341797 45.48195801 1.94683594 44.96391602 1.40429688 44.43017578 C-0.81541992 40.58889259 -0.36804805 36.77642567 -0.29296875 32.421875 C-0.28872391 31.4953009 -0.28447906 30.56872681 -0.28010559 29.61407471 C-0.26333322 26.65908566 -0.22568355 23.70478239 -0.1875 20.75 C-0.1724513 18.74480153 -0.15876322 16.73959235 -0.14648438 14.734375 C-0.11343438 9.82265304 -0.06166182 4.91144274 0 0 Z " fill="#D98B04" transform="translate(322,223)"/>
<path d="M0 0 C2.45375131 0.20794503 4.88673396 0.47757839 7.328125 0.796875 C12.18895455 14.13053392 12.18895455 14.13053392 13.953125 20.234375 C14.77121698 23.06092874 15.66163979 25.57507618 16.828125 28.296875 C18.38863387 31.93806236 19.47320937 35.56312066 20.56640625 39.36328125 C21.25800213 41.57284143 22.06605306 43.62570117 23.015625 45.734375 C24.328125 48.796875 24.328125 48.796875 24.328125 51.796875 C20.038125 51.796875 15.748125 51.796875 11.328125 51.796875 C8.17136478 44.95722785 5.5358675 38.04022549 3.078125 30.921875 C2.71460937 29.890625 2.35109375 28.859375 1.9765625 27.796875 C1.46222656 26.31574219 1.46222656 26.31574219 0.9375 24.8046875 C0.62780273 23.91410645 0.31810547 23.02352539 -0.00097656 22.10595703 C-0.671875 19.796875 -0.671875 19.796875 -0.671875 16.796875 C-1.331875 16.796875 -1.991875 16.796875 -2.671875 16.796875 C-2.775 17.456875 -2.878125 18.116875 -2.984375 18.796875 C-3.86401064 22.63528509 -5.24157396 26.12784191 -6.671875 29.796875 C-5.723125 29.755625 -4.774375 29.714375 -3.796875 29.671875 C-0.671875 29.796875 -0.671875 29.796875 1.328125 31.796875 C2.74917483 35.4284468 3.328125 37.8522352 3.328125 41.796875 C-1.621875 41.796875 -6.571875 41.796875 -11.671875 41.796875 C-11.98125 43.26125 -12.290625 44.725625 -12.609375 46.234375 C-13.546875 50.671875 -13.546875 50.671875 -14.671875 51.796875 C-16.85826953 51.86946446 -19.04687889 51.88061283 -21.234375 51.859375 C-23.03068359 51.84583984 -23.03068359 51.84583984 -24.86328125 51.83203125 C-25.79011719 51.82042969 -26.71695313 51.80882812 -27.671875 51.796875 C-22.296875 35.671875 -22.296875 35.671875 -21.6496582 33.73681641 C-20.55728141 30.46820439 -19.47471375 27.19702439 -18.4140625 23.91796875 C-17.20719287 20.1967874 -15.94617721 16.49555719 -14.671875 12.796875 C-14.28257813 11.61738281 -13.89328125 10.43789062 -13.4921875 9.22265625 C-12.40585179 6.22280765 -11.34398415 3.51345348 -9.671875 0.796875 C-6.08112234 -0.68167021 -3.79163568 -0.28825301 0 0 Z " fill="#D18907" transform="translate(84.671875,222.203125)"/>
<path d="M0 0 C4.29 0 8.58 0 13 0 C13 16.83 13 33.66 13 51 C8.71 51 4.42 51 0 51 C0 34.17 0 17.34 0 0 Z " fill="#C0810C" transform="translate(303,223)"/>
<path d="M0 0 C11.88 0 23.76 0 36 0 C36 3.3 36 6.6 36 10 C30.39 10 24.78 10 19 10 C19 22.87 19 35.74 19 49 C15.37 49 11.74 49 8 49 C8 36.46 8 23.92 8 11 C8.33 11 8.66 11 9 11 C9 23.21 9 35.42 9 48 C11.97 48 14.94 48 18 48 C17.9278125 47.2678125 17.855625 46.535625 17.78125 45.78125 C16.75950099 33.86084489 16.90423331 21.95462915 17 10 C16.01902344 10.17402344 15.03804687 10.34804687 14.02734375 10.52734375 C9.81138871 11.12962304 5.79317255 10.8992507 1.5625 10.5625 C0.83095703 10.51029297 0.09941406 10.45808594 -0.65429688 10.40429688 C-2.43668622 10.27615124 -4.2184257 10.1390184 -6 10 C-6.33 8.68 -6.66 7.36 -7 6 C-6.34 5.67 -5.68 5.34 -5 5 C-4.67 4.01 -4.34 3.02 -4 2 C-2.68 2 -1.36 2 0 2 C0 1.34 0 0.68 0 0 Z " fill="#D69411" transform="translate(163,224)"/>
<path d="M0 0 C0.66 0.33 1.32 0.66 2 1 C3.37342831 1.0689472 4.75002102 1.08467708 6.125 1.0625 C7.40375 1.041875 8.6825 1.02125 10 1 C10.02470696 6.35684878 10.04286331 11.71366444 10.05493164 17.07055664 C10.0599624 18.89315366 10.06678769 20.71574665 10.07543945 22.53833008 C10.08755997 25.15707394 10.09324086 27.77576447 10.09765625 30.39453125 C10.10281754 31.21025101 10.10797882 32.02597076 10.11329651 32.8664093 C10.1136246 36.17013929 10.05225621 38.84323138 9 42 C5.4375 43.1875 5.4375 43.1875 2 44 C2 43.34 2 42.68 2 42 C1.34 41.67 0.68 41.34 0 41 C0.33 40.01 0.66 39.02 1 38 C1.16677282 34.41656024 1.16677282 34.41656024 1 31 C0.67 30.67 0.34 30.34 0 30 C-1.24504903 19.90126901 -0.93163709 10.10467925 0 0 Z M3 35 C3 38 3 38 3 38 Z " fill="#D88C06" transform="translate(353,224)"/>
<path d="M0 0 C4.29 0 8.58 0 13 0 C13 12.87 13 25.74 13 39 C12.67 39 12.34 39 12 39 C12 26.46 12 13.92 12 1 C8.37 1 4.74 1 1 1 C1 13.87 1 26.74 1 40 C1.66 40 2.32 40 3 40 C3.2475 40.969375 3.495 41.93875 3.75 42.9375 C4.1625 43.948125 4.575 44.95875 5 46 C7.03243548 46.96877057 7.03243548 46.96877057 9 47 C8.67 47.66 8.34 48.32 8 49 C17.24 49 26.48 49 36 49 C39.17555904 42.64888193 40.31326021 38.22756364 40.4140625 31.19921875 C40.43342865 30.36284378 40.4527948 29.52646881 40.4727478 28.66474915 C40.53230192 26.0057683 40.57883174 23.3467436 40.625 20.6875 C40.66320206 18.87953891 40.70225509 17.07159558 40.7421875 15.26367188 C40.83798345 10.84259302 40.92210331 6.42142899 41 2 C38.36 2 35.72 2 33 2 C33 6.62 33 11.24 33 16 C32.01 16 31.02 16 30 16 C30 10.72 30 5.44 30 0 C34.29 0 38.58 0 43 0 C43.34263061 5.81516044 43.6295231 11.62953397 43.86669922 17.44995117 C43.95487988 19.42626394 44.05784144 21.40197792 44.17626953 23.37670898 C45.2684709 41.87411927 45.2684709 41.87411927 40.88671875 47.79296875 C35.28440838 52.592746 28.8427131 52.17322942 21.8125 51.875 C20.55501953 51.87628906 19.29753906 51.87757813 18.00195312 51.87890625 C8.95910293 51.69602796 8.95910293 51.69602796 4.82421875 48.6953125 C4.22222656 47.80585938 3.62023437 46.91640625 3 46 C2.47341797 45.48195801 1.94683594 44.96391602 1.40429688 44.43017578 C-0.81541992 40.58889259 -0.36804805 36.77642567 -0.29296875 32.421875 C-0.28872391 31.4953009 -0.28447906 30.56872681 -0.28010559 29.61407471 C-0.26333322 26.65908566 -0.22568355 23.70478239 -0.1875 20.75 C-0.1724513 18.74480153 -0.15876322 16.73959235 -0.14648438 14.734375 C-0.11343438 9.82265304 -0.06166182 4.91144274 0 0 Z " fill="#967018" transform="translate(322,223)"/>
<path d="M0 0 C3.3 0 6.6 0 10 0 C10.02505615 1.08007324 10.0501123 2.16014648 10.07592773 3.27294922 C10.16995572 7.27242312 10.27018754 11.27172147 10.37231445 15.27099609 C10.4156808 17.00337626 10.45735463 18.73579963 10.49731445 20.46826172 C10.55497594 22.95553627 10.61868198 25.44259293 10.68359375 27.9296875 C10.70030624 28.70682098 10.71701874 29.48395447 10.73423767 30.28463745 C10.76473429 34.27274216 10.76473429 34.27274216 12 38 C12.90363281 37.91621094 13.80726563 37.83242188 14.73828125 37.74609375 C16.50751953 37.59333984 16.50751953 37.59333984 18.3125 37.4375 C19.48425781 37.33308594 20.65601563 37.22867188 21.86328125 37.12109375 C25 37 25 37 28 38 C28 32.39 28 26.78 28 21 C28.33 21 28.66 21 29 21 C29.06058594 21.62648437 29.12117188 22.25296875 29.18359375 22.8984375 C29.26738281 23.71570313 29.35117187 24.53296875 29.4375 25.375 C29.51871094 26.18710938 29.59992188 26.99921875 29.68359375 27.8359375 C29.89090114 30.04272805 29.89090114 30.04272805 31 32 C31.06935891 33.33169109 31.0845585 34.66668637 31.0625 36 C31.05347656 36.70125 31.04445313 37.4025 31.03515625 38.125 C31.02355469 38.74375 31.01195312 39.3625 31 40 C31 40.66 31 41.32 31 42 C31.66 42 32.32 42 33 42 C34.66666667 42 36.33333333 42 38 42 C36.89873701 44.95479718 36.45153653 46.12711202 34 48 C29.24521387 48.79665452 24.55422487 48.56050967 19.75 48.375 C18.43257813 48.34792969 17.11515625 48.32085937 15.7578125 48.29296875 C12.50356413 48.22222422 9.25260252 48.12354061 6 48 C7.15173355 45.53199953 8.04783565 43.95216435 10 42 C9.67 41.67 9.34 41.34 9 41 C8.91131701 38.04294679 8.88479704 35.10934944 8.90234375 32.15234375 C8.9037587 31.2659169 8.90517365 30.37949005 8.90663147 29.46620178 C8.91224785 26.62326746 8.92480309 23.78041069 8.9375 20.9375 C8.94251289 19.01497509 8.94707616 17.09244896 8.95117188 15.16992188 C8.96222259 10.44658451 8.97949817 5.72330542 9 1 C6.03 1 3.06 1 0 1 C0 0.67 0 0.34 0 0 Z M32 35 C32 38 32 38 32 38 Z " fill="#D48903" transform="translate(324,224)"/>
<path d="M0 0 C0.66 0 1.32 0 2 0 C5 10.4 5 10.4 5 13 C7.51083114 11.74458443 7.87125446 10.49936512 9 8 C8.125 15.75 8.125 15.75 7 18 C7.94875 17.95875 8.8975 17.9175 9.875 17.875 C13 18 13 18 15 20 C16.42104983 23.6315718 17 26.0553602 17 30 C12.05 30 7.1 30 2 30 C1.67 31.32 1.34 32.64 1 34 C0.4375 32.0625 0.4375 32.0625 0 30 C1 29 1 29 4.16015625 28.90234375 C5.44792969 28.91394531 6.73570313 28.92554688 8.0625 28.9375 C9.35285156 28.94652344 10.64320312 28.95554687 11.97265625 28.96484375 C12.97167969 28.97644531 13.97070312 28.98804688 15 29 C14.67 28.236875 14.34 27.47375 14 26.6875 C13 24 13 24 13 21 C11.58249437 21.11509661 10.16598831 21.24253658 8.75 21.375 C7.96109375 21.44460937 7.1721875 21.51421875 6.359375 21.5859375 C3.914123 22.01507113 2.15163097 22.78600638 0 24 C0 22.68 0 21.36 0 20 C0.99 20 1.98 20 3 20 C3 19.34 3 18.68 3 18 C0.69 17.67 -1.62 17.34 -4 17 C-4 17.66 -4 18.32 -4 19 C-3.01 18.67 -2.02 18.34 -1 18 C-1 18.66 -1 19.32 -1 20 C-1.99 20 -2.98 20 -4 20 C-4.0825 20.78375 -4.165 21.5675 -4.25 22.375 C-5 25 -5 25 -7.0625 26.3125 C-8.0215625 26.6528125 -8.0215625 26.6528125 -9 27 C-7.59518875 21.07536127 -5.87950079 15.33180162 -3.9375 9.5625 C-3.66873047 8.74845703 -3.39996094 7.93441406 -3.12304688 7.09570312 C-1.12676222 1.12676222 -1.12676222 1.12676222 0 0 Z " fill="#D28D0D" transform="translate(71,234)"/>
<path d="M0 0 C6.93 0 13.86 0 21 0 C21 2.31 21 4.62 21 7 C19 9 19 9 16.66162109 9.22705078 C15.70852051 9.21657715 14.75541992 9.20610352 13.7734375 9.1953125 C12.2265625 9.18564453 12.2265625 9.18564453 10.6484375 9.17578125 C9.56820312 9.15902344 8.48796875 9.14226562 7.375 9.125 C6.28703125 9.11597656 5.1990625 9.10695312 4.078125 9.09765625 C1.38519848 9.07403409 -1.30729255 9.04109556 -4 9 C-4 8.34 -4 7.68 -4 7 C-2.02 7 -0.04 7 2 7 C0.93354885 5.70366379 0.93354885 5.70366379 -1.5625 5.9375 C-2.366875 5.958125 -3.17125 5.97875 -4 6 C-2 3 -2 3 0 2 C0 1.34 0 0.68 0 0 Z " fill="#DA8A02" transform="translate(220,244)"/>
<path d="M0 0 C0.33 2.97 0.66 5.94 1 9 C2.32 8.67 3.64 8.34 5 8 C9 12 9 12 9.125 15.125 C9.08375 16.07375 9.0425 17.0225 9 18 C5.37 18 1.74 18 -2 18 C-1.67 16.68 -1.34 15.36 -1 14 C-1.66 14 -2.32 14 -3 14 C-3 13.34 -3 12.68 -3 12 C-3.62390625 11.77570313 -4.2478125 11.55140625 -4.890625 11.3203125 C-7.72331159 9.54726052 -7.93255443 8.06303773 -8.75 4.875 C-9.11351562 3.50988281 -9.11351562 3.50988281 -9.484375 2.1171875 C-9.65453125 1.41851562 -9.8246875 0.71984375 -10 0 C-5.91847062 -2.09907226 -4.08152938 -2.09907226 0 0 Z " fill="#D88B03" transform="translate(397,246)"/>
<path d="M0 0 C3.3 0 6.6 0 10 0 C10 16.83 10 33.66 10 51 C5.71 51 1.42 51 -3 51 C-3.33 41.43 -3.66 31.86 -4 22 C-3.34 21.67 -2.68 21.34 -2 21 C-0.74593862 26.78645644 -0.88813087 32.48868116 -0.9375 38.375 C-0.94201172 39.39722656 -0.94652344 40.41945313 -0.95117188 41.47265625 C-0.962897 43.98183194 -0.97930824 46.4908849 -1 49 C1.97 49 4.94 49 8 49 C8 33.16 8 17.32 8 1 C5.36 1 2.72 1 0 1 C0 0.67 0 0.34 0 0 Z " fill="#947115" transform="translate(419,223)"/>
<path d="M0 0 C1.89492187 0.01353516 1.89492187 0.01353516 3.828125 0.02734375 C4.79234375 0.03894531 5.7565625 0.05054688 6.75 0.0625 C8.875 5.6875 8.875 5.6875 7.75 9.0625 C3.25832172 10.25850901 -0.98269793 9.9810704 -5.5625 9.625 C-6.30306641 9.57279297 -7.04363281 9.52058594 -7.80664062 9.46679688 C-9.62152709 9.33799848 -11.43583325 9.20106738 -13.25 9.0625 C-13.58 7.7425 -13.91 6.4225 -14.25 5.0625 C-13.59 4.7325 -12.93 4.4025 -12.25 4.0625 C-11.92 3.0725 -11.59 2.0825 -11.25 1.0625 C-7.70622246 -0.44274531 -3.78293864 -0.03502721 0 0 Z " fill="#D98C04" transform="translate(170.25,224.9375)"/>
<path d="M0 0 C2.54401622 1.73273546 2.89853897 3.05113639 3.734375 5.9765625 C3.97671875 6.79382813 4.2190625 7.61109375 4.46875 8.453125 C4.63890625 9.07960937 4.8090625 9.70609375 4.984375 10.3515625 C3.664375 10.6815625 2.344375 11.0115625 0.984375 11.3515625 C0.654375 10.6915625 0.324375 10.0315625 -0.015625 9.3515625 C-1.995625 10.3415625 -1.995625 10.3415625 -4.015625 11.3515625 C-3.025625 14.3215625 -2.035625 17.2915625 -1.015625 20.3515625 C-1.675625 20.6815625 -2.335625 21.0115625 -3.015625 21.3515625 C-4.005625 19.0415625 -4.995625 16.7315625 -6.015625 14.3515625 C-6.345625 22.2715625 -6.675625 30.1915625 -7.015625 38.3515625 C-10.975625 38.3515625 -14.935625 38.3515625 -19.015625 38.3515625 C-19.015625 38.0215625 -19.015625 37.6915625 -19.015625 37.3515625 C-15.715625 37.3515625 -12.415625 37.3515625 -9.015625 37.3515625 C-9.015625 27.7815625 -9.015625 18.2115625 -9.015625 8.3515625 C-8.025625 8.3515625 -7.035625 8.3515625 -6.015625 8.3515625 C-4.54515164 4.44093026 -4.54515164 4.44093026 -4.015625 0.3515625 C-2.015625 -0.6484375 -2.015625 -0.6484375 0 0 Z " fill="#C6850A" transform="translate(392.015625,235.6484375)"/>
<path d="M0 0 C-0.33 1.32 -0.66 2.64 -1 4 C-1.99 3.67 -2.98 3.34 -4 3 C-3.67 3.99 -3.34 4.98 -3 6 C-2.01 5.34 -1.02 4.68 0 4 C2.26171875 3.8046875 2.26171875 3.8046875 4.6875 3.875 C5.89986328 3.90207031 5.89986328 3.90207031 7.13671875 3.9296875 C8.05904297 3.96449219 8.05904297 3.96449219 9 4 C10.25664978 6.90600261 11 8.79604584 11 12 C10.02417969 12.04898437 9.04835938 12.09796875 8.04296875 12.1484375 C6.77066406 12.22320312 5.49835938 12.29796875 4.1875 12.375 C2.29064453 12.47941406 2.29064453 12.47941406 0.35546875 12.5859375 C-3.12755234 12.76102939 -3.12755234 12.76102939 -6 15 C-6.14285714 7.57142857 -6.14285714 7.57142857 -5 4 C-5.66 4 -6.32 4 -7 4 C-7.33 4.66 -7.66 5.32 -8 6 C-8 5.01 -8 4.02 -8 3 C-7.01 3 -6.02 3 -5 3 C-5.99 2.67 -6.98 2.34 -8 2 C-8 1.34 -8 0.68 -8 0 C-4.71023192 -1.09658936 -3.28696233 -0.79953138 0 0 Z " fill="#D88B03" transform="translate(75,251)"/>
<path d="M0 0 C6.49209749 -0.02554325 12.98418181 -0.04294734 19.47631836 -0.05493164 C21.68075037 -0.05993255 23.88517911 -0.06673542 26.08959961 -0.07543945 C29.27458508 -0.08769217 32.45952635 -0.09327089 35.64453125 -0.09765625 C37.10147148 -0.10539818 37.10147148 -0.10539818 38.58784485 -0.11329651 C45.1183918 -0.11382117 51.50307757 0.3301425 58 1 C58 4.96 58 8.92 58 13 C52.06 13 46.12 13 40 13 C40 12.67 40 12.34 40 12 C45.61 12 51.22 12 57 12 C57 8.7 57 5.4 57 2 C55.58074219 2.16242188 54.16148437 2.32484375 52.69921875 2.4921875 C44.93039673 3.19629531 37.16808279 3.14983504 29.37426758 3.13037109 C26.80739497 3.1249893 24.24069559 3.13035603 21.67382812 3.13671875 C20.01822879 3.13605823 18.36262955 3.1347776 16.70703125 3.1328125 C15.95162552 3.13483673 15.19621979 3.13686096 14.41792297 3.13894653 C9.53181142 3.11769327 4.8385041 2.68843146 0 2 C0 1.34 0 0.68 0 0 Z " fill="#8D6813" transform="translate(142,222)"/>
<path d="M0 0 C0.33 0 0.66 0 1 0 C2.71054876 36.02615866 2.71054876 36.02615866 1 48 C12.22 48 23.44 48 35 48 C35 48.33 35 48.66 35 49 C23.45 49 11.9 49 0 49 C-1.12700118 41.11099173 -1.12700118 41.11099173 -1.1328125 37.20703125 C-1.13474609 36.33836426 -1.13667969 35.46969727 -1.13867188 34.57470703 C-1.13416016 33.66317871 -1.12964844 32.75165039 -1.125 31.8125 C-1.12306641 30.8622998 -1.12113281 29.91209961 -1.11914062 28.93310547 C-1.0616236 19.27184243 -0.58561881 9.64179539 0 0 Z " fill="#D1A729" transform="translate(205,224)"/>
<path d="M0 0 C0.33 0.66 0.66 1.32 1 2 C1.99 2.33 2.98 2.66 4 3 C3.67 4.32 3.34 5.64 3 7 C4.98 6.67 6.96 6.34 9 6 C9 5.34 9 4.68 9 4 C9.721875 4.309375 10.44375 4.61875 11.1875 4.9375 C13.80307309 5.92560539 16.25118982 6.5287754 19 7 C18.67 7.99 18.34 8.98 18 10 C17.01 10.33 16.02 10.66 15 11 C15 10.34 15 9.68 15 9 C13.88625 9.66 12.7725 10.32 11.625 11 C8.25 13 8.25 13 6 13 C6 12.01 6 11.02 6 10 C5.21625 9.87625 4.4325 9.7525 3.625 9.625 C1 9 1 9 -1 7 C-3.06874034 6.3574765 -3.06874034 6.3574765 -5 6 C-4.67 5.01 -4.34 4.02 -4 3 C-3.34 3 -2.68 3 -2 3 C-1.34 2.01 -0.68 1.02 0 0 Z " fill="#D88B04" transform="translate(132,243)"/>
<path d="M0 0 C0.33 0 0.66 0 1 0 C1.14586468 4.26421424 1.28806489 8.52853237 1.42724609 12.79296875 C1.47480543 14.23570849 1.52326989 15.67841875 1.57275391 17.12109375 C1.92510052 27.41824377 2.06240077 37.69693926 2 48 C4.97 48 7.94 48 11 48 C11 43.71 11 39.42 11 35 C11.33 35 11.66 35 12 35 C12 39.95 12 44.9 12 50 C8.04 50 4.08 50 0 50 C0 33.5 0 17 0 0 Z " fill="#B6932A" transform="translate(253,224)"/>
<path d="M0 0 C1.06605972 -0.00143509 1.06605972 -0.00143509 2.15365601 -0.00289917 C3.64443043 -0.00357504 5.13520791 -0.0017625 6.62597656 0.00244141 C8.89915589 0.0078142 11.1721391 0.00246805 13.4453125 -0.00390625 C14.9010421 -0.00324567 16.35677158 -0.00196494 17.8125 0 C19.12428223 0.00112793 20.43606445 0.00225586 21.78759766 0.00341797 C24.76072465 0.11378058 27.39093548 0.43589064 30.2734375 1.1328125 C29.6134375 2.1228125 28.9534375 3.1128125 28.2734375 4.1328125 C28.2734375 3.4728125 28.2734375 2.8128125 28.2734375 2.1328125 C27.45343262 2.29579834 26.63342773 2.45878418 25.78857422 2.62670898 C21.84737932 3.19415564 18.00155352 3.25836347 14.03125 3.23046875 C13.26287811 3.2290538 12.49450623 3.22763885 11.70285034 3.22618103 C9.26800511 3.22061933 6.83325456 3.2080741 4.3984375 3.1953125 C2.73958467 3.19029254 1.08073038 3.18573051 -0.578125 3.18164062 C-4.6276402 3.17066248 -8.67708534 3.15342456 -12.7265625 3.1328125 C-13.0565625 3.7928125 -13.3865625 4.4528125 -13.7265625 5.1328125 C-14.0565625 3.8128125 -14.3865625 2.4928125 -14.7265625 1.1328125 C-9.76653779 0.32447055 -5.04130828 0.0043273 0 0 Z " fill="#9D6F15" transform="translate(219.7265625,221.8671875)"/>
<path d="M0 0 C0.33 0.99 0.66 1.98 1 3 C1.66 3 2.32 3 3 3 C3 3.66 3 4.32 3 5 C3.66 5 4.32 5 5 5 C5.12375 5.94875 5.2475 6.8975 5.375 7.875 C5.71687177 11.08667191 5.71687177 11.08667191 8 13 C7.01 13.99 6.02 14.98 5 16 C5.66 18.31 6.32 20.62 7 23 C6.34 23 5.68 23 5 23 C5 22.34 5 21.68 5 21 C3.68 20.67 2.36 20.34 1 20 C1 19.34 1 18.68 1 18 C0.01 18 -0.98 18 -2 18 C-2.33 17.01 -2.66 16.02 -3 15 C-2.34 15 -1.68 15 -1 15 C-1 14.34 -1 13.68 -1 13 C0.65 13.33 2.3 13.66 4 14 C3.96906827 11.58414426 3.96906827 11.58414426 3 9 C0.03292954 7.14083176 0.03292954 7.14083176 -3 6 C-2.01 4.02 -1.02 2.04 0 0 Z " fill="#B47908" transform="translate(281,235)"/>
<path d="M0 0 C0.66 0.33 1.32 0.66 2 1 C1.67 1.66 1.34 2.32 1 3 C2.423125 2.938125 2.423125 2.938125 3.875 2.875 C7 3 7 3 9 5 C10.42104983 8.6315718 11 11.0553602 11 15 C6.05 15 1.1 15 -4 15 C-4.33 16.32 -4.66 17.64 -5 19 C-5.5625 17.0625 -5.5625 17.0625 -6 15 C-5 14 -5 14 -1.83984375 13.90234375 C0.09181641 13.91974609 0.09181641 13.91974609 2.0625 13.9375 C3.35285156 13.94652344 4.64320312 13.95554687 5.97265625 13.96484375 C6.97167969 13.97644531 7.97070312 13.98804688 9 14 C8.505 12.8553125 8.505 12.8553125 8 11.6875 C7 9 7 9 7 6 C5.58249437 6.11509661 4.16598831 6.24253658 2.75 6.375 C1.96109375 6.44460937 1.1721875 6.51421875 0.359375 6.5859375 C-2.085877 7.01507113 -3.84836903 7.78600638 -6 9 C-6 7.68 -6 6.36 -6 5 C-5.01 5 -4.02 5 -3 5 C-2.5359375 4.0409375 -2.5359375 4.0409375 -2.0625 3.0625 C-1 1 -1 1 0 0 Z " fill="#AA8122" transform="translate(77,249)"/>
<path d="M0 0 C-0.33 0.99 -0.66 1.98 -1 3 C-6.0247239 3.62529897 -10.92528427 4.13012092 -16 4 C-16 3.34 -16 2.68 -16 2 C-19.3 2.33 -22.6 2.66 -26 3 C-26.33218192 6.00259517 -26.33218192 6.00259517 -24.5 7.6875 C-23.7575 8.3371875 -23.7575 8.3371875 -23 9 C-23.33 9.99 -23.66 10.98 -24 12 C-24.33 11.34 -24.66 10.68 -25 10 C-25.66 10 -26.32 10 -27 10 C-31 3.25 -31 3.25 -31 1 C-20.6510926 0.34956362 -10.3734499 -0.16494885 0 0 Z " fill="#B27C10" transform="translate(142,261)"/>
<path d="M0 0 C0.99 0.495 0.99 0.495 2 1 C5.2757875 12.62174291 2.49340828 26.23940978 1 38 C0.67 38 0.34 38 0 38 C0 25.46 0 12.92 0 0 Z " fill="#B5840B" transform="translate(372,235)"/>
<path d="M0 0 C0.66 0 1.32 0 2 0 C2 1.32 2 2.64 2 4 C4.97 4.99 7.94 5.98 11 7 C11 7.66 11 8.32 11 9 C11.92232422 9.16435547 11.92232422 9.16435547 12.86328125 9.33203125 C13.67152344 9.49058594 14.47976562 9.64914063 15.3125 9.8125 C16.11300781 9.96332031 16.91351563 10.11414063 17.73828125 10.26953125 C20.26203243 11.08462878 21.23778471 12.07385771 23 14 C25.10332891 14.71447643 25.10332891 14.71447643 27 15 C27 15.99 27 16.98 27 18 C21.80332111 16.88476861 17.20885182 14.39952693 12.4375 12.125 C11.47908203 11.67769531 10.52066406 11.23039063 9.53320312 10.76953125 C8.61345703 10.33253906 7.69371094 9.89554688 6.74609375 9.4453125 C5.90747803 9.04844238 5.0688623 8.65157227 4.20483398 8.24267578 C2.0405306 7.02284362 0.54732564 5.93950201 -1 4 C-0.6875 1.8125 -0.6875 1.8125 0 0 Z " fill="#B48218" transform="translate(111,238)"/>
<path d="M0 0 C1.0625 1.875 1.0625 1.875 2 4 C1.67 4.66 1.34 5.32 1 6 C0.34 6 -0.32 6 -1 6 C-1.28875 6.598125 -1.5775 7.19625 -1.875 7.8125 C-3 10 -3 10 -5 13 C-7.98095703 13.34057617 -7.98095703 13.34057617 -11.7578125 13.29296875 C-12.42086395 13.28872391 -13.08391541 13.28447906 -13.76705933 13.28010559 C-15.88678441 13.26329971 -18.00556188 13.22564701 -20.125 13.1875 C-21.56118419 13.17245549 -22.99738328 13.15876668 -24.43359375 13.14648438 C-27.95603764 13.1133909 -31.47792636 13.0615968 -35 13 C-35 12.67 -35 12.34 -35 12 C-26.42 11.67 -17.84 11.34 -9 11 C-8.67 9.68 -8.34 8.36 -8 7 C-6.35 7 -4.7 7 -3 7 C-3.33 6.01 -3.66 5.02 -4 4 C-2.68 3.67 -1.36 3.34 0 3 C0 2.01 0 1.02 0 0 Z " fill="#936D05" transform="translate(153,261)"/>
<path d="M0 0 C0.99 0.33 1.98 0.66 3 1 C2.67 10.57 2.34 20.14 2 30 C-1.96 30 -5.92 30 -10 30 C-10 29.67 -10 29.34 -10 29 C-6.7 29 -3.4 29 0 29 C0 19.43 0 9.86 0 0 Z " fill="#805C10" transform="translate(383,244)"/>
<path d="M0 0 C2.475 0.495 2.475 0.495 5 1 C4.67 1.99 4.34 2.98 4 4 C7.63 4.33 11.26 4.66 15 5 C15 4.34 15 3.68 15 3 C14.34 3 13.68 3 13 3 C13.33 2.01 13.66 1.02 14 0 C14.66 0 15.32 0 16 0 C16.66 1.98 17.32 3.96 18 6 C18.66 6 19.32 6 20 6 C20 6.66 20 7.32 20 8 C15.05 8 10.1 8 5 8 C4.67 7.01 4.34 6.02 4 5 C3.34 5 2.68 5 2 5 C1.34 3.35 0.68 1.7 0 0 Z " fill="#977312" transform="translate(279,266)"/>
<path d="M0 0 C2.25245881 2.68841859 3.88213958 4.64641875 5 8 C5.66 8 6.32 8 7 8 C7 9.65 7 11.3 7 13 C6.34 13 5.68 13 5 13 C4.566875 14.2065625 4.566875 14.2065625 4.125 15.4375 C3 18 3 18 1 19 C-0.12827988 13.60932945 -0.12827988 13.60932945 0.5 10.625 C1.20942111 6.90053918 0.57073501 3.74148506 0 0 Z " fill="#B17C10" transform="translate(290,225)"/>
<path d="M0 0 C1.98 0.495 1.98 0.495 4 1 C3.67 2.65 3.34 4.3 3 6 C4.32 5.67 5.64 5.34 7 5 C7.33 5.99 7.66 6.98 8 8 C8.66 8 9.32 8 10 8 C10.33 8.99 10.66 9.98 11 11 C9.3745692 10.85904936 7.74965949 10.71207913 6.125 10.5625 C5.22007812 10.48128906 4.31515625 10.40007812 3.3828125 10.31640625 C1 10 1 10 -1 9 C-0.67 6.03 -0.34 3.06 0 0 Z " fill="#D88902" transform="translate(284,261)"/>
<path d="M0 0 C1.32 0.33 2.64 0.66 4 1 C4 1.66 4 2.32 4 3 C4.66 3 5.32 3 6 3 C5.67 4.32 5.34 5.64 5 7 C8.63 7 12.26 7 16 7 C16 5.35 16 3.7 16 2 C16.99 2.33 17.98 2.66 19 3 C17.125 7.875 17.125 7.875 16 9 C13.81360547 9.07258946 11.62499611 9.08373783 9.4375 9.0625 C7.64119141 9.04896484 7.64119141 9.04896484 5.80859375 9.03515625 C4.88175781 9.02355469 3.95492188 9.01195312 3 9 C2.01 6.03 1.02 3.06 0 0 Z " fill="#AD8115" transform="translate(390,257)"/>
<path d="M0 0 C3.3 0 6.6 0 10 0 C10.01981934 1.06959961 10.03963867 2.13919922 10.06005859 3.24121094 C10.1362098 7.21475512 10.22491242 11.18793766 10.31738281 15.16113281 C10.35563327 16.87981011 10.39049303 18.59856638 10.421875 20.31738281 C10.46761128 22.7900004 10.52559084 25.26207613 10.5859375 27.734375 C10.59748871 28.50118591 10.60903992 29.26799683 10.62094116 30.05804443 C10.72502269 33.83188352 10.89444046 36.79363916 13 40 C11.02 40.495 11.02 40.495 9 41 C9 27.8 9 14.6 9 1 C6.03 1 3.06 1 0 1 C0 0.67 0 0.34 0 0 Z " fill="#C38610" transform="translate(324,224)"/>
<path d="M0 0 C0.33 0 0.66 0 1 0 C1.66 5.28 2.32 10.56 3 16 C4.32 15.67 5.64 15.34 7 15 C6.47731534 17.76276177 5.89130413 20.3260876 5 23 C5.99 23.33 6.98 23.66 8 24 C6.68 24 5.36 24 4 24 C3.34 22.02 2.68 20.04 2 18 C1.34 18 0.68 18 0 18 C0 12.06 0 6.12 0 0 Z " fill="#D59211" transform="translate(323,245)"/>
<path d="M0 0 C0.33 0.66 0.66 1.32 1 2 C2.32 2 3.64 2 5 2 C5.33 1.34 5.66 0.68 6 0 C6.66 0.33 7.32 0.66 8 1 C8 1.99 8 2.98 8 4 C4.04 5.65 0.08 7.3 -4 9 C-4 8.01 -4 7.02 -4 6 C-4.66 5.67 -5.32 5.34 -6 5 C-5.67 4.01 -5.34 3.02 -5 2 C-2.4375 0.8125 -2.4375 0.8125 0 0 Z " fill="#C38510" transform="translate(145,230)"/>
<path d="M0 0 C0.33 0.99 0.66 1.98 1 3 C-0.65 2.67 -2.3 2.34 -4 2 C-4.4021875 3.2065625 -4.4021875 3.2065625 -4.8125 4.4375 C-5.204375 5.283125 -5.59625 6.12875 -6 7 C-6.99 7.33 -7.98 7.66 -9 8 C-9.99 7.34 -10.98 6.68 -12 6 C-11.67 5.01 -11.34 4.02 -11 3 C-10.01 3 -9.02 3 -8 3 C-8 2.01 -8 1.02 -8 0 C-5.13822943 -1.43088528 -3.06624227 -0.59991697 0 0 Z " fill="#DA8802" transform="translate(284,246)"/>
<path d="M0 0 C0.99 1.32 1.98 2.64 3 4 C1.68 4.33 0.36 4.66 -1 5 C-1 5.99 -1 6.98 -1 8 C1.97 8 4.94 8 8 8 C8.33 7.01 8.66 6.02 9 5 C9.5625 6.9375 9.5625 6.9375 10 9 C9 10 9 10 6.05859375 10.09765625 C4.26615234 10.08025391 4.26615234 10.08025391 2.4375 10.0625 C0.64119141 10.04896484 0.64119141 10.04896484 -1.19140625 10.03515625 C-2.11824219 10.02355469 -3.04507813 10.01195312 -4 10 C-3.52449439 8.51965236 -3.04448784 7.04074979 -2.5625 5.5625 C-2.29566406 4.73878906 -2.02882812 3.91507812 -1.75390625 3.06640625 C-1 1 -1 1 0 0 Z " fill="#9D7F16" transform="translate(61,264)"/>
<path d="M0 0 C-2 2 -2 2 -4.33837891 2.22705078 C-5.29147949 2.21657715 -6.24458008 2.20610352 -7.2265625 2.1953125 C-8.7734375 2.18564453 -8.7734375 2.18564453 -10.3515625 2.17578125 C-11.43179688 2.15902344 -12.51203125 2.14226562 -13.625 2.125 C-14.71296875 2.11597656 -15.8009375 2.10695312 -16.921875 2.09765625 C-19.61480152 2.07403409 -22.30729255 2.04109556 -25 2 C-25 1.34 -25 0.68 -25 0 C-21.58382503 -0.1972935 -18.16705407 -0.38112295 -14.75 -0.5625 C-13.29787109 -0.64661133 -13.29787109 -0.64661133 -11.81640625 -0.73242188 C-10.88183594 -0.78076172 -9.94726562 -0.82910156 -8.984375 -0.87890625 C-8.12553711 -0.9260376 -7.26669922 -0.97316895 -6.38183594 -1.02172852 C-4.07335735 -1.00066921 -2.20243733 -0.66206871 0 0 Z " fill="#DBA82E" transform="translate(241,251)"/>
<path d="M0 0 C2.31 0.66 4.62 1.32 7 2 C6.67 2.99 6.34 3.98 6 5 C3.36 5 0.72 5 -2 5 C-2 5.99 -2 6.98 -2 8 C-2.99 8 -3.98 8 -5 8 C-5.12375 8.639375 -5.2475 9.27875 -5.375 9.9375 C-5.58125 10.618125 -5.7875 11.29875 -6 12 C-6.99 12.495 -6.99 12.495 -8 13 C-8 11.68 -8 10.36 -8 9 C-7.34 9 -6.68 9 -6 9 C-5.7525 8.2575 -5.505 7.515 -5.25 6.75 C-3.90852699 3.79875938 -2.39094474 2.15185026 0 0 Z " fill="#D1900C" transform="translate(278,241)"/>
<path d="M0 0 C0.33 0 0.66 0 1 0 C1.6492751 13.67449331 2.16741675 27.30903057 2 41 C1.67 41 1.34 41 1 41 C0.93941406 40.00097656 0.87882813 39.00195312 0.81640625 37.97265625 C0.73261719 36.68230469 0.64882812 35.39195312 0.5625 34.0625 C0.48128906 32.77472656 0.40007812 31.48695313 0.31640625 30.16015625 C0.35080812 27.13976043 0.35080812 27.13976043 -1 26 C-1.01676178 24.07126501 -0.96268831 22.14183108 -0.87890625 20.21484375 C-0.83056641 19.04501953 -0.78222656 17.87519531 -0.73242188 16.66992188 C-0.67634766 15.43822266 -0.62027344 14.20652344 -0.5625 12.9375 C-0.51029297 11.70193359 -0.45808594 10.46636719 -0.40429688 9.19335938 C-0.27413667 6.12867809 -0.13915654 3.06428387 0 0 Z " fill="#CD9A28" transform="translate(205,224)"/>
<path d="M0 0 C-1 2 -1 2 -2.75390625 2.6171875 C-11.31251469 4.07587207 -20.42367365 2.76355211 -29 2 C-29 1.67 -29 1.34 -29 1 C-19.33960055 -0.26693763 -9.72278418 -0.08984092 0 0 Z " fill="#8E6515" transform="translate(140,222)"/>
<path d="M0 0 C0.66 0.33 1.32 0.66 2 1 C1.67 1.66 1.34 2.32 1 3 C2.98 3 4.96 3 7 3 C7 3.99 7 4.98 7 6 C6.39671875 6.04898438 5.7934375 6.09796875 5.171875 6.1484375 C4.37265625 6.22320312 3.5734375 6.29796875 2.75 6.375 C1.96109375 6.44460937 1.1721875 6.51421875 0.359375 6.5859375 C-2.085877 7.01507113 -3.84836903 7.78600638 -6 9 C-6 7.68 -6 6.36 -6 5 C-5.01 5 -4.02 5 -3 5 C-2.5359375 4.0409375 -2.5359375 4.0409375 -2.0625 3.0625 C-1 1 -1 1 0 0 Z " fill="#B4790B" transform="translate(77,249)"/>
<path d="M0 0 C0.66 0 1.32 0 2 0 C2 1.32 2 2.64 2 4 C2.63808594 4.17015625 3.27617188 4.3403125 3.93359375 4.515625 C4.75988281 4.75796875 5.58617188 5.0003125 6.4375 5.25 C7.26121094 5.48203125 8.08492187 5.7140625 8.93359375 5.953125 C11 7 11 7 11.78515625 9.109375 C11.85605469 9.73328125 11.92695312 10.3571875 12 11 C7.1725201 9.58707905 3.2837641 7.57025846 -1 5 C-0.67 3.35 -0.34 1.7 0 0 Z " fill="#A4760F" transform="translate(111,238)"/>
<path d="M0 0 C3.3 0.33 6.6 0.66 10 1 C10.70133599 2.57725347 11.385583 4.16211333 12.0625 5.75 C12.44535156 6.63171875 12.82820313 7.5134375 13.22265625 8.421875 C14.04600008 11.15256309 13.9773992 12.36901347 13 15 C11.21180265 12.23642228 10.02560163 10.11637104 9.3125 6.875 C8.31118322 3.9247418 8.31118322 3.9247418 6.09765625 2.953125 C4.08043524 2.20154178 2.0801738 1.55148794 0 1 C0 0.67 0 0.34 0 0 Z " fill="#906E19" transform="translate(82,222)"/>
<path d="M0 0 C9.24 0 18.48 0 28 0 C27.01 1.98 26.02 3.96 25 6 C24.67 6 24.34 6 24 6 C24 4.35 24 2.7 24 1 C16.08 1 8.16 1 0 1 C0 0.67 0 0.34 0 0 Z " fill="#BD8906" transform="translate(217,243)"/>
<path d="M0 0 C1.65 0 3.3 0 5 0 C3.68938409 4.23429756 2.05643741 8.07407404 0 12 C-0.33 12 -0.66 12 -1 12 C-2 5.375 -2 5.375 -2 2 C-1.34 2 -0.68 2 0 2 C0 1.34 0 0.68 0 0 Z " fill="#AA720F" transform="translate(410,248)"/>
<path d="M0 0 C2 2 2 2 2.22705078 4.61376953 C2.21657715 5.69255371 2.20610352 6.77133789 2.1953125 7.8828125 C2.18886719 9.04941406 2.18242187 10.21601563 2.17578125 11.41796875 C2.15902344 12.64128906 2.14226562 13.86460937 2.125 15.125 C2.11597656 16.35605469 2.10695313 17.58710938 2.09765625 18.85546875 C2.07402548 21.90383815 2.04108054 24.95182382 2 28 C1.67 28 1.34 28 1 28 C0.63726104 23.52148366 0.28624038 19.04212641 -0.0625 14.5625 C-0.16626953 13.28310547 -0.27003906 12.00371094 -0.37695312 10.68554688 C-0.47041016 9.47060547 -0.56386719 8.25566406 -0.66015625 7.00390625 C-0.74918213 5.87799072 -0.83820801 4.7520752 -0.92993164 3.59204102 C-0.9530542 2.73666748 -0.97617676 1.88129395 -1 1 C-0.67 0.67 -0.34 0.34 0 0 Z " fill="#AE7D1B" transform="translate(416,244)"/>
<path d="M0 0 C2.64 0 5.28 0 8 0 C7.01 0.66 6.02 1.32 5 2 C4.66781808 5.00259517 4.66781808 5.00259517 6.5 6.6875 C6.995 7.120625 7.49 7.55375 8 8 C7.67 8.99 7.34 9.98 7 11 C6.67 10.34 6.34 9.68 6 9 C5.34 9 4.68 9 4 9 C0 2.25 0 2.25 0 0 Z " fill="#8E6813" transform="translate(111,262)"/>
<path d="M0 0 C0.66 0 1.32 0 2 0 C2.33 2.64 2.66 5.28 3 8 C2.34 8 1.68 8 1 8 C1 12.29 1 16.58 1 21 C0.67 21 0.34 21 0 21 C0 14.07 0 7.14 0 0 Z " fill="#C8830F" transform="translate(263,251)"/>
<path d="M0 0 C0.33 0 0.66 0 1 0 C1.06058594 0.62648437 1.12117188 1.25296875 1.18359375 1.8984375 C1.26738281 2.71570313 1.35117187 3.53296875 1.4375 4.375 C1.55931641 5.59316406 1.55931641 5.59316406 1.68359375 6.8359375 C1.89090114 9.04272805 1.89090114 9.04272805 3 11 C2.71758117 13.3400417 2.38749213 15.67504723 2 18 C0.02 18 -1.96 18 -4 18 C-3.67 17.34 -3.34 16.68 -3 16 C-2.01 16.33 -1.02 16.66 0 17 C0 11.39 0 5.78 0 0 Z " fill="#936410" transform="translate(352,245)"/>
<path d="M0 0 C2.31 0 4.62 0 7 0 C10 5.75 10 5.75 10 8 C9.34 8 8.68 8 8 8 C8 7.34 8 6.68 8 6 C6.68 5.67 5.36 5.34 4 5 C4 4.34 4 3.68 4 3 C3.01 3 2.02 3 1 3 C0.67 2.01 0.34 1.02 0 0 Z " fill="#BD7F11" transform="translate(278,250)"/>
<path d="M0 0 C0 0.66 0 1.32 0 2 C-0.680625 2.61875 -0.680625 2.61875 -1.375 3.25 C-3.53986646 5.58139465 -4.12705877 7.97828036 -5 11 C-5.99 11 -6.98 11 -8 11 C-7.57576756 9.53775201 -7.13509755 8.08026588 -6.6875 6.625 C-6.44386719 5.81289062 -6.20023437 5.00078125 -5.94921875 4.1640625 C-4.69142795 1.29650652 -3.21723189 0 0 0 Z " fill="#D9930D" transform="translate(392,233)"/>
<path d="M0 0 C0.99 0.33 1.98 0.66 3 1 C3 1.99 3 2.98 3 4 C-1.29 4 -5.58 4 -10 4 C-10 3.34 -10 2.68 -10 2 C-6.7 2 -3.4 2 0 2 C0 1.34 0 0.68 0 0 Z " fill="#9C7C16" transform="translate(106,270)"/>
<path d="M0 0 C1.98 0.495 1.98 0.495 4 1 C4.33 2.65 4.66 4.3 5 6 C1.25 7.125 1.25 7.125 -1 6 C-0.67 4.02 -0.34 2.04 0 0 Z " fill="#C48910" transform="translate(288,261)"/>
<path d="M0 0 C0.33 0.66 0.66 1.32 1 2 C1.99 2.33 2.98 2.66 4 3 C3.01 3.66 2.02 4.32 1 5 C1.99 7.97 2.98 10.94 4 14 C3.01 14.495 3.01 14.495 2 15 C1.27302439 13.25766175 0.56901756 11.50572655 -0.125 9.75 C-0.51945312 8.77546875 -0.91390625 7.8009375 -1.3203125 6.796875 C-2 4 -2 4 -1.1171875 1.640625 C-0.74851562 1.09921875 -0.37984375 0.5578125 0 0 Z " fill="#B57D17" transform="translate(387,242)"/>
<path d="M0 0 C0.99 0 1.98 0 3 0 C3.2475 0.969375 3.495 1.93875 3.75 2.9375 C4.1625 3.948125 4.575 4.95875 5 6 C7.03243548 6.96877057 7.03243548 6.96877057 9 7 C8.67 7.99 8.34 8.98 8 10 C7.34 10 6.68 10 6 10 C4.4921875 8.3203125 4.4921875 8.3203125 2.875 6.125 C2.33617187 5.40570313 1.79734375 4.68640625 1.2421875 3.9453125 C0 2 0 2 0 0 Z " fill="#986F18" transform="translate(322,263)"/>
<path d="M0 0 C0.33 0.66 0.66 1.32 1 2 C0.01 2 -0.98 2 -2 2 C-2.0825 2.78375 -2.165 3.5675 -2.25 4.375 C-3 7 -3 7 -5.0625 8.3125 C-6.0215625 8.6528125 -6.0215625 8.6528125 -7 9 C-6.34 6.36 -5.68 3.72 -5 1 C-3.35 0.67 -1.7 0.34 0 0 Z " fill="#B87F0F" transform="translate(69,252)"/>
<path d="M0 0 C1.32 0 2.64 0 4 0 C4.33 1.65 4.66 3.3 5 5 C3.02 5.99 3.02 5.99 1 7 C0 6 0 6 -0.0625 2.9375 C-0.041875 1.968125 -0.02125 0.99875 0 0 Z " fill="#CB8A0C" transform="translate(286,240)"/>
<path d="M0 0 C1.98 0.99 1.98 0.99 4 2 C4 2.66 4 3.32 4 4 C4.66 4.33 5.32 4.66 6 5 C6.99 5.66 7.98 6.32 9 7 C8.67 7.99 8.34 8.98 8 10 C7.01 9.67 6.02 9.34 5 9 C3.8125 6.4375 3.8125 6.4375 3 4 C2.34 4 1.68 4 1 4 C0.67 2.68 0.34 1.36 0 0 Z " fill="#A5791A" transform="translate(271,254)"/>
<path d="M0 0 C0.71484375 1.734375 0.71484375 1.734375 1 4 C-0.43359375 6.140625 -0.43359375 6.140625 -2.4375 8.25 C-3.09621094 8.95640625 -3.75492187 9.6628125 -4.43359375 10.390625 C-4.95050781 10.92171875 -5.46742188 11.4528125 -6 12 C-6.33 11.01 -6.66 10.02 -7 9 C-6.54625 8.608125 -6.0925 8.21625 -5.625 7.8125 C-3.72730543 5.69584068 -3.0361081 3.62480718 -2 1 C-1.34 0.67 -0.68 0.34 0 0 Z " fill="#A17B14" transform="translate(365,261)"/>
<path d="M0 0 C0.99 0 1.98 0 3 0 C4.125 5.75 4.125 5.75 3 8 C3.66 8 4.32 8 5 8 C4.34 9.32 3.68 10.64 3 12 C2.49440092 10.56445975 1.9957251 9.1264798 1.5 7.6875 C1.2215625 6.88699219 0.943125 6.08648437 0.65625 5.26171875 C0 3 0 3 0 0 Z " fill="#B38516" transform="translate(88,250)"/>
<path d="M0 0 C0.66 0 1.32 0 2 0 C2.33 0.99 2.66 1.98 3 3 C7.29 3.33 11.58 3.66 16 4 C16 4.33 16 4.66 16 5 C10.72 5 5.44 5 0 5 C0 3.35 0 1.7 0 0 Z " fill="#745D11" transform="translate(154,230)"/>
<path d="M0 0 C2.71843438 3.62457917 3.41789544 4.80884715 4 9 C2.68 9.33 1.36 9.66 0 10 C0 6.7 0 3.4 0 0 Z " fill="#BB850E" transform="translate(397,246)"/>
<path d="M0 0 C0.99 0.33 1.98 0.66 3 1 C3 1.99 3 2.98 3 4 C0.36 4.99 -2.28 5.98 -5 7 C-5 5.68 -5 4.36 -5 3 C-3.35 2.67 -1.7 2.34 0 2 C0 1.34 0 0.68 0 0 Z " fill="#AB7E15" transform="translate(150,230)"/>
<path d="M0 0 C0.66 0 1.32 0 2 0 C2.33 1.65 2.66 3.3 3 5 C0.525 6.485 0.525 6.485 -2 8 C-1.125 1.125 -1.125 1.125 0 0 Z " fill="#BA8C18" transform="translate(71,234)"/>
<path d="M0 0 C0.33 0 0.66 0 1 0 C1 1.65 1 3.3 1 5 C0.01 5 -0.98 5 -2 5 C-2.12375 5.639375 -2.2475 6.27875 -2.375 6.9375 C-2.58125 7.618125 -2.7875 8.29875 -3 9 C-3.99 9.495 -3.99 9.495 -5 10 C-5 8.68 -5 7.36 -5 6 C-4.34 6 -3.68 6 -3 6 C-2.690625 5.195625 -2.38125 4.39125 -2.0625 3.5625 C-1 1 -1 1 0 0 Z " fill="#A78118" transform="translate(275,244)"/>
<path d="M0 0 C1.0625 1.875 1.0625 1.875 2 4 C1.67 4.66 1.34 5.32 1 6 C0.34 6 -0.32 6 -1 6 C-1 6.66 -1 7.32 -1 8 C-1.99 7.67 -2.98 7.34 -4 7 C-4 6.01 -4 5.02 -4 4 C-2.68 3.67 -1.36 3.34 0 3 C0 2.01 0 1.02 0 0 Z " fill="#BF8816" transform="translate(153,261)"/>
<path d="M0 0 C2.46278801 2.46278801 2.99771255 4.70676982 4 8 C2.68 8 1.36 8 0 8 C-0.38063221 5.6739143 -0.71269945 3.33944736 -1 1 C-0.67 0.67 -0.34 0.34 0 0 Z " fill="#B67B0E" transform="translate(97,241)"/>
<path d="M0 0 C1.81325551 0.11351517 3.62563357 0.24112961 5.4375 0.375 C6.95150391 0.47941406 6.95150391 0.47941406 8.49609375 0.5859375 C9.73552734 0.79089844 9.73552734 0.79089844 11 1 C11.33 1.66 11.66 2.32 12 3 C3.42857143 3.14285714 3.42857143 3.14285714 0 2 C0 1.34 0 0.68 0 0 Z " fill="#9E7218" transform="translate(278,222)"/>
<path d="M0 0 C0.99 1.32 1.98 2.64 3 4 C1.68 4.33 0.36 4.66 -1 5 C-1 5.99 -1 6.98 -1 8 C-1.66 8 -2.32 8 -3 8 C-1.125 1.125 -1.125 1.125 0 0 Z " fill="#BD8618" transform="translate(61,264)"/>
<path d="M0 0 C0.66 0.66 1.32 1.32 2 2 C1.625 4.625 1.625 4.625 1 7 C0.01 7.33 -0.98 7.66 -2 8 C-2.33 7.01 -2.66 6.02 -3 5 C-2.34 5 -1.68 5 -1 5 C-0.67 3.35 -0.34 1.7 0 0 Z " fill="#D98A01" transform="translate(77,240)"/>
<path d="M0 0 C1.98 0 3.96 0 6 0 C5.360625 0.268125 4.72125 0.53625 4.0625 0.8125 C1.66868314 1.88667752 1.66868314 1.88667752 1 5 C0.34 5 -0.32 5 -1 5 C-0.67 3.35 -0.34 1.7 0 0 Z " fill="#956E1A" transform="translate(75,223)"/>
<path d="M0 0 C0.66 0 1.32 0 2 0 C1.1875 2.9375 1.1875 2.9375 0 6 C-0.99 6.33 -1.98 6.66 -3 7 C-3 5.68 -3 4.36 -3 3 C-2.01 3 -1.02 3 0 3 C0 2.01 0 1.02 0 0 Z " fill="#B68B1F" transform="translate(245,263)"/>
<path d="M0 0 C2 1 2 1 3 3 C1.35 4.65 -0.3 6.3 -2 8 C-1.125 2.25 -1.125 2.25 0 0 Z " fill="#D39818" transform="translate(403,246)"/>
</svg>
