<?xml version="1.0" encoding="UTF-8"?>
<svg version="1.1" xmlns="http://www.w3.org/2000/svg" width="500" height="500">
<path d="M0 0 C0.99 0.33 1.98 0.66 3 1 C5.08903519 21.93479947 6.96480455 42.875988 7.65844727 63.90942383 C7.8069349 68.23075589 8.02109074 72.50565565 8.4921875 76.8046875 C9.18184772 83.2296511 9.35169879 89.669645 9.5625 96.125 C9.60568359 97.36765625 9.64886719 98.6103125 9.69335938 99.890625 C9.79846455 102.92699671 9.90061343 105.96343665 10 109 C12.6465335 109 14.5808163 108.01860366 17 107 C17 106.34 17 105.68 17 105 C19.19355232 103.12998922 21.39484076 101.36568034 23.6875 99.625 C24.94150869 98.65898713 26.19541665 97.69284349 27.44921875 96.7265625 C28.05427246 96.26540039 28.65932617 95.80423828 29.28271484 95.32910156 C30.82527866 94.13522647 32.3313354 92.89453253 33.83203125 91.6484375 C36 90 36 90 38 90 C38 89.34 38 88.68 38 88 C38.66 88 39.32 88 40 88 C40 87.34 40 86.68 40 86 C41.36328125 84.80859375 41.36328125 84.80859375 43.3125 83.4375 C47.91566256 80.11664701 52.2414395 76.51038169 56.58203125 72.85546875 C59 71 59 71 62 70 C62 69.34 62 68.68 62 68 C64.475 67.01 64.475 67.01 67 66 C65.87548273 68.9719385 64.77706209 71.33440687 63 74 C62.34 74 61.68 74 61 74 C61 74.66 61 75.32 61 76 C60.34 76 59.68 76 59 76 C58.6596875 76.7734375 58.6596875 76.7734375 58.3125 77.5625 C56.51782382 80.89547005 54.50034985 84.14703671 52 87 C51.34 87 50.68 87 50 87 C50 87.66 50 88.32 50 89 C49.34 89 48.68 89 48 89 C47.75894531 89.72445312 47.51789063 90.44890625 47.26953125 91.1953125 C45.82743262 94.38124116 44.09191391 96.34531411 41.6875 98.875 C38.91754872 101.84980298 36.34600343 104.76127638 34.0625 108.125 C33.381875 109.07375 32.70125 110.0225 32 111 C31.34 111 30.68 111 30 111 C29.773125 111.53625 29.54625 112.0725 29.3125 112.625 C27.56617944 115.78500863 25.3597151 118.2676983 23 121 C26.13212352 122.04404117 28.55923408 122.21744228 31.85058594 122.35717773 C33.05745056 122.41070908 34.26431519 122.46424042 35.50775146 122.51939392 C36.82003723 122.57357986 38.132323 122.62776581 39.484375 122.68359375 C40.85990639 122.74411876 42.23541479 122.80516841 43.61090088 122.86671448 C48.71620771 123.09407456 53.82187792 123.31275238 58.9276123 123.53027344 C63.90511801 123.74253741 68.88240455 123.95910679 73.859375 124.18359375 C74.55482485 124.21495359 75.2502747 124.24631344 75.96679878 124.27862358 C87.59680051 124.81168099 99.17824693 125.66853828 110.76646423 126.79200745 C114.96558019 127.18303985 119.17146966 127.46796396 123.37890625 127.75390625 C126.28395825 128.02666076 129.12798011 128.48969984 132 129 C131.67 129.99 131.34 130.98 131 132 C121.25826408 133.17356585 111.55317709 134.20453374 101.74829102 134.65795898 C98.70336447 134.80560317 95.73837473 135.0396024 92.72265625 135.49609375 C87.69729596 136.17633664 82.68975149 136.32332262 77.625 136.5 C69.74493464 136.74865813 69.74493464 136.74865813 61.90234375 137.49609375 C54.29924746 138.4165944 46.58728675 138.37419519 38.9375 138.5625 C37.29230856 138.60577319 35.64712611 138.64939002 34.00195312 138.69335938 C30.00139494 138.79953838 26.00074337 138.90105517 22 139 C22.99 141.475 22.99 141.475 24 144 C24.66 144 25.32 144 26 144 C27.44873047 145.66479492 27.44873047 145.66479492 29.1171875 147.98046875 C29.72433594 148.81513672 30.33148438 149.64980469 30.95703125 150.50976562 C31.58996094 151.39341797 32.22289062 152.27707031 32.875 153.1875 C34.12152396 154.91078725 35.36889674 156.63346088 36.6171875 158.35546875 C37.20209961 159.16677246 37.78701172 159.97807617 38.38964844 160.81396484 C39.68939761 162.57836055 41.05748469 164.2922936 42.4453125 165.98828125 C44 168 44 168 44 170 C44.66 170 45.32 170 46 170 C46 170.66 46 171.32 46 172 C46.66 172 47.32 172 48 172 C52 177.41176471 52 177.41176471 52 180 C52.66 180 53.32 180 54 180 C56 183 56 183 56 186 C54.3203125 186.7734375 54.3203125 186.7734375 52 187 C49.4921875 185.1640625 49.4921875 185.1640625 46.875 182.625 C43.70677639 179.43315621 43.70677639 179.43315621 40 177 C40 176.34 40 175.68 40 175 C39.43796875 174.7421875 38.8759375 174.484375 38.296875 174.21875 C35.73295421 172.85830223 33.54773635 171.27211038 31.25 169.5 C30.45078125 168.8915625 29.6515625 168.283125 28.828125 167.65625 C28.22484375 167.1096875 27.6215625 166.563125 27 166 C27 165.34 27 164.68 27 164 C26.34 164 25.68 164 25 164 C25 163.34 25 162.68 25 162 C24.319375 161.814375 23.63875 161.62875 22.9375 161.4375 C19.41870191 159.71553498 17.303546 157.49156949 14.6484375 154.65625 C12.9001396 152.79011315 12.9001396 152.79011315 10 151 C9.97812622 151.86890869 9.97812622 151.86890869 9.95581055 152.75537109 C9.46383234 170.68562992 8.05744063 188.4690354 6.33837891 206.31616211 C6.12250334 208.66633986 5.92965484 211.01882497 5.76708984 213.37329102 C5.66195068 214.85720337 5.66195068 214.85720337 5.5546875 216.37109375 C5.47710205 217.64617798 5.47710205 217.64617798 5.39794922 218.94702148 C5 221 5 221 2.625 223.1875 C0 224 0 224 -3 224 C-3.06058594 222.91460937 -3.12117188 221.82921875 -3.18359375 220.7109375 C-3.26806064 219.26561514 -3.35270551 217.82030318 -3.4375 216.375 C-3.47681641 215.66214844 -3.51613281 214.94929687 -3.55664062 214.21484375 C-3.74187258 211.10864639 -3.98190998 208.10643664 -4.50390625 205.03515625 C-5.15517044 201.05065017 -5.31942548 197.09198687 -5.5 193.0625 C-5.7765021 186.8978279 -5.7765021 186.8978279 -6.49609375 180.7734375 C-7.25969654 175.05529564 -7.37075075 169.32440775 -7.5625 163.5625 C-7.60568359 162.35400391 -7.64886719 161.14550781 -7.69335938 159.90039062 C-7.79889404 156.93369394 -7.90100714 153.96692098 -8 151 C-8.74765625 151.62648437 -9.4953125 152.25296875 -10.265625 152.8984375 C-11.25046875 153.71570313 -12.2353125 154.53296875 -13.25 155.375 C-14.22453125 156.18710938 -15.1990625 156.99921875 -16.203125 157.8359375 C-18.4552682 159.57851757 -20.40711386 160.876416 -23 162 C-23 162.66 -23 163.32 -23 164 C-24.69903023 165.51740976 -26.46072723 166.965128 -28.25 168.375 C-31.05313312 170.59229313 -33.73701197 172.7305752 -36.234375 175.2890625 C-38 177 -38 177 -40 177 C-40 177.66 -40 178.32 -40 179 C-41.29296875 180.33984375 -41.29296875 180.33984375 -43.1875 181.9375 C-43.90679687 182.54722656 -44.62609375 183.15695312 -45.3671875 183.78515625 C-46.23601562 184.51605469 -47.10484375 185.24695313 -48 186 C-49.10775018 186.9558975 -50.21445911 187.91300254 -51.3203125 188.87109375 C-52.48408679 189.87273079 -53.64814949 190.87403284 -54.8125 191.875 C-55.37541748 192.36347412 -55.93833496 192.85194824 -56.51831055 193.35522461 C-59.0062466 195.47712293 -60.86591649 196.9553055 -64 198 C-62.125 193.25 -62.125 193.25 -61 191 C-60.34 191 -59.68 191 -59 191 C-58.66162109 189.95392578 -58.66162109 189.95392578 -58.31640625 188.88671875 C-56.71279408 185.37019235 -54.45630597 182.69469806 -51.9375 179.8125 C-48.63225395 176.14127057 -48.63225395 176.14127057 -46 172 C-45.34 172 -44.68 172 -44 172 C-43.72526855 171.41589355 -43.45053711 170.83178711 -43.16748047 170.22998047 C-42.0370028 168.07067829 -40.79762685 166.25453871 -39.3203125 164.3203125 C-38.80339844 163.63839844 -38.28648437 162.95648438 -37.75390625 162.25390625 C-36.94759766 161.20009766 -36.94759766 161.20009766 -36.125 160.125 C-35.06353928 158.73296271 -34.00361576 157.33975178 -32.9453125 155.9453125 C-32.44032227 155.28047852 -31.93533203 154.61564453 -31.41503906 153.93066406 C-30.11442915 152.1561259 -28.9192386 150.34994285 -27.7421875 148.4921875 C-27.16726562 147.66976562 -26.59234375 146.84734375 -26 146 C-25.34 146 -24.68 146 -24 146 C-24 145.34 -24 144.68 -24 144 C-23.34 144 -22.68 144 -22 144 C-21.34 142.35 -20.68 140.7 -20 139 C-20.74121094 138.98018066 -21.48242188 138.96036133 -22.24609375 138.93994141 C-42.20119623 138.38732917 -62.08423293 137.35744035 -82 136 C-83.26779297 135.9160498 -84.53558594 135.83209961 -85.84179688 135.74560547 C-99.93671474 134.8121551 -113.98005964 133.7432201 -128 132 C-128.33 131.01 -128.66 130.02 -129 129 C-104.6648122 126.1441852 -80.34612772 124.52048242 -55.875 123.4375 C-51.65840443 123.25010649 -47.44189113 123.06120604 -43.22561646 122.86671448 C-40.62704867 122.74725669 -38.02831604 122.63131752 -35.42941284 122.51939392 C-34.26274078 122.46586258 -33.09606873 122.41233124 -31.89404297 122.35717773 C-30.8730954 122.31213608 -29.85214783 122.26709442 -28.80026245 122.22068787 C-26.12826805 122.01010877 -23.61294793 121.58553691 -21 121 C-22.2375 119.576875 -22.2375 119.576875 -23.5 118.125 C-26 115.25 -26 115.25 -26 113 C-26.66 113 -27.32 113 -28 113 C-29.37491299 111.49212839 -30.67364462 109.91460239 -31.9375 108.3125 C-34.59428118 104.98070602 -37.25774115 101.67404083 -40.0390625 98.4453125 C-40.54187744 97.86096436 -41.04469238 97.27661621 -41.56274414 96.67456055 C-42.55332049 95.52724641 -43.5472432 94.38281198 -44.54467773 93.24145508 C-48 89.22023344 -48 89.22023344 -48 87 C-48.66 87 -49.32 87 -50 87 C-50 86.34 -50 85.68 -50 85 C-50.66 85 -51.32 85 -52 85 C-53.2890625 83.5390625 -53.2890625 83.5390625 -54.625 81.625 C-55.07101563 80.99851562 -55.51703125 80.37203125 -55.9765625 79.7265625 C-57 78 -57 78 -57 76 C-57.66 76 -58.32 76 -59 76 C-59 75.34 -59 74.68 -59 74 C-59.66 74 -60.32 74 -61 74 C-65 69.52941176 -65 69.52941176 -65 67 C-62.03824877 67.61277612 -60.61941217 68.25372522 -58 70 C-58 70.66 -58 71.32 -58 72 C-57.41879395 72.26804443 -56.83758789 72.53608887 -56.23876953 72.81225586 C-53.9628318 74.01971901 -52.16056725 75.36169627 -50.1796875 77.00390625 C-49.47972656 77.57947266 -48.77976562 78.15503906 -48.05859375 78.74804688 C-47.33800781 79.34681641 -46.61742187 79.94558594 -45.875 80.5625 C-44.4362645 81.75295813 -42.99622179 82.94183873 -41.5546875 84.12890625 C-40.92030762 84.65556885 -40.28592773 85.18223145 -39.63232422 85.72485352 C-38.0150896 87.07503592 -38.0150896 87.07503592 -36 88 C-36 88.66 -36 89.32 -36 90 C-35.34 90 -34.68 90 -34 90 C-34 90.66 -34 91.32 -34 92 C-33.2575 92.268125 -32.515 92.53625 -31.75 92.8125 C-29.10938051 93.95276751 -27.14447156 95.09380306 -25 97 C-25 97.66 -25 98.32 -25 99 C-24.46375 99.2475 -23.9275 99.495 -23.375 99.75 C-20.4176018 101.30652537 -17.70275949 103.03435673 -15 105 C-15 105.66 -15 106.32 -15 107 C-14.34 107 -13.68 107 -13 107 C-13 107.66 -13 108.32 -13 109 C-11.02 109.99 -11.02 109.99 -9 111 C-7.97189095 104.88275116 -7.7160556 98.81859387 -7.5 92.625 C-7.28252536 86.43905465 -6.97476566 80.33141809 -6.23193359 74.18554688 C-5.8174443 70.27974878 -5.7113938 66.36077576 -5.5625 62.4375 C-5.21395989 54.29628229 -4.67562707 46.18307743 -4 38.0625 C-3.91693604 37.05050537 -3.83387207 36.03851074 -3.74829102 34.99584961 C-3.42738375 31.25003824 -3.09373344 27.55619771 -2.46875 23.84765625 C-1.71908583 19.29344642 -1.60819484 14.70719992 -1.39453125 10.1015625 C-1.2148366 6.60681144 -0.92625824 3.37221751 0 0 Z " fill="#CC8705" transform="translate(249,98)"/>
<path d="M0 0 C0.70382812 0.1340625 1.40765625 0.268125 2.1328125 0.40625 C0.76594028 4.39296063 -1.01913843 7.29119633 -3.8671875 10.40625 C-4.5271875 10.40625 -5.1871875 10.40625 -5.8671875 10.40625 C-6.1765625 11.025 -6.4859375 11.64375 -6.8046875 12.28125 C-7.4921875 13.65625 -8.1796875 15.03125 -8.8671875 16.40625 C-9.5271875 16.40625 -10.1871875 16.40625 -10.8671875 16.40625 C-11.2384375 17.2415625 -11.2384375 17.2415625 -11.6171875 18.09375 C-13.09643568 20.83035913 -14.80186189 23.08275869 -16.8671875 25.40625 C-17.5271875 25.40625 -18.1871875 25.40625 -18.8671875 25.40625 C-18.8671875 26.06625 -18.8671875 26.72625 -18.8671875 27.40625 C-19.5271875 27.40625 -20.1871875 27.40625 -20.8671875 27.40625 C-20.8671875 28.06625 -20.8671875 28.72625 -20.8671875 29.40625 C-21.5271875 29.40625 -22.1871875 29.40625 -22.8671875 29.40625 C-22.8671875 30.06625 -22.8671875 30.72625 -22.8671875 31.40625 C-23.5271875 31.40625 -24.1871875 31.40625 -24.8671875 31.40625 C-24.8671875 32.06625 -24.8671875 32.72625 -24.8671875 33.40625 C-25.5271875 33.40625 -26.1871875 33.40625 -26.8671875 33.40625 C-26.8671875 34.06625 -26.8671875 34.72625 -26.8671875 35.40625 C-28.4765625 36.9921875 -28.4765625 36.9921875 -30.6171875 38.78125 C-32.93622452 40.74382727 -35.11938034 42.6650795 -37.2421875 44.84375 C-38.8671875 46.40625 -38.8671875 46.40625 -40.8671875 46.40625 C-40.8671875 47.06625 -40.8671875 47.72625 -40.8671875 48.40625 C-44.32872596 51.40625 -44.32872596 51.40625 -46.8671875 51.40625 C-46.8671875 52.06625 -46.8671875 52.72625 -46.8671875 53.40625 C-51.33777574 57.40625 -51.33777574 57.40625 -53.8671875 57.40625 C-53.8671875 58.06625 -53.8671875 58.72625 -53.8671875 59.40625 C-55.7109375 60.96484375 -55.7109375 60.96484375 -58.3671875 62.84375 C-59.883125 63.91689453 -59.883125 63.91689453 -61.4296875 65.01171875 C-62.57534088 65.8101541 -63.72118143 66.60832094 -64.8671875 67.40625 C-65.45628906 67.82084473 -66.04539062 68.23543945 -66.65234375 68.66259766 C-81.77402689 79.30155254 -97.07720153 89.58122777 -113.8671875 97.40625 C-115.11386276 98.00530175 -116.35994064 98.60559803 -117.60546875 99.20703125 C-129.68500703 104.9981676 -141.98270562 109.69786499 -154.8671875 113.40625 C-155.57230469 113.61121094 -156.27742188 113.81617188 -157.00390625 114.02734375 C-174.92466262 118.87383761 -194.37419698 120.06338592 -211.07421875 111.09765625 C-219.95923434 105.71694052 -225.17027474 98.82747086 -229.1796875 89.28125 C-235.00759349 64.91000675 -226.59648179 43.3129562 -214.8671875 22.40625 C-213.76111785 20.36561364 -212.65675935 18.32404819 -211.5546875 16.28125 C-210.66845735 14.65099282 -209.77309311 13.02565649 -208.8671875 11.40625 C-208.35800781 10.48070312 -207.84882813 9.55515625 -207.32421875 8.6015625 C-206.84339844 7.87710938 -206.36257812 7.15265625 -205.8671875 6.40625 C-205.2071875 6.40625 -204.5471875 6.40625 -203.8671875 6.40625 C-203.8671875 5.74625 -203.8671875 5.08625 -203.8671875 4.40625 C-202.5471875 4.40625 -201.2271875 4.40625 -199.8671875 4.40625 C-201.54148258 9.05605861 -203.91677616 13.19814493 -206.3671875 17.46875 C-207.17012517 18.8758149 -207.9722351 20.28335254 -208.7734375 21.69140625 C-209.30420898 22.61771851 -209.30420898 22.61771851 -209.84570312 23.56274414 C-210.91056438 25.48453366 -211.89791684 27.43476436 -212.8671875 29.40625 C-213.5271875 29.40625 -214.1871875 29.40625 -214.8671875 29.40625 C-214.9290625 30.169375 -214.9909375 30.9325 -215.0546875 31.71875 C-215.78618252 35.03861203 -216.73090143 37.42896573 -218.1796875 40.46875 C-224.80048131 54.72744507 -228.66524551 70.93956888 -223.8671875 86.40625 C-223.64804688 87.13328125 -223.42890625 87.8603125 -223.203125 88.609375 C-221.75153505 92.91629024 -219.84198219 95.91855967 -216.8671875 99.40625 C-216.8671875 100.06625 -216.8671875 100.72625 -216.8671875 101.40625 C-216.2071875 101.40625 -215.5471875 101.40625 -214.8671875 101.40625 C-214.8671875 102.06625 -214.8671875 102.72625 -214.8671875 103.40625 C-214.28710938 103.695 -213.70703125 103.98375 -213.109375 104.28125 C-211.71447621 104.98112953 -210.3231284 105.68819156 -208.9375 106.40625 C-197.9934132 112.03212595 -188.02032431 112.71710977 -175.8671875 112.40625 C-175.06667969 112.38949219 -174.26617187 112.37273437 -173.44140625 112.35546875 C-154.06414142 111.1841315 -133.85086052 102.18072819 -116.7331543 93.6574707 C-115.88277588 93.2368335 -115.03239746 92.81619629 -114.15625 92.3828125 C-113.40037598 92.00205566 -112.64450195 91.62129883 -111.86572266 91.22900391 C-109.8671875 90.40625 -109.8671875 90.40625 -106.8671875 90.40625 C-106.8671875 89.74625 -106.8671875 89.08625 -106.8671875 88.40625 C-106.1659375 88.03113281 -105.4646875 87.65601563 -104.7421875 87.26953125 C-99.52997022 84.45804992 -94.43675762 81.59930784 -89.5234375 78.2890625 C-87.8671875 77.40625 -87.8671875 77.40625 -84.8671875 77.40625 C-84.8671875 76.74625 -84.8671875 76.08625 -84.8671875 75.40625 C-81.8671875 73.40625 -81.8671875 73.40625 -78.8671875 73.40625 C-78.8671875 72.74625 -78.8671875 72.08625 -78.8671875 71.40625 C-76.87758289 69.86729543 -74.88334343 68.44141283 -72.8046875 67.03125 C-66.52380057 62.68030832 -60.55142859 58.03999396 -54.66772461 53.16650391 C-50.07453433 49.40625 -50.07453433 49.40625 -47.8671875 49.40625 C-47.8671875 48.74625 -47.8671875 48.08625 -47.8671875 47.40625 C-47.2071875 47.40625 -46.5471875 47.40625 -45.8671875 47.40625 C-45.8671875 46.74625 -45.8671875 46.08625 -45.8671875 45.40625 C-45.2071875 45.40625 -44.5471875 45.40625 -43.8671875 45.40625 C-43.8671875 44.74625 -43.8671875 44.08625 -43.8671875 43.40625 C-42.609375 42.171875 -42.609375 42.171875 -40.7421875 40.65625 C-30.87167375 32.26367413 -21.64377874 22.78986145 -13.5 12.71484375 C-12.45850898 11.42751856 -11.41095299 10.14508048 -10.35791016 8.8671875 C-9.29793215 7.58073489 -8.25020463 6.28406878 -7.21630859 4.9765625 C-3.50549877 0.49669192 -3.50549877 0.49669192 0 0 Z " fill="#A7791B" transform="translate(354.8671875,241.59375)"/>
<path d="M0 0 C0.66 0 1.32 0 2 0 C2.21914063 0.80824219 2.43828125 1.61648437 2.6640625 2.44921875 C5.25873932 11.27961053 5.25873932 11.27961053 12 17 C14.95829248 18.1813803 17.92805862 19.16033602 21 20 C20.505 21.485 20.505 21.485 20 23 C17.68456957 23.72640955 15.34730065 24.38431458 13 25 C9.24536244 26.44409137 7.45865502 27.29563693 5.25 30.6875 C3.83470213 34.43803936 2.87649413 38.08948774 2 42 C1.34 42 0.68 42 0 42 C-0.19335938 41.32453125 -0.38671875 40.6490625 -0.5859375 39.953125 C-0.84632813 39.06109375 -1.10671875 38.1690625 -1.375 37.25 C-1.63023437 36.36828125 -1.88546875 35.4865625 -2.1484375 34.578125 C-3.53724051 30.06652031 -3.53724051 30.06652031 -6.734375 26.8046875 C-7.39953125 26.49789062 -8.0646875 26.19109375 -8.75 25.875 C-9.45640625 25.54757813 -10.1628125 25.22015625 -10.890625 24.8828125 C-13.55119924 23.76931291 -16.23792736 22.82862179 -19 22 C-19 21.34 -19 20.68 -19 20 C-18.33613281 19.75765625 -17.67226563 19.5153125 -16.98828125 19.265625 C-9.78071322 16.71863326 -9.78071322 16.71863326 -4 12 C-2.40740467 8.06844454 -1.14866972 4.08130694 0 0 Z " fill="#D08D07" transform="translate(361,112)"/>
<path d="M0 0 C2.96175123 0.61277612 4.38058783 1.25372522 7 3 C7 3.66 7 4.32 7 5 C7.58120605 5.26804443 8.16241211 5.53608887 8.76123047 5.81225586 C11.0371682 7.01971901 12.83943275 8.36169627 14.8203125 10.00390625 C15.52027344 10.57947266 16.22023437 11.15503906 16.94140625 11.74804688 C17.66199219 12.34681641 18.38257813 12.94558594 19.125 13.5625 C20.5637355 14.75295813 22.00377821 15.94183873 23.4453125 17.12890625 C24.07969238 17.65556885 24.71407227 18.18223145 25.36767578 18.72485352 C26.9849104 20.07503592 26.9849104 20.07503592 29 21 C29 21.66 29 22.32 29 23 C29.66 23 30.32 23 31 23 C31 23.66 31 24.32 31 25 C31.7425 25.2475 32.485 25.495 33.25 25.75 C36.20124062 27.09147301 37.84814974 28.60905526 40 31 C38.02 31.99 38.02 31.99 36 33 C36.66 33.66 37.32 34.32 38 35 C37.6730244 37.61580479 37.17960932 39.64078137 36 42 C37.98 42.66 39.96 43.32 42 44 C42 44.99 42 45.98 42 47 C42.99 47 43.98 47 45 47 C45 48.65 45 50.3 45 52 C42.37812506 50.95125002 41.20628639 50.35068687 39.75 47.875 C39.5025 47.25625 39.255 46.6375 39 46 C38.34 46 37.68 46 37 46 C35.62508701 44.49212839 34.32635538 42.91460239 33.0625 41.3125 C30.40571882 37.98070602 27.74225885 34.67404083 24.9609375 31.4453125 C24.45812256 30.86096436 23.95530762 30.27661621 23.43725586 29.67456055 C22.44667951 28.52724641 21.4527568 27.38281198 20.45532227 26.24145508 C17 22.22023344 17 22.22023344 17 20 C16.34 20 15.68 20 15 20 C15 19.34 15 18.68 15 18 C14.34 18 13.68 18 13 18 C11.7109375 16.5390625 11.7109375 16.5390625 10.375 14.625 C9.92898437 13.99851563 9.48296875 13.37203125 9.0234375 12.7265625 C8 11 8 11 8 9 C7.34 9 6.68 9 6 9 C6 8.34 6 7.68 6 7 C5.34 7 4.68 7 4 7 C0 2.52941176 0 2.52941176 0 0 Z " fill="#BB7C0C" transform="translate(184,165)"/>
<path d="M0 0 C0.99 0.33 1.98 0.66 3 1 C7.48964437 45.99196807 7.48964437 45.99196807 7 64 C6.67 64 6.34 64 6 64 C5.67 60.7 5.34 57.4 5 54 C4.67 54 4.34 54 4 54 C3.67 45.09 3.34 36.18 3 27 C2.34 27 1.68 27 1 27 C1.02320313 27.62648438 1.04640625 28.25296875 1.0703125 28.8984375 C1.09738281 30.12433594 1.09738281 30.12433594 1.125 31.375 C1.14820313 32.18710938 1.17140625 32.99921875 1.1953125 33.8359375 C1 36 1 36 -1 38 C-1.20574465 41.25670691 -1.20574465 41.25670691 -1.0625 44.9375 C-0.9015444 51.7046332 -0.9015444 51.7046332 -2 55 C-2.14573058 56.47965926 -2.24663268 57.96403843 -2.31640625 59.44921875 C-2.35830078 60.29677734 -2.40019531 61.14433594 -2.44335938 62.01757812 C-2.48267578 62.89865234 -2.52199219 63.77972656 -2.5625 64.6875 C-2.60568359 65.58017578 -2.64886719 66.47285156 -2.69335938 67.39257812 C-2.79935353 69.59490108 -2.90142051 71.79733473 -3 74 C-1.68 74.33 -0.36 74.66 1 75 C0.34 76.32 -0.32 77.64 -1 79 C-1.66 79 -2.32 79 -3 79 C-2.97679687 80.10859375 -2.95359375 81.2171875 -2.9296875 82.359375 C-2.91092423 83.82290992 -2.89272463 85.28645214 -2.875 86.75 C-2.85824219 87.47960937 -2.84148437 88.20921875 -2.82421875 88.9609375 C-2.78927761 92.8044624 -2.82500316 95.74606772 -5 99 C-7.48509251 95.27236123 -7.23684899 93.3164095 -7.1875 88.875 C-7.18105469 87.61429687 -7.17460937 86.35359375 -7.16796875 85.0546875 C-7.0683703 81.44391152 -6.67014363 77.90193123 -6.24291992 74.31738281 C-5.82875078 70.36633405 -5.71310214 66.40578944 -5.5625 62.4375 C-5.21395989 54.29628229 -4.67562707 46.18307743 -4 38.0625 C-3.91693604 37.05050537 -3.83387207 36.03851074 -3.74829102 34.99584961 C-3.42738375 31.25003824 -3.09373344 27.55619771 -2.46875 23.84765625 C-1.71908583 19.29344642 -1.60819484 14.70719992 -1.39453125 10.1015625 C-1.2148366 6.60681144 -0.92625824 3.37221751 0 0 Z " fill="#B17516" transform="translate(249,98)"/>
<path d="M0 0 C1.32 0 2.64 0 4 0 C2.32570492 4.64980861 -0.04958866 8.79189493 -2.5 13.0625 C-3.30293767 14.4695649 -4.1050476 15.87710254 -4.90625 17.28515625 C-5.43702148 18.21146851 -5.43702148 18.21146851 -5.97851562 19.15649414 C-7.04337688 21.07828366 -8.03072934 23.02851436 -9 25 C-9.66 25 -10.32 25 -11 25 C-11.061875 25.763125 -11.12375 26.52625 -11.1875 27.3125 C-11.91899502 30.63236203 -12.86371393 33.02271573 -14.3125 36.0625 C-20.98862821 50.55317134 -22.09138189 64.20075618 -23 80 C-23.66 80 -24.32 80 -25 80 C-30.55964127 67.49080715 -26.27845893 51.29183622 -21.59521484 39.09399414 C-18.63226152 31.75527107 -14.86690676 24.89251045 -11 18 C-9.89393035 15.95936364 -8.78957185 13.91779819 -7.6875 11.875 C-6.80126985 10.24474282 -5.90590561 8.61940649 -5 7 C-4.49082031 6.07445312 -3.98164063 5.14890625 -3.45703125 4.1953125 C-2.97621094 3.47085938 -2.49539062 2.74640625 -2 2 C-1.34 2 -0.68 2 0 2 C0 1.34 0 0.68 0 0 Z " fill="#9F7013" transform="translate(151,246)"/>
<path d="M0 0 C0.99 0.33 1.98 0.66 3 1 C3 1.66 3 2.32 3 3 C3.66 3 4.32 3 5 3 C11.28870988 16.92500046 10.1551028 32.66874264 6 47 C5.7834375 47.84691406 5.566875 48.69382813 5.34375 49.56640625 C3.40775061 56.74573732 0.2332577 63.32421226 -3 70 C-4.98 70 -6.96 70 -9 70 C-8.11147563 67.06103476 -7.28769521 64.44617139 -5.6171875 61.85546875 C3.89486623 45.06003088 6.4325294 23.00539463 1.4375 4.5 C0.97487708 2.99481538 0.5026958 1.49227934 0 0 Z " fill="#B27F20" transform="translate(376,146)"/>
<path d="M0 0 C0.26525678 7.38298049 -0.06831514 14.70705903 -0.6875 22.0625 C-0.74083496 22.89563721 -0.79416992 23.72877441 -0.84912109 24.5871582 C-1.40606044 30.48938638 -1.40606044 30.48938638 -4.39453125 33.05859375 C-7 34 -7 34 -10 34 C-10.06058594 32.91460937 -10.12117187 31.82921875 -10.18359375 30.7109375 C-10.26806064 29.26561514 -10.35270551 27.82030318 -10.4375 26.375 C-10.47681641 25.66214844 -10.51613281 24.94929688 -10.55664062 24.21484375 C-10.74588233 21.04140592 -11.00283685 17.98314576 -11.53125 14.84375 C-12.01932046 11.8827892 -12.09905765 9.12272756 -12.0625 6.125 C-12.05347656 5.15820312 -12.04445312 4.19140625 -12.03515625 3.1953125 C-12.02355469 2.47085937 -12.01195312 1.74640625 -12 1 C-9 0 -9 0 -7 0 C-3.86650268 -1.04449911 -3.01031744 -0.93423645 0 0 Z M-9 2 C-8 4 -8 4 -8 4 Z " fill="#AD6E0D" transform="translate(256,288)"/>
<path d="M0 0 C0.33 0 0.66 0 1 0 C0.62932227 7.28999539 0.62932227 7.28999539 -2.4375 10.75 C-3.283125 11.4925 -4.12875 12.235 -5 13 C-6.29519995 15.16620544 -6.29519995 15.16620544 -7 17 C-6.01 16.34 -5.02 15.68 -4 15 C-3.34 14.67 -2.68 14.34 -2 14 C-1.01 14.33 -0.02 14.66 1 15 C-0.36911804 18.1489715 -1.8752136 20.0478487 -4.5 22.25 C-5.1084375 22.77078125 -5.716875 23.2915625 -6.34375 23.828125 C-8 25 -8 25 -10 25 C-10 25.66 -10 26.32 -10 27 C-11.29296875 28.33984375 -11.29296875 28.33984375 -13.1875 29.9375 C-13.90679687 30.54722656 -14.62609375 31.15695312 -15.3671875 31.78515625 C-16.23601562 32.51605469 -17.10484375 33.24695313 -18 34 C-19.10775018 34.9558975 -20.21445911 35.91300254 -21.3203125 36.87109375 C-22.48408679 37.87273079 -23.64814949 38.87403284 -24.8125 39.875 C-25.37541748 40.36347412 -25.93833496 40.85194824 -26.51831055 41.35522461 C-29.0062466 43.47712293 -30.86591649 44.9553055 -34 46 C-32.125 41.25 -32.125 41.25 -31 39 C-30.34 39 -29.68 39 -29 39 C-28.77441406 38.30261719 -28.54882812 37.60523438 -28.31640625 36.88671875 C-26.71279408 33.37019235 -24.45630597 30.69469806 -21.9375 27.8125 C-18.63225395 24.14127057 -18.63225395 24.14127057 -16 20 C-15.34 20 -14.68 20 -14 20 C-13.72744385 19.42024414 -13.4548877 18.84048828 -13.17407227 18.24316406 C-12.01023289 16.0195508 -10.71711045 14.11704696 -9.21484375 12.109375 C-8.41916992 11.04589844 -8.41916992 11.04589844 -7.60742188 9.9609375 C-7.05634766 9.23132813 -6.50527344 8.50171875 -5.9375 7.75 C-5.38255859 7.00492187 -4.82761719 6.25984375 -4.25585938 5.4921875 C-3.72669922 4.78835937 -3.19753906 4.08453125 -2.65234375 3.359375 C-2.16757568 2.71452148 -1.68280762 2.06966797 -1.18334961 1.40527344 C-0.79284424 0.9415332 -0.40233887 0.47779297 0 0 Z " fill="#B57A0E" transform="translate(219,250)"/>
<path d="M0 0 C2.31 0.33 4.62 0.66 7 1 C7.061875 1.86625 7.061875 1.86625 7.125 2.75 C8.44065958 6.13312465 10.96552364 7.19222685 14 9 C14 8.34 14 7.68 14 7 C18.75 7.75 18.75 7.75 21 10 C21.66 8.68 22.32 7.36 23 6 C24.17249353 7.45365269 25.33783816 8.91307419 26.5 10.375 C27.1496875 11.18710937 27.799375 11.99921875 28.46875 12.8359375 C30 15 30 15 30 17 C30.66 17 31.32 17 32 17 C32 17.66 32 18.32 32 19 C32.66 19 33.32 19 34 19 C38 24.41176471 38 24.41176471 38 27 C38.66 27 39.32 27 40 27 C42 30 42 30 42 33 C40.3203125 33.7734375 40.3203125 33.7734375 38 34 C35.4921875 32.1640625 35.4921875 32.1640625 32.875 29.625 C29.70677639 26.43315621 29.70677639 26.43315621 26 24 C26 23.34 26 22.68 26 22 C25.43796875 21.7421875 24.8759375 21.484375 24.296875 21.21875 C21.73295421 19.85830223 19.54773635 18.27211038 17.25 16.5 C16.45078125 15.8915625 15.6515625 15.283125 14.828125 14.65625 C14.22484375 14.1096875 13.6215625 13.563125 13 13 C13 12.34 13 11.68 13 11 C12.34 11 11.68 11 11 11 C11 10.34 11 9.68 11 9 C10.29875 8.814375 9.5975 8.62875 8.875 8.4375 C4.90359949 6.45179974 2.6926582 3.46066724 0 0 Z " fill="#AF760E" transform="translate(263,251)"/>
<path d="M0 0 C-1.12451727 2.9719385 -2.22293791 5.33440687 -4 8 C-4.66 8 -5.32 8 -6 8 C-6 8.66 -6 9.32 -6 10 C-6.66 10 -7.32 10 -8 10 C-8.226875 10.515625 -8.45375 11.03125 -8.6875 11.5625 C-10.48217618 14.89547005 -12.49965015 18.14703671 -15 21 C-15.66 21 -16.32 21 -17 21 C-17 21.66 -17 22.32 -17 23 C-17.66 23 -18.32 23 -19 23 C-19.226875 23.7425 -19.45375 24.485 -19.6875 25.25 C-21.26823621 28.56201872 -22.95506421 29.99479838 -26 32 C-26.99 32 -27.98 32 -29 32 C-29 31.01 -29 30.02 -29 29 C-31.6905528 30.22007944 -31.6905528 30.22007944 -34 32 C-35.99958364 32.04080783 -38.00045254 32.04254356 -40 32 C-34.35475578 26.19794344 -34.35475578 26.19794344 -31 24 C-30.34 24 -29.68 24 -29 24 C-29 23.34 -29 22.68 -29 22 C-28.34 22 -27.68 22 -27 22 C-27 21.34 -27 20.68 -27 20 C-25.63671875 18.80859375 -25.63671875 18.80859375 -23.6875 17.4375 C-19.08433744 14.11664701 -14.7585605 10.51038169 -10.41796875 6.85546875 C-8 5 -8 5 -5 4 C-5 3.34 -5 2.68 -5 2 C-2 0 -2 0 0 0 Z " fill="#CB870E" transform="translate(316,164)"/>
<path d="M0 0 C1.65 0 3.3 0 5 0 C5 0.99 5 1.98 5 3 C5.99 2.67 6.98 2.34 8 2 C7.40683971 5.9057324 5.51378095 8.21803586 3.0625 11.25 C2.35222656 12.14203125 1.64195312 13.0340625 0.91015625 13.953125 C0.27980469 14.62859375 -0.35054688 15.3040625 -1 16 C-1.66 16 -2.32 16 -3 16 C-3.33 16.99 -3.66 17.98 -4 19 C-4.5775 18.525625 -5.155 18.05125 -5.75 17.5625 C-7.92582084 16.0515133 -9.42602448 15.45963849 -12 15 C-12 13 -12 13 -10 11 C-10.33 10.67 -10.66 10.34 -11 10 C-11.33 10.66 -11.66 11.32 -12 12 C-13.875 13.1875 -13.875 13.1875 -16 14 C-16.99 13.67 -17.98 13.34 -19 13 C-18.01 12.67 -17.02 12.34 -16 12 C-16 11.34 -16 10.68 -16 10 C-11.16606805 5.25375843 -6.84449556 2.14562757 0 2 C0 1.34 0 0.68 0 0 Z " fill="#C68207" transform="translate(282,193)"/>
<path d="M0 0 C0 0.66 0 1.32 0 2 C-1.07894531 2.27972656 -2.15789062 2.55945313 -3.26953125 2.84765625 C-19.02638684 7.02282306 -34.1047121 12.31375563 -48.74633789 19.51098633 C-53.81874419 22 -53.81874419 22 -56 22 C-56 20.35 -56 18.7 -56 17 C-47.91975462 13.03482056 -39.91129087 9.8125871 -31.3515625 7.08984375 C-28.84824135 6.27582673 -26.47833245 5.40199485 -24.0625 4.375 C-16.78653015 1.5517301 -7.77947411 0 0 0 Z " fill="#AC811E" transform="translate(324,140)"/>
<path d="M0 0 C0 0.66 0 1.32 0 2 C-1.32 2 -2.64 2 -4 2 C-3.505 4.475 -3.505 4.475 -3 7 C-12.17858081 11.5892904 -29.13395238 7.2789321 -39 6 C-39.33 5.01 -39.66 4.02 -40 3 C-26.71398148 1.41613437 -13.40132127 -0.12332504 0 0 Z " fill="#B77810" transform="translate(160,224)"/>
<path d="M0 0 C0.99 0 1.98 0 3 0 C3.28875 1.11375 3.5775 2.2275 3.875 3.375 C4.69241329 7.00291092 4.69241329 7.00291092 7 9 C9.31765729 9.71927295 11.65095874 10.3909893 14 11 C14 11.66 14 12.32 14 13 C13.38511719 13.03996094 12.77023437 13.07992188 12.13671875 13.12109375 C9.48805972 13.46326501 7.42104609 13.85386648 5 15 C3.30201655 17.86665724 2.58419961 20.73654012 2 24 C1.34 24 0.68 24 0 24 C-0.33 22.741875 -0.66 21.48375 -1 20.1875 C-1.97661861 17.49584383 -2.50494872 16.29976478 -4.98046875 14.80078125 C-7.42652106 13.87522247 -7.42652106 13.87522247 -11 13 C-11 12.34 -11 11.68 -11 11 C-9.741875 10.67 -8.48375 10.34 -7.1875 10 C-4.49584383 9.02338139 -3.29976478 8.49505128 -1.80078125 6.01953125 C-0.87522247 3.57347894 -0.87522247 3.57347894 0 0 Z " fill="#C0850C" transform="translate(337,295)"/>
<path d="M0 0 C28.16298155 -0.24647823 28.16298155 -0.24647823 41 2 C40.67 2.99 40.34 3.98 40 5 C28.2646477 6.53726252 16.8343655 7.26964377 5 7 C5 5 5 5 6.5 3.375 C6.995 2.92125 7.49 2.4675 8 2 C7.05125 2.04125 6.1025 2.0825 5.125 2.125 C2 2 2 2 0 0 Z " fill="#B97C13" transform="translate(340,225)"/>
<path d="M0 0 C1.2065625 0.0309375 1.2065625 0.0309375 2.4375 0.0625 C1.07062778 4.04921063 -0.71445093 6.94744633 -3.5625 10.0625 C-4.2225 10.0625 -4.8825 10.0625 -5.5625 10.0625 C-5.871875 10.68125 -6.18125 11.3 -6.5 11.9375 C-7.1875 13.3125 -7.875 14.6875 -8.5625 16.0625 C-9.2225 16.0625 -9.8825 16.0625 -10.5625 16.0625 C-10.93375 16.8978125 -10.93375 16.8978125 -11.3125 17.75 C-12.79174818 20.48660913 -14.49717439 22.73900869 -16.5625 25.0625 C-17.2225 25.0625 -17.8825 25.0625 -18.5625 25.0625 C-18.5625 25.7225 -18.5625 26.3825 -18.5625 27.0625 C-19.2225 27.0625 -19.8825 27.0625 -20.5625 27.0625 C-20.5625 27.7225 -20.5625 28.3825 -20.5625 29.0625 C-22.2125 29.3925 -23.8625 29.7225 -25.5625 30.0625 C-25.18895276 25.00093488 -22.46515403 22.38114986 -19.0625 18.9375 C-17.97009651 17.79671653 -16.88028582 16.65344504 -15.79296875 15.5078125 C-15.24946777 14.93579102 -14.7059668 14.36376953 -14.14599609 13.77441406 C-10.99087554 10.36342033 -8.11331894 6.73307065 -5.20703125 3.109375 C-2.76299376 0.06739009 -2.76299376 0.06739009 0 0 Z " fill="#AD7C1A" transform="translate(354.5625,241.9375)"/>
<path d="M0 0 C0.66 0 1.32 0 2 0 C2.99 3.63 3.98 7.26 5 11 C3.02 11.99 3.02 11.99 1 13 C1 12.34 1 11.68 1 11 C-2.65190574 13.43460383 -2.91974717 14.84518143 -4 19 C-4 20.32 -4 21.64 -4 23 C-4.2981424 24.34164079 -4.62243192 25.67851173 -5 27 C-9.72224516 25.46527032 -14.35855331 23.76054874 -19 22 C-19 21.34 -19 20.68 -19 20 C-18.33613281 19.75765625 -17.67226563 19.5153125 -16.98828125 19.265625 C-9.78071322 16.71863326 -9.78071322 16.71863326 -4 12 C-2.40740467 8.06844454 -1.14866972 4.08130694 0 0 Z " fill="#D69611" transform="translate(361,112)"/>
<path d="M0 0 C2.96175123 0.61277612 4.38058783 1.25372522 7 3 C7 3.66 7 4.32 7 5 C7.87180908 5.4031543 7.87180908 5.4031543 8.76123047 5.81445312 C11.02693865 7.01426544 12.83937 8.34629241 14.8203125 9.96875 C15.52027344 10.53980469 16.22023437 11.11085937 16.94140625 11.69921875 C17.66199219 12.29347656 18.38257813 12.88773438 19.125 13.5 C20.21748047 14.39138672 20.21748047 14.39138672 21.33203125 15.30078125 C26.67992666 19.67992666 26.67992666 19.67992666 29 22 C25.44044831 22 24.72100827 21.10658705 22 19 C21.34 19 20.68 19 20 19 C20.62759865 21.92879371 21.58622659 24.36095629 23 27 C24.65 27 26.3 27 28 27 C27.34 28.32 26.68 29.64 26 31 C22.43279004 28.32459253 19.58873576 25.64340588 17 22 C17 21.34 17 20.68 17 20 C16.34 20 15.68 20 15 20 C15 19.34 15 18.68 15 18 C14.34 18 13.68 18 13 18 C11.7109375 16.5390625 11.7109375 16.5390625 10.375 14.625 C9.92898437 13.99851563 9.48296875 13.37203125 9.0234375 12.7265625 C8 11 8 11 8 9 C7.34 9 6.68 9 6 9 C6 8.34 6 7.68 6 7 C5.34 7 4.68 7 4 7 C0 2.52941176 0 2.52941176 0 0 Z " fill="#AE7719" transform="translate(184,165)"/>
<path d="M0 0 C2.35953094 2.35953094 2.49141413 3.77895617 3 7 C4.134375 7.268125 5.26875 7.53625 6.4375 7.8125 C8.2009375 8.4003125 8.2009375 8.4003125 10 9 C10.33 9.99 10.66 10.98 11 12 C9.906875 12.350625 8.81375 12.70125 7.6875 13.0625 C4.53564713 14.37683541 3.37683541 15.53564713 2.0625 18.6875 C1.711875 19.780625 1.36125 20.87375 1 22 C-1 21 -1 21 -2.1875 17.5625 C-3.67843082 13.65404691 -3.67843082 13.65404691 -7.6875 12.5625 C-8.780625 12.376875 -9.87375 12.19125 -11 12 C-11 11.34 -11 10.68 -11 10 C-10.45730469 9.78085938 -9.91460937 9.56171875 -9.35546875 9.3359375 C-5.33867638 7.55552142 -3.36823286 6.5983784 -1 2.75 C-0.67 1.8425 -0.34 0.935 0 0 Z " fill="#D89107" transform="translate(153,123)"/>
<path d="M0 0 C0.99 0 1.98 0 3 0 C3.556875 1.670625 3.556875 1.670625 4.125 3.375 C5.4794021 6.61378762 5.76212803 6.89272441 9.1875 8.4375 C10.115625 8.623125 11.04375 8.80875 12 9 C12 9.99 12 10.98 12 12 C10.3603125 12.556875 10.3603125 12.556875 8.6875 13.125 C5.45411511 14.4798799 5.01423545 14.97658038 3.0625 18.1875 C2.5365625 19.5796875 2.5365625 19.5796875 2 21 C1.34 21 0.68 21 0 21 C-0.33 18.69 -0.66 16.38 -1 14 C-3.64 13.34 -6.28 12.68 -9 12 C-9 11.01 -9 10.02 -9 9 C-7.02 9 -5.04 9 -3 9 C-3 8.34 -3 7.68 -3 7 C-2.34 7 -1.68 7 -1 7 C-0.67 4.69 -0.34 2.38 0 0 Z " fill="#AB8625" transform="translate(154,306)"/>
<path d="M0 0 C0.2475 0.598125 0.495 1.19625 0.75 1.8125 C2.16846907 4.29482087 3.69264738 5.36328035 6 7 C3.34662479 9.34875811 0.67615031 11.67722859 -2 14 C-2.53012695 14.46035645 -3.06025391 14.92071289 -3.60644531 15.39501953 C-5.33731938 16.89363101 -7.0742089 18.38500149 -8.8125 19.875 C-9.37541748 20.36331299 -9.93833496 20.85162598 -10.51831055 21.35473633 C-13.00602931 23.47719628 -14.86575683 24.95525228 -18 26 C-16.125 21.25 -16.125 21.25 -15 19 C-14.34 19 -13.68 19 -13 19 C-12.77441406 18.30261719 -12.54882812 17.60523438 -12.31640625 16.88671875 C-10.71279408 13.37019235 -8.45630597 10.69469806 -5.9375 7.8125 C-2.63225395 4.14127057 -2.63225395 4.14127057 0 0 Z " fill="#B27713" transform="translate(203,270)"/>
<path d="M0 0 C0.33 0 0.66 0 1 0 C1.10957031 0.6290625 1.21914062 1.258125 1.33203125 1.90625 C2.85020957 10.10194434 4.51642769 16.57098418 10 23 C10 23.66 10 24.32 10 25 C10.66 25 11.32 25 12 25 C12 25.66 12 26.32 12 27 C12.99 27.33 13.98 27.66 15 28 C15 29.32 15 30.64 15 32 C9.74614435 31.34326804 7.96356011 29.34881026 4.7109375 25.37890625 C0.09194191 18.95660416 -2.56062262 12.9087928 -3 5 C-2.01 5.495 -2.01 5.495 -1 6 C-1.33 6.66 -1.66 7.32 -2 8 C-1.34 8 -0.68 8 0 8 C0 5.36 0 2.72 0 0 Z " fill="#AB7710" transform="translate(128,318)"/>
<path d="M0 0 C1.875 1.125 1.875 1.125 3 3 C3.38976435 6.11811483 3.50422245 8.11019567 1.9375 10.875 C-1.06732099 12.61973477 -3.60810131 12.30835443 -7 12 C-9.32528287 9.67471713 -9.29511025 9.15334102 -9.3125 6 C-9.32925781 5.29875 -9.34601563 4.5975 -9.36328125 3.875 C-9.24339844 3.25625 -9.12351563 2.6375 -9 2 C-5.53076119 -0.31282587 -4.07794425 -0.42478586 0 0 Z " fill="#B68617" transform="translate(210,111)"/>
<path d="M0 0 C0 0.99 0 1.98 0 3 C-2.06953873 4.72814037 -4.09060639 6.24149797 -6.3125 7.75 C-6.94389893 8.18739502 -7.57529785 8.62479004 -8.22583008 9.07543945 C-10.14275764 10.39548518 -12.07031929 11.69869223 -14 13 C-15.08023437 13.74121094 -16.16046875 14.48242188 -17.2734375 15.24609375 C-22.76258461 18.90307246 -22.76258461 18.90307246 -25 20 C-25.99 19.67 -26.98 19.34 -28 19 C-27.34 18.67 -26.68 18.34 -26 18 C-26 17.34 -26 16.68 -26 16 C-25.34 16 -24.68 16 -24 16 C-24 15.34 -24 14.68 -24 14 C-21 12 -21 12 -18 12 C-18 11.34 -18 10.68 -18 10 C-15.92613995 8.38765517 -13.86260139 6.90066597 -11.6875 5.4375 C-10.79514648 4.8197168 -10.79514648 4.8197168 -9.88476562 4.18945312 C-3.74800532 0 -3.74800532 0 0 0 Z " fill="#AE811C" transform="translate(294,303)"/>
<path d="M0 0 C-1.12451727 2.9719385 -2.22293791 5.33440687 -4 8 C-4.66 8 -5.32 8 -6 8 C-6 8.66 -6 9.32 -6 10 C-6.66 10 -7.32 10 -8 10 C-8.226875 10.515625 -8.45375 11.03125 -8.6875 11.5625 C-10.4975553 14.92403127 -12.73996404 17.92911144 -15 21 C-15.433125 20.54625 -15.86625 20.0925 -16.3125 19.625 C-18.10798342 17.79975666 -18.10798342 17.79975666 -21 16 C-18.71336873 13.99397361 -16.42114438 11.99508435 -14.125 10 C-13.14853516 9.14148438 -13.14853516 9.14148438 -12.15234375 8.265625 C-11.52714844 7.72421875 -10.90195312 7.1828125 -10.2578125 6.625 C-9.6817627 6.12226563 -9.10571289 5.61953125 -8.51220703 5.1015625 C-7 4 -7 4 -5 4 C-5 3.34 -5 2.68 -5 2 C-2 0 -2 0 0 0 Z " fill="#C18C20" transform="translate(316,164)"/>
<path d="M0 0 C0.495 0.99 0.495 0.99 1 2 C-3.32591422 3.35844258 -7.6596611 4.68838663 -12 6 C-13.13501953 6.35191406 -13.13501953 6.35191406 -14.29296875 6.7109375 C-19.9197935 8.31197217 -26.7961373 9.41667398 -32.296875 6.984375 C-33.13992187 6.49710937 -33.13992187 6.49710937 -34 6 C-32.48638249 4.48638249 -31.05709122 4.81134924 -28.9375 4.6875 C-23.37173164 4.20630965 -18.15992865 2.87773423 -12.79858398 1.37182617 C-8.42659366 0.1891363 -4.52057169 -0.18176099 0 0 Z " fill="#B98C23" transform="translate(212,349)"/>
<path d="M0 0 C0.33 0 0.66 0 1 0 C1 1.65 1 3.3 1 5 C1.99 5.33 2.98 5.66 4 6 C3.21086057 8.08429193 2.41859037 10.16739869 1.625 12.25 C1.18414062 13.41015625 0.74328125 14.5703125 0.2890625 15.765625 C-0.70590855 18.26209781 -1.74410046 20.62904947 -3 23 C-4.98 23 -6.96 23 -9 23 C-8.09409469 20.00354398 -7.22053461 17.35477307 -5.5625 14.6875 C-3.85515652 11.75086922 -2.84276939 8.92041428 -1.8125 5.6875 C-1.46832031 4.61886719 -1.12414062 3.55023438 -0.76953125 2.44921875 C-0.51558594 1.64097656 -0.26164062 0.83273438 0 0 Z " fill="#B88219" transform="translate(376,193)"/>
<path d="M0 0 C0.33 1.32 0.66 2.64 1 4 C-2.5146558 6.93858882 -6.09095107 9.34550163 -10.0625 11.625 C-11.59583984 12.51058594 -11.59583984 12.51058594 -13.16015625 13.4140625 C-14.09730469 13.93742187 -15.03445312 14.46078125 -16 15 C-16.69996094 15.39960938 -17.39992187 15.79921875 -18.12109375 16.2109375 C-20 17 -20 17 -24 17 C-24 16.01 -24 15.02 -24 14 C-22.35 13.67 -20.7 13.34 -19 13 C-19 12.34 -19 11.68 -19 11 C-18.29875 10.62488281 -17.5975 10.24976563 -16.875 9.86328125 C-11.11651706 6.75714303 -5.50699874 3.53279165 0 0 Z " fill="#A77D24" transform="translate(267,319)"/>
<path d="M0 0 C0.33 0.99 0.66 1.98 1 3 C1.99 3.33 2.98 3.66 4 4 C3.34 4 2.68 4 2 4 C2 4.66 2 5.32 2 6 C1.34 6 0.68 6 0 6 C0 6.66 0 7.32 0 8 C-1.609375 9.5859375 -1.609375 9.5859375 -3.75 11.375 C-6.06903702 13.33757727 -8.25219284 15.2588295 -10.375 17.4375 C-12 19 -12 19 -14 19 C-14 18.34 -14 17.68 -14 17 C-14.99 16.67 -15.98 16.34 -17 16 C-16.52691406 15.59910156 -16.05382812 15.19820313 -15.56640625 14.78515625 C-10.11819815 10.10160893 -5.02642997 5.13114726 0 0 Z " fill="#A17319" transform="translate(328,269)"/>
<path d="M0 0 C0 0.66 0 1.32 0 2 C-1.13695312 2.30292969 -2.27390625 2.60585937 -3.4453125 2.91796875 C-13.14202767 5.53656658 -22.60183893 8.44924783 -32 12 C-32 11.34 -32 10.68 -32 10 C-31.34 10 -30.68 10 -30 10 C-30 9.34 -30 8.68 -30 8 C-30.66 7.67 -31.32 7.34 -32 7 C-25.26126833 4.48573837 -18.56237787 2.56285717 -11.5 1.25 C-10.47712891 1.05893677 -10.47712891 1.05893677 -9.43359375 0.86401367 C-6.21009913 0.29245219 -3.28903488 0 0 0 Z " fill="#9E7B1D" transform="translate(324,140)"/>
<path d="M0 0 C0.66 0.66 1.32 1.32 2 2 C3.65694085 2.37872934 5.32656552 2.70250054 7 3 C9.33762223 3.65146849 11.67190457 4.31526605 14 5 C14 5.33 14 5.66 14 6 C3.51074452 6.33358056 -6.60886221 5.30618118 -17 4 C-17.33 3.01 -17.66 2.02 -18 1 C-15.93769732 0.8309093 -13.8751477 0.66482867 -11.8125 0.5 C-10.08966797 0.36078125 -10.08966797 0.36078125 -8.33203125 0.21875 C-2.40129174 -0.17060687 -2.40129174 -0.17060687 0 0 Z " fill="#B57C18" transform="translate(138,226)"/>
<path d="M0 0 C2.25245881 2.68841859 3.88213958 4.64641875 5 8 C5.66 8 6.32 8 7 8 C9 11 9 11 9 14 C7.3203125 14.7734375 7.3203125 14.7734375 5 15 C2.4921875 13.1640625 2.4921875 13.1640625 -0.125 10.625 C-3.29322361 7.43315621 -3.29322361 7.43315621 -7 5 C-7 4.34 -7 3.68 -7 3 C-7.66 2.67 -8.32 2.34 -9 2 C-7.68 2 -6.36 2 -5 2 C-5 2.66 -5 3.32 -5 4 C-3.68 4 -2.36 4 -1 4 C-0.67 2.68 -0.34 1.36 0 0 Z " fill="#A37114" transform="translate(296,270)"/>
<path d="M0 0 C2 0 4 0 6 0 C6 0.99 6 1.98 6 3 C9.44809907 4.14936636 12.69776193 4.33248236 16.29296875 4.53515625 C17.35201164 4.59962196 17.35201164 4.59962196 18.43244934 4.66539001 C20.68392361 4.80156507 22.93568444 4.93210266 25.1875 5.0625 C26.71551707 5.15392536 28.24351221 5.24571787 29.77148438 5.33789062 C33.51408204 5.5628524 37.25694655 5.78275934 41 6 C41 6.33 41 6.66 41 7 C28.79 7 16.58 7 4 7 C3.67 6.01 3.34 5.02 3 4 C2.01 4 1.02 4 0 4 C0 2.68 0 1.36 0 0 Z " fill="#B98A23" transform="translate(266,216)"/>
<path d="M0 0 C1.32 0 2.64 0 4 0 C2.40376856 4.39383706 0.21975667 8.28995807 -2.125 12.3125 C-2.49753906 12.95767578 -2.87007812 13.60285156 -3.25390625 14.26757812 C-4.16632213 15.84675945 -5.08275509 17.42361864 -6 19 C-6.99 17.68 -7.98 16.36 -9 15 C-8.21085079 13.39459341 -7.41858235 11.79071984 -6.625 10.1875 C-6.18414062 9.29417969 -5.74328125 8.40085938 -5.2890625 7.48046875 C-4 5 -4 5 -2 2 C-1.34 2 -0.68 2 0 2 C0 1.34 0 0.68 0 0 Z " fill="#AD7515" transform="translate(151,246)"/>
<path d="M0 0 C0.99 0 1.98 0 3 0 C3.33 2.97 3.66 5.94 4 9 C2.824375 9.0928125 2.824375 9.0928125 1.625 9.1875 C0.75875 9.455625 -0.1075 9.72375 -1 10 C-2.37466625 12.47636012 -2.37466625 12.47636012 -3 15 C-5.64 14.34 -8.28 13.68 -11 13 C-11 12.34 -11 11.68 -11 11 C-9.741875 10.67 -8.48375 10.34 -7.1875 10 C-4.49584383 9.02338139 -3.29976478 8.49505128 -1.80078125 6.01953125 C-0.87522247 3.57347894 -0.87522247 3.57347894 0 0 Z " fill="#D49716" transform="translate(337,295)"/>
<path d="M0 0 C0.125 7.625 0.125 7.625 -1 11 C-1.66 11 -2.32 11 -3 11 C-2.67 11.99 -2.34 12.98 -2 14 C-2.99 15.485 -2.99 15.485 -4 17 C-3.67 17.33 -3.34 17.66 -3 18 C-3.99 18.33 -4.98 18.66 -6 19 C-6 12.73 -6 6.46 -6 0 C-3.50907189 -1.24546405 -2.58919267 -0.7767578 0 0 Z " fill="#C97A01" transform="translate(253,302)"/>
<path d="M0 0 C0.33 0.66 0.66 1.32 1 2 C1.66 2 2.32 2 3 2 C4.79083852 4.30166787 6.47259242 6.60238901 8.125 9 C8.82689453 10.00160156 8.82689453 10.00160156 9.54296875 11.0234375 C10.70126236 12.67814266 11.85139765 14.33855307 13 16 C12.34 16.33 11.68 16.66 11 17 C11 16.34 11 15.68 11 15 C10.34 15 9.68 15 9 15 C9 14.34 9 13.68 9 13 C6.50447516 13.78130071 6.50447516 13.78130071 4 15 C3.67 15.99 3.34 16.98 3 18 C1.50702788 15.01405576 1.88244772 12.29146376 2 9 C2.33 8.34 2.66 7.68 3 7 C2.34 7 1.68 7 1 7 C0.67 4.69 0.34 2.38 0 0 Z " fill="#B97F0F" transform="translate(272,240)"/>
<path d="M0 0 C2.96175123 0.61277612 4.38058783 1.25372522 7 3 C7 3.66 7 4.32 7 5 C7.556875 5.2475 8.11375 5.495 8.6875 5.75 C11.39971127 7.21606015 13.63587365 9.02989471 16 11 C15.67 11.99 15.34 12.98 15 14 C12.9375 14.6875 12.9375 14.6875 11 15 C8 11.25 8 11.25 8 9 C7.34 9 6.68 9 6 9 C6 8.34 6 7.68 6 7 C5.34 7 4.68 7 4 7 C0 2.52941176 0 2.52941176 0 0 Z " fill="#B8811C" transform="translate(184,165)"/>
<path d="M0 0 C1.32 0.33 2.64 0.66 4 1 C4.33 1.66 4.66 2.32 5 3 C4.01 2.67 3.02 2.34 2 2 C1.97494385 2.71542969 1.9498877 3.43085938 1.92407227 4.16796875 C1.80720848 7.4454547 1.68489577 10.72271616 1.5625 14 C1.50352539 15.68802734 1.50352539 15.68802734 1.44335938 17.41015625 C1.21827453 23.33161908 0.85527916 29.13522862 0 35 C-0.33 35 -0.66 35 -1 35 C-1.77528479 31.57426063 -2.11918778 28.42760755 -2.09765625 24.91796875 C-2.09443359 23.98662109 -2.09121094 23.05527344 -2.08789062 22.09570312 C-2.07951172 21.13599609 -2.07113281 20.17628906 -2.0625 19.1875 C-2.05798828 18.20845703 -2.05347656 17.22941406 -2.04882812 16.22070312 C-2.03708684 13.81373889 -2.02066419 11.40690143 -2 9 C-1.67 9 -1.34 9 -1 9 C-0.67 6.03 -0.34 3.06 0 0 Z " fill="#926313" transform="translate(257,247)"/>
<path d="M0 0 C1.69752187 0.25245197 3.38471545 0.57645775 5.0625 0.9375 C5.98160156 1.13214844 6.90070313 1.32679688 7.84765625 1.52734375 C8.91306641 1.76130859 8.91306641 1.76130859 10 2 C8.36777935 3.68337286 6.89733329 5.06844447 4.9375 6.375 C2.58744668 8.34601246 1.93471892 10.11795 1 13 C0.34 13 -0.32 13 -1 13 C-1.12375 11.865625 -1.2475 10.73125 -1.375 9.5625 C-1.58125 8.386875 -1.7875 7.21125 -2 6 C-2.66 5.67 -3.32 5.34 -4 5 C-3.34 5 -2.68 5 -2 5 C-1.7834375 4.0409375 -1.7834375 4.0409375 -1.5625 3.0625 C-1 1 -1 1 0 0 Z " fill="#BF8C13" transform="translate(155,314)"/>
<path d="M0 0 C-0.14111883 2.75031587 -0.28771165 5.50015418 -0.4375 8.25 C-0.49647461 9.41595703 -0.49647461 9.41595703 -0.55664062 10.60546875 C-0.59853516 11.35957031 -0.64042969 12.11367188 -0.68359375 12.890625 C-0.72025146 13.58188477 -0.75690918 14.27314453 -0.79467773 14.98535156 C-1.00675524 17.06628329 -1.44508677 18.98572422 -2 21 C-2.66 21 -3.32 21 -4 21 C-4.96644969 16.90817672 -5.1968898 13.0126317 -5.25 8.8125 C-5.27578125 7.58144531 -5.3015625 6.35039062 -5.328125 5.08203125 C-5.21984375 4.06496094 -5.1115625 3.04789062 -5 2 C-2 0 -2 0 0 0 Z " fill="#B78B1F" transform="translate(253,341)"/>
<path d="M0 0 C0.66 0 1.32 0 2 0 C3.20514375 9.33986409 3.09213655 18.60207216 3 28 C2.01 27.67 1.02 27.34 0 27 C0 18.09 0 9.18 0 0 Z " fill="#9B6A16" transform="translate(255,170)"/>
<path d="M0 0 C3.3 0 6.6 0 10 0 C9.52188823 1.77111844 9.0424722 3.54188483 8.5625 5.3125 C8.29566406 6.29863281 8.02882813 7.28476563 7.75390625 8.30078125 C7.21920575 10.21517526 6.62855462 12.11433615 6 14 C5.34 14 4.68 14 4 14 C3.5196682 12.41701974 3.04078388 10.83360022 2.5625 9.25 C2.29566406 8.36828125 2.02882813 7.4865625 1.75390625 6.578125 C1.11697887 4.40003136 0.55038855 2.20155419 0 0 Z " fill="#B8800D" transform="translate(357,140)"/>
<path d="M0 0 C0.33 0.99 0.66 1.98 1 3 C2.32 2.34 3.64 1.68 5 1 C7 2.6875 7 2.6875 9 5 C9.1875 7.625 9.1875 7.625 9 10 C9.33 10.66 9.66 11.32 10 12 C7.525 13.485 7.525 13.485 5 15 C4.375 12.1875 4.375 12.1875 4 9 C4.66 8.01 5.32 7.02 6 6 C4.329375 6.309375 4.329375 6.309375 2.625 6.625 C1.42875 6.74875 0.2325 6.8725 -1 7 C-1.66 6.34 -2.32 5.68 -3 5 C-2.01 3.35 -1.02 1.7 0 0 Z " fill="#C18208" transform="translate(223,244)"/>
<path d="M0 0 C1.2065625 0.0309375 1.2065625 0.0309375 2.4375 0.0625 C2.4375 0.7225 2.4375 1.3825 2.4375 2.0625 C3.0975 2.3925 3.7575 2.7225 4.4375 3.0625 C3.4375 4.0625 3.4375 4.0625 0.375 4.125 C-0.594375 4.104375 -1.56375 4.08375 -2.5625 4.0625 C-2.5625 5.7125 -2.5625 7.3625 -2.5625 9.0625 C-4.8725 9.3925 -7.1825 9.7225 -9.5625 10.0625 C-9.8925 8.7425 -10.2225 7.4225 -10.5625 6.0625 C-9.9025 6.0625 -9.2425 6.0625 -8.5625 6.0625 C-8.5625 5.0725 -8.5625 4.0825 -8.5625 3.0625 C-7.9025 3.0625 -7.2425 3.0625 -6.5625 3.0625 C-6.5625 3.7225 -6.5625 4.3825 -6.5625 5.0625 C-5.9025 5.0625 -5.2425 5.0625 -4.5625 5.0625 C-4.418125 4.423125 -4.27375 3.78375 -4.125 3.125 C-3.30589691 0.12162199 -3.19313651 0.07788138 0 0 Z " fill="#D79105" transform="translate(370.5625,130.9375)"/>
<path d="M0 0 C0.33 0 0.66 0 1 0 C1.144375 1.134375 1.28875 2.26875 1.4375 3.4375 C1.61171478 6.80777201 1.61171478 6.80777201 3 8 C3.07319621 10.69654854 3.09242537 13.36691458 3.0625 16.0625 C3.05798828 16.82111328 3.05347656 17.57972656 3.04882812 18.36132812 C3.0370068 20.24091871 3.01907078 22.12046899 3 24 C2.34 24 1.68 24 1 24 C-2.26206427 16.66035538 -1.71534783 7.71906522 0 0 Z " fill="#BA8115" transform="translate(125,302)"/>
<path d="M0 0 C-1.5277867 3.43752007 -3.50181056 6.18953688 -6 9 C-6.66 9 -7.32 9 -8 9 C-8.226875 9.639375 -8.45375 10.27875 -8.6875 10.9375 C-10 13 -10 13 -12.625 13.75 C-13.40875 13.8325 -14.1925 13.915 -15 14 C-15 13.01 -15 12.02 -15 11 C-14.34 11 -13.68 11 -13 11 C-13 10.34 -13 9.68 -13 9 C-12.34 9 -11.68 9 -11 9 C-11 8.34 -11 7.68 -11 7 C-10.34 7 -9.68 7 -9 7 C-9 6.34 -9 5.68 -9 5 C-8.34 5 -7.68 5 -7 5 C-7 4.34 -7 3.68 -7 3 C-6.34 3 -5.68 3 -5 3 C-5 2.34 -5 1.68 -5 1 C-3 0 -3 0 0 0 Z " fill="#957321" transform="translate(189,198)"/>
<path d="M0 0 C0.99 0.33 1.98 0.66 3 1 C3 1.66 3 2.32 3 3 C3.66 3 4.32 3 5 3 C7.55259904 8.6157179 8.64431869 13.97083146 7 20 C6.01 20.33 5.02 20.66 4 21 C3.87882812 20.07058594 3.75765625 19.14117187 3.6328125 18.18359375 C2.38814199 8.96381236 2.38814199 8.96381236 0 0 Z " fill="#9E7921" transform="translate(376,146)"/>
<path d="M0 0 C0.66 0.33 1.32 0.66 2 1 C1.01 1.33 0.02 1.66 -1 2 C-0.67 2.99 -0.34 3.98 0 5 C-6.7988471 7.9120062 -11.68870684 9.65538713 -19 8 C-15.23208666 6.01943017 -11.31356945 4.41584484 -7.375 2.8125 C-6.694375 2.52697266 -6.01375 2.24144531 -5.3125 1.94726562 C-3.56506687 1.23758676 -1.78396863 0.61206418 0 0 Z " fill="#AB8022" transform="translate(226,341)"/>
<path d="M0 0 C0.680625 0.00644531 1.36125 0.01289063 2.0625 0.01953125 C4 0.1875 4 0.1875 7 1.1875 C8.66400285 1.31240562 10.33192284 1.3885884 12 1.43359375 C12.969375 1.46646484 13.93875 1.49933594 14.9375 1.53320312 C16.97905341 1.59439765 19.02072753 1.65168994 21.0625 1.70507812 C22.5165625 1.75631836 22.5165625 1.75631836 24 1.80859375 C25.3303125 1.84617798 25.3303125 1.84617798 26.6875 1.88452148 C29 2.1875 29 2.1875 32 4.1875 C27.89218356 4.06804877 23.78454382 3.94374038 19.67700195 3.81518555 C18.28348651 3.77222646 16.8899315 3.73052945 15.49633789 3.69018555 C7.95520089 3.47101364 0.48623155 3.17405765 -7 2.1875 C-3.97455666 0.17053778 -3.38932618 -0.07061096 0 0 Z " fill="#9A6D1A" transform="translate(165,230.8125)"/>
<path d="M0 0 C0.66 0 1.32 0 2 0 C2.99 3.63 3.98 7.26 5 11 C3.02 11.99 3.02 11.99 1 13 C1 12.34 1 11.68 1 11 C-0.98 11.99 -0.98 11.99 -3 13 C-2.343621 8.51474352 -1.29925791 4.33085971 0 0 Z " fill="#C08512" transform="translate(361,112)"/>
<path d="M0 0 C0.99 0 1.98 0 3 0 C3 0.66 3 1.32 3 2 C0.75932274 3.66644821 -1.46320802 5.18997102 -3.8125 6.6875 C-4.77639648 7.33041992 -4.77639648 7.33041992 -5.75976562 7.98632812 C-7.45423239 9.07675699 -9.22451901 10.04715165 -11 11 C-11.99 10.67 -12.98 10.34 -14 10 C-13.34 9.67 -12.68 9.34 -12 9 C-12 8.34 -12 7.68 -12 7 C-11.34 7 -10.68 7 -10 7 C-10 6.34 -10 5.68 -10 5 C-7 3 -7 3 -4 3 C-4 2.34 -4 1.68 -4 1 C-2.68 1.33 -1.36 1.66 0 2 C0 1.34 0 0.68 0 0 Z " fill="#B78B26" transform="translate(280,312)"/>
<path d="M0 0 C3.59391114 1.33488128 6.75490696 2.96022723 10 5 C9.1875 6.9375 9.1875 6.9375 8 9 C7.01 9.33 6.02 9.66 5 10 C-0.73529412 4.70588235 -0.73529412 4.70588235 -1 1 C-0.67 0.67 -0.34 0.34 0 0 Z " fill="#CA7E02" transform="translate(204,183)"/>
<path d="M0 0 C2.41674224 -0.02705308 4.8331794 -0.04686438 7.25 -0.0625 C7.93191406 -0.07087891 8.61382812 -0.07925781 9.31640625 -0.08789062 C12.69342554 -0.10428392 15.77291639 -0.05628768 19 1 C18.67 1.99 18.34 2.98 18 4 C13.05 4.33 8.1 4.66 3 5 C3 4.01 3 3.02 3 2 C2.01 1.34 1.02 0.68 0 0 Z " fill="#91691C" transform="translate(362,226)"/>
<path d="M0 0 C0.1232977 5.30180097 -0.67696194 9.89685321 -2 15 C-7.75 13.25 -7.75 13.25 -10 11 C-6.535 10.505 -6.535 10.505 -3 10 C-3 8.68 -3 7.36 -3 6 C-4.32 5.67 -5.64 5.34 -7 5 C-1.125 0 -1.125 0 0 0 Z " fill="#A4760F" transform="translate(358,124)"/>
<path d="M0 0 C0.66 0 1.32 0 2 0 C3.23076923 5.41538462 3.23076923 5.41538462 2.0625 8.375 C1.711875 8.91125 1.36125 9.4475 1 10 C0.34 10 -0.32 10 -1 10 C-1.33 10.66 -1.66 11.32 -2 12 C-2.66 11.67 -3.32 11.34 -4 11 C-4.33 11.99 -4.66 12.98 -5 14 C-5.33 13.34 -5.66 12.68 -6 12 C-4.78515625 9.1796875 -4.78515625 9.1796875 -3.0625 5.875 C-2.49660156 4.77929688 -1.93070313 3.68359375 -1.34765625 2.5546875 C-0.90292969 1.71164062 -0.45820313 0.86859375 0 0 Z " fill="#C0891E" transform="translate(141,261)"/>
<path d="M0 0 C0.33 0 0.66 0 1 0 C0.63393708 7.19923737 0.63393708 7.19923737 -2.375 11 C-5 13 -5 13 -8 13 C-6.42903279 7.97290493 -3.38006951 3.97133531 0 0 Z " fill="#B2790F" transform="translate(219,250)"/>
<path d="M0 0 C2.97 0.33 5.94 0.66 9 1 C8.67 1.99 8.34 2.98 8 4 C4.8125 5.0625 4.8125 5.0625 1 6 C-1.00361307 6.65572791 -3.00491933 7.31875294 -5 8 C-5 6.68 -5 5.36 -5 4 C-3.02 3.67 -1.04 3.34 1 3 C0.67 2.01 0.34 1.02 0 0 Z " fill="#AE8521" transform="translate(373,131)"/>
<path d="M0 0 C0.33 1.32 0.66 2.64 1 4 C-2.15882829 6.7075671 -4.92604733 8.95539675 -9 10 C-10.32 9.34 -11.64 8.68 -13 8 C-8.71 5.36 -4.42 2.72 0 0 Z " fill="#8A6519" transform="translate(267,319)"/>
<path d="M0 0 C0.33 0 0.66 0 1 0 C1 3.3 1 6.6 1 10 C-0.65 9.67 -2.3 9.34 -4 9 C-4.99 10.485 -4.99 10.485 -6 12 C-7.4606285 9.35261084 -8 8.10551666 -8 5 C-8.3062434 3.66018514 -8.63451555 2.32488113 -9 1 C-8.34 1 -7.68 1 -7 1 C-7 1.66 -7 2.32 -7 3 C-6.34 3 -5.68 3 -5 3 C-5 3.66 -5 4.32 -5 5 C-3.68 5.66 -2.36 6.32 -1 7 C-0.67 4.69 -0.34 2.38 0 0 Z " fill="#A57510" transform="translate(241,202)"/>
<path d="M0 0 C0.763125 0.20625 1.52625 0.4125 2.3125 0.625 C1.9825 2.605 1.6525 4.585 1.3125 6.625 C-0.6675 6.625 -2.6475 6.625 -4.6875 6.625 C-5.0175 4.975 -5.3475 3.325 -5.6875 1.625 C-2.6875 -0.375 -2.6875 -0.375 0 0 Z " fill="#B48721" transform="translate(327.6875,120.375)"/>
<path d="M0 0 C0.66 0.99 1.32 1.98 2 3 C-0.31 2.67 -2.62 2.34 -5 2 C-4.67 2.99 -4.34 3.98 -4 5 C-4.66 5 -5.32 5 -6 5 C-6 7.31 -6 9.62 -6 12 C-9 10 -9 10 -9.3984375 8.125 C-9.39070312 7.42375 -9.38296875 6.7225 -9.375 6 C-9.38273438 5.29875 -9.39046875 4.5975 -9.3984375 3.875 C-8.40209723 -0.8136601 -3.84416187 -0.40895339 0 0 Z " fill="#A3791A" transform="translate(210,111)"/>
<path d="M0 0 C0.99 0.33 1.98 0.66 3 1 C3.05416188 2.60379341 3.09286638 4.20811406 3.125 5.8125 C3.14820313 6.70582031 3.17140625 7.59914063 3.1953125 8.51953125 C3 11 3 11 1 14 C0.34 14 -0.32 14 -1 14 C-1.027193 12.41676312 -1.04648306 10.83338938 -1.0625 9.25 C-1.07410156 8.36828125 -1.08570313 7.4865625 -1.09765625 6.578125 C-1.00826198 4.2181162 -0.66912821 2.25501476 0 0 Z " fill="#9A6A1B" transform="translate(249,98)"/>
<path d="M0 0 C1.98 0 3.96 0 6 0 C7.125 4.75 7.125 4.75 6 7 C4.02 7 2.04 7 0 7 C0 4.69 0 2.38 0 0 Z " fill="#A9862B" transform="translate(162,270)"/>
<path d="M0 0 C0.99 0 1.98 0 3 0 C3.92470553 4.71599818 4.22923777 7.67265609 2 12 C1.01 12 0.02 12 -1 12 C-1.14285714 3.42857143 -1.14285714 3.42857143 0 0 Z " fill="#BD8116" transform="translate(378,186)"/>
<path d="M0 0 C0.33 0.66 0.66 1.32 1 2 C0.67 2.66 0.34 3.32 0 4 C0.99 4 1.98 4 3 4 C1.70700306 6.88437779 0.34058637 8.87219421 -2 11 C-2.66 10.01 -3.32 9.02 -4 8 C-4.99 7.34 -5.98 6.68 -7 6 C-4.69 4.02 -2.38 2.04 0 0 Z " fill="#A47014" transform="translate(302,174)"/>
<path d="M0 0 C0.66 0.33 1.32 0.66 2 1 C2 1.66 2 2.32 2 3 C2.66 3 3.32 3 4 3 C4 3.66 4 4.32 4 5 C4.99 5.33 5.98 5.66 7 6 C7 7.32 7 8.64 7 10 C4.29068581 9.84518205 2.53415961 9.51827919 0.5546875 7.59765625 C-0.67679642 6.10228292 -1.8429837 4.5537076 -3 3 C-1.68 3.33 -0.36 3.66 1 4 C0.67 2.68 0.34 1.36 0 0 Z " fill="#9F6F19" transform="translate(136,340)"/>
<path d="M0 0 C0 0.66 0 1.32 0 2 C-0.66 2 -1.32 2 -2 2 C-2.4640625 2.928125 -2.4640625 2.928125 -2.9375 3.875 C-3.625 5.25 -4.3125 6.625 -5 8 C-7.5625 8.625 -7.5625 8.625 -10 9 C-9.45276317 5.62537285 -8.9451 3.91765 -7 1 C-4.59258404 0.33796061 -2.49346035 0 0 0 Z " fill="#B17E13" transform="translate(351,250)"/>
<path d="M0 0 C2.83228413 4.2484262 3.26133399 7.39544587 2.44140625 12.4296875 C2.15136719 13.56664062 1.86132812 14.70359375 1.5625 15.875 C1.27503906 17.02742188 0.98757812 18.17984375 0.69140625 19.3671875 C0.46324219 20.23601562 0.23507813 21.10484375 0 22 C-0.33 22 -0.66 22 -1 22 C-1.09377123 14.58165418 -1.17402193 7.33763707 0 0 Z " fill="#905F15" transform="translate(245,141)"/>
<path d="M0 0 C0.33 0 0.66 0 1 0 C1 2.31 1 4.62 1 7 C1.66 7 2.32 7 3 7 C4.37432457 10.81756824 3.67975039 14.07255329 3 18 C2.34 18 1.68 18 1 18 C1 16.35 1 14.7 1 13 C0.34 13 -0.32 13 -1 13 C-0.67 8.71 -0.34 4.42 0 0 Z " fill="#9F6C17" transform="translate(380,173)"/>
<path d="M0 0 C2.125 0.375 2.125 0.375 4 1 C4.38218767 2.65614657 4.71395102 4.32457024 5 6 C4 7 4 7 1.4375 7.0625 C0.2309375 7.0315625 0.2309375 7.0315625 -1 7 C-1.625 4.625 -1.625 4.625 -2 2 C-1.34 1.34 -0.68 0.68 0 0 Z " fill="#AD8820" transform="translate(210,154)"/>
<path d="M0 0 C0.99 0 1.98 0 3 0 C3.22174933 1.45635371 3.42698698 2.91522956 3.625 4.375 C3.74101562 5.18710938 3.85703125 5.99921875 3.9765625 6.8359375 C3.98429688 7.55007812 3.99203125 8.26421875 4 9 C3.34 9.66 2.68 10.32 2 11 C1.54188325 12.97235333 1.54188325 12.97235333 1.375 15.125 C1.25125 16.40375 1.1275 17.6825 1 19 C0.67 19 0.34 19 0 19 C0 12.73 0 6.46 0 0 Z " fill="#AB7019" transform="translate(246,125)"/>
<path d="M0 0 C2.31 0.33 4.62 0.66 7 1 C7.061875 1.5775 7.12375 2.155 7.1875 2.75 C8.3134159 5.86792094 10.41794211 7.01380163 13 9 C13 9.66 13 10.32 13 11 C12.34 11 11.68 11 11 11 C11 10.34 11 9.68 11 9 C10.29875 8.814375 9.5975 8.62875 8.875 8.4375 C4.90359949 6.45179974 2.6926582 3.46066724 0 0 Z " fill="#A37316" transform="translate(263,251)"/>
<path d="M0 0 C1.65 0 3.3 0 5 0 C5 0.99 5 1.98 5 3 C5.99 2.67 6.98 2.34 8 2 C8 2.66 8 3.32 8 4 C7.01 4.33 6.02 4.66 5 5 C4.01 4.34 3.02 3.68 2 3 C1.67 3.99 1.34 4.98 1 6 C-1.0625 6.6875 -1.0625 6.6875 -3 7 C-3.66 6.01 -4.32 5.02 -5 4 C-5 4.66 -5 5.32 -5 6 C-5.66 5.67 -6.32 5.34 -7 5 C-6.67 4.34 -6.34 3.68 -6 3 C-2.9375 2.375 -2.9375 2.375 0 2 C0 1.34 0 0.68 0 0 Z " fill="#D0870B" transform="translate(282,193)"/>
<path d="M0 0 C0 0.66 0 1.32 0 2 C-0.66 2 -1.32 2 -2 2 C-2 2.66 -2 3.32 -2 4 C-5.78187881 5.83691257 -7.94568308 6.15837626 -12 5 C-12 4.34 -12 3.68 -12 3 C-10.75336669 2.49166409 -9.50250613 1.99368855 -8.25 1.5 C-7.55390625 1.2215625 -6.8578125 0.943125 -6.140625 0.65625 C-4 0 -4 0 0 0 Z " fill="#C09226" transform="translate(294,148)"/>
<path d="M0 0 C3.465 1.485 3.465 1.485 7 3 C7 3.66 7 4.32 7 5 C5.88625 5.474375 4.7725 5.94875 3.625 6.4375 C1.73289006 7.25306463 -0.15712709 8.07856355 -2 9 C-2.25 3.375 -2.25 3.375 0 0 Z " fill="#967315" transform="translate(157,130)"/>
<path d="M0 0 C0 0.99 0 1.98 0 3 C-0.556875 2.98839844 -1.11375 2.97679687 -1.6875 2.96484375 C-6.89778343 2.90323567 -11.8437951 3.25000656 -17 4 C-17.33 3.01 -17.66 2.02 -18 1 C-15.93769732 0.8309093 -13.8751477 0.66482867 -11.8125 0.5 C-10.08966797 0.36078125 -10.08966797 0.36078125 -8.33203125 0.21875 C-5.53927574 0.0354038 -2.79680188 -0.04213637 0 0 Z " fill="#A58428" transform="translate(138,226)"/>
<path d="M0 0 C0.33 1.32 0.66 2.64 1 4 C0.34 4 -0.32 4 -1 4 C-0.67 4.99 -0.34 5.98 0 7 C-0.639375 7.309375 -1.27875 7.61875 -1.9375 7.9375 C-3.93610821 8.8345163 -3.93610821 8.8345163 -5 10 C-6.99958364 10.04080783 -9.00045254 10.04254356 -11 10 C-5.35475578 4.19794344 -5.35475578 4.19794344 -2 2 C-1.34 2 -0.68 2 0 2 C0 1.34 0 0.68 0 0 Z " fill="#B07D14" transform="translate(287,186)"/>
<path d="M0 0 C1.89551022 -0.05441656 3.7914792 -0.09298035 5.6875 -0.125 C6.74324219 -0.14820313 7.79898438 -0.17140625 8.88671875 -0.1953125 C12.02251859 0.00141271 14.17645373 0.66942346 17 2 C13.65060119 4.02558881 11.13037449 4.21738987 7.25 4.125 C6.26515625 4.10695313 5.2803125 4.08890625 4.265625 4.0703125 C3.14414063 4.03550781 3.14414063 4.03550781 2 4 C2 3.67 2 3.34 2 3 C4.31 3 6.62 3 9 3 C9 2.34 9 1.68 9 1 C6.03 1 3.06 1 0 1 C0 0.67 0 0.34 0 0 Z " fill="#886517" transform="translate(166,355)"/>
<path d="M0 0 C1.32 0 2.64 0 4 0 C2.69386058 3.91841827 1.16870152 6.32640809 -2 9 C-2.66 9 -3.32 9 -4 9 C-3.125 4.25 -3.125 4.25 -2 2 C-1.34 2 -0.68 2 0 2 C0 1.34 0 0.68 0 0 Z " fill="#C88F23" transform="translate(151,246)"/>
<path d="M0 0 C0.33 0 0.66 0 1 0 C1 2.31 1 4.62 1 7 C1.66 7 2.32 7 3 7 C4.23076923 13.4 4.23076923 13.4 3.0625 16.4375 C2.711875 16.953125 2.36125 17.46875 2 18 C-0.45391569 14.31912647 -0.22802759 11.55644412 -0.125 7.3125 C-0.11597656 6.61060547 -0.10695312 5.90871094 -0.09765625 5.18554688 C-0.07413704 3.45688475 -0.03826713 1.72839855 0 0 Z " fill="#94610D" transform="translate(242,179)"/>
<path d="M0 0 C2.96175123 0.61277612 4.38058783 1.25372522 7 3 C7 3.66 7 4.32 7 5 C8.32 5.66 9.64 6.32 11 7 C8 9 8 9 6 9 C6 8.34 6 7.68 6 7 C5.34 7 4.68 7 4 7 C0 2.52941176 0 2.52941176 0 0 Z " fill="#8B6F23" transform="translate(184,165)"/>
<path d="M0 0 C3.63 0.33 7.26 0.66 11 1 C10.67 1.99 10.34 2.98 10 4 C3.25 5.125 3.25 5.125 1 4 C0.67 2.68 0.34 1.36 0 0 Z " fill="#CB7C01" transform="translate(337,226)"/>
<path d="M0 0 C2.58787727 2.58787727 2.62709152 4.42007861 3 8 C2.67 8.66 2.34 9.32 2 10 C0.02 10 -1.96 10 -4 10 C-2.8905928 6.51329166 -1.73662334 3.22515763 0 0 Z " fill="#846414" transform="translate(371,206)"/>
<path d="M0 0 C2.475 0.495 2.475 0.495 5 1 C5 1.99 5 2.98 5 4 C5.99 4 6.98 4 8 4 C8 5.65 8 7.3 8 9 C5.37812506 7.95125002 4.20628639 7.35068687 2.75 4.875 C2.5025 4.25625 2.255 3.6375 2 3 C1.34 3 0.68 3 0 3 C0 2.01 0 1.02 0 0 Z " fill="#BE8912" transform="translate(221,208)"/>
<path d="M0 0 C3.81936528 1.55603771 6.26044438 3.95604931 9 7 C9 7.66 9 8.32 9 9 C6.1875 8.875 6.1875 8.875 3 8 C1.26090967 5.27542515 0 3.27517534 0 0 Z " fill="#D28E0E" transform="translate(224,197)"/>
<path d="M0 0 C0.33 1.32 0.66 2.64 1 4 C0.195625 4.45375 -0.60875 4.9075 -1.4375 5.375 C-4.08856572 6.74725665 -4.08856572 6.74725665 -5 9 C-6.875 10.1875 -6.875 10.1875 -9 11 C-9.99 10.67 -10.98 10.34 -12 10 C-11.01 9.67 -10.02 9.34 -9 9 C-9 8.34 -9 7.68 -9 7 C-7.03125 5.2734375 -7.03125 5.2734375 -4.5 3.375 C-3.24703125 2.42753906 -3.24703125 2.42753906 -1.96875 1.4609375 C-0.99421875 0.73777344 -0.99421875 0.73777344 0 0 Z " fill="#966B14" transform="translate(275,196)"/>
<path d="M0 0 C0.66 0.33 1.32 0.66 2 1 C1.625 3.9375 1.625 3.9375 1 7 C0.01 7.495 0.01 7.495 -1 8 C-1.40729228 10.32156597 -1.74438677 12.6568787 -2 15 C-1.34 15.33 -0.68 15.66 0 16 C-0.99 16 -1.98 16 -3 16 C-3 11.05 -3 6.1 -3 1 C-2.01 1.33 -1.02 1.66 0 2 C0 1.34 0 0.68 0 0 Z " fill="#C98210" transform="translate(250,305)"/>
<path d="M0 0 C1.65 0 3.3 0 5 0 C5.12375 0.639375 5.2475 1.27875 5.375 1.9375 C5.684375 2.9584375 5.684375 2.9584375 6 4 C6.66 4.33 7.32 4.66 8 5 C6.72125 5.309375 5.4425 5.61875 4.125 5.9375 C1.89898325 6.47605244 0.05260001 6.9737 -2 8 C-2 7.01 -2 6.02 -2 5 C-1.01 5 -0.02 5 1 5 C0.67 3.35 0.34 1.7 0 0 Z " fill="#D99308" transform="translate(240,241)"/>
<path d="M0 0 C1.65 0 3.3 0 5 0 C5.33 1.65 5.66 3.3 6 5 C1.25 6.125 1.25 6.125 -1 5 C-0.67 3.35 -0.34 1.7 0 0 Z " fill="#B2871C" transform="translate(345,178)"/>
<path d="M0 0 C1.65 0.33 3.3 0.66 5 1 C5.33 1.99 5.66 2.98 6 4 C5.01 4.99 4.02 5.98 3 7 C1.68 6.34 0.36 5.68 -1 5 C-0.67 3.35 -0.34 1.7 0 0 Z " fill="#A57E22" transform="translate(134,177)"/>
<path d="M0 0 C1.32 0 2.64 0 4 0 C4 3.63 4 7.26 4 11 C3.01 10.67 2.02 10.34 1 10 C0.67 6.7 0.34 3.4 0 0 Z " fill="#B87F1C" transform="translate(125,299)"/>
<path d="M0 0 C1.2077558 3.62326739 0.54311128 4.64146369 -1 8 C-1.66 8 -2.32 8 -3 8 C-2.67 8.99 -2.34 9.98 -2 11 C-5.28976808 12.09658936 -6.71303767 11.79953138 -10 11 C-10 10.34 -10 9.68 -10 9 C-9.44570312 8.76925781 -8.89140625 8.53851563 -8.3203125 8.30078125 C-3.56768485 6.25432116 -3.56768485 6.25432116 -0.5 2.25 C-0.335 1.5075 -0.17 0.765 0 0 Z " fill="#997B1F" transform="translate(152,124)"/>
<path d="M0 0 C1.98 0.66 3.96 1.32 6 2 C6 3.65 6 5.3 6 7 C4.35 6.67 2.7 6.34 1 6 C1 5.34 1 4.68 1 4 C-0.32 3.67 -1.64 3.34 -3 3 C-2.01 2.01 -1.02 1.02 0 0 Z " fill="#CF830C" transform="translate(290,268)"/>
<path d="M0 0 C1.32 0 2.64 0 4 0 C4.33 2.64 4.66 5.28 5 8 C5.33 8 5.66 8 6 8 C6 9.98 6 11.96 6 14 C5.34 14 4.68 14 4 14 C3.5196682 12.41701974 3.04078388 10.83360022 2.5625 9.25 C2.29566406 8.36828125 2.02882813 7.4865625 1.75390625 6.578125 C1.11531506 4.39434165 0.53224167 2.21164502 0 0 Z " fill="#AD8623" transform="translate(357,140)"/>
<path d="M0 0 C1.65 0 3.3 0 5 0 C5.33 1.65 5.66 3.3 6 5 C4.1875 5.625 4.1875 5.625 2 6 C1.01 5.34 0.02 4.68 -1 4 C-0.67 2.68 -0.34 1.36 0 0 Z " fill="#A88020" transform="translate(216,307)"/>
<path d="M0 0 C1.32 0.33 2.64 0.66 4 1 C2.88333826 4.34998521 2.25305075 4.79340222 -0.5625 6.6875 C-1.20316406 7.12449219 -1.84382812 7.56148438 -2.50390625 8.01171875 C-2.99761719 8.33785156 -3.49132812 8.66398437 -4 9 C-4.33 8.34 -4.66 7.68 -5 7 C-3.6875 4.375 -3.6875 4.375 -2 2 C-1.34 2 -0.68 2 0 2 C0 1.34 0 0.68 0 0 Z " fill="#977525" transform="translate(190,287)"/>
<path d="M0 0 C0 1.32 0 2.64 0 4 C-2.31 4 -4.62 4 -7 4 C-7 2.68 -7 1.36 -7 0 C-4.3333581 -1.33332095 -2.83319697 -0.67102033 0 0 Z " fill="#CC8411" transform="translate(299,182)"/>
<path d="M0 0 C1.65 0 3.3 0 5 0 C5.38218767 1.65614657 5.71395102 3.32457024 6 5 C5 6 5 6 2.4375 6.0625 C1.2309375 6.0315625 1.2309375 6.0315625 0 6 C0 4.02 0 2.04 0 0 Z " fill="#A57E20" transform="translate(281,119)"/>
<path d="M0 0 C0 0.66 0 1.32 0 2 C0.66 2 1.32 2 2 2 C1.67 2.66 1.34 3.32 1 4 C0.34 3.67 -0.32 3.34 -1 3 C-1 3.99 -1 4.98 -1 6 C-2.65 6 -4.3 6 -6 6 C-6.33 5.34 -6.66 4.68 -7 4 C-6.67 3.01 -6.34 2.02 -6 1 C-3.90006779 0.25486277 -2.22568901 0 0 0 Z " fill="#D78E04" transform="translate(210,115)"/>
<path d="M0 0 C0.33 0 0.66 0 1 0 C1.66 4.29 2.32 8.58 3 13 C1.35 13 -0.3 13 -2 13 C-2.33 10.36 -2.66 7.72 -3 5 C-2.01 5.495 -2.01 5.495 -1 6 C-1.33 6.66 -1.66 7.32 -2 8 C-1.34 8 -0.68 8 0 8 C0 5.36 0 2.72 0 0 Z " fill="#966518" transform="translate(128,318)"/>
<path d="M0 0 C0.66 0 1.32 0 2 0 C2 0.66 2 1.32 2 2 C2.99 2.33 3.98 2.66 5 3 C0.25 7 0.25 7 -2 7 C-2 6.34 -2 5.68 -2 5 C-3.32 5.33 -4.64 5.66 -6 6 C-4 4 -2 2 0 0 Z " fill="#9B721E" transform="translate(296,298)"/>
<path d="M0 0 C1.2065625 0.0309375 1.2065625 0.0309375 2.4375 0.0625 C2.4375 1.7125 2.4375 3.3625 2.4375 5.0625 C0.7875 5.3925 -0.8625 5.7225 -2.5625 6.0625 C-2.94468767 4.40635343 -3.27645102 2.73792976 -3.5625 1.0625 C-2.5625 0.0625 -2.5625 0.0625 0 0 Z " fill="#B38622" transform="translate(360.5625,265.9375)"/>
<path d="M0 0 C2.0625 0.4375 2.0625 0.4375 4 1 C2.49776416 5.20626034 -0.28550034 6.73900021 -4 9 C-4.1875 6.125 -4.1875 6.125 -4 3 C-3.01 2.34 -2.02 1.68 -1 1 C-0.67 0.67 -0.34 0.34 0 0 Z " fill="#C08916" transform="translate(216,264)"/>
<path d="M0 0 C1.98 0 3.96 0 6 0 C6.33 1.32 6.66 2.64 7 4 C5.02 4.33 3.04 4.66 1 5 C0.67 3.35 0.34 1.7 0 0 Z " fill="#8D7323" transform="translate(268,287)"/>
<path d="M0 0 C0 1.32 0 2.64 0 4 C-0.66 4 -1.32 4 -2 4 C-2 4.66 -2 5.32 -2 6 C-3.65 6.33 -5.3 6.66 -7 7 C-6.75 4.625 -6.75 4.625 -6 2 C-3.84898936 0.54286376 -2.59713506 0 0 0 Z " fill="#BC851D" transform="translate(336,265)"/>
<path d="M0 0 C0.99 0 1.98 0 3 0 C3 0.66 3 1.32 3 2 C3.66 2 4.32 2 5 2 C4.67 3.65 4.34 5.3 4 7 C1.03 6.505 1.03 6.505 -2 6 C-1.34 4.02 -0.68 2.04 0 0 Z " fill="#CE8205" transform="translate(284,262)"/>
<path d="M0 0 C0.99 0 1.98 0 3 0 C3.625 2.8125 3.625 2.8125 4 6 C3.01 7.485 3.01 7.485 2 9 C2 8.34 2 7.68 2 7 C1.01 7 0.02 7 -1 7 C-0.67 4.69 -0.34 2.38 0 0 Z " fill="#A87512" transform="translate(127,292)"/>
<path d="M0 0 C3.96 0.33 7.92 0.66 12 1 C12 1.66 12 2.32 12 3 C8.37 3.33 4.74 3.66 1 4 C0.67 2.68 0.34 1.36 0 0 Z " fill="#D49E2A" transform="translate(163,355)"/>
<path d="M0 0 C0.88429687 -0.02578125 1.76859375 -0.0515625 2.6796875 -0.078125 C5.53464372 0.30496817 6.36495897 1.03537883 8.125 3.25 C6.54205218 3.30437607 4.95855744 3.34296271 3.375 3.375 C2.49328125 3.39820313 1.6115625 3.42140625 0.703125 3.4453125 C-1.9885858 3.24139502 -3.57404974 2.61551721 -5.875 1.25 C-4.21733202 -0.40766798 -2.27153595 0.03950497 0 0 Z " fill="#A37E1E" transform="translate(183.875,353.75)"/>
<path d="M0 0 C1.32 0 2.64 0 4 0 C4 1.98 4 3.96 4 6 C2.35 6 0.7 6 -1 6 C-1.042721 4.33388095 -1.04063832 2.66617115 -1 1 C-0.67 0.67 -0.34 0.34 0 0 Z " fill="#A27B1F" transform="translate(302,330)"/>
<path d="M0 0 C2.97 0 5.94 0 9 0 C7 4 7 4 5 5 C5 4.34 5 3.68 5 3 C3.35 3.33 1.7 3.66 0 4 C0 2.68 0 1.36 0 0 Z " fill="#D38806" transform="translate(220,250)"/>
<path d="M0 0 C0.33 0 0.66 0 1 0 C1 1.65 1 3.3 1 5 C1.99 5.33 2.98 5.66 4 6 C3.34 7.65 2.68 9.3 2 11 C1.34 10.01 0.68 9.02 0 8 C-0.33 8.66 -0.66 9.32 -1 10 C-1.66 10 -2.32 10 -3 10 C-2.01 6.7 -1.02 3.4 0 0 Z " fill="#956517" transform="translate(376,193)"/>
<path d="M0 0 C-1.44126786 3.36295835 -3.20592655 5.62927102 -6 8 C-6.99 8 -7.98 8 -9 8 C-7.47364599 4.11473526 -4.49771687 0 0 0 Z " fill="#8C792F" transform="translate(230,181)"/>
<path d="M0 0 C0.8353125 0.9590625 0.8353125 0.9590625 1.6875 1.9375 C4.22066561 4.19680987 5.68341424 4.63149047 9 5 C9 5.99 9 6.98 9 8 C5 6.66666667 1 5.33333333 -3 4 C-2.67 3.01 -2.34 2.02 -2 1 C-1.34 0.67 -0.68 0.34 0 0 Z " fill="#9F7312" transform="translate(157,310)"/>
<path d="M0 0 C0.66 0.99 1.32 1.98 2 3 C1.34 3 0.68 3 0 3 C0.33 5.31 0.66 7.62 1 10 C0.01 10 -0.98 10 -2 10 C-2.6875 8.375 -2.6875 8.375 -3 6 C-1.5625 2.75 -1.5625 2.75 0 0 Z " fill="#C18C1E" transform="translate(131,283)"/>
<path d="M0 0 C0.33 0.66 0.66 1.32 1 2 C1.66 2 2.32 2 3 2 C3.33 2.99 3.66 3.98 4 5 C0.25 7 0.25 7 -2 7 C-2.33 5.35 -2.66 3.7 -3 2 C-2.01 1.34 -1.02 0.68 0 0 Z " fill="#C27E05" transform="translate(289,189)"/>
<path d="M0 0 C3.82946843 1.45255699 5.12050295 3.42895561 7 7 C1.46153846 6.38461538 1.46153846 6.38461538 -0.875 4.4375 C-1.24625 3.963125 -1.6175 3.48875 -2 3 C-1.34 3 -0.68 3 0 3 C0 2.01 0 1.02 0 0 Z " fill="#BA851B" transform="translate(143,347)"/>
<path d="M0 0 C1.65 0.33 3.3 0.66 5 1 C4.67 2.32 4.34 3.64 4 5 C2.35 5 0.7 5 -1 5 C-0.67 3.35 -0.34 1.7 0 0 Z " fill="#B18822" transform="translate(278,344)"/>
<path d="M0 0 C0.66 0.33 1.32 0.66 2 1 C1.01 1.33 0.02 1.66 -1 2 C-0.67 2.99 -0.34 3.98 0 5 C-2.31 5.66 -4.62 6.32 -7 7 C-7 5.68 -7 4.36 -7 3 C-4.69631264 1.93347808 -2.35981813 0.93578995 0 0 Z " fill="#9C7219" transform="translate(226,341)"/>
<path d="M0 0 C0.99 0.33 1.98 0.66 3 1 C3 1.66 3 2.32 3 3 C-2.625 6 -2.625 6 -6 6 C-6 5.34 -6 4.68 -6 4 C-3.1875 1.8125 -3.1875 1.8125 0 0 Z " fill="#C39128" transform="translate(231,339)"/>
<path d="M0 0 C1.65 0.33 3.3 0.66 5 1 C4.01 1.495 4.01 1.495 3 2 C3.66 3.32 4.32 4.64 5 6 C3.125 6.625 3.125 6.625 1 7 C0.34 6.34 -0.32 5.68 -1 5 C-0.625 2.375 -0.625 2.375 0 0 Z " fill="#CD8812" transform="translate(205,269)"/>
<path d="M0 0 C1.65 0 3.3 0 5 0 C5.33 0.66 5.66 1.32 6 2 C4.68 3.32 3.36 4.64 2 6 C1.01 5.67 0.02 5.34 -1 5 C-0.67 3.35 -0.34 1.7 0 0 Z " fill="#CE850A" transform="translate(208,187)"/>
<path d="M0 0 C0.33 0.99 0.66 1.98 1 3 C2.98 2.67 4.96 2.34 7 2 C7.33 2.66 7.66 3.32 8 4 C7.34 4 6.68 4 6 4 C5.34 5.65 4.68 7.3 4 9 C3.566875 8.401875 3.13375 7.80375 2.6875 7.1875 C1.22538761 5.29216913 -0.27050227 3.6471407 -2 2 C-1.34 1.34 -0.68 0.68 0 0 Z " fill="#A2720E" transform="translate(291,183)"/>
<path d="M0 0 C0.99 0 1.98 0 3 0 C3.33 1.98 3.66 3.96 4 6 C3.360625 6.12375 2.72125 6.2475 2.0625 6.375 C1.0415625 6.684375 1.0415625 6.684375 0 7 C-0.33 7.66 -0.66 8.32 -1 9 C-1.66 8.67 -2.32 8.34 -3 8 C-2.01 5.36 -1.02 2.72 0 0 Z " fill="#7E661F" transform="translate(337,295)"/>
<path d="M0 0 C0 0.99 0 1.98 0 3 C-1.32 3 -2.64 3 -4 3 C-3.67 3.66 -3.34 4.32 -3 5 C-4.65 5 -6.3 5 -8 5 C-8.33 4.01 -8.66 3.02 -9 2 C-5.5647952 -0.29013653 -4.014669 -0.17842973 0 0 Z " fill="#CF8101" transform="translate(220,262)"/>
<path d="M0 0 C0 0.99 0 1.98 0 3 C-0.66 3 -1.32 3 -2 3 C-1.67 3.99 -1.34 4.98 -1 6 C-2.98 6.99 -2.98 6.99 -5 8 C-5.33 6.02 -5.66 4.04 -6 2 C-2.25 0 -2.25 0 0 0 Z " fill="#D69301" transform="translate(271,232)"/>
<path d="M0 0 C0.66 1.32 1.32 2.64 2 4 C1.34 4.66 0.68 5.32 0 6 C-1.98 5.34 -3.96 4.68 -6 4 C-6 3.34 -6 2.68 -6 2 C-4.02 1.34 -2.04 0.68 0 0 Z " fill="#9D7417" transform="translate(332,304)"/>
<path d="M0 0 C0.33 1.32 0.66 2.64 1 4 C0.01 4.33 -0.98 4.66 -2 5 C-2 6.32 -2 7.64 -2 9 C-2.66 9 -3.32 9 -4 9 C-4 8.34 -4 7.68 -4 7 C-4.99 6.67 -5.98 6.34 -7 6 C-4.69 4.02 -2.38 2.04 0 0 Z " fill="#91631B" transform="translate(318,279)"/>
<path d="M0 0 C1.32 1.32 2.64 2.64 4 4 C2.35 5.32 0.7 6.64 -1 8 C-1.625 5.125 -1.625 5.125 -2 2 C-1.34 1.34 -0.68 0.68 0 0 Z " fill="#B4780A" transform="translate(229,251)"/>
<path d="M0 0 C0.33 0 0.66 0 1 0 C1 2.31 1 4.62 1 7 C1.66 7 2.32 7 3 7 C2.6875 9.375 2.6875 9.375 2 12 C1.01 12.66 0.02 13.32 -1 14 C-1.33 13.01 -1.66 12.02 -2 11 C-1.34 11 -0.68 11 0 11 C0 7.37 0 3.74 0 0 Z " fill="#D79E11" transform="translate(242,201)"/>
<path d="M0 0 C0.66 0.33 1.32 0.66 2 1 C2 3.97 2 6.94 2 10 C1.34 10 0.68 10 0 10 C-0.19412181 8.52168779 -0.38012131 7.04230684 -0.5625 5.5625 C-0.66691406 4.73878906 -0.77132812 3.91507812 -0.87890625 3.06640625 C-0.91886719 2.38449219 -0.95882812 1.70257813 -1 1 C-0.67 0.67 -0.34 0.34 0 0 Z " fill="#D49219" transform="translate(126,316)"/>
<path d="M0 0 C3 1 3 1 5 4 C4.67 4.99 4.34 5.98 4 7 C3.01 7.33 2.02 7.66 1 8 C-0.35439668 5.29120665 -0.06501451 2.99066732 0 0 Z " fill="#B48124" transform="translate(127,328)"/>
<path d="M0 0 C-0.6875 1.9375 -0.6875 1.9375 -2 4 C-4.625 4.75 -4.625 4.75 -7 5 C-6.6875 3.0625 -6.6875 3.0625 -6 1 C-3 0 -3 0 0 0 Z " fill="#BB8C24" transform="translate(305,295)"/>
<path d="M0 0 C2 0 4 0 6 0 C6 0.99 6 1.98 6 3 C6.99 3.66 7.98 4.32 9 5 C5.65747276 5.07427838 3.1964086 5.06546953 0 4 C0 2.68 0 1.36 0 0 Z " fill="#AD790A" transform="translate(266,216)"/>
<path d="M0 0 C0.33 0.99 0.66 1.98 1 3 C1.99 3.33 2.98 3.66 4 4 C2.68 4.99 1.36 5.98 0 7 C-0.99 6.01 -1.98 5.02 -3 4 C-2.01 2.68 -1.02 1.36 0 0 Z " fill="#AE7F1C" transform="translate(194,282)"/>
<path d="M0 0 C0.99 0.33 1.98 0.66 3 1 C2.01 3.97 1.02 6.94 0 10 C-0.33 10 -0.66 10 -1 10 C-0.95875 9.21625 -0.9175 8.4325 -0.875 7.625 C-0.71271266 4.83883881 -0.71271266 4.83883881 -3 3 C-2.01 2.01 -1.02 1.02 0 0 Z " fill="#936816" transform="translate(137,272)"/>
<path d="M0 0 C1.33333333 0.66666667 2.66666667 1.33333333 4 2 C3.34 3.32 2.68 4.64 2 6 C1.67 5.34 1.34 4.68 1 4 C-0.65 4.33 -2.3 4.66 -4 5 C-2.68 3.35 -1.36 1.7 0 0 Z " fill="#9F731E" transform="translate(340,256)"/>
<path d="M0 0 C1.65 0.99 3.3 1.98 5 3 C4.34 3.66 3.68 4.32 3 5 C0.375 4.625 0.375 4.625 -2 4 C-2.33 4.66 -2.66 5.32 -3 6 C-3.33 5.01 -3.66 4.02 -4 3 C-3.34 3 -2.68 3 -2 3 C-1.67 2.34 -1.34 1.68 -1 1 C-0.67 0.67 -0.34 0.34 0 0 Z " fill="#99680D" transform="translate(200,177)"/>
<path d="M0 0 C-0.5625 2.375 -0.5625 2.375 -2 5 C-5.625 6.3125 -5.625 6.3125 -9 7 C-8.34 6.01 -7.68 5.02 -7 4 C-6.34 4 -5.68 4 -5 4 C-5 3.34 -5 2.68 -5 2 C-2 0 -2 0 0 0 Z " fill="#6E541D" transform="translate(316,164)"/>
<path d="M0 0 C2.35953094 2.35953094 2.49141413 3.77895617 3 7 C2.01 7 1.02 7 0 7 C-0.33 7.99 -0.66 8.98 -1 10 C-2.31223496 6.06329512 -1.24296256 3.87511856 0 0 Z " fill="#C79720" transform="translate(153,123)"/>
<path d="M0 0 C0 0.66 0 1.32 0 2 C-3 4 -3 4 -7 4 C-7 3.01 -7 2.02 -7 1 C-4.53721199 -0.231394 -2.7204945 -0.07159196 0 0 Z " fill="#BA8D24" transform="translate(250,332)"/>
<path d="M0 0 C0.99 0.33 1.98 0.66 3 1 C2.67 2.98 2.34 4.96 2 7 C1.01 7 0.02 7 -1 7 C-1.04254356 5.00045254 -1.04080783 2.99958364 -1 1 C-0.67 0.67 -0.34 0.34 0 0 Z " fill="#D19119" transform="translate(134,276)"/>
<path d="M0 0 C-1.39332574 3.36720387 -2.9789286 4.9859524 -6 7 C-5.625 4.0625 -5.625 4.0625 -5 1 C-3 0 -3 0 0 0 Z " fill="#A2862B" transform="translate(189,198)"/>
<path d="M0 0 C2 1 4 2 6 3 C4.35 4.32 2.7 5.64 1 7 C0.34 5.02 -0.32 3.04 -1 1 C-0.67 0.67 -0.34 0.34 0 0 Z " fill="#AC730A" transform="translate(284,195)"/>
<path d="M0 0 C2.97 0.99 5.94 1.98 9 3 C7.25 4.5625 7.25 4.5625 5 6 C2.75 5.6875 2.75 5.6875 1 5 C1 4.34 1 3.68 1 3 C0.67 2.01 0.34 1.02 0 0 Z " fill="#946B19" transform="translate(147,349)"/>
<path d="M0 0 C0 0.66 0 1.32 0 2 C-3.73437848 2.87867729 -7.16774573 3.08912219 -11 3 C-7.75987532 -0.24012468 -4.46544827 0 0 0 Z " fill="#97823C" transform="translate(324,140)"/>
<path d="M0 0 C0.99 0 1.98 0 3 0 C3.33 0.99 3.66 1.98 4 3 C3.34 3.66 2.68 4.32 2 5 C1.01 5 0.02 5 -1 5 C-0.67 3.35 -0.34 1.7 0 0 Z " fill="#D19309" transform="translate(164,271)"/>
<path d="M0 0 C1.32 0 2.64 0 4 0 C3.34 1.32 2.68 2.64 2 4 C1.01 3.67 0.02 3.34 -1 3 C-1.33 3.99 -1.66 4.98 -2 6 C-2.66 5.67 -3.32 5.34 -4 5 C-3.34 4.01 -2.68 3.02 -2 2 C-1.34 2 -0.68 2 0 2 C0 1.34 0 0.68 0 0 Z " fill="#987022" transform="translate(151,246)"/>
<path d="M0 0 C3.39914975 1.13304992 4.05254451 2.12518475 6 5 C5.34 6.32 4.68 7.64 4 9 C2.68 6.03 1.36 3.06 0 0 Z " fill="#917726" transform="translate(149,136)"/>
<path d="M0 0 C2.31 0 4.62 0 7 0 C7 1.98 7 3.96 7 6 C6.401875 5.38125 5.80375 4.7625 5.1875 4.125 C2.99188856 1.86323046 2.99188856 1.86323046 0 0 Z " fill="#DA9A16" transform="translate(148,135)"/>
<path d="M0 0 C2.31 0.33 4.62 0.66 7 1 C7 1.66 7 2.32 7 3 C5.02 3.33 3.04 3.66 1 4 C0.67 2.68 0.34 1.36 0 0 Z " fill="#96781B" transform="translate(344,305)"/>
<path d="M0 0 C0 0.66 0 1.32 0 2 C-2.64 2.99 -5.28 3.98 -8 5 C-7.67 3.68 -7.34 2.36 -7 1 C-2.25 0 -2.25 0 0 0 Z " fill="#C08D24" transform="translate(351,250)"/>
<path d="M0 0 C0.99 0.33 1.98 0.66 3 1 C3.33 1.99 3.66 2.98 4 4 C1.69 4.33 -0.62 4.66 -3 5 C-2.01 3.35 -1.02 1.7 0 0 Z " fill="#AA740B" transform="translate(348,246)"/>
<path d="M0 0 C0.66 0 1.32 0 2 0 C2 1.65 2 3.3 2 5 C0.68 5.33 -0.64 5.66 -2 6 C-1.34 4.02 -0.68 2.04 0 0 Z " fill="#A57A18" transform="translate(370,209)"/>
<path d="M0 0 C2.97 0.495 2.97 0.495 6 1 C5.67 1.99 5.34 2.98 5 4 C3.35 3.67 1.7 3.34 0 3 C0 2.01 0 1.02 0 0 Z " fill="#BE8A16" transform="translate(192,173)"/>
<path d="M0 0 C1.32 1.32 2.64 2.64 4 4 C2.68 4.33 1.36 4.66 0 5 C0 4.34 0 3.68 0 3 C-2.31 3.33 -4.62 3.66 -7 4 C-4.68143083 2.45428722 -2.49361571 1.20381448 0 0 Z " fill="#906619" transform="translate(281,151)"/>
<path d="M0 0 C2.31 0 4.62 0 7 0 C6 2 6 2 2.9375 3.125 C1.968125 3.41375 0.99875 3.7025 0 4 C0 2.68 0 1.36 0 0 Z " fill="#A77E14" transform="translate(368,135)"/>
<path d="M0 0 C-2.17424117 2.50037734 -3.73045798 3.43628586 -7 4 C-7.33 3.01 -7.66 2.02 -8 1 C-2.25 -1.125 -2.25 -1.125 0 0 Z " fill="#715A18" transform="translate(350,131)"/>
<path d="M0 0 C0.66 0 1.32 0 2 0 C2.33 1.65 2.66 3.3 3 5 C1.68 5.33 0.36 5.66 -1 6 C-0.67 4.02 -0.34 2.04 0 0 Z " fill="#A68225" transform="translate(361,112)"/>
<path d="M0 0 C0.99 0 1.98 0 3 0 C3.33 1.65 3.66 3.3 4 5 C1.525 4.01 1.525 4.01 -1 3 C-0.67 2.01 -0.34 1.02 0 0 Z " fill="#CE931E" transform="translate(133,339)"/>
<path d="M0 0 C0 1.98 0 3.96 0 6 C-0.99 6.33 -1.98 6.66 -3 7 C-3 5.02 -3 3.04 -3 1 C-1 0 -1 0 0 0 Z " fill="#A4832B" transform="translate(340,312)"/>
<path d="M0 0 C0.33 0 0.66 0 1 0 C1.33 3.96 1.66 7.92 2 12 C1.67 11.01 1.34 10.02 1 9 C0.34 9 -0.32 9 -1 9 C-0.67 6.03 -0.34 3.06 0 0 Z " fill="#D3931A" transform="translate(125,302)"/>
<path d="M0 0 C0 1.32 0 2.64 0 4 C-0.99 4.33 -1.98 4.66 -3 5 C-3.66 3.68 -4.32 2.36 -5 1 C-3 0 -3 0 0 0 Z " fill="#B8841A" transform="translate(314,286)"/>
<path d="M0 0 C0.66 0 1.32 0 2 0 C1.6875 2.375 1.6875 2.375 1 5 C0.01 5.66 -0.98 6.32 -2 7 C-2.66 6.34 -3.32 5.68 -4 5 C-2.68 4.67 -1.36 4.34 0 4 C0 2.68 0 1.36 0 0 Z " fill="#C38D21" transform="translate(319,279)"/>
<path d="M0 0 C0 0.99 0 1.98 0 3 C-3.3 2.67 -6.6 2.34 -10 2 C-10 1.67 -10 1.34 -10 1 C-6.59437148 0.22157062 -3.49234244 -0.09978121 0 0 Z " fill="#A66F16" transform="translate(138,226)"/>
<path d="M0 0 C0.99 0.33 1.98 0.66 3 1 C1.72403685 3.55192629 0.62843884 3.99500868 -2 5 C-2.99 4.67 -3.98 4.34 -5 4 C-4.01 3.67 -3.02 3.34 -2 3 C-2 2.34 -2 1.68 -2 1 C-1.34 0.67 -0.68 0.34 0 0 Z " fill="#A97C1D" transform="translate(268,202)"/>
<path d="M0 0 C2.88437779 1.29299694 4.87219421 2.65941363 7 5 C6.01 5.495 6.01 5.495 5 6 C4.01 5.67 3.02 5.34 2 5 C0.8125 2.4375 0.8125 2.4375 0 0 Z " fill="#A57A1A" transform="translate(224,197)"/>
<path d="M0 0 C0.66 1.32 1.32 2.64 2 4 C1 5 1 5 -2.0625 5.0625 C-3.5165625 5.0315625 -3.5165625 5.0315625 -5 5 C-3.35 3.35 -1.7 1.7 0 0 Z " fill="#A06E11" transform="translate(281,191)"/>
<path d="M0 0 C0.99 0.33 1.98 0.66 3 1 C3 1.99 3 2.98 3 4 C1.68 4 0.36 4 -1 4 C-0.67 2.68 -0.34 1.36 0 0 Z " fill="#59561D" transform="translate(136,205)"/>
</svg>
